# Blender 5.2.1 LTS
# www.blender.org
v 0.4 0.1 -2.2
v 0.4 0.35 -2.2
v 0.2 0.35 -2.2
v 0.2 0.1 -2.2
v 0.4 0.1 -2.4
v 0.4 0.35 -2.4
v 0.4 0.35 -2.2
v 0.4 0.1 -2.2
v 0.2 0.1 -2.4
v 0.2 0.35 -2.4
v 0.4 0.35 -2.4
v 0.4 0.1 -2.4
v 0.2 0.1 -2.2
v 0.2 0.35 -2.2
v 0.2 0.35 -2.4
v 0.2 0.1 -2.4
v 0.4 0.35 -2.2
v 0.4 0.35 -2.4
v 0.2 0.35 -2.4
v 0.2 0.35 -2.2
v 0.2 0.1 -1.6
v 0.2 0.35 -1.6
v 0.2 0.35 -1.8
v 0.2 0.1 -1.8
v 0.4 0.1 -1.6
v 0.4 0.35 -1.6
v 0.2 0.35 -1.6
v 0.2 0.1 -1.6
v 0.4 0.1 -1.8
v 0.4 0.35 -1.8
v 0.4 0.35 -1.6
v 0.4 0.1 -1.6
v 0.2 0.1 -1.8
v 0.2 0.35 -1.8
v 0.4 0.35 -1.8
v 0.4 0.1 -1.8
v 0.2 0.35 -1.6
v 0.4 0.35 -1.6
v 0.4 0.35 -1.8
v 0.2 0.35 -1.8
v -0.4 0.1 -1.8
v -0.4 0.35 -1.8
v -0.2 0.35 -1.8
v -0.2 0.1 -1.8
v -0.4 0.1 -1.6
v -0.4 0.35 -1.6
v -0.4 0.35 -1.8
v -0.4 0.1 -1.8
v -0.2 0.1 -1.6
v -0.2 0.35 -1.6
v -0.4 0.35 -1.6
v -0.4 0.1 -1.6
v -0.2 0.1 -1.8
v -0.2 0.35 -1.8
v -0.2 0.35 -1.6
v -0.2 0.1 -1.6
v -0.4 0.35 -1.8
v -0.4 0.35 -1.6
v -0.2 0.35 -1.6
v -0.2 0.35 -1.8
v -0.2 0.1 -2.4
v -0.2 0.35 -2.4
v -0.2 0.35 -2.2
v -0.2 0.1 -2.2
v -0.4 0.1 -2.4
v -0.4 0.35 -2.4
v -0.2 0.35 -2.4
v -0.2 0.1 -2.4
v -0.4 0.1 -2.2
v -0.4 0.35 -2.2
v -0.4 0.35 -2.4
v -0.4 0.1 -2.4
v -0.2 0.1 -2.2
v -0.2 0.35 -2.2
v -0.4 0.35 -2.2
v -0.4 0.1 -2.2
v -0.2 0.35 -2.4
v -0.4 0.35 -2.4
v -0.4 0.35 -2.2
v -0.2 0.35 -2.2
v 0.2 0.15 -2.4
v 0.2 0.35 -2.4
v 0.2 0.35 -2.5
v 0.2 0.15 -2.5
v 0.4 0.15 -2.4
v 0.2 0.15 -2.4
v 0.2 0.15 -2.5
v 0.4 0.15 -2.5
v 0.4 0.15 -2.5
v 0.4 0.35 -2.5
v 0.4 0.35 -2.4
v 0.4 0.15 -2.4
v 0.2 0.35 -2.4
v 0.4 0.35 -2.4
v 0.4 0.35 -2.5
v 0.2 0.35 -2.5
v -0.2 0.15 -2.5
v -0.2 0.35 -2.5
v -0.2 0.35 -2.4
v -0.2 0.15 -2.4
v -0.2 0.35 -2.5
v -0.4 0.35 -2.5
v -0.4 0.35 -2.4
v -0.2 0.35 -2.4
v -0.4 0.15 -2.4
v -0.4 0.35 -2.4
v -0.4 0.35 -2.5
v -0.4 0.15 -2.5
v -0.4 0.15 -2.5
v -0.2 0.15 -2.5
v -0.2 0.15 -2.4
v -0.4 0.15 -2.4
v -0.2 0.15 -2.5
v -0.2 0.35 -2.5
v -0.2 0.35 -2.5
v -0.2 0.15 -2.5
v -0.4 0.15 -2.5
v -0.2 0.15 -2.5
v -0.2 0.15 -2.5
v -0.4 0.15 -2.5
v -0.4 0.15 -2.5
v -0.4 0.15 -2.5
v -0.4 0.35 -2.5
v -0.4 0.35 -2.5
v -0.2 0.15 -2.5
v -0.2 0.35 -2.5
v -0.4 0.35 -2.5
v -0.4 0.15 -2.5
v -0.2 0.35 -2.5
v -0.4 0.35 -2.5
v -0.4 0.35 -2.5
v -0.2 0.35 -2.5
v 0.2 0.15 -2.5
v 0.2 0.15 -2.5
v 0.2 0.35 -2.5
v 0.2 0.35 -2.5
v 0.4 0.15 -2.5
v 0.4 0.35 -2.5
v 0.2 0.35 -2.5
v 0.2 0.15 -2.5
v 0.4 0.15 -2.5
v 0.4 0.35 -2.5
v 0.4 0.35 -2.5
v 0.4 0.15 -2.5
v 0.4 0.15 -2.5
v 0.4 0.15 -2.5
v 0.2 0.15 -2.5
v 0.2 0.15 -2.5
v 0.2 0.35 -2.5
v 0.2 0.35 -2.5
v 0.4 0.35 -2.5
v 0.4 0.35 -2.5
v 0.2 0.15 -2.2
v 0.2 0.35 -2.2
v -0.2 0.35 -2.2
v -0.2 0.15 -2.2
v 0.2 0.15 -2.4
v 0.2 0.15 -2.2
v -0.2 0.15 -2.2
v -0.2 0.15 -2.4
v -0.2 0.15 -2.4
v -0.2 0.35 -2.4
v 0.2 0.35 -2.4
v 0.2 0.15 -2.4
v 0.2 0.35 -2.2
v 0.2 0.35 -2.4
v -0.2 0.35 -2.4
v -0.2 0.35 -2.2
v 0.2 0.15 -1.8
v 0.2 0.35 -1.8
v 0.2 0.35 -2.2
v 0.2 0.15 -2.2
v 0.2 0.35 -1.8
v 0.4 0.35 -1.8
v 0.4 0.35 -2.2
v 0.2 0.35 -2.2
v 0.4 0.15 -2.2
v 0.4 0.35 -2.2
v 0.4 0.35 -1.8
v 0.4 0.15 -1.8
v 0.4 0.15 -1.8
v 0.2 0.15 -1.8
v 0.2 0.15 -2.2
v 0.4 0.15 -2.2
v -0.2 0.15 -1.8
v -0.2 0.35 -1.8
v 0.2 0.35 -1.8
v 0.2 0.15 -1.8
v -0.2 0.35 -1.8
v -0.2 0.35 -1.6
v 0.2 0.35 -1.6
v 0.2 0.35 -1.8
v 0.2 0.15 -1.6
v 0.2 0.35 -1.6
v -0.2 0.35 -1.6
v -0.2 0.15 -1.6
v -0.2 0.15 -1.6
v -0.2 0.15 -1.8
v 0.2 0.15 -1.8
v 0.2 0.15 -1.6
v -0.2 0.15 -2.2
v -0.2 0.35 -2.2
v -0.2 0.35 -1.8
v -0.2 0.15 -1.8
v -0.2 0.35 -2.2
v -0.4 0.35 -2.2
v -0.4 0.35 -1.8
v -0.2 0.35 -1.8
v -0.4 0.15 -1.8
v -0.4 0.35 -1.8
v -0.4 0.35 -2.2
v -0.4 0.15 -2.2
v -0.4 0.15 -2.2
v -0.2 0.15 -2.2
v -0.2 0.15 -1.8
v -0.4 0.15 -1.8
v 0.4 0 -1.2
v 0.4 0.1 -1.2
v 0.2 0.1 -1.2
v 0.2 0 -1.2
v 0.4 0 -1.4
v 0.4 0.1 -1.4
v 0.4 0.1 -1.2
v 0.4 0 -1.2
v 0.2 0 -1.4
v 0.2 0.1 -1.4
v 0.4 0.1 -1.4
v 0.4 0 -1.4
v 0.2 0 -1.2
v 0.2 0.1 -1.2
v 0.2 0.1 -1.4
v 0.2 0 -1.4
v 0.4 0.1 -1.2
v 0.4 0.1 -1.4
v 0.2 0.1 -1.4
v 0.2 0.1 -1.2
v 0.4 0 -1.4
v 0.4 0 -1.2
v 0.2 0 -1.2
v 0.2 0 -1.4
v 0.2 0 -0.6
v 0.2 0.1 -0.6
v 0.2 0.1 -0.8
v 0.2 0 -0.8
v 0.4 0 -0.6
v 0.4 0.1 -0.6
v 0.2 0.1 -0.6
v 0.2 0 -0.6
v 0.4 0 -0.8
v 0.4 0.1 -0.8
v 0.4 0.1 -0.6
v 0.4 0 -0.6
v 0.2 0 -0.8
v 0.2 0.1 -0.8
v 0.4 0.1 -0.8
v 0.4 0 -0.8
v 0.2 0.1 -0.6
v 0.4 0.1 -0.6
v 0.4 0.1 -0.8
v 0.2 0.1 -0.8
v 0.4 0 -0.6
v 0.2 0 -0.6
v 0.2 0 -0.8
v 0.4 0 -0.8
v -0.4 0 -0.8
v -0.4 0.1 -0.8
v -0.2 0.1 -0.8
v -0.2 0 -0.8
v -0.4 0 -0.6
v -0.4 0.1 -0.6
v -0.4 0.1 -0.8
v -0.4 0 -0.8
v -0.2 0 -0.6
v -0.2 0.1 -0.6
v -0.4 0.1 -0.6
v -0.4 0 -0.6
v -0.2 0 -0.8
v -0.2 0.1 -0.8
v -0.2 0.1 -0.6
v -0.2 0 -0.6
v -0.4 0.1 -0.8
v -0.4 0.1 -0.6
v -0.2 0.1 -0.6
v -0.2 0.1 -0.8
v -0.4 0 -0.6
v -0.4 0 -0.8
v -0.2 0 -0.8
v -0.2 0 -0.6
v -0.2 0 -1.4
v -0.2 0.1 -1.4
v -0.2 0.1 -1.2
v -0.2 0 -1.2
v -0.4 0 -1.4
v -0.4 0.1 -1.4
v -0.2 0.1 -1.4
v -0.2 0 -1.4
v -0.4 0 -1.2
v -0.4 0.1 -1.2
v -0.4 0.1 -1.4
v -0.4 0 -1.4
v -0.2 0 -1.2
v -0.2 0.1 -1.2
v -0.4 0.1 -1.2
v -0.4 0 -1.2
v -0.2 0.1 -1.4
v -0.4 0.1 -1.4
v -0.4 0.1 -1.2
v -0.2 0.1 -1.2
v -0.4 0 -1.4
v -0.2 0 -1.4
v -0.2 0 -1.2
v -0.4 0 -1.2
v 0.4 0 -2.2
v 0.4 0.1 -2.2
v 0.2 0.1 -2.2
v 0.2 0 -2.2
v 0.4 0 -2.4
v 0.4 0.1 -2.4
v 0.4 0.1 -2.2
v 0.4 0 -2.2
v 0.2 0 -2.4
v 0.2 0.1 -2.4
v 0.4 0.1 -2.4
v 0.4 0 -2.4
v 0.2 0 -2.2
v 0.2 0.1 -2.2
v 0.2 0.1 -2.4
v 0.2 0 -2.4
v 0.4 0.1 -2.2
v 0.4 0.1 -2.4
v 0.2 0.1 -2.4
v 0.2 0.1 -2.2
v 0.4 0 -2.4
v 0.4 0 -2.2
v 0.2 0 -2.2
v 0.2 0 -2.4
v 0.2 0 -1.6
v 0.2 0.1 -1.6
v 0.2 0.1 -1.8
v 0.2 0 -1.8
v 0.4 0 -1.6
v 0.4 0.1 -1.6
v 0.2 0.1 -1.6
v 0.2 0 -1.6
v 0.4 0 -1.8
v 0.4 0.1 -1.8
v 0.4 0.1 -1.6
v 0.4 0 -1.6
v 0.2 0 -1.8
v 0.2 0.1 -1.8
v 0.4 0.1 -1.8
v 0.4 0 -1.8
v 0.2 0.1 -1.6
v 0.4 0.1 -1.6
v 0.4 0.1 -1.8
v 0.2 0.1 -1.8
v 0.4 0 -1.6
v 0.2 0 -1.6
v 0.2 0 -1.8
v 0.4 0 -1.8
v -0.4 0 -1.8
v -0.4 0.1 -1.8
v -0.2 0.1 -1.8
v -0.2 0 -1.8
v -0.4 0 -1.6
v -0.4 0.1 -1.6
v -0.4 0.1 -1.8
v -0.4 0 -1.8
v -0.2 0 -1.6
v -0.2 0.1 -1.6
v -0.4 0.1 -1.6
v -0.4 0 -1.6
v -0.2 0 -1.8
v -0.2 0.1 -1.8
v -0.2 0.1 -1.6
v -0.2 0 -1.6
v -0.4 0.1 -1.8
v -0.4 0.1 -1.6
v -0.2 0.1 -1.6
v -0.2 0.1 -1.8
v -0.4 0 -1.6
v -0.4 0 -1.8
v -0.2 0 -1.8
v -0.2 0 -1.6
v -0.2 0 -2.4
v -0.2 0.1 -2.4
v -0.2 0.1 -2.2
v -0.2 0 -2.2
v -0.4 0 -2.4
v -0.4 0.1 -2.4
v -0.2 0.1 -2.4
v -0.2 0 -2.4
v -0.4 0 -2.2
v -0.4 0.1 -2.2
v -0.4 0.1 -2.4
v -0.4 0 -2.4
v -0.2 0 -2.2
v -0.2 0.1 -2.2
v -0.4 0.1 -2.2
v -0.4 0 -2.2
v -0.2 0.1 -2.4
v -0.4 0.1 -2.4
v -0.4 0.1 -2.2
v -0.2 0.1 -2.2
v -0.4 0 -2.4
v -0.2 0 -2.4
v -0.2 0 -2.2
v -0.4 0 -2.2
v 0.402375 -0.221272 0.456419
v 0.402375 -0.023992 0.489291
v 0.252375 -0.023992 0.489291
v 0.252375 -0.221272 0.456419
v 0.402375 0.2713414191 -2.5
v 0.402375 0.4740986345 -2.5
v 0.402375 -0.023992 0.489291
v 0.402375 -0.221272 0.456419
v 0.252375 0.2713414191 -2.5
v 0.252375 -0.221272 0.456419
v 0.252375 -0.023992 0.489291
v 0.252375 0.4740986345 -2.5
v 0.402375 -0.023992 0.489291
v 0.402375 0.4740986345 -2.5
v 0.252375 0.4740986345 -2.5
v 0.252375 -0.023992 0.489291
v 0.402375 0.2713414191 -2.5
v 0.402375 -0.221272 0.456419
v 0.252375 -0.221272 0.456419
v 0.252375 0.2713414191 -2.5
v -0.252375 -0.023992 0.489291
v -0.402375 -0.023992 0.489291
v -0.402375 -0.221272 0.456419
v -0.252375 -0.221272 0.456419
v -0.402375 -0.023992 0.489291
v -0.402375 0.4740986345 -2.5
v -0.402375 0.2713414191 -2.5
v -0.402375 -0.221272 0.456419
v -0.252375 0.4740986345 -2.5
v -0.252375 -0.023992 0.489291
v -0.252375 -0.221272 0.456419
v -0.252375 0.2713414191 -2.5
v -0.252375 0.4740986345 -2.5
v -0.402375 0.4740986345 -2.5
v -0.402375 -0.023992 0.489291
v -0.252375 -0.023992 0.489291
v -0.252375 0.2713414191 -2.5
v -0.252375 -0.221272 0.456419
v -0.402375 -0.221272 0.456419
v -0.402375 0.2713414191 -2.5
vt 0.500247 0.687991 0
vt 0.500247 1.000491 0
vt 0.250247 1.000491 0
vt 0.250247 0.687991 0
vt 0.750247 0.687991 0
vt 0.750247 1.000491 0
vt 0.500247 1.000491 0
vt 0.500247 0.687991 0
vt 1.000247 0.687991 0
vt 1.000247 1.000491 0
vt 0.750247 1.000491 0
vt 0.750247 0.687991 0
vt 0.250247 0.687991 0
vt 0.250247 1.000491 0
vt 0.000247 1.000491 0
vt 0.000247 0.687991 0
vt 0.812331 0.00025 0
vt 0.812331 0.25025 0
vt 0.562331 0.25025 0
vt 0.562331 0.00025 0
vt 0.5 0.687528 0
vt 0.5 1.000028 0
vt 0.25 1.000028 0
vt 0.25 0.687528 0
vt 0.75 0.687528 0
vt 0.75 1.000028 0
vt 0.5 1.000028 0
vt 0.5 0.687528 0
vt 1 0.687528 0
vt 1 1.000028 0
vt 0.75 1.000028 0
vt 0.75 0.687528 0
vt 0.25 0.687528 0
vt 0.25 1.000028 0
vt 0 1.000028 0
vt 0 0.687528 0
vt 1.000221 0.000037 0
vt 1.000221 0.250037 0
vt 0.750221 0.250037 0
vt 0.750221 0.000037 0
vt 0.500417 0.686895 0
vt 0.500417 0.999395 0
vt 0.250417 0.999395 0
vt 0.250417 0.686895 0
vt 0.750417 0.686895 0
vt 0.750417 0.999395 0
vt 0.500417 0.999395 0
vt 0.500417 0.686895 0
vt 1.000417 0.686895 0
vt 1.000417 0.999395 0
vt 0.750417 0.999395 0
vt 0.750417 0.686895 0
vt 0.250417 0.686895 0
vt 0.250417 0.999395 0
vt 0.000417 0.999395 0
vt 0.000417 0.686895 0
vt 0.750566 -0.000256 0
vt 0.750566 0.249744 0
vt 0.500566 0.249744 0
vt 0.500566 -0.000256 0
vt 0.499972 0.687648 0
vt 0.499972 0.999741 0
vt 0.250298 0.999741 0
vt 0.250298 0.687648 0
vt 0.749646 0.687648 0
vt 0.749646 0.999741 0
vt 0.499972 0.999741 0
vt 0.499972 0.687648 0
vt 0.99932 0.687648 0
vt 0.99932 0.999741 0
vt 0.749646 0.999741 0
vt 0.749646 0.687648 0
vt 0.250298 0.687648 0
vt 0.250298 0.999741 0
vt 0.000625 0.999741 0
vt 0.000625 0.687648 0
vt 0.561832 0.00016 0
vt 0.561832 0.249834 0
vt 0.312159 0.249834 0
vt 0.312159 0.00016 0
vt 0.811913 0.752163 0
vt 0.811913 1.000126 0
vt 0.687932 1.000126 0
vt 0.687932 0.752163 0
vt 0.373386 0.375552 0
vt 0.373386 0.623516 0
vt 0.249404 0.623516 0
vt 0.249404 0.375552 0
vt 0.561572 0.752163 0
vt 0.561572 1.000126 0
vt 0.43759 1.000126 0
vt 0.43759 0.752163 0
vt 0.999264 0.6262 0
vt 0.999264 0.874164 0
vt 0.875283 0.874164 0
vt 0.875283 0.6262 0
vt 0.751112 0.75102 0
vt 0.751112 0.999817 0
vt 0.626714 0.999817 0
vt 0.626714 0.75102 0
vt 0.874794 0.626272 0
vt 0.874794 0.875069 0
vt 0.750396 0.875069 0
vt 0.750396 0.626272 0
vt 0.998126 0.749771 0
vt 0.998126 0.998568 0
vt 0.873728 0.998568 0
vt 0.873728 0.749771 0
vt 0.626181 0.313578 0
vt 0.626181 0.562374 0
vt 0.501782 0.562374 0
vt 0.501782 0.313578 0
vt 0.437859 0.748938 0
vt 0.437859 0.998151 0
vt 0.437859 0.998151 0
vt 0.437859 0.748938 0
vt 0.813903 0.374794 0
vt 0.813903 0.624007 0
vt 0.813903 0.624007 0
vt 0.813903 0.374794 0
vt 0.815102 0.748938 0
vt 0.815102 0.748938 0
vt 0.815102 0.998151 0
vt 0.815102 0.998151 0
vt 0.376643 0.624007 0
vt 0.376643 0.87322 0
vt 0.12743 0.87322 0
vt 0.12743 0.624007 0
vt 0.56404 0.624606 0
vt 0.56404 0.873819 0
vt 0.56404 0.873819 0
vt 0.56404 0.624606 0
vt 0.250241 0.750188 0
vt 0.250241 0.750188 0
vt 0.250241 0.998776 0
vt 0.250241 0.998776 0
vt 0.997306 0.625256 0
vt 0.997306 0.873844 0
vt 0.748717 0.873844 0
vt 0.748717 0.625256 0
vt 0.251466 0.750188 0
vt 0.251466 0.998776 0
vt 0.251466 0.998776 0
vt 0.251466 0.750188 0
vt 0.626285 0.374169 0
vt 0.626285 0.374169 0
vt 0.626285 0.622758 0
vt 0.626285 0.622758 0
vt 0.126559 0.625231 0
vt 0.126559 0.625231 0
vt 0.126559 0.873819 0
vt 0.126559 0.873819 0
vt 0.998917 0.832815 0
vt 0.998917 0.999482 0
vt 0.665583 0.999482 0
vt 0.665583 0.832815 0
vt 0.337347 0.446794 0
vt 0.337347 0.61346 0
vt 0.004014 0.61346 0
vt 0.004014 0.446794 0
vt 0.587601 0.833128 0
vt 0.587601 0.999794 0
vt 0.254267 0.999794 0
vt 0.254267 0.833128 0
vt 0.336167 0.6339 0
vt 0.336167 0.800566 0
vt 0.002834 0.800566 0
vt 0.002834 0.6339 0
vt 0.337589 0.82894 0
vt 0.337589 0.995607 0
vt 0.004256 0.995607 0
vt 0.004256 0.82894 0
vt 0.337589 0.633306 0
vt 0.337589 0.799973 0
vt 0.004256 0.799973 0
vt 0.004256 0.633306 0
vt 0.69142 0.82894 0
vt 0.69142 0.995607 0
vt 0.358086 0.995607 0
vt 0.358086 0.82894 0
vt 0.524986 0.446142 0
vt 0.524986 0.612809 0
vt 0.191653 0.612809 0
vt 0.191653 0.446142 0
vt 0.888536 0.826442 0
vt 0.888536 0.993108 0
vt 0.555203 0.993108 0
vt 0.555203 0.826442 0
vt 0.724876 0.635805 0
vt 0.724876 0.802471 0
vt 0.391543 0.802471 0
vt 0.391543 0.635805 0
vt 0.552746 0.826442 0
vt 0.552746 0.993108 0
vt 0.219413 0.993108 0
vt 0.219413 0.826442 0
vt 0.994728 0.446142 0
vt 0.994728 0.612809 0
vt 0.661395 0.612809 0
vt 0.661395 0.446142 0
vt 0.656212 0.825942 0
vt 0.656212 0.992608 0
vt 0.322879 0.992608 0
vt 0.322879 0.825942 0
vt 0.707762 0.630197 0
vt 0.707762 0.796864 0
vt 0.374428 0.796864 0
vt 0.374428 0.630197 0
vt 0.993752 0.82438 0
vt 0.993752 0.991046 0
vt 0.660418 0.991046 0
vt 0.660418 0.82438 0
vt 0.340664 0.445265 0
vt 0.340664 0.611932 0
vt 0.007331 0.611932 0
vt 0.007331 0.445265 0
vt 0.5 0.4375 0
vt 0.5 0.5625 0
vt 0.25 0.5625 0
vt 0.25 0.4375 0
vt 0.75 0.4375 0
vt 0.75 0.5625 0
vt 0.5 0.5625 0
vt 0.5 0.4375 0
vt 1 0.4375 0
vt 1 0.5625 0
vt 0.75 0.5625 0
vt 0.75 0.4375 0
vt 0.25 0.4375 0
vt 0.25 0.5625 0
vt 0 0.5625 0
vt 0 0.4375 0
vt 0.5 0.5625 0
vt 0.5 0.8125 0
vt 0.25 0.8125 0
vt 0.25 0.5625 0
vt 0.5 0.1875 0
vt 0.5 0.4375 0
vt 0.25 0.4375 0
vt 0.25 0.1875 0
vt 0.5 0.4375 0
vt 0.5 0.5625 0
vt 0.25 0.5625 0
vt 0.25 0.4375 0
vt 0.75 0.4375 0
vt 0.75 0.5625 0
vt 0.5 0.5625 0
vt 0.5 0.4375 0
vt 1 0.4375 0
vt 1 0.5625 0
vt 0.75 0.5625 0
vt 0.75 0.4375 0
vt 0.25 0.4375 0
vt 0.25 0.5625 0
vt 0 0.5625 0
vt 0 0.4375 0
vt 0.5 0.5625 0
vt 0.5 0.8125 0
vt 0.25 0.8125 0
vt 0.25 0.5625 0
vt 0.5 0.1875 0
vt 0.5 0.4375 0
vt 0.25 0.4375 0
vt 0.25 0.1875 0
vt 0.5 0.4375 0
vt 0.5 0.5625 0
vt 0.25 0.5625 0
vt 0.25 0.4375 0
vt 0.75 0.4375 0
vt 0.75 0.5625 0
vt 0.5 0.5625 0
vt 0.5 0.4375 0
vt 1 0.4375 0
vt 1 0.5625 0
vt 0.75 0.5625 0
vt 0.75 0.4375 0
vt 0.25 0.4375 0
vt 0.25 0.5625 0
vt 0 0.5625 0
vt 0 0.4375 0
vt 0.5 0.5625 0
vt 0.5 0.8125 0
vt 0.25 0.8125 0
vt 0.25 0.5625 0
vt 0.5 0.1875 0
vt 0.5 0.4375 0
vt 0.25 0.4375 0
vt 0.25 0.1875 0
vt 0.5 0.4375 0
vt 0.5 0.5625 0
vt 0.25 0.5625 0
vt 0.25 0.4375 0
vt 0.75 0.4375 0
vt 0.75 0.5625 0
vt 0.5 0.5625 0
vt 0.5 0.4375 0
vt 1 0.4375 0
vt 1 0.5625 0
vt 0.75 0.5625 0
vt 0.75 0.4375 0
vt 0.25 0.4375 0
vt 0.25 0.5625 0
vt 0 0.5625 0
vt 0 0.4375 0
vt 0.5 0.5625 0
vt 0.5 0.8125 0
vt 0.25 0.8125 0
vt 0.25 0.5625 0
vt 0.5 0.1875 0
vt 0.5 0.4375 0
vt 0.25 0.4375 0
vt 0.25 0.1875 0
vt 0.5 0.4375 0
vt 0.5 0.5625 0
vt 0.25 0.5625 0
vt 0.25 0.4375 0
vt 0.75 0.4375 0
vt 0.75 0.5625 0
vt 0.5 0.5625 0
vt 0.5 0.4375 0
vt 1 0.4375 0
vt 1 0.5625 0
vt 0.75 0.5625 0
vt 0.75 0.4375 0
vt 0.25 0.4375 0
vt 0.25 0.5625 0
vt 0 0.5625 0
vt 0 0.4375 0
vt 0.5 0.5625 0
vt 0.5 0.8125 0
vt 0.25 0.8125 0
vt 0.25 0.5625 0
vt 0.5 0.1875 0
vt 0.5 0.4375 0
vt 0.25 0.4375 0
vt 0.25 0.1875 0
vt 0.5 0.4375 0
vt 0.5 0.5625 0
vt 0.25 0.5625 0
vt 0.25 0.4375 0
vt 0.75 0.4375 0
vt 0.75 0.5625 0
vt 0.5 0.5625 0
vt 0.5 0.4375 0
vt 1 0.4375 0
vt 1 0.5625 0
vt 0.75 0.5625 0
vt 0.75 0.4375 0
vt 0.25 0.4375 0
vt 0.25 0.5625 0
vt 0 0.5625 0
vt 0 0.4375 0
vt 0.5 0.5625 0
vt 0.5 0.8125 0
vt 0.25 0.8125 0
vt 0.25 0.5625 0
vt 0.5 0.1875 0
vt 0.5 0.4375 0
vt 0.25 0.4375 0
vt 0.25 0.1875 0
vt 0.5 0.4375 0
vt 0.5 0.5625 0
vt 0.25 0.5625 0
vt 0.25 0.4375 0
vt 0.75 0.4375 0
vt 0.75 0.5625 0
vt 0.5 0.5625 0
vt 0.5 0.4375 0
vt 1 0.4375 0
vt 1 0.5625 0
vt 0.75 0.5625 0
vt 0.75 0.4375 0
vt 0.25 0.4375 0
vt 0.25 0.5625 0
vt 0 0.5625 0
vt 0 0.4375 0
vt 0.5 0.5625 0
vt 0.5 0.8125 0
vt 0.25 0.8125 0
vt 0.25 0.5625 0
vt 0.5 0.1875 0
vt 0.5 0.4375 0
vt 0.25 0.4375 0
vt 0.25 0.1875 0
vt 0.5 0.4375 0
vt 0.5 0.5625 0
vt 0.25 0.5625 0
vt 0.25 0.4375 0
vt 0.75 0.4375 0
vt 0.75 0.5625 0
vt 0.5 0.5625 0
vt 0.5 0.4375 0
vt 1 0.4375 0
vt 1 0.5625 0
vt 0.75 0.5625 0
vt 0.75 0.4375 0
vt 0.25 0.4375 0
vt 0.25 0.5625 0
vt 0 0.5625 0
vt 0 0.4375 0
vt 0.5 0.5625 0
vt 0.5 0.8125 0
vt 0.25 0.8125 0
vt 0.25 0.5625 0
vt 0.5 0.1875 0
vt 0.5 0.4375 0
vt 0.25 0.4375 0
vt 0.25 0.1875 0
vt 0.142227 0.002715 0
vt 0.142227 0.188934 0
vt 0.002563 0.188934 0
vt 0.002563 0.002715 0
vt 2.7986366938 0.813575 0
vt 2.8297469155 1.000284 0
vt 0.000625 1.000284 0
vt 0.000625 0.813575 0
vt 2.7550179199 0.622072 0
vt -0.000793 0.622072 0
vt -0.000793 0.438179 0
vt 2.7856589242 0.438179 0
vt 5.748967 0.412029 0
vt 2.8895474979 0.412029 0
vt 2.8895474979 0.270497 0
vt 5.748967 0.270497 0
vt 2.8286321153 0.792624 0
vt 0.000656 0.792624 0
vt 0.000656 0.651092 0
vt 2.8286321153 0.651092 0
vt 0.002563 0.188934 0
vt 0.142227 0.188934 0
vt 0.142227 0.002715 0
vt 0.002563 0.002715 0
vt 0.000625 1.000284 0
vt 2.8297469155 1.000284 0
vt 2.7986366938 0.813575 0
vt 0.000625 0.813575 0
vt 2.7856589242 0.438179 0
vt -0.000793 0.438179 0
vt -0.000793 0.622072 0
vt 2.7550179199 0.622072 0
vt 2.8895474979 0.270497 0
vt 2.8895474979 0.412029 0
vt 5.748967 0.412029 0
vt 5.748967 0.270497 0
vt 2.8286321153 0.651092 0
vt 0.000656 0.651092 0
vt 0.000656 0.792624 0
vt 2.8286321153 0.792624 0
g half_height_1x3_supports
f 1/1 2/2 3/3 4/4
f 5/5 6/6 7/7 8/8
f 9/9 10/10 11/11 12/12
f 13/13 14/14 15/15 16/16
f 17/17 18/18 19/19 20/20
f 21/21 22/22 23/23 24/24
f 25/25 26/26 27/27 28/28
f 29/29 30/30 31/31 32/32
f 33/33 34/34 35/35 36/36
f 37/37 38/38 39/39 40/40
f 41/41 42/42 43/43 44/44
f 45/45 46/46 47/47 48/48
f 49/49 50/50 51/51 52/52
f 53/53 54/54 55/55 56/56
f 57/57 58/58 59/59 60/60
f 61/61 62/62 63/63 64/64
f 65/65 66/66 67/67 68/68
f 69/69 70/70 71/71 72/72
f 73/73 74/74 75/75 76/76
f 77/77 78/78 79/79 80/80
f 81/81 82/82 83/83 84/84
f 85/85 86/86 87/87 88/88
f 89/89 90/90 91/91 92/92
f 93/93 94/94 95/95 96/96
f 97/97 98/98 99/99 100/100
f 101/101 102/102 103/103 104/104
f 105/105 106/106 107/107 108/108
f 109/109 110/110 111/111 112/112
f 113/113 114/114 115/115 116/116
f 117/117 118/118 119/119 120/120
f 121/121 122/122 123/123 124/124
f 125/125 126/126 127/127 128/128
f 129/129 130/130 131/131 132/132
f 133/133 134/134 135/135 136/136
f 137/137 138/138 139/139 140/140
f 141/141 142/142 143/143 144/144
f 145/145 146/146 147/147 148/148
f 149/149 150/150 151/151 152/152
f 153/153 154/154 155/155 156/156
f 157/157 158/158 159/159 160/160
f 161/161 162/162 163/163 164/164
f 165/165 166/166 167/167 168/168
f 169/169 170/170 171/171 172/172
f 173/173 174/174 175/175 176/176
f 177/177 178/178 179/179 180/180
f 181/181 182/182 183/183 184/184
f 185/185 186/186 187/187 188/188
f 189/189 190/190 191/191 192/192
f 193/193 194/194 195/195 196/196
f 197/197 198/198 199/199 200/200
f 201/201 202/202 203/203 204/204
f 205/205 206/206 207/207 208/208
f 209/209 210/210 211/211 212/212
f 213/213 214/214 215/215 216/216
f 217/217 218/218 219/219 220/220
f 221/221 222/222 223/223 224/224
f 225/225 226/226 227/227 228/228
f 229/229 230/230 231/231 232/232
f 233/233 234/234 235/235 236/236
f 237/237 238/238 239/239 240/240
f 241/241 242/242 243/243 244/244
f 245/245 246/246 247/247 248/248
f 249/249 250/250 251/251 252/252
f 253/253 254/254 255/255 256/256
f 257/257 258/258 259/259 260/260
f 261/261 262/262 263/263 264/264
f 265/265 266/266 267/267 268/268
f 269/269 270/270 271/271 272/272
f 273/273 274/274 275/275 276/276
f 277/277 278/278 279/279 280/280
f 281/281 282/282 283/283 284/284
f 285/285 286/286 287/287 288/288
f 289/289 290/290 291/291 292/292
f 293/293 294/294 295/295 296/296
f 297/297 298/298 299/299 300/300
f 301/301 302/302 303/303 304/304
f 305/305 306/306 307/307 308/308
f 309/309 310/310 311/311 312/312
f 313/313 314/314 315/315 316/316
f 317/317 318/318 319/319 320/320
f 321/321 322/322 323/323 324/324
f 325/325 326/326 327/327 328/328
f 329/329 330/330 331/331 332/332
f 333/333 334/334 335/335 336/336
f 337/337 338/338 339/339 340/340
f 341/341 342/342 343/343 344/344
f 345/345 346/346 347/347 348/348
f 349/349 350/350 351/351 352/352
f 353/353 354/354 355/355 356/356
f 357/357 358/358 359/359 360/360
f 361/361 362/362 363/363 364/364
f 365/365 366/366 367/367 368/368
f 369/369 370/370 371/371 372/372
f 373/373 374/374 375/375 376/376
f 377/377 378/378 379/379 380/380
f 381/381 382/382 383/383 384/384
f 385/385 386/386 387/387 388/388
f 389/389 390/390 391/391 392/392
f 393/393 394/394 395/395 396/396
f 397/397 398/398 399/399 400/400
f 401/401 402/402 403/403 404/404
f 405/405 406/406 407/407 408/408
f 409/409 410/410 411/411 412/412
f 413/413 414/414 415/415 416/416
f 417/417 418/418 419/419 420/420
f 421/421 422/422 423/423 424/424
f 425/425 426/426 427/427 428/428
f 429/429 430/430 431/431 432/432
f 433/433 434/434 435/435 436/436
f 437/437 438/438 439/439 440/440
f 441/441 442/442 443/443 444/444
f 445/445 446/446 447/447 448/448
