# Blender 5.2.1 LTS
# www.blender.org
v -0.400000006 0 -3.7999999523
v -0.400000006 0.1000000015 -3.7999999523
v -0.200000003 0.1000000015 -3.7999999523
v -0.200000003 0 -3.7999999523
v 0.200000003 0 -5.1999998093
v 0.200000003 0.1000000015 -5.1999998093
v 0.200000003 0.1000000015 -5.4000000954
v 0.200000003 0 -5.4000000954
v 0.400000006 0 -3.5999999046
v 0.200000003 0 -3.5999999046
v 0.200000003 0 -3.7999999523
v 0.400000006 0 -3.7999999523
v 0.400000006 0 -3.7999999523
v 0.400000006 0.1000000015 -3.7999999523
v 0.400000006 0.1000000015 -3.5999999046
v 0.400000006 0 -3.5999999046
v 0.400000006 0.1000000015 -5.1999998093
v 0.400000006 0.3688209355 -5.1999998093
v 0.200000003 0.3688209355 -5.1999998093
v 0.200000003 0.1000000015 -5.1999998093
v 0.400000006 0.1000000015 -5.4000000954
v 0.400000006 0.3688209355 -5.4000000954
v 0.400000006 0.3688209355 -5.1999998093
v 0.400000006 0.1000000015 -5.1999998093
v 0.200000003 0.1000000015 -5.4000000954
v 0.200000003 0.3688209355 -5.4000000954
v 0.400000006 0.3688209355 -5.4000000954
v 0.400000006 0.1000000015 -5.4000000954
v 0.200000003 0.1000000015 -5.1999998093
v 0.200000003 0.3688209355 -5.1999998093
v 0.200000003 0.3688209355 -5.4000000954
v 0.200000003 0.1000000015 -5.4000000954
v 0.400000006 0.3688209355 -5.1999998093
v 0.400000006 0.3688209355 -5.4000000954
v 0.200000003 0.3688209355 -5.4000000954
v 0.200000003 0.3688209355 -5.1999998093
v 0.200000003 0.1000000015 -4.5999999046
v 0.200000003 0.3520914316 -4.5999999046
v 0.200000003 0.3520914316 -4.8000001907
v 0.200000003 0.1000000015 -4.8000001907
v 0.400000006 0.1000000015 -4.5999999046
v 0.400000006 0.3520914316 -4.5999999046
v 0.200000003 0.3520914316 -4.5999999046
v 0.200000003 0.1000000015 -4.5999999046
v 0.400000006 0.1000000015 -4.8000001907
v 0.400000006 0.3520914316 -4.8000001907
v 0.400000006 0.3520914316 -4.5999999046
v 0.400000006 0.1000000015 -4.5999999046
v 0.200000003 0.1000000015 -4.8000001907
v 0.200000003 0.3520914316 -4.8000001907
v 0.400000006 0.3520914316 -4.8000001907
v 0.400000006 0.1000000015 -4.8000001907
v 0.200000003 0.3520914316 -4.5999999046
v 0.400000006 0.3520914316 -4.5999999046
v 0.400000006 0.3520914316 -4.8000001907
v 0.200000003 0.3520914316 -4.8000001907
v -0.400000006 0.1000000015 -4.8000001907
v -0.400000006 0.3520914316 -4.8000001907
v -0.200000003 0.3520914316 -4.8000001907
v -0.200000003 0.1000000015 -4.8000001907
v -0.400000006 0.1000000015 -4.5999999046
v -0.400000006 0.3520914316 -4.5999999046
v -0.400000006 0.3520914316 -4.8000001907
v -0.400000006 0.1000000015 -4.8000001907
v -0.200000003 0.1000000015 -4.5999999046
v -0.200000003 0.3520914316 -4.5999999046
v -0.400000006 0.3520914316 -4.5999999046
v -0.400000006 0.1000000015 -4.5999999046
v -0.200000003 0.1000000015 -4.8000001907
v -0.200000003 0.3520914316 -4.8000001907
v -0.200000003 0.3520914316 -4.5999999046
v -0.200000003 0.1000000015 -4.5999999046
v -0.400000006 0.3520914316 -4.8000001907
v -0.400000006 0.3520914316 -4.5999999046
v -0.200000003 0.3520914316 -4.5999999046
v -0.200000003 0.3520914316 -4.8000001907
v -0.200000003 0.1000000015 -5.4000000954
v -0.200000003 0.3688209355 -5.4000000954
v -0.200000003 0.3688209355 -5.1999998093
v -0.200000003 0.1000000015 -5.1999998093
v -0.400000006 0.1000000015 -5.4000000954
v -0.400000006 0.3688209355 -5.4000000954
v -0.200000003 0.3688209355 -5.4000000954
v -0.200000003 0.1000000015 -5.4000000954
v -0.400000006 0.1000000015 -5.1999998093
v -0.400000006 0.3688209355 -5.1999998093
v -0.400000006 0.3688209355 -5.4000000954
v -0.400000006 0.1000000015 -5.4000000954
v -0.200000003 0.1000000015 -5.1999998093
v -0.200000003 0.3688209355 -5.1999998093
v -0.400000006 0.3688209355 -5.1999998093
v -0.400000006 0.1000000015 -5.1999998093
v -0.200000003 0.3688209355 -5.4000000954
v -0.400000006 0.3688209355 -5.4000000954
v -0.400000006 0.3688209355 -5.1999998093
v -0.200000003 0.3688209355 -5.1999998093
v 0.400000006 0.1000000015 -4.1999998093
v 0.400000006 0.3009063005 -4.1999998093
v 0.200000003 0.3009063005 -4.1999998093
v 0.200000003 0.1000000015 -4.1999998093
v 0.400000006 0.1000000015 -4.4000000954
v 0.400000006 0.3009063005 -4.4000000954
v 0.400000006 0.3009063005 -4.1999998093
v 0.400000006 0.1000000015 -4.1999998093
v 0.200000003 0.1000000015 -4.4000000954
v 0.200000003 0.3009063005 -4.4000000954
v 0.400000006 0.3009063005 -4.4000000954
v 0.400000006 0.1000000015 -4.4000000954
v 0.200000003 0.1000000015 -4.1999998093
v 0.200000003 0.3009063005 -4.1999998093
v 0.200000003 0.3009063005 -4.4000000954
v 0.200000003 0.1000000015 -4.4000000954
v 0.400000006 0.3009063005 -4.1999998093
v 0.400000006 0.3009063005 -4.4000000954
v 0.200000003 0.3009063005 -4.4000000954
v 0.200000003 0.3009063005 -4.1999998093
v 0.200000003 0.1000000015 -3.5999999046
v 0.200000003 0.2402195185 -3.5999999046
v 0.200000003 0.2402195185 -3.7999999523
v 0.200000003 0.1000000015 -3.7999999523
v 0.400000006 0.1000000015 -3.5999999046
v 0.400000006 0.2402195185 -3.5999999046
v 0.200000003 0.2402195185 -3.5999999046
v 0.200000003 0.1000000015 -3.5999999046
v 0.400000006 0.1000000015 -3.7999999523
v 0.400000006 0.2402195185 -3.7999999523
v 0.400000006 0.2402195185 -3.5999999046
v 0.400000006 0.1000000015 -3.5999999046
v 0.200000003 0.1000000015 -3.7999999523
v 0.200000003 0.2402195185 -3.7999999523
v 0.400000006 0.2402195185 -3.7999999523
v 0.400000006 0.1000000015 -3.7999999523
v 0.200000003 0.2402195185 -3.5999999046
v 0.400000006 0.2402195185 -3.5999999046
v 0.400000006 0.2402195185 -3.7999999523
v 0.200000003 0.2402195185 -3.7999999523
v -0.400000006 0.1000000015 -3.7999999523
v -0.400000006 0.2402195185 -3.7999999523
v -0.200000003 0.2402195185 -3.7999999523
v -0.200000003 0.1000000015 -3.7999999523
v -0.400000006 0.1000000015 -3.5999999046
v -0.400000006 0.2402195185 -3.5999999046
v -0.400000006 0.2402195185 -3.7999999523
v -0.400000006 0.1000000015 -3.7999999523
v -0.200000003 0.1000000015 -3.5999999046
v -0.200000003 0.2402195185 -3.5999999046
v -0.400000006 0.2402195185 -3.5999999046
v -0.400000006 0.1000000015 -3.5999999046
v -0.200000003 0.1000000015 -3.7999999523
v -0.200000003 0.2402195185 -3.7999999523
v -0.200000003 0.2402195185 -3.5999999046
v -0.200000003 0.1000000015 -3.5999999046
v -0.400000006 0.2402195185 -3.7999999523
v -0.400000006 0.2402195185 -3.5999999046
v -0.200000003 0.2402195185 -3.5999999046
v -0.200000003 0.2402195185 -3.7999999523
v -0.200000003 0.1000000015 -4.4000000954
v -0.200000003 0.3009063005 -4.4000000954
v -0.200000003 0.3009063005 -4.1999998093
v -0.200000003 0.1000000015 -4.1999998093
v -0.400000006 0.1000000015 -4.4000000954
v -0.400000006 0.3009063005 -4.4000000954
v -0.200000003 0.3009063005 -4.4000000954
v -0.200000003 0.1000000015 -4.4000000954
v -0.400000006 0.1000000015 -4.1999998093
v -0.400000006 0.3009063005 -4.1999998093
v -0.400000006 0.3009063005 -4.4000000954
v -0.400000006 0.1000000015 -4.4000000954
v -0.200000003 0.1000000015 -4.1999998093
v -0.200000003 0.3009063005 -4.1999998093
v -0.400000006 0.3009063005 -4.1999998093
v -0.400000006 0.1000000015 -4.1999998093
v -0.200000003 0.3009063005 -4.4000000954
v -0.400000006 0.3009063005 -4.4000000954
v -0.400000006 0.3009063005 -4.1999998093
v -0.200000003 0.3009063005 -4.1999998093
v 0.400000006 0.1000000015 -3.2000000477
v 0.400000006 0.2066584826 -3.2000000477
v 0.200000003 0.2066584826 -3.2000000477
v 0.200000003 0.1000000015 -3.2000000477
v 0.400000006 0.1000000015 -3.4000000954
v 0.400000006 0.2066584826 -3.4000000954
v 0.400000006 0.2066584826 -3.2000000477
v 0.400000006 0.1000000015 -3.2000000477
v 0.200000003 0.1000000015 -3.4000000954
v 0.200000003 0.2066584826 -3.4000000954
v 0.400000006 0.2066584826 -3.4000000954
v 0.400000006 0.1000000015 -3.4000000954
v 0.200000003 0.1000000015 -3.2000000477
v 0.200000003 0.2066584826 -3.2000000477
v 0.200000003 0.2066584826 -3.4000000954
v 0.200000003 0.1000000015 -3.4000000954
v 0.400000006 0.2066584826 -3.2000000477
v 0.400000006 0.2066584826 -3.4000000954
v 0.200000003 0.2066584826 -3.4000000954
v 0.200000003 0.2066584826 -3.2000000477
v 0.200000003 0.1000000015 -2.5999999046
v 0.200000003 0.1582672298 -2.5999999046
v 0.200000003 0.1582672298 -2.7999999523
v 0.200000003 0.1000000015 -2.7999999523
v 0.400000006 0.1000000015 -2.5999999046
v 0.400000006 0.1582672298 -2.5999999046
v 0.200000003 0.1582672298 -2.5999999046
v 0.200000003 0.1000000015 -2.5999999046
v 0.400000006 0.1000000015 -2.7999999523
v 0.400000006 0.1582672298 -2.7999999523
v 0.400000006 0.1582672298 -2.5999999046
v 0.400000006 0.1000000015 -2.5999999046
v 0.200000003 0.1000000015 -2.7999999523
v 0.200000003 0.1582672298 -2.7999999523
v 0.400000006 0.1582672298 -2.7999999523
v 0.400000006 0.1000000015 -2.7999999523
v 0.200000003 0.1582672298 -2.5999999046
v 0.400000006 0.1582672298 -2.5999999046
v 0.400000006 0.1582672298 -2.7999999523
v 0.200000003 0.1582672298 -2.7999999523
v -0.400000006 0.1000000015 -2.7999999523
v -0.400000006 0.1582672298 -2.7999999523
v -0.200000003 0.1582672298 -2.7999999523
v -0.200000003 0.1000000015 -2.7999999523
v -0.400000006 0.1000000015 -2.5999999046
v -0.400000006 0.1582672298 -2.5999999046
v -0.400000006 0.1582672298 -2.7999999523
v -0.400000006 0.1000000015 -2.7999999523
v -0.200000003 0.1000000015 -2.5999999046
v -0.200000003 0.1582672298 -2.5999999046
v -0.400000006 0.1582672298 -2.5999999046
v -0.400000006 0.1000000015 -2.5999999046
v -0.200000003 0.1000000015 -2.7999999523
v -0.200000003 0.1582672298 -2.7999999523
v -0.200000003 0.1582672298 -2.5999999046
v -0.200000003 0.1000000015 -2.5999999046
v -0.400000006 0.1582672298 -2.7999999523
v -0.400000006 0.1582672298 -2.5999999046
v -0.200000003 0.1582672298 -2.5999999046
v -0.200000003 0.1582672298 -2.7999999523
v -0.200000003 0.1000000015 -3.4000000954
v -0.200000003 0.2066584826 -3.4000000954
v -0.200000003 0.2066584826 -3.2000000477
v -0.200000003 0.1000000015 -3.2000000477
v -0.400000006 0.1000000015 -3.4000000954
v -0.400000006 0.2066584826 -3.4000000954
v -0.200000003 0.2066584826 -3.4000000954
v -0.200000003 0.1000000015 -3.4000000954
v -0.400000006 0.1000000015 -3.2000000477
v -0.400000006 0.2066584826 -3.2000000477
v -0.400000006 0.2066584826 -3.4000000954
v -0.400000006 0.1000000015 -3.4000000954
v -0.200000003 0.1000000015 -3.2000000477
v -0.200000003 0.2066584826 -3.2000000477
v -0.400000006 0.2066584826 -3.2000000477
v -0.400000006 0.1000000015 -3.2000000477
v -0.200000003 0.2066584826 -3.4000000954
v -0.400000006 0.2066584826 -3.4000000954
v -0.400000006 0.2066584826 -3.2000000477
v -0.200000003 0.2066584826 -3.2000000477
v 0.400000006 0.1000000015 -2.2000000477
v 0.400000006 0.1248855665 -2.2000000477
v 0.200000003 0.1248855665 -2.2000000477
v 0.200000003 0.1000000015 -2.2000000477
v 0.400000006 0.1000000015 -2.4000000954
v 0.400000006 0.1248855665 -2.4000000954
v 0.400000006 0.1248855665 -2.2000000477
v 0.400000006 0.1000000015 -2.2000000477
v 0.200000003 0.1000000015 -2.4000000954
v 0.200000003 0.1248855665 -2.4000000954
v 0.400000006 0.1248855665 -2.4000000954
v 0.400000006 0.1000000015 -2.4000000954
v 0.200000003 0.1000000015 -2.2000000477
v 0.200000003 0.1248855665 -2.2000000477
v 0.200000003 0.1248855665 -2.4000000954
v 0.200000003 0.1000000015 -2.4000000954
v 0.400000006 0.1248855665 -2.2000000477
v 0.400000006 0.1248855665 -2.4000000954
v 0.200000003 0.1248855665 -2.4000000954
v 0.200000003 0.1248855665 -2.2000000477
v -0.200000003 0 -1.3999999762
v -0.200000003 0.0594841875 -1.3999999762
v -0.200000003 0.0594841875 -1.2000000477
v -0.200000003 0 -1.2000000477
v 0.400000006 0 -2.4000000954
v 0.400000006 0 -2.2000000477
v 0.200000003 0 -2.2000000477
v 0.200000003 0 -2.4000000954
v 0.200000003 0 -1.6000000238
v 0.200000003 0.0885235295 -1.6000000238
v 0.200000003 0.0885235295 -1.7999999523
v 0.200000003 0 -1.7999999523
v 0.200000003 0 -3.4000000954
v 0.200000003 0.1000000015 -3.4000000954
v 0.400000006 0.1000000015 -3.4000000954
v 0.400000006 0 -3.4000000954
v -0.400000006 0 -1.3999999762
v -0.400000006 0.0594841875 -1.3999999762
v -0.200000003 0.0594841875 -1.3999999762
v -0.200000003 0 -1.3999999762
v -0.400000006 0 -1.2000000477
v -0.400000006 0.0594841875 -1.2000000477
v -0.400000006 0.0594841875 -1.3999999762
v -0.400000006 0 -1.3999999762
v -0.200000003 0 -1.2000000477
v -0.200000003 0.0594841875 -1.2000000477
v -0.400000006 0.0594841875 -1.2000000477
v -0.400000006 0 -1.2000000477
v -0.400000006 0 -1.3999999762
v -0.200000003 0 -1.3999999762
v -0.200000003 0 -1.2000000477
v -0.400000006 0 -1.2000000477
v 0.400000006 0 -2.2000000477
v 0.400000006 0.1000000015 -2.2000000477
v 0.200000003 0.1000000015 -2.2000000477
v 0.200000003 0 -2.2000000477
v -0.200000003 0.0594841875 -1.3999999762
v -0.400000006 0.0594841875 -1.3999999762
v -0.400000006 0.0594841875 -1.2000000477
v -0.200000003 0.0594841875 -1.2000000477
v -0.200000003 0.1000000015 -2.4000000954
v -0.200000003 0.1248855665 -2.4000000954
v -0.200000003 0.1248855665 -2.2000000477
v -0.200000003 0.1000000015 -2.2000000477
v -0.400000006 0.1000000015 -2.4000000954
v -0.400000006 0.1248855665 -2.4000000954
v -0.200000003 0.1248855665 -2.4000000954
v -0.200000003 0.1000000015 -2.4000000954
v -0.400000006 0.1000000015 -2.2000000477
v -0.400000006 0.1248855665 -2.2000000477
v -0.400000006 0.1248855665 -2.4000000954
v -0.400000006 0.1000000015 -2.4000000954
v -0.200000003 0.1000000015 -2.2000000477
v -0.200000003 0.1248855665 -2.2000000477
v -0.400000006 0.1248855665 -2.2000000477
v -0.400000006 0.1000000015 -2.2000000477
v -0.200000003 0.1248855665 -2.4000000954
v -0.400000006 0.1248855665 -2.4000000954
v -0.400000006 0.1248855665 -2.2000000477
v -0.200000003 0.1248855665 -2.2000000477
v 0.400000006 0.0594841875 -1.2000000477
v 0.400000006 0.0594841875 -1.3999999762
v 0.200000003 0.0594841875 -1.3999999762
v 0.200000003 0.0594841875 -1.2000000477
v 0.400000006 0 -5.4000000954
v 0.400000006 0.1000000015 -5.4000000954
v 0.400000006 0.1000000015 -5.1999998093
v 0.400000006 0 -5.1999998093
v 0.200000003 0 -0.6000000238
v 0.200000003 0.0289600138 -0.6000000238
v 0.200000003 0.0289600138 -0.8000000119
v 0.200000003 0 -0.8000000119
v 0.200000003 0 -1.3999999762
v 0.200000003 0.0594841875 -1.3999999762
v 0.400000006 0.0594841875 -1.3999999762
v 0.400000006 0 -1.3999999762
v 0.4023750126 -0.0239920001 0.4926818609
v 0.4023750126 0.4747747648 -5.5
v 0.2523750067 0.4747747648 -5.5
v 0.2523750067 -0.0239920001 0.4926818609
v -0.2523750067 -0.0239920001 0.4926818609
v -0.4023750126 -0.0239920001 0.4926818609
v -0.4023750126 -0.2212720066 0.4272086024
v -0.2523750067 -0.2212720066 0.4272086024
v -0.4023750126 -0.0239920001 0.4926818609
v -0.4023750126 0.4747747648 -5.5
v -0.4023750126 0.2745807286 -5.5
v -0.4023750126 -0.2212720066 0.4272086024
v -0.200000003 0.1000000015 -2.4000000954
v -0.400000006 0.1000000015 -2.4000000954
v -0.400000006 0.1000000015 -2.2000000477
v -0.200000003 0.1000000015 -2.2000000477
v 0.200000003 0.0885235295 -1.6000000238
v 0.400000006 0.0885235295 -1.6000000238
v 0.400000006 0.0885235295 -1.7999999523
v 0.200000003 0.0885235295 -1.7999999523
v 0.400000006 0 -1.7999999523
v 0.400000006 0.0885235295 -1.7999999523
v 0.400000006 0.0885235295 -1.6000000238
v 0.400000006 0 -1.6000000238
v 0.400000006 0 -3.2000000477
v 0.400000006 0.1000000015 -3.2000000477
v 0.200000003 0.1000000015 -3.2000000477
v 0.200000003 0 -3.2000000477
v 0.400000006 0 -1.3999999762
v 0.400000006 0.0594841875 -1.3999999762
v 0.400000006 0.0594841875 -1.2000000477
v 0.400000006 0 -1.2000000477
v 0.200000003 0 -5.4000000954
v 0.200000003 0.1000000015 -5.4000000954
v 0.400000006 0.1000000015 -5.4000000954
v 0.400000006 0 -5.4000000954
v 0.4023750126 0.2745807286 -5.5
v 0.4023750126 -0.2212720066 0.4272086024
v 0.2523750067 -0.2212720066 0.4272086024
v 0.2523750067 0.2745807286 -5.5
v -0.200000003 0.150000006 -4.8000001907
v -0.200000003 0.349999994 -4.8000001907
v 0.200000003 0.349999994 -4.8000001907
v 0.200000003 0.150000006 -4.8000001907
v 0.400000006 0 -1.2000000477
v 0.400000006 0.0594841875 -1.2000000477
v 0.200000003 0.0594841875 -1.2000000477
v 0.200000003 0 -1.2000000477
v 0.200000003 0 -1.2000000477
v 0.200000003 0.0594841875 -1.2000000477
v 0.200000003 0.0594841875 -1.3999999762
v 0.200000003 0 -1.3999999762
v -0.200000003 0.1000000015 -4.4000000954
v -0.400000006 0.1000000015 -4.4000000954
v -0.400000006 0.1000000015 -4.1999998093
v -0.200000003 0.1000000015 -4.1999998093
v 0.400000006 0 -4.5999999046
v 0.400000006 0.1000000015 -4.5999999046
v 0.200000003 0.1000000015 -4.5999999046
v 0.200000003 0 -4.5999999046
v 0.400000006 0 -1.3999999762
v 0.400000006 0 -1.2000000477
v 0.200000003 0 -1.2000000477
v 0.200000003 0 -1.3999999762
v -0.400000006 0.0885235295 -1.7999999523
v -0.400000006 0.0885235295 -1.6000000238
v -0.200000003 0.0885235295 -1.6000000238
v -0.200000003 0.0885235295 -1.7999999523
v -0.400000006 0 -2.2000000477
v -0.400000006 0.1000000015 -2.2000000477
v -0.400000006 0.1000000015 -2.4000000954
v -0.400000006 0 -2.4000000954
v -0.200000003 0 -2.4000000954
v -0.200000003 0.1000000015 -2.4000000954
v -0.200000003 0.1000000015 -2.2000000477
v -0.200000003 0 -2.2000000477
v -0.400000006 0 -1.6000000238
v -0.400000006 0.0885235295 -1.6000000238
v -0.400000006 0.0885235295 -1.7999999523
v -0.400000006 0 -1.7999999523
v -0.400000006 0 -2.5999999046
v -0.400000006 0 -2.7999999523
v -0.200000003 0 -2.7999999523
v -0.200000003 0 -2.5999999046
v 0.200000003 0 -4.4000000954
v 0.200000003 0.1000000015 -4.4000000954
v 0.400000006 0.1000000015 -4.4000000954
v 0.400000006 0 -4.4000000954
v 0.400000006 0.1000000015 -4.1999998093
v 0.400000006 0.1000000015 -4.4000000954
v 0.200000003 0.1000000015 -4.4000000954
v 0.200000003 0.1000000015 -4.1999998093
v -0.200000003 0 -3.2000000477
v -0.200000003 0.1000000015 -3.2000000477
v -0.400000006 0.1000000015 -3.2000000477
v -0.400000006 0 -3.2000000477
v -0.200000003 0 -1.7999999523
v -0.200000003 0.0885235295 -1.7999999523
v -0.200000003 0.0885235295 -1.6000000238
v -0.200000003 0 -1.6000000238
v -0.200000003 0 -1.6000000238
v -0.200000003 0.0885235295 -1.6000000238
v -0.400000006 0.0885235295 -1.6000000238
v -0.400000006 0 -1.6000000238
v -0.400000006 0 -1.6000000238
v -0.400000006 0 -1.7999999523
v -0.200000003 0 -1.7999999523
v -0.200000003 0 -1.6000000238
v -0.400000006 0 -1.7999999523
v -0.400000006 0.0885235295 -1.7999999523
v -0.200000003 0.0885235295 -1.7999999523
v -0.200000003 0 -1.7999999523
v -0.400000006 0 -2.4000000954
v -0.400000006 0.1000000015 -2.4000000954
v -0.200000003 0.1000000015 -2.4000000954
v -0.200000003 0 -2.4000000954
v -0.200000003 0 -2.2000000477
v -0.200000003 0.1000000015 -2.2000000477
v -0.400000006 0.1000000015 -2.2000000477
v -0.400000006 0 -2.2000000477
v 0.200000003 0 -1.7999999523
v 0.200000003 0.0885235295 -1.7999999523
v 0.400000006 0.0885235295 -1.7999999523
v 0.400000006 0 -1.7999999523
v 0.400000006 0 -1.6000000238
v 0.400000006 0.0885235295 -1.6000000238
v 0.200000003 0.0885235295 -1.6000000238
v 0.200000003 0 -1.6000000238
v 0.400000006 0 -1.6000000238
v 0.200000003 0 -1.6000000238
v 0.200000003 0 -1.7999999523
v 0.400000006 0 -1.7999999523
v -0.400000006 0 -2.4000000954
v -0.200000003 0 -2.4000000954
v -0.200000003 0 -2.2000000477
v -0.400000006 0 -2.2000000477
v -0.400000006 0 -2.5999999046
v -0.400000006 0.1000000015 -2.5999999046
v -0.400000006 0.1000000015 -2.7999999523
v -0.400000006 0 -2.7999999523
v -0.200000003 0 -2.5999999046
v -0.200000003 0.1000000015 -2.5999999046
v -0.400000006 0.1000000015 -2.5999999046
v -0.400000006 0 -2.5999999046
v 0.400000006 0 -2.7999999523
v 0.400000006 0.1000000015 -2.7999999523
v 0.400000006 0.1000000015 -2.5999999046
v 0.400000006 0 -2.5999999046
v 0.200000003 0.1000000015 -2.5999999046
v 0.400000006 0.1000000015 -2.5999999046
v 0.400000006 0.1000000015 -2.7999999523
v 0.200000003 0.1000000015 -2.7999999523
v -0.400000006 0 -4.4000000954
v -0.400000006 0.1000000015 -4.4000000954
v -0.200000003 0.1000000015 -4.4000000954
v -0.200000003 0 -4.4000000954
v -0.400000006 0 -4.1999998093
v -0.400000006 0.1000000015 -4.1999998093
v -0.400000006 0.1000000015 -4.4000000954
v -0.400000006 0 -4.4000000954
v -0.200000003 0 -4.1999998093
v -0.200000003 0.1000000015 -4.1999998093
v -0.400000006 0.1000000015 -4.1999998093
v -0.400000006 0 -4.1999998093
v 0.200000003 0.1000000015 -3.5999999046
v 0.400000006 0.1000000015 -3.5999999046
v 0.400000006 0.1000000015 -3.7999999523
v 0.200000003 0.1000000015 -3.7999999523
v -0.200000003 0 -4.4000000954
v -0.200000003 0.1000000015 -4.4000000954
v -0.200000003 0.1000000015 -4.1999998093
v -0.200000003 0 -4.1999998093
v -0.400000006 0.1000000015 -2.7999999523
v -0.400000006 0.1000000015 -2.5999999046
v -0.200000003 0.1000000015 -2.5999999046
v -0.200000003 0.1000000015 -2.7999999523
v 0.400000006 0 -2.5999999046
v 0.200000003 0 -2.5999999046
v 0.200000003 0 -2.7999999523
v 0.400000006 0 -2.7999999523
v 0.200000003 0 -2.7999999523
v 0.200000003 0.1000000015 -2.7999999523
v 0.400000006 0.1000000015 -2.7999999523
v 0.400000006 0 -2.7999999523
v -0.400000006 0 -2.7999999523
v -0.400000006 0.1000000015 -2.7999999523
v -0.200000003 0.1000000015 -2.7999999523
v -0.200000003 0 -2.7999999523
v -0.200000003 0 -2.7999999523
v -0.200000003 0.1000000015 -2.7999999523
v -0.200000003 0.1000000015 -2.5999999046
v -0.200000003 0 -2.5999999046
v -0.400000006 0 -3.4000000954
v -0.400000006 0.1000000015 -3.4000000954
v -0.200000003 0.1000000015 -3.4000000954
v -0.200000003 0 -3.4000000954
v -0.200000003 0 -3.4000000954
v -0.200000003 0.1000000015 -3.4000000954
v -0.200000003 0.1000000015 -3.2000000477
v -0.200000003 0 -3.2000000477
v 0.400000006 0 -4.4000000954
v 0.400000006 0 -4.1999998093
v 0.200000003 0 -4.1999998093
v 0.200000003 0 -4.4000000954
v 0.200000003 0 -4.1999998093
v 0.200000003 0.1000000015 -4.1999998093
v 0.200000003 0.1000000015 -4.4000000954
v 0.200000003 0 -4.4000000954
v -0.400000006 0 -3.2000000477
v -0.400000006 0.1000000015 -3.2000000477
v -0.400000006 0.1000000015 -3.4000000954
v -0.400000006 0 -3.4000000954
v -0.400000006 0.1000000015 -3.7999999523
v -0.400000006 0.1000000015 -3.5999999046
v -0.200000003 0.1000000015 -3.5999999046
v -0.200000003 0.1000000015 -3.7999999523
v -0.400000006 0 -3.5999999046
v -0.400000006 0 -3.7999999523
v -0.200000003 0 -3.7999999523
v -0.200000003 0 -3.5999999046
v 0.200000003 0 -3.7999999523
v 0.200000003 0.1000000015 -3.7999999523
v 0.400000006 0.1000000015 -3.7999999523
v 0.400000006 0 -3.7999999523
v -0.200000003 0 -3.7999999523
v -0.200000003 0.1000000015 -3.7999999523
v -0.200000003 0.1000000015 -3.5999999046
v -0.200000003 0 -3.5999999046
v -0.200000003 0 -3.5999999046
v -0.200000003 0.1000000015 -3.5999999046
v -0.400000006 0.1000000015 -3.5999999046
v -0.400000006 0 -3.5999999046
v -0.400000006 0 -5.4000000954
v -0.200000003 0 -5.4000000954
v -0.200000003 0 -5.1999998093
v -0.400000006 0 -5.1999998093
v -0.200000003 0.1000000015 -5.4000000954
v -0.400000006 0.1000000015 -5.4000000954
v -0.400000006 0.1000000015 -5.1999998093
v -0.200000003 0.1000000015 -5.1999998093
v 0.4023750126 0.2745807286 -5.5
v 0.4023750126 0.4747747648 -5.5
v 0.4023750126 -0.0239920001 0.4926818609
v 0.4023750126 -0.2212720066 0.4272086024
v 0.4023750126 -0.2212720066 0.4272086024
v 0.4023750126 -0.0239920001 0.4926818609
v 0.2523750067 -0.0239920001 0.4926818609
v 0.2523750067 -0.2212720066 0.4272086024
v -0.200000003 0 -4.8000001907
v -0.200000003 0.1000000015 -4.8000001907
v -0.200000003 0.1000000015 -4.5999999046
v -0.200000003 0 -4.5999999046
v -0.400000006 0 -4.5999999046
v -0.400000006 0.1000000015 -4.5999999046
v -0.400000006 0.1000000015 -4.8000001907
v -0.400000006 0 -4.8000001907
v -0.400000006 0.1000000015 -4.8000001907
v -0.400000006 0.1000000015 -4.5999999046
v -0.200000003 0.1000000015 -4.5999999046
v -0.200000003 0.1000000015 -4.8000001907
v -0.200000003 0 -4.5999999046
v -0.200000003 0.1000000015 -4.5999999046
v -0.400000006 0.1000000015 -4.5999999046
v -0.400000006 0 -4.5999999046
v -0.400000006 0 -4.5999999046
v -0.400000006 0 -4.8000001907
v -0.200000003 0 -4.8000001907
v -0.200000003 0 -4.5999999046
v 0.200000003 0.1000000015 -4.5999999046
v 0.400000006 0.1000000015 -4.5999999046
v 0.400000006 0.1000000015 -4.8000001907
v 0.200000003 0.1000000015 -4.8000001907
v 0.200000003 0 -4.8000001907
v 0.200000003 0.1000000015 -4.8000001907
v 0.400000006 0.1000000015 -4.8000001907
v 0.400000006 0 -4.8000001907
v 0.400000006 0 -4.8000001907
v 0.400000006 0.1000000015 -4.8000001907
v 0.400000006 0.1000000015 -4.5999999046
v 0.400000006 0 -4.5999999046
v 0.400000006 0 -4.5999999046
v 0.200000003 0 -4.5999999046
v 0.200000003 0 -4.8000001907
v 0.400000006 0 -4.8000001907
v -0.400000006 0 -4.8000001907
v -0.400000006 0.1000000015 -4.8000001907
v -0.200000003 0.1000000015 -4.8000001907
v -0.200000003 0 -4.8000001907
v -0.400000006 0 -5.4000000954
v -0.400000006 0.1000000015 -5.4000000954
v -0.200000003 0.1000000015 -5.4000000954
v -0.200000003 0 -5.4000000954
v 0.2523750067 0.2745807286 -5.5
v 0.2523750067 -0.2212720066 0.4272086024
v 0.2523750067 -0.0239920001 0.4926818609
v 0.2523750067 0.4747747648 -5.5
v -0.400000006 0 -5.1999998093
v -0.400000006 0.1000000015 -5.1999998093
v -0.400000006 0.1000000015 -5.4000000954
v -0.400000006 0 -5.4000000954
v -0.200000003 0 -5.4000000954
v -0.200000003 0.1000000015 -5.4000000954
v -0.200000003 0.1000000015 -5.1999998093
v -0.200000003 0 -5.1999998093
v -0.200000003 0 -5.1999998093
v -0.200000003 0.1000000015 -5.1999998093
v -0.400000006 0.1000000015 -5.1999998093
v -0.400000006 0 -5.1999998093
v -0.400000006 0.0289600138 -0.8000000119
v -0.400000006 0.0289600138 -0.6000000238
v -0.200000003 0.0289600138 -0.6000000238
v -0.200000003 0.0289600138 -0.8000000119
v -0.200000003 0 -0.6000000238
v -0.200000003 0.0289600138 -0.6000000238
v -0.400000006 0.0289600138 -0.6000000238
v -0.400000006 0 -0.6000000238
v -0.200000003 0 -0.8000000119
v -0.200000003 0.0289600138 -0.8000000119
v -0.200000003 0.0289600138 -0.6000000238
v -0.200000003 0 -0.6000000238
v -0.400000006 0 -0.6000000238
v -0.400000006 0 -0.8000000119
v -0.200000003 0 -0.8000000119
v -0.200000003 0 -0.6000000238
v 0.200000003 0.150000006 -5.4000000954
v 0.200000003 0.150000006 -5.1999998093
v -0.200000003 0.150000006 -5.1999998093
v -0.200000003 0.150000006 -5.4000000954
v -0.200000003 0.150000006 -5.4000000954
v -0.200000003 0.349999994 -5.4000000954
v 0.200000003 0.349999994 -5.4000000954
v 0.200000003 0.150000006 -5.4000000954
v 0.200000003 0.150000006 -5.1999998093
v 0.200000003 0.349999994 -5.1999998093
v -0.200000003 0.349999994 -5.1999998093
v -0.200000003 0.150000006 -5.1999998093
v 0.200000003 0 -2.2000000477
v 0.200000003 0.1000000015 -2.2000000477
v 0.200000003 0.1000000015 -2.4000000954
v 0.200000003 0 -2.4000000954
v 0.200000003 0 -2.4000000954
v 0.200000003 0.1000000015 -2.4000000954
v 0.400000006 0.1000000015 -2.4000000954
v 0.400000006 0 -2.4000000954
v 0.400000006 0.1000000015 -2.2000000477
v 0.400000006 0.1000000015 -2.4000000954
v 0.200000003 0.1000000015 -2.4000000954
v 0.200000003 0.1000000015 -2.2000000477
v 0.400000006 0 -2.4000000954
v 0.400000006 0.1000000015 -2.4000000954
v 0.400000006 0.1000000015 -2.2000000477
v 0.400000006 0 -2.2000000477
v 0.400000006 0 -3.5999999046
v 0.400000006 0.1000000015 -3.5999999046
v 0.200000003 0.1000000015 -3.5999999046
v 0.200000003 0 -3.5999999046
v -0.400000006 0 -4.4000000954
v -0.200000003 0 -4.4000000954
v -0.200000003 0 -4.1999998093
v -0.400000006 0 -4.1999998093
v 0.200000003 0 -3.5999999046
v 0.200000003 0.1000000015 -3.5999999046
v 0.200000003 0.1000000015 -3.7999999523
v 0.200000003 0 -3.7999999523
v 0.200000003 0.349999994 -5.1999998093
v 0.200000003 0.349999994 -5.4000000954
v -0.200000003 0.349999994 -5.4000000954
v -0.200000003 0.349999994 -5.1999998093
v 0.400000006 0 -5.1999998093
v 0.400000006 0.1000000015 -5.1999998093
v 0.200000003 0.1000000015 -5.1999998093
v 0.200000003 0 -5.1999998093
v -0.2523750067 0.2745807286 -5.5
v -0.2523750067 -0.2212720066 0.4272086024
v -0.4023750126 -0.2212720066 0.4272086024
v -0.4023750126 0.2745807286 -5.5
v -0.2523750067 0.4747747648 -5.5
v -0.4023750126 0.4747747648 -5.5
v -0.4023750126 -0.0239920001 0.4926818609
v -0.2523750067 -0.0239920001 0.4926818609
v 0.400000006 0 -0.8000000119
v 0.400000006 0.0289600138 -0.8000000119
v 0.400000006 0.0289600138 -0.6000000238
v 0.400000006 0 -0.6000000238
v -0.400000006 0 -0.6000000238
v -0.400000006 0.0289600138 -0.6000000238
v -0.400000006 0.0289600138 -0.8000000119
v -0.400000006 0 -0.8000000119
v 0.400000006 0 -0.6000000238
v 0.400000006 0.0289600138 -0.6000000238
v 0.200000003 0.0289600138 -0.6000000238
v 0.200000003 0 -0.6000000238
v 0.200000003 0.150000006 -4.5999999046
v 0.200000003 0.349999994 -4.5999999046
v -0.200000003 0.349999994 -4.5999999046
v -0.200000003 0.150000006 -4.5999999046
v -0.200000003 0.150000006 -4.5999999046
v -0.200000003 0.150000006 -4.8000001907
v 0.200000003 0.150000006 -4.8000001907
v 0.200000003 0.150000006 -4.5999999046
v -0.400000006 0 -3.5999999046
v -0.400000006 0.1000000015 -3.5999999046
v -0.400000006 0.1000000015 -3.7999999523
v -0.400000006 0 -3.7999999523
v -0.200000003 0.349999994 -4.8000001907
v -0.200000003 0.349999994 -4.5999999046
v 0.200000003 0.349999994 -4.5999999046
v 0.200000003 0.349999994 -4.8000001907
v -0.400000006 0 -0.8000000119
v -0.400000006 0.0289600138 -0.8000000119
v -0.200000003 0.0289600138 -0.8000000119
v -0.200000003 0 -0.8000000119
v 0.400000006 0 -0.6000000238
v 0.200000003 0 -0.6000000238
v 0.200000003 0 -0.8000000119
v 0.400000006 0 -0.8000000119
v 0.200000003 0.0289600138 -0.6000000238
v 0.400000006 0.0289600138 -0.6000000238
v 0.400000006 0.0289600138 -0.8000000119
v 0.200000003 0.0289600138 -0.8000000119
v 0.200000003 0 -0.8000000119
v 0.200000003 0.0289600138 -0.8000000119
v 0.400000006 0.0289600138 -0.8000000119
v 0.400000006 0 -0.8000000119
v 0.400000006 0.1000000015 -3.2000000477
v 0.400000006 0.1000000015 -3.4000000954
v 0.200000003 0.1000000015 -3.4000000954
v 0.200000003 0.1000000015 -3.2000000477
v 0.200000003 0 -2.5999999046
v 0.200000003 0.1000000015 -2.5999999046
v 0.200000003 0.1000000015 -2.7999999523
v 0.200000003 0 -2.7999999523
v 0.400000006 0 -3.4000000954
v 0.400000006 0 -3.2000000477
v 0.200000003 0 -3.2000000477
v 0.200000003 0 -3.4000000954
v 0.400000006 0 -2.5999999046
v 0.400000006 0.1000000015 -2.5999999046
v 0.200000003 0.1000000015 -2.5999999046
v 0.200000003 0 -2.5999999046
v -0.400000006 0 -3.4000000954
v -0.200000003 0 -3.4000000954
v -0.200000003 0 -3.2000000477
v -0.400000006 0 -3.2000000477
v 0.400000006 0 -4.1999998093
v 0.400000006 0.1000000015 -4.1999998093
v 0.200000003 0.1000000015 -4.1999998093
v 0.200000003 0 -4.1999998093
v 0.400000006 0 -4.4000000954
v 0.400000006 0.1000000015 -4.4000000954
v 0.400000006 0.1000000015 -4.1999998093
v 0.400000006 0 -4.1999998093
v 0.400000006 0 -3.4000000954
v 0.400000006 0.1000000015 -3.4000000954
v 0.400000006 0.1000000015 -3.2000000477
v 0.400000006 0 -3.2000000477
v 0.200000003 0 -4.5999999046
v 0.200000003 0.1000000015 -4.5999999046
v 0.200000003 0.1000000015 -4.8000001907
v 0.200000003 0 -4.8000001907
v -0.2523750067 0.4747747648 -5.5
v -0.2523750067 -0.0239920001 0.4926818609
v -0.2523750067 -0.2212720066 0.4272086024
v -0.2523750067 0.2745807286 -5.5
v 0.400000006 0 -5.4000000954
v 0.400000006 0 -5.1999998093
v 0.200000003 0 -5.1999998093
v 0.200000003 0 -5.4000000954
v 0.400000006 0.1000000015 -5.1999998093
v 0.400000006 0.1000000015 -5.4000000954
v 0.200000003 0.1000000015 -5.4000000954
v 0.200000003 0.1000000015 -5.1999998093
v -0.200000003 0.1000000015 -3.4000000954
v -0.400000006 0.1000000015 -3.4000000954
v -0.400000006 0.1000000015 -3.2000000477
v -0.200000003 0.1000000015 -3.2000000477
v 0.200000003 0 -3.2000000477
v 0.200000003 0.1000000015 -3.2000000477
v 0.200000003 0.1000000015 -3.4000000954
v 0.200000003 0 -3.4000000954
vt 0.5 0.4375 0
vt 0.5 0.5625 0
vt 0.25 0.5625 0
vt 0.25 0.4375 0
vt 0.25 0.4375 0
vt 0.25 0.5625 0
vt 0 0.5625 0
vt 0 0.4375 0
vt 0.5 0.1875 0
vt 0.5 0.4375 0
vt 0.25 0.4375 0
vt 0.25 0.1875 0
vt 1 0.4375 0
vt 1 0.5625 0
vt 0.75 0.5625 0
vt 0.75 0.4375 0
vt 0.9358050227 0.0686130524 0
vt 0.9358050227 1.0002529621 0
vt 0.6873679757 1.0002529621 0
vt 0.6873679757 0.0686130524 0
vt 0.561267972 0.0686130524 0
vt 0.561267972 1.0002529621 0
vt 0.3128310144 1.0002529621 0
vt 0.3128310144 0.0686130524 0
vt 0.809705019 0.0686130524 0
vt 0.809705019 1.0002529621 0
vt 0.561267972 1.0002529621 0
vt 0.561267972 0.0686130524 0
vt 0.6873679757 0.0686130524 0
vt 0.6873679757 1.0002529621 0
vt 0.4389309883 1.0002529621 0
vt 0.4389309883 0.0686130524 0
vt 0.9373859763 0.0003499985 0
vt 0.9373859763 0.2487870455 0
vt 0.6889479756 0.2487870455 0
vt 0.6889479756 0.0003499985 0
vt 0.8740770221 0.0654710531 0
vt 0.8740770221 0.9995549917 0
vt 0.6249880195 0.9995549917 0
vt 0.6249880195 0.0654710531 0
vt 0.7507560253 0.0660920143 0
vt 0.7507560253 1.0001759529 0
vt 0.5016670227 1.0001759529 0
vt 0.5016670227 0.0660920143 0
vt 0.9998450279 0.0660920143 0
vt 0.9998450279 1.0001759529 0
vt 0.7507560253 1.0001759529 0
vt 0.7507560253 0.0660920143 0
vt 0.6249880195 0.0654710531 0
vt 0.6249880195 0.9995549917 0
vt 0.3758989871 0.9995549917 0
vt 0.3758989871 0.0654710531 0
vt 0.8122169971 0.0004429817 0
vt 0.8122169971 0.2495330572 0
vt 0.5631279945 0.2495330572 0
vt 0.5631279945 0.0004429817 0
vt 0.8731369972 0.069231987 0
vt 0.8731369972 1.0000560284 0
vt 0.6249169707 1.0000560284 0
vt 0.6249169707 0.069231987 0
vt 0.7492589951 0.0692310333 0
vt 0.7492589951 1.0000549555 0
vt 0.5010399818 1.0000549555 0
vt 0.5010399818 0.0692310333 0
vt 0.9384329915 0.069231987 0
vt 0.9384329915 1.000056982 0
vt 0.6902130246 1.000056982 0
vt 0.6902130246 0.069231987 0
vt 0.6249169707 0.069231987 0
vt 0.6249169707 1.0000560284 0
vt 0.3766970038 1.0000560284 0
vt 0.3766970038 0.069231987 0
vt 0.5622760057 0.0010809898 0
vt 0.5622760057 0.2493010759 0
vt 0.3140560091 0.2493010759 0
vt 0.3140560091 0.0010809898 0
vt 0.5622100234 0.0650420189 0
vt 0.5622100234 0.9999409914 0
vt 0.3129040003 0.9999409914 0
vt 0.3129040003 0.0650420189 0
vt 0.8115170002 0.0650420189 0
vt 0.8115170002 0.9999409914 0
vt 0.5622100234 0.9999409914 0
vt 0.5622100234 0.0650420189 0
vt 0.9996060133 0.0650420189 0
vt 0.9996060133 0.9999409914 0
vt 0.7502999902 0.9999409914 0
vt 0.7502999902 0.0650420189 0
vt 0.6871880293 0.0644180775 0
vt 0.6871880293 0.9993159771 0
vt 0.4378809929 0.9993159771 0
vt 0.4378809929 0.0644180775 0
vt 0.8122190237 0.0000300407 0
vt 0.8122190237 0.2493360043 0
vt 0.5629119873 0.2493360043 0
vt 0.5629119873 0.0000300407 0
vt 0.7489780188 0.3144869804 0
vt 0.7489780188 1.0001180172 0
vt 0.4996570051 1.0001180172 0
vt 0.4996570051 0.3144869804 0
vt 0.9982979894 0.3144869804 0
vt 0.9982979894 1.0001180172 0
vt 0.7489780188 1.0001180172 0
vt 0.7489780188 0.3144869804 0
vt 1.2476190329 0.3144869804 0
vt 1.2476190329 1.0001180172 0
vt 0.9982979894 1.0001180172 0
vt 0.9982979894 0.3144869804 0
vt 0.4996570051 0.3144869804 0
vt 0.4996570051 1.0001180172 0
vt 0.2503359914 1.0001180172 0
vt 0.2503359914 0.3144869804 0
vt 0.6878719926 -0.0001239777 0
vt 0.6878719926 0.2491970062 0
vt 0.4385510087 0.2491970062 0
vt 0.4385510087 -0.0001239777 0
vt 0.3125239909 0.313380003 0
vt 0.3125239909 0.9997349977 0
vt 0.0629400015 0.9997349977 0
vt 0.0629400015 0.313380003 0
vt 0.5621079803 0.313380003 0
vt 0.5621079803 0.9997349977 0
vt 0.3125239909 0.9997349977 0
vt 0.3125239909 0.313380003 0
vt 0.8116919994 0.313380003 0
vt 0.8116919994 0.9997349977 0
vt 0.5621079803 0.9997349977 0
vt 0.5621079803 0.313380003 0
vt 0.0629400015 0.313380003 0
vt 0.0629400015 0.9997349977 0
vt -0.1866440028 0.9997349977 0
vt -0.1866440028 0.313380003 0
vt 0.6257510185 -0.0001769066 0
vt 0.6257510185 0.249407053 0
vt 0.3761669993 0.249407053 0
vt 0.3761669993 -0.0001769066 0
vt 0.6244279742 0.3157180548 0
vt 0.6244279742 1.0020740032 0
vt 0.3748440146 1.0020740032 0
vt 0.3748440146 0.3157180548 0
vt 0.8740119934 0.3157180548 0
vt 0.8740119934 1.0020740032 0
vt 0.6244279742 1.0020740032 0
vt 0.6244279742 0.3157180548 0
vt 1.1235949993 0.3157180548 0
vt 1.1235949993 1.0020740032 0
vt 0.8740119934 1.0020740032 0
vt 0.8740119934 0.3157180548 0
vt 0.3748440146 0.3157180548 0
vt 0.3748440146 1.0020740032 0
vt 0.1252599955 1.0020740032 0
vt 0.1252599955 0.3157180548 0
vt 0.8126839995 -0.0001759529 0
vt 0.8126839995 0.2494080067 0
vt 0.5630999804 0.2494080067 0
vt 0.5630999804 -0.0001759529 0
vt 0.4986900091 0.3150349855 0
vt 0.4986900091 0.9995819926 0
vt 0.249762997 0.9995819926 0
vt 0.249762997 0.3150349855 0
vt 0.747615993 0.3150349855 0
vt 0.747615993 0.9995819926 0
vt 0.4986900091 0.9995819926 0
vt 0.4986900091 0.3150349855 0
vt 0.9965419769 0.3150349855 0
vt 0.9965419769 0.9995819926 0
vt 0.747615993 0.9995819926 0
vt 0.747615993 0.3150349855 0
vt 0.249762997 0.3150349855 0
vt 0.249762997 0.9995819926 0
vt 0.000837 0.9995819926 0
vt 0.000837 0.3150349855 0
vt 0.93740201 0.0003130436 0
vt 0.93740201 0.2492390871 0
vt 0.6884750128 0.2492390871 0
vt 0.6884750128 0.0003130436 0
vt 0.4373070002 0.5007719994 0
vt 0.4373070002 1.0007719994 0
vt 0.1873070002 1.0007719994 0
vt 0.1873070002 0.5007719994 0
vt 0.6873070002 0.5007719994 0
vt 0.6873070002 1.0007719994 0
vt 0.4373070002 1.0007719994 0
vt 0.4373070002 0.5007719994 0
vt 0.9373070002 0.5007719994 0
vt 0.9373070002 1.0007719994 0
vt 0.6873070002 1.0007719994 0
vt 0.6873070002 0.5007719994 0
vt 0.1873070002 0.5007719994 0
vt 0.1873070002 1.0007719994 0
vt -0.0626929998 1.0007719994 0
vt -0.0626929998 0.5007719994 0
vt 0.6255940199 0.0001829863 0
vt 0.6255940199 0.2501829863 0
vt 0.3755939901 0.2501829863 0
vt 0.3755939901 0.0001829863 0
vt 0.6882879734 0.4999390841 0
vt 0.6882879734 0.9999390244 0
vt 0.4382880032 0.9999390244 0
vt 0.4382880032 0.4999390841 0
vt 0.9382879734 0.4999390841 0
vt 0.9382879734 0.9999390244 0
vt 0.6882879734 0.9999390244 0
vt 0.6882879734 0.4999390841 0
vt 1.1882879734 0.4999390841 0
vt 1.1882879734 0.9999390244 0
vt 0.9382879734 0.9999390244 0
vt 0.9382879734 0.4999390841 0
vt 0.4382880032 0.4999390841 0
vt 0.4382880032 0.9999390244 0
vt 0.1882880032 0.9999390244 0
vt 0.1882880032 0.4999390841 0
vt 0.9998710155 -0.0007529259 0
vt 0.9998710155 0.2492470741 0
vt 0.7498710155 0.2492470741 0
vt 0.7498710155 -0.0007529259 0
vt 0.6251260042 0.5000960231 0
vt 0.6251260042 1.0000959635 0
vt 0.3751260042 1.0000959635 0
vt 0.3751260042 0.5000960231 0
vt 0.8751260042 0.5000960231 0
vt 0.8751260042 1.0000959635 0
vt 0.6251260042 1.0000959635 0
vt 0.6251260042 0.5000960231 0
vt 1.1251260042 0.5000960231 0
vt 1.1251260042 1.0000959635 0
vt 0.8751260042 1.0000959635 0
vt 0.8751260042 0.5000960231 0
vt 0.3751260042 0.5000960231 0
vt 0.3751260042 1.0000959635 0
vt 0.1251260042 1.0000959635 0
vt 0.1251260042 0.5000960231 0
vt 0.8132050037 0.0017449856 0
vt 0.8132050037 0.2517449856 0
vt 0.5632050037 0.2517449856 0
vt 0.5632050037 0.0017449856 0
vt 0.4995819926 0.4999390841 0
vt 0.4995819926 0.9999390244 0
vt 0.2495819926 0.9999390244 0
vt 0.2495819926 0.4999390841 0
vt 0.7495819926 0.4999390841 0
vt 0.7495819926 0.9999390244 0
vt 0.4995819926 0.9999390244 0
vt 0.4995819926 0.4999390841 0
vt 0.9995819926 0.4999390841 0
vt 0.9995819926 0.9999390244 0
vt 0.7495819926 0.9999390244 0
vt 0.7495819926 0.4999390841 0
vt 0.2495819926 0.4999390841 0
vt 0.2495819926 0.9999390244 0
vt -0.000418 0.9999390244 0
vt -0.000418 0.4999390841 0
vt 0.9992520213 -0.0001299381 0
vt 0.9992520213 0.2498700619 0
vt 0.7492520213 0.2498700619 0
vt 0.7492520213 -0.0001299381 0
vt 0.5002470016 0.6879910231 0
vt 0.5002470016 1.0004910231 0
vt 0.2502470016 1.0004910231 0
vt 0.2502470016 0.6879910231 0
vt 0.7502470016 0.6879910231 0
vt 0.7502470016 1.0004910231 0
vt 0.5002470016 1.0004910231 0
vt 0.5002470016 0.6879910231 0
vt 1.0002470016 0.6879910231 0
vt 1.0002470016 1.0004910231 0
vt 0.7502470016 1.0004910231 0
vt 0.7502470016 0.6879910231 0
vt 0.2502470016 0.6879910231 0
vt 0.2502470016 1.0004910231 0
vt 0.000247 1.0004910231 0
vt 0.000247 0.6879910231 0
vt 0.8123310208 0.0002499819 0
vt 0.8123310208 0.2502499819 0
vt 0.5623310208 0.2502499819 0
vt 0.5623310208 0.0002499819 0
vt 0.5 0.4375 0
vt 0.5 0.5625 0
vt 0.25 0.5625 0
vt 0.25 0.4375 0
vt 0.5 0.1875 0
vt 0.5 0.4375 0
vt 0.25 0.4375 0
vt 0.25 0.1875 0
vt 0.5 0.4375 0
vt 0.5 0.5625 0
vt 0.25 0.5625 0
vt 0.25 0.4375 0
vt 1 0.4375 0
vt 1 0.5625 0
vt 0.75 0.5625 0
vt 0.75 0.4375 0
vt 0.75 0.4375 0
vt 0.75 0.5625 0
vt 0.5 0.5625 0
vt 0.5 0.4375 0
vt 1 0.4375 0
vt 1 0.5625 0
vt 0.75 0.5625 0
vt 0.75 0.4375 0
vt 0.25 0.4375 0
vt 0.25 0.5625 0
vt 0 0.5625 0
vt 0 0.4375 0
vt 0.5 0.1875 0
vt 0.5 0.4375 0
vt 0.25 0.4375 0
vt 0.25 0.1875 0
vt 0.5 0.4375 0
vt 0.5 0.5625 0
vt 0.25 0.5625 0
vt 0.25 0.4375 0
vt 0.5 0.5625 0
vt 0.5 0.8125 0
vt 0.25 0.8125 0
vt 0.25 0.5625 0
vt 0.4999719858 0.6876479983 0
vt 0.4999719858 0.9997410178 0
vt 0.2502979934 0.9997410178 0
vt 0.2502979934 0.6876479983 0
vt 0.749646008 0.6876479983 0
vt 0.749646008 0.9997410178 0
vt 0.4999719858 0.9997410178 0
vt 0.4999719858 0.6876479983 0
vt 0.9993199706 0.6876479983 0
vt 0.9993199706 0.9997410178 0
vt 0.749646008 0.9997410178 0
vt 0.749646008 0.6876479983 0
vt 0.2502979934 0.6876479983 0
vt 0.2502979934 0.9997410178 0
vt 0.000625 0.9997410178 0
vt 0.000625 0.6876479983 0
vt 0.5618320107 0.0001599789 0
vt 0.5618320107 0.2498340607 0
vt 0.3121590018 0.2498340607 0
vt 0.3121590018 0.0001599789 0
vt 0.5 0.5625 0
vt 0.5 0.8125 0
vt 0.25 0.8125 0
vt 0.25 0.5625 0
vt 0.75 0.4375 0
vt 0.75 0.5625 0
vt 0.5 0.5625 0
vt 0.5 0.4375 0
vt 0.5 0.4375 0
vt 0.5 0.5625 0
vt 0.25 0.5625 0
vt 0.25 0.4375 0
vt 1 0.4375 0
vt 1 0.5625 0
vt 0.75 0.5625 0
vt 0.75 0.4375 0
vt 5.7489671707 0.4120290279 0
vt 2.8856660763 0.4120290279 0
vt 2.8856660763 0.2704970837 0
vt 5.7489671707 0.2704970837 0
vt 0.002563 0.1889340878 0
vt 0.142226994 0.1889340878 0
vt 0.142226994 0.0027149916 0
vt 0.002563 0.0027149916 0
vt 0.000625 1.0002839565 0
vt 2.833587326 1.0002839565 0
vt 2.8170357825 0.8135750294 0
vt 0.000625 0.8135750294 0
vt 0.5 0.5625 0
vt 0.5 0.8125 0
vt 0.25 0.8125 0
vt 0.25 0.5625 0
vt 0.5 0.5625 0
vt 0.5 0.8125 0
vt 0.25 0.8125 0
vt 0.25 0.5625 0
vt 1 0.4375 0
vt 1 0.5625 0
vt 0.75 0.5625 0
vt 0.75 0.4375 0
vt 0.5 0.4375 0
vt 0.5 0.5625 0
vt 0.25 0.5625 0
vt 0.25 0.4375 0
vt 0.75 0.4375 0
vt 0.75 0.5625 0
vt 0.5 0.5625 0
vt 0.5 0.4375 0
vt 1 0.4375 0
vt 1 0.5625 0
vt 0.75 0.5625 0
vt 0.75 0.4375 0
vt 2.8472282838 0.7926239967 0
vt 0.000656 0.7926239967 0
vt 0.000656 0.6510919929 0
vt 2.8472282838 0.6510919929 0
vt 0.8885359764 0.8264420033 0
vt 0.8885359764 0.9931079745 0
vt 0.5552030206 0.9931079745 0
vt 0.5552030206 0.8264420033 0
vt 0.5 0.4375 0
vt 0.5 0.5625 0
vt 0.25 0.5625 0
vt 0.25 0.4375 0
vt 0.25 0.4375 0
vt 0.25 0.5625 0
vt 0 0.5625 0
vt 0 0.4375 0
vt 0.5 0.5625 0
vt 0.5 0.8125 0
vt 0.25 0.8125 0
vt 0.25 0.5625 0
vt 0.75 0.4375 0
vt 0.75 0.5625 0
vt 0.5 0.5625 0
vt 0.5 0.4375 0
vt 0.5 0.1875 0
vt 0.5 0.4375 0
vt 0.25 0.4375 0
vt 0.25 0.1875 0
vt 0.5 0.5625 0
vt 0.5 0.8125 0
vt 0.25 0.8125 0
vt 0.25 0.5625 0
vt 1 0.4375 0
vt 1 0.5625 0
vt 0.75 0.5625 0
vt 0.75 0.4375 0
vt 0.5 0.4375 0
vt 0.5 0.5625 0
vt 0.25 0.5625 0
vt 0.25 0.4375 0
vt 0.75 0.4375 0
vt 0.75 0.5625 0
vt 0.5 0.5625 0
vt 0.5 0.4375 0
vt 0.5 0.1875 0
vt 0.5 0.4375 0
vt 0.25 0.4375 0
vt 0.25 0.1875 0
vt 1 0.4375 0
vt 1 0.5625 0
vt 0.75 0.5625 0
vt 0.75 0.4375 0
vt 0.5 0.5625 0
vt 0.5 0.8125 0
vt 0.25 0.8125 0
vt 0.25 0.5625 0
vt 0.25 0.4375 0
vt 0.25 0.5625 0
vt 0 0.5625 0
vt 0 0.4375 0
vt 0.25 0.4375 0
vt 0.25 0.5625 0
vt 0 0.5625 0
vt 0 0.4375 0
vt 1 0.4375 0
vt 1 0.5625 0
vt 0.75 0.5625 0
vt 0.75 0.4375 0
vt 0.5 0.1875 0
vt 0.5 0.4375 0
vt 0.25 0.4375 0
vt 0.25 0.1875 0
vt 0.5 0.4375 0
vt 0.5 0.5625 0
vt 0.25 0.5625 0
vt 0.25 0.4375 0
vt 0.75 0.4375 0
vt 0.75 0.5625 0
vt 0.5 0.5625 0
vt 0.5 0.4375 0
vt 0.25 0.4375 0
vt 0.25 0.5625 0
vt 0 0.5625 0
vt 0 0.4375 0
vt 0.25 0.4375 0
vt 0.25 0.5625 0
vt 0 0.5625 0
vt 0 0.4375 0
vt 0.75 0.4375 0
vt 0.75 0.5625 0
vt 0.5 0.5625 0
vt 0.5 0.4375 0
vt 0.5 0.1875 0
vt 0.5 0.4375 0
vt 0.25 0.4375 0
vt 0.25 0.1875 0
vt 0.5 0.1875 0
vt 0.5 0.4375 0
vt 0.25 0.4375 0
vt 0.25 0.1875 0
vt 0.75 0.4375 0
vt 0.75 0.5625 0
vt 0.5 0.5625 0
vt 0.5 0.4375 0
vt 1 0.4375 0
vt 1 0.5625 0
vt 0.75 0.5625 0
vt 0.75 0.4375 0
vt 1 0.4375 0
vt 1 0.5625 0
vt 0.75 0.5625 0
vt 0.75 0.4375 0
vt 0.5 0.5625 0
vt 0.5 0.8125 0
vt 0.25 0.8125 0
vt 0.25 0.5625 0
vt 0.75 0.4375 0
vt 0.75 0.5625 0
vt 0.5 0.5625 0
vt 0.5 0.4375 0
vt 1 0.4375 0
vt 1 0.5625 0
vt 0.75 0.5625 0
vt 0.75 0.4375 0
vt 0.25 0.4375 0
vt 0.25 0.5625 0
vt 0 0.5625 0
vt 0 0.4375 0
vt 0.5 0.5625 0
vt 0.5 0.8125 0
vt 0.25 0.8125 0
vt 0.25 0.5625 0
vt 0.5 0.4375 0
vt 0.5 0.5625 0
vt 0.25 0.5625 0
vt 0.25 0.4375 0
vt 0.5 0.5625 0
vt 0.5 0.8125 0
vt 0.25 0.8125 0
vt 0.25 0.5625 0
vt 0.5 0.1875 0
vt 0.5 0.4375 0
vt 0.25 0.4375 0
vt 0.25 0.1875 0
vt 0.25 0.4375 0
vt 0.25 0.5625 0
vt 0 0.5625 0
vt 0 0.4375 0
vt 0.5 0.4375 0
vt 0.5 0.5625 0
vt 0.25 0.5625 0
vt 0.25 0.4375 0
vt 0.25 0.4375 0
vt 0.25 0.5625 0
vt 0 0.5625 0
vt 0 0.4375 0
vt 0.75 0.4375 0
vt 0.75 0.5625 0
vt 0.5 0.5625 0
vt 0.5 0.4375 0
vt 0.5 0.4375 0
vt 0.5 0.5625 0
vt 0.25 0.5625 0
vt 0.25 0.4375 0
vt 0.5 0.1875 0
vt 0.5 0.4375 0
vt 0.25 0.4375 0
vt 0.25 0.1875 0
vt 0.25 0.4375 0
vt 0.25 0.5625 0
vt 0 0.5625 0
vt 0 0.4375 0
vt 1 0.4375 0
vt 1 0.5625 0
vt 0.75 0.5625 0
vt 0.75 0.4375 0
vt 0.5 0.5625 0
vt 0.5 0.8125 0
vt 0.25 0.8125 0
vt 0.25 0.5625 0
vt 0.5 0.1875 0
vt 0.5 0.4375 0
vt 0.25 0.4375 0
vt 0.25 0.1875 0
vt 0.25 0.4375 0
vt 0.25 0.5625 0
vt 0 0.5625 0
vt 0 0.4375 0
vt 0.25 0.4375 0
vt 0.25 0.5625 0
vt 0 0.5625 0
vt 0 0.4375 0
vt 1 0.4375 0
vt 1 0.5625 0
vt 0.75 0.5625 0
vt 0.75 0.4375 0
vt 0.5 0.1875 0
vt 0.5 0.4375 0
vt 0.25 0.4375 0
vt 0.25 0.1875 0
vt 0.5 0.5625 0
vt 0.5 0.8125 0
vt 0.25 0.8125 0
vt 0.25 0.5625 0
vt 2.8170357825 0.8135750294 0
vt 2.833587326 1.0002839565 0
vt 0.000625 1.0002839565 0
vt 0.000625 0.8135750294 0
vt 0.142226994 0.0027149916 0
vt 0.142226994 0.1889340878 0
vt 0.002563 0.1889340878 0
vt 0.002563 0.0027149916 0
vt 0.25 0.4375 0
vt 0.25 0.5625 0
vt 0 0.5625 0
vt 0 0.4375 0
vt 0.75 0.4375 0
vt 0.75 0.5625 0
vt 0.5 0.5625 0
vt 0.5 0.4375 0
vt 0.5 0.5625 0
vt 0.5 0.8125 0
vt 0.25 0.8125 0
vt 0.25 0.5625 0
vt 1 0.4375 0
vt 1 0.5625 0
vt 0.75 0.5625 0
vt 0.75 0.4375 0
vt 0.5 0.1875 0
vt 0.5 0.4375 0
vt 0.25 0.4375 0
vt 0.25 0.1875 0
vt 0.5 0.5625 0
vt 0.5 0.8125 0
vt 0.25 0.8125 0
vt 0.25 0.5625 0
vt 0.25 0.4375 0
vt 0.25 0.5625 0
vt 0 0.5625 0
vt 0 0.4375 0
vt 1 0.4375 0
vt 1 0.5625 0
vt 0.75 0.5625 0
vt 0.75 0.4375 0
vt 0.5 0.1875 0
vt 0.5 0.4375 0
vt 0.25 0.4375 0
vt 0.25 0.1875 0
vt 0.5 0.4375 0
vt 0.5 0.5625 0
vt 0.25 0.5625 0
vt 0.25 0.4375 0
vt 0.75 0.4375 0
vt 0.75 0.5625 0
vt 0.5 0.5625 0
vt 0.5 0.4375 0
vt 2.773139518 0.622072041 0
vt -0.000793 0.622072041 0
vt -0.000793 0.4381790161 0
vt 2.7894414244 0.4381790161 0
vt 1 0.4375 0
vt 1 0.5625 0
vt 0.75 0.5625 0
vt 0.75 0.4375 0
vt 0.5 0.4375 0
vt 0.5 0.5625 0
vt 0.25 0.5625 0
vt 0.25 0.4375 0
vt 0.25 0.4375 0
vt 0.25 0.5625 0
vt 0 0.5625 0
vt 0 0.4375 0
vt 0.5 0.5625 0
vt 0.5 0.8125 0
vt 0.25 0.8125 0
vt 0.25 0.5625 0
vt 1 0.4375 0
vt 1 0.5625 0
vt 0.75 0.5625 0
vt 0.75 0.4375 0
vt 0.25 0.4375 0
vt 0.25 0.5625 0
vt 0 0.5625 0
vt 0 0.4375 0
vt 0.5 0.1875 0
vt 0.5 0.4375 0
vt 0.25 0.4375 0
vt 0.25 0.1875 0
vt 0.3373470008 0.4467940331 0
vt 0.3373470008 0.6134600043 0
vt 0.0040139998 0.6134600043 0
vt 0.0040139998 0.4467940331 0
vt 0.587601006 0.8331279755 0
vt 0.587601006 0.9997940063 0
vt 0.2542670071 0.9997940063 0
vt 0.2542670071 0.8331279755 0
vt 0.9989169836 0.8328150511 0
vt 0.9989169836 0.999481976 0
vt 0.6655830145 0.999481976 0
vt 0.6655830145 0.8328150511 0
vt 0.25 0.4375 0
vt 0.25 0.5625 0
vt 0 0.5625 0
vt 0 0.4375 0
vt 1 0.4375 0
vt 1 0.5625 0
vt 0.75 0.5625 0
vt 0.75 0.4375 0
vt 0.5 0.5625 0
vt 0.5 0.8125 0
vt 0.25 0.8125 0
vt 0.25 0.5625 0
vt 0.75 0.4375 0
vt 0.75 0.5625 0
vt 0.5 0.5625 0
vt 0.5 0.4375 0
vt 0.75 0.4375 0
vt 0.75 0.5625 0
vt 0.5 0.5625 0
vt 0.5 0.4375 0
vt 0.5 0.1875 0
vt 0.5 0.4375 0
vt 0.25 0.4375 0
vt 0.25 0.1875 0
vt 0.5 0.4375 0
vt 0.5 0.5625 0
vt 0.25 0.5625 0
vt 0.25 0.4375 0
vt 0.3361670077 0.6338999867 0
vt 0.3361670077 0.8005660176 0
vt 0.0028339999 0.8005660176 0
vt 0.0028339999 0.6338999867 0
vt 0.5 0.4375 0
vt 0.5 0.5625 0
vt 0.25 0.5625 0
vt 0.25 0.4375 0
vt 2.8472282838 0.6510919929 0
vt 0.000656 0.6510919929 0
vt 0.000656 0.7926239967 0
vt 2.8472282838 0.7926239967 0
vt 2.8856660763 0.2704970837 0
vt 2.8856660763 0.4120290279 0
vt 5.7489671707 0.4120290279 0
vt 5.7489671707 0.2704970837 0
vt 1 0.4375 0
vt 1 0.5625 0
vt 0.75 0.5625 0
vt 0.75 0.4375 0
vt 0.75 0.4375 0
vt 0.75 0.5625 0
vt 0.5 0.5625 0
vt 0.5 0.4375 0
vt 0.75 0.4375 0
vt 0.75 0.5625 0
vt 0.5 0.5625 0
vt 0.5 0.4375 0
vt 0.5527459979 0.8264420033 0
vt 0.5527459979 0.9931079745 0
vt 0.2194129974 0.9931079745 0
vt 0.2194129974 0.8264420033 0
vt 0.9947280288 0.4461420774 0
vt 0.9947280288 0.6128090024 0
vt 0.6613950133 0.6128090024 0
vt 0.6613950133 0.4461420774 0
vt 0.75 0.4375 0
vt 0.75 0.5625 0
vt 0.5 0.5625 0
vt 0.5 0.4375 0
vt 0.7248759866 0.6358050108 0
vt 0.7248759866 0.8024710417 0
vt 0.3915430009 0.8024710417 0
vt 0.3915430009 0.6358050108 0
vt 0.5 0.4375 0
vt 0.5 0.5625 0
vt 0.25 0.5625 0
vt 0.25 0.4375 0
vt 0.5 0.1875 0
vt 0.5 0.4375 0
vt 0.25 0.4375 0
vt 0.25 0.1875 0
vt 0.5 0.5625 0
vt 0.5 0.8125 0
vt 0.25 0.8125 0
vt 0.25 0.5625 0
vt 0.25 0.4375 0
vt 0.25 0.5625 0
vt 0 0.5625 0
vt 0 0.4375 0
vt 0.5 0.5625 0
vt 0.5 0.8125 0
vt 0.25 0.8125 0
vt 0.25 0.5625 0
vt 0.5 0.4375 0
vt 0.5 0.5625 0
vt 0.25 0.5625 0
vt 0.25 0.4375 0
vt 0.5 0.1875 0
vt 0.5 0.4375 0
vt 0.25 0.4375 0
vt 0.25 0.1875 0
vt 0.75 0.4375 0
vt 0.75 0.5625 0
vt 0.5 0.5625 0
vt 0.5 0.4375 0
vt 0.5 0.1875 0
vt 0.5 0.4375 0
vt 0.25 0.4375 0
vt 0.25 0.1875 0
vt 0.5 0.4375 0
vt 0.5 0.5625 0
vt 0.25 0.5625 0
vt 0.25 0.4375 0
vt 0.75 0.4375 0
vt 0.75 0.5625 0
vt 0.5 0.5625 0
vt 0.5 0.4375 0
vt 0.75 0.4375 0
vt 0.75 0.5625 0
vt 0.5 0.5625 0
vt 0.5 0.4375 0
vt 0.5 0.4375 0
vt 0.5 0.5625 0
vt 0.25 0.5625 0
vt 0.25 0.4375 0
vt 2.7894414244 0.4381790161 0
vt -0.000793 0.4381790161 0
vt -0.000793 0.622072041 0
vt 2.773139518 0.622072041 0
vt 0.5 0.1875 0
vt 0.5 0.4375 0
vt 0.25 0.4375 0
vt 0.25 0.1875 0
vt 0.5 0.5625 0
vt 0.5 0.8125 0
vt 0.25 0.8125 0
vt 0.25 0.5625 0
vt 0.5 0.5625 0
vt 0.5 0.8125 0
vt 0.25 0.8125 0
vt 0.25 0.5625 0
vt 0.25 0.4375 0
vt 0.25 0.5625 0
vt 0 0.5625 0
vt 0 0.4375 0
vn 0 0 -1
vn 0 0 -1
vn 0 0 -1
vn 0 0 -1
vn -1 0 0
vn -1 0 0
vn -1 0 0
vn -1 0 0
vn 0 -1 0
vn 0 -1 0
vn 0 -1 0
vn 0 -1 0
vn 1 0 0
vn 1 0 0
vn 1 0 0
vn 1 0 0
vn 0 0 1
vn 0 0 1
vn 0 0 1
vn 0 0 1
vn 1 0 0
vn 1 0 0
vn 1 0 0
vn 1 0 0
vn 0 0 -1
vn 0 0 -1
vn 0 0 -1
vn 0 0 -1
vn -1 0 0
vn -1 0 0
vn -1 0 0
vn -1 0 0
vn 0 1 0
vn 0 1 0
vn 0 1 0
vn 0 1 0
vn -1 0 0
vn -1 0 0
vn -1 0 0
vn -1 0 0
vn 0 0 1
vn 0 0 1
vn 0 0 1
vn 0 0 1
vn 1 0 0
vn 1 0 0
vn 1 0 0
vn 1 0 0
vn 0 0 -1
vn 0 0 -1
vn 0 0 -1
vn 0 0 -1
vn 0 1 0
vn 0 1 0
vn 0 1 0
vn 0 1 0
vn 0 0 -1
vn 0 0 -1
vn 0 0 -1
vn 0 0 -1
vn -1 0 0
vn -1 0 0
vn -1 0 0
vn -1 0 0
vn 0 0 1
vn 0 0 1
vn 0 0 1
vn 0 0 1
vn 1 0 0
vn 1 0 0
vn 1 0 0
vn 1 0 0
vn 0 1 0
vn 0 1 0
vn 0 1 0
vn 0 1 0
vn 1 0 0
vn 1 0 0
vn 1 0 0
vn 1 0 0
vn 0 0 -1
vn 0 0 -1
vn 0 0 -1
vn 0 0 -1
vn -1 0 0
vn -1 0 0
vn -1 0 0
vn -1 0 0
vn 0 0 1
vn 0 0 1
vn 0 0 1
vn 0 0 1
vn 0 1 0
vn 0 1 0
vn 0 1 0
vn 0 1 0
vn 0 0 1
vn 0 0 1
vn 0 0 1
vn 0 0 1
vn 1 0 0
vn 1 0 0
vn 1 0 0
vn 1 0 0
vn 0 0 -1
vn 0 0 -1
vn 0 0 -1
vn 0 0 -1
vn -1 0 0
vn -1 0 0
vn -1 0 0
vn -1 0 0
vn 0 1 0
vn 0 1 0
vn 0 1 0
vn 0 1 0
vn -1 0 0
vn -1 0 0
vn -1 0 0
vn -1 0 0
vn 0 0 1
vn 0 0 1
vn 0 0 1
vn 0 0 1
vn 1 0 0
vn 1 0 0
vn 1 0 0
vn 1 0 0
vn 0 0 -1
vn 0 0 -1
vn 0 0 -1
vn 0 0 -1
vn 0 1 0
vn 0 1 0
vn 0 1 0
vn 0 1 0
vn 0 0 -1
vn 0 0 -1
vn 0 0 -1
vn 0 0 -1
vn -1 0 0
vn -1 0 0
vn -1 0 0
vn -1 0 0
vn 0 0 1
vn 0 0 1
vn 0 0 1
vn 0 0 1
vn 1 0 0
vn 1 0 0
vn 1 0 0
vn 1 0 0
vn 0 1 0
vn 0 1 0
vn 0 1 0
vn 0 1 0
vn 1 0 0
vn 1 0 0
vn 1 0 0
vn 1 0 0
vn 0 0 -1
vn 0 0 -1
vn 0 0 -1
vn 0 0 -1
vn -1 0 0
vn -1 0 0
vn -1 0 0
vn -1 0 0
vn 0 0 1
vn 0 0 1
vn 0 0 1
vn 0 0 1
vn 0 1 0
vn 0 1 0
vn 0 1 0
vn 0 1 0
vn 0 0 1
vn 0 0 1
vn 0 0 1
vn 0 0 1
vn 1 0 0
vn 1 0 0
vn 1 0 0
vn 1 0 0
vn 0 0 -1
vn 0 0 -1
vn 0 0 -1
vn 0 0 -1
vn -1 0 0
vn -1 0 0
vn -1 0 0
vn -1 0 0
vn 0 1 0
vn 0 1 0
vn 0 1 0
vn 0 1 0
vn -1 0 0
vn -1 0 0
vn -1 0 0
vn -1 0 0
vn 0 0 1
vn 0 0 1
vn 0 0 1
vn 0 0 1
vn 1 0 0
vn 1 0 0
vn 1 0 0
vn 1 0 0
vn 0 0 -1
vn 0 0 -1
vn 0 0 -1
vn 0 0 -1
vn 0 1 0
vn 0 1 0
vn 0 1 0
vn 0 1 0
vn 0 0 -1
vn 0 0 -1
vn 0 0 -1
vn 0 0 -1
vn -1 0 0
vn -1 0 0
vn -1 0 0
vn -1 0 0
vn 0 0 1
vn 0 0 1
vn 0 0 1
vn 0 0 1
vn 1 0 0
vn 1 0 0
vn 1 0 0
vn 1 0 0
vn 0 1 0
vn 0 1 0
vn 0 1 0
vn 0 1 0
vn 1 0 0
vn 1 0 0
vn 1 0 0
vn 1 0 0
vn 0 0 -1
vn 0 0 -1
vn 0 0 -1
vn 0 0 -1
vn -1 0 0
vn -1 0 0
vn -1 0 0
vn -1 0 0
vn 0 0 1
vn 0 0 1
vn 0 0 1
vn 0 0 1
vn 0 1 0
vn 0 1 0
vn 0 1 0
vn 0 1 0
vn 0 0 1
vn 0 0 1
vn 0 0 1
vn 0 0 1
vn 1 0 0
vn 1 0 0
vn 1 0 0
vn 1 0 0
vn 0 0 -1
vn 0 0 -1
vn 0 0 -1
vn 0 0 -1
vn -1 0 0
vn -1 0 0
vn -1 0 0
vn -1 0 0
vn 0 1 0
vn 0 1 0
vn 0 1 0
vn 0 1 0
vn 1 0 0
vn 1 0 0
vn 1 0 0
vn 1 0 0
vn 0 -1 0
vn 0 -1 0
vn 0 -1 0
vn 0 -1 0
vn -1 0 0
vn -1 0 0
vn -1 0 0
vn -1 0 0
vn 0 0 -1
vn 0 0 -1
vn 0 0 -1
vn 0 0 -1
vn 0 0 -1
vn 0 0 -1
vn 0 0 -1
vn 0 0 -1
vn -1 0 0
vn -1 0 0
vn -1 0 0
vn -1 0 0
vn 0 0 1
vn 0 0 1
vn 0 0 1
vn 0 0 1
vn 0 -1 0
vn 0 -1 0
vn 0 -1 0
vn 0 -1 0
vn 0 0 1
vn 0 0 1
vn 0 0 1
vn 0 0 1
vn 0 1 0
vn 0 1 0
vn 0 1 0
vn 0 1 0
vn 1 0 0
vn 1 0 0
vn 1 0 0
vn 1 0 0
vn 0 0 -1
vn 0 0 -1
vn 0 0 -1
vn 0 0 -1
vn -1 0 0
vn -1 0 0
vn -1 0 0
vn -1 0 0
vn 0 0 1
vn 0 0 1
vn 0 0 1
vn 0 0 1
vn 0 1 0
vn 0 1 0
vn 0 1 0
vn 0 1 0
vn 0 1 0
vn 0 1 0
vn 0 1 0
vn 0 1 0
vn 1 0 0
vn 1 0 0
vn 1 0 0
vn 1 0 0
vn -1 0 0
vn -1 0 0
vn -1 0 0
vn -1 0 0
vn 0 0 -1
vn 0 0 -1
vn 0 0 -1
vn 0 0 -1
vn 0 0.9965543151 0.0829425305
vn 0 0.9965543151 0.0829425305
vn 0 0.9965543151 0.0829425305
vn 0 0.9965543151 0.0829425305
vn 0 -0.3149872422 0.9490959048
vn 0 -0.3149872422 0.9490959048
vn 0 -0.3149872422 0.9490959048
vn 0 -0.3149872422 0.9490959048
vn -1 0 0
vn -1 0 0
vn -1 0 0
vn -1 0 0
vn 0 1 0
vn 0 1 0
vn 0 1 0
vn 0 1 0
vn 0 1 0
vn 0 1 0
vn 0 1 0
vn 0 1 0
vn 1 0 0
vn 1 0 0
vn 1 0 0
vn 1 0 0
vn 0 0 1
vn 0 0 1
vn 0 0 1
vn 0 0 1
vn 1 0 0
vn 1 0 0
vn 1 0 0
vn 1 0 0
vn 0 0 -1
vn 0 0 -1
vn 0 0 -1
vn 0 0 -1
vn 0 -0.9965190291 -0.0833658352
vn 0 -0.9965190291 -0.0833658352
vn 0 -0.9965190291 -0.0833658352
vn 0 -0.9965190291 -0.0833658352
vn 0 0 -1
vn 0 0 -1
vn 0 0 -1
vn 0 0 -1
vn 0 0 1
vn 0 0 1
vn 0 0 1
vn 0 0 1
vn -1 0 0
vn -1 0 0
vn -1 0 0
vn -1 0 0
vn 0 1 0
vn 0 1 0
vn 0 1 0
vn 0 1 0
vn 0 0 1
vn 0 0 1
vn 0 0 1
vn 0 0 1
vn 0 -1 0
vn 0 -1 0
vn 0 -1 0
vn 0 -1 0
vn 0 1 0
vn 0 1 0
vn 0 1 0
vn 0 1 0
vn -1 0 0
vn -1 0 0
vn -1 0 0
vn -1 0 0
vn 1 0 0
vn 1 0 0
vn 1 0 0
vn 1 0 0
vn -1 0 0
vn -1 0 0
vn -1 0 0
vn -1 0 0
vn 0 -1 0
vn 0 -1 0
vn 0 -1 0
vn 0 -1 0
vn 0 0 -1
vn 0 0 -1
vn 0 0 -1
vn 0 0 -1
vn 0 1 0
vn 0 1 0
vn 0 1 0
vn 0 1 0
vn 0 0 1
vn 0 0 1
vn 0 0 1
vn 0 0 1
vn 1 0 0
vn 1 0 0
vn 1 0 0
vn 1 0 0
vn 0 0 1
vn 0 0 1
vn 0 0 1
vn 0 0 1
vn 0 -1 0
vn 0 -1 0
vn 0 -1 0
vn 0 -1 0
vn 0 0 -1
vn 0 0 -1
vn 0 0 -1
vn 0 0 -1
vn 0 0 -1
vn 0 0 -1
vn 0 0 -1
vn 0 0 -1
vn 0 0 1
vn 0 0 1
vn 0 0 1
vn 0 0 1
vn 0 0 -1
vn 0 0 -1
vn 0 0 -1
vn 0 0 -1
vn 0 0 1
vn 0 0 1
vn 0 0 1
vn 0 0 1
vn 0 -1 0
vn 0 -1 0
vn 0 -1 0
vn 0 -1 0
vn 0 -1 0
vn 0 -1 0
vn 0 -1 0
vn 0 -1 0
vn -1 0 0
vn -1 0 0
vn -1 0 0
vn -1 0 0
vn 0 0 1
vn 0 0 1
vn 0 0 1
vn 0 0 1
vn 1 0 0
vn 1 0 0
vn 1 0 0
vn 1 0 0
vn 0 1 0
vn 0 1 0
vn 0 1 0
vn 0 1 0
vn 0 0 -1
vn 0 0 -1
vn 0 0 -1
vn 0 0 -1
vn -1 0 0
vn -1 0 0
vn -1 0 0
vn -1 0 0
vn 0 0 1
vn 0 0 1
vn 0 0 1
vn 0 0 1
vn 0 1 0
vn 0 1 0
vn 0 1 0
vn 0 1 0
vn 1 0 0
vn 1 0 0
vn 1 0 0
vn 1 0 0
vn 0 1 0
vn 0 1 0
vn 0 1 0
vn 0 1 0
vn 0 -1 0
vn 0 -1 0
vn 0 -1 0
vn 0 -1 0
vn 0 0 -1
vn 0 0 -1
vn 0 0 -1
vn 0 0 -1
vn 0 0 -1
vn 0 0 -1
vn 0 0 -1
vn 0 0 -1
vn 1 0 0
vn 1 0 0
vn 1 0 0
vn 1 0 0
vn 0 0 -1
vn 0 0 -1
vn 0 0 -1
vn 0 0 -1
vn 1 0 0
vn 1 0 0
vn 1 0 0
vn 1 0 0
vn 0 -1 0
vn 0 -1 0
vn 0 -1 0
vn 0 -1 0
vn -1 0 0
vn -1 0 0
vn -1 0 0
vn -1 0 0
vn -1 0 0
vn -1 0 0
vn -1 0 0
vn -1 0 0
vn 0 1 0
vn 0 1 0
vn 0 1 0
vn 0 1 0
vn 0 -1 0
vn 0 -1 0
vn 0 -1 0
vn 0 -1 0
vn 0 0 -1
vn 0 0 -1
vn 0 0 -1
vn 0 0 -1
vn 1 0 0
vn 1 0 0
vn 1 0 0
vn 1 0 0
vn 0 0 1
vn 0 0 1
vn 0 0 1
vn 0 0 1
vn 0 -1 0
vn 0 -1 0
vn 0 -1 0
vn 0 -1 0
vn 0 1 0
vn 0 1 0
vn 0 1 0
vn 0 1 0
vn 1 0 0
vn 1 0 0
vn 1 0 0
vn 1 0 0
vn 0 -0.3149872422 0.9490959048
vn 0 -0.3149872422 0.9490959048
vn 0 -0.3149872422 0.9490959048
vn 0 -0.3149872422 0.9490959048
vn 1 0 0
vn 1 0 0
vn 1 0 0
vn 1 0 0
vn -1 0 0
vn -1 0 0
vn -1 0 0
vn -1 0 0
vn 0 1 0
vn 0 1 0
vn 0 1 0
vn 0 1 0
vn 0 0 1
vn 0 0 1
vn 0 0 1
vn 0 0 1
vn 0 -1 0
vn 0 -1 0
vn 0 -1 0
vn 0 -1 0
vn 0 1 0
vn 0 1 0
vn 0 1 0
vn 0 1 0
vn 0 0 -1
vn 0 0 -1
vn 0 0 -1
vn 0 0 -1
vn 1 0 0
vn 1 0 0
vn 1 0 0
vn 1 0 0
vn 0 -1 0
vn 0 -1 0
vn 0 -1 0
vn 0 -1 0
vn 0 0 -1
vn 0 0 -1
vn 0 0 -1
vn 0 0 -1
vn 0 0 -1
vn 0 0 -1
vn 0 0 -1
vn 0 0 -1
vn -1 0 0
vn -1 0 0
vn -1 0 0
vn -1 0 0
vn -1 0 0
vn -1 0 0
vn -1 0 0
vn -1 0 0
vn 1 0 0
vn 1 0 0
vn 1 0 0
vn 1 0 0
vn 0 0 1
vn 0 0 1
vn 0 0 1
vn 0 0 1
vn 0 1 0
vn 0 1 0
vn 0 1 0
vn 0 1 0
vn 0 0 1
vn 0 0 1
vn 0 0 1
vn 0 0 1
vn 1 0 0
vn 1 0 0
vn 1 0 0
vn 1 0 0
vn 0 -1 0
vn 0 -1 0
vn 0 -1 0
vn 0 -1 0
vn 0 -1 0
vn 0 -1 0
vn 0 -1 0
vn 0 -1 0
vn 0 0 -1
vn 0 0 -1
vn 0 0 -1
vn 0 0 -1
vn 0 0 1
vn 0 0 1
vn 0 0 1
vn 0 0 1
vn -1 0 0
vn -1 0 0
vn -1 0 0
vn -1 0 0
vn 0 0 -1
vn 0 0 -1
vn 0 0 -1
vn 0 0 -1
vn 0 1 0
vn 0 1 0
vn 0 1 0
vn 0 1 0
vn 1 0 0
vn 1 0 0
vn 1 0 0
vn 1 0 0
vn 0 0 1
vn 0 0 1
vn 0 0 1
vn 0 0 1
vn 0 -1 0
vn 0 -1 0
vn 0 -1 0
vn 0 -1 0
vn -1 0 0
vn -1 0 0
vn -1 0 0
vn -1 0 0
vn 0 1 0
vn 0 1 0
vn 0 1 0
vn 0 1 0
vn 0 0 1
vn 0 0 1
vn 0 0 1
vn 0 0 1
vn 0 -0.9965190291 -0.0833658352
vn 0 -0.9965190291 -0.0833658352
vn 0 -0.9965190291 -0.0833658352
vn 0 -0.9965190291 -0.0833658352
vn 0 0.9965543151 0.0829425305
vn 0 0.9965543151 0.0829425305
vn 0 0.9965543151 0.0829425305
vn 0 0.9965543151 0.0829425305
vn 1 0 0
vn 1 0 0
vn 1 0 0
vn 1 0 0
vn -1 0 0
vn -1 0 0
vn -1 0 0
vn -1 0 0
vn 0 0 1
vn 0 0 1
vn 0 0 1
vn 0 0 1
vn 0 0 1
vn 0 0 1
vn 0 0 1
vn 0 0 1
vn 0 -1 0
vn 0 -1 0
vn 0 -1 0
vn 0 -1 0
vn -1 0 0
vn -1 0 0
vn -1 0 0
vn -1 0 0
vn 0 1 0
vn 0 1 0
vn 0 1 0
vn 0 1 0
vn 0 0 -1
vn 0 0 -1
vn 0 0 -1
vn 0 0 -1
vn 0 -1 0
vn 0 -1 0
vn 0 -1 0
vn 0 -1 0
vn 0 1 0
vn 0 1 0
vn 0 1 0
vn 0 1 0
vn 0 0 -1
vn 0 0 -1
vn 0 0 -1
vn 0 0 -1
vn 0 1 0
vn 0 1 0
vn 0 1 0
vn 0 1 0
vn -1 0 0
vn -1 0 0
vn -1 0 0
vn -1 0 0
vn 0 -1 0
vn 0 -1 0
vn 0 -1 0
vn 0 -1 0
vn 0 0 1
vn 0 0 1
vn 0 0 1
vn 0 0 1
vn 0 -1 0
vn 0 -1 0
vn 0 -1 0
vn 0 -1 0
vn 0 0 1
vn 0 0 1
vn 0 0 1
vn 0 0 1
vn 1 0 0
vn 1 0 0
vn 1 0 0
vn 1 0 0
vn 1 0 0
vn 1 0 0
vn 1 0 0
vn 1 0 0
vn -1 0 0
vn -1 0 0
vn -1 0 0
vn -1 0 0
vn 1 0 0
vn 1 0 0
vn 1 0 0
vn 1 0 0
vn 0 -1 0
vn 0 -1 0
vn 0 -1 0
vn 0 -1 0
vn 0 1 0
vn 0 1 0
vn 0 1 0
vn 0 1 0
vn 0 1 0
vn 0 1 0
vn 0 1 0
vn 0 1 0
vn -1 0 0
vn -1 0 0
vn -1 0 0
vn -1 0 0
g half_height_1x6_supports
f 1/1/1 2/2/2 3/3/3 4/4/4
f 5/5/5 6/6/6 7/7/7 8/8/8
f 9/9/9 10/10/10 11/11/11 12/12/12
f 13/13/13 14/14/14 15/15/15 16/16/16
f 17/17/17 18/18/18 19/19/19 20/20/20
f 21/21/21 22/22/22 23/23/23 24/24/24
f 25/25/25 26/26/26 27/27/27 28/28/28
f 29/29/29 30/30/30 31/31/31 32/32/32
f 33/33/33 34/34/34 35/35/35 36/36/36
f 37/37/37 38/38/38 39/39/39 40/40/40
f 41/41/41 42/42/42 43/43/43 44/44/44
f 45/45/45 46/46/46 47/47/47 48/48/48
f 49/49/49 50/50/50 51/51/51 52/52/52
f 53/53/53 54/54/54 55/55/55 56/56/56
f 57/57/57 58/58/58 59/59/59 60/60/60
f 61/61/61 62/62/62 63/63/63 64/64/64
f 65/65/65 66/66/66 67/67/67 68/68/68
f 69/69/69 70/70/70 71/71/71 72/72/72
f 73/73/73 74/74/74 75/75/75 76/76/76
f 77/77/77 78/78/78 79/79/79 80/80/80
f 81/81/81 82/82/82 83/83/83 84/84/84
f 85/85/85 86/86/86 87/87/87 88/88/88
f 89/89/89 90/90/90 91/91/91 92/92/92
f 93/93/93 94/94/94 95/95/95 96/96/96
f 97/97/97 98/98/98 99/99/99 100/100/100
f 101/101/101 102/102/102 103/103/103 104/104/104
f 105/105/105 106/106/106 107/107/107 108/108/108
f 109/109/109 110/110/110 111/111/111 112/112/112
f 113/113/113 114/114/114 115/115/115 116/116/116
f 117/117/117 118/118/118 119/119/119 120/120/120
f 121/121/121 122/122/122 123/123/123 124/124/124
f 125/125/125 126/126/126 127/127/127 128/128/128
f 129/129/129 130/130/130 131/131/131 132/132/132
f 133/133/133 134/134/134 135/135/135 136/136/136
f 137/137/137 138/138/138 139/139/139 140/140/140
f 141/141/141 142/142/142 143/143/143 144/144/144
f 145/145/145 146/146/146 147/147/147 148/148/148
f 149/149/149 150/150/150 151/151/151 152/152/152
f 153/153/153 154/154/154 155/155/155 156/156/156
f 157/157/157 158/158/158 159/159/159 160/160/160
f 161/161/161 162/162/162 163/163/163 164/164/164
f 165/165/165 166/166/166 167/167/167 168/168/168
f 169/169/169 170/170/170 171/171/171 172/172/172
f 173/173/173 174/174/174 175/175/175 176/176/176
f 177/177/177 178/178/178 179/179/179 180/180/180
f 181/181/181 182/182/182 183/183/183 184/184/184
f 185/185/185 186/186/186 187/187/187 188/188/188
f 189/189/189 190/190/190 191/191/191 192/192/192
f 193/193/193 194/194/194 195/195/195 196/196/196
f 197/197/197 198/198/198 199/199/199 200/200/200
f 201/201/201 202/202/202 203/203/203 204/204/204
f 205/205/205 206/206/206 207/207/207 208/208/208
f 209/209/209 210/210/210 211/211/211 212/212/212
f 213/213/213 214/214/214 215/215/215 216/216/216
f 217/217/217 218/218/218 219/219/219 220/220/220
f 221/221/221 222/222/222 223/223/223 224/224/224
f 225/225/225 226/226/226 227/227/227 228/228/228
f 229/229/229 230/230/230 231/231/231 232/232/232
f 233/233/233 234/234/234 235/235/235 236/236/236
f 237/237/237 238/238/238 239/239/239 240/240/240
f 241/241/241 242/242/242 243/243/243 244/244/244
f 245/245/245 246/246/246 247/247/247 248/248/248
f 249/249/249 250/250/250 251/251/251 252/252/252
f 253/253/253 254/254/254 255/255/255 256/256/256
f 257/257/257 258/258/258 259/259/259 260/260/260
f 261/261/261 262/262/262 263/263/263 264/264/264
f 265/265/265 266/266/266 267/267/267 268/268/268
f 269/269/269 270/270/270 271/271/271 272/272/272
f 273/273/273 274/274/274 275/275/275 276/276/276
f 277/277/277 278/278/278 279/279/279 280/280/280
f 281/281/281 282/282/282 283/283/283 284/284/284
f 285/285/285 286/286/286 287/287/287 288/288/288
f 289/289/289 290/290/290 291/291/291 292/292/292
f 293/293/293 294/294/294 295/295/295 296/296/296
f 297/297/297 298/298/298 299/299/299 300/300/300
f 301/301/301 302/302/302 303/303/303 304/304/304
f 305/305/305 306/306/306 307/307/307 308/308/308
f 309/309/309 310/310/310 311/311/311 312/312/312
f 313/313/313 314/314/314 315/315/315 316/316/316
f 317/317/317 318/318/318 319/319/319 320/320/320
f 321/321/321 322/322/322 323/323/323 324/324/324
f 325/325/325 326/326/326 327/327/327 328/328/328
f 329/329/329 330/330/330 331/331/331 332/332/332
f 333/333/333 334/334/334 335/335/335 336/336/336
f 337/337/337 338/338/338 339/339/339 340/340/340
f 341/341/341 342/342/342 343/343/343 344/344/344
f 345/345/345 346/346/346 347/347/347 348/348/348
f 349/349/349 350/350/350 351/351/351 352/352/352
f 353/353/353 354/354/354 355/355/355 356/356/356
f 357/357/357 358/358/358 359/359/359 360/360/360
f 361/361/361 362/362/362 363/363/363 364/364/364
f 365/365/365 366/366/366 367/367/367 368/368/368
f 369/369/369 370/370/370 371/371/371 372/372/372
f 373/373/373 374/374/374 375/375/375 376/376/376
f 377/377/377 378/378/378 379/379/379 380/380/380
f 381/381/381 382/382/382 383/383/383 384/384/384
f 385/385/385 386/386/386 387/387/387 388/388/388
f 389/389/389 390/390/390 391/391/391 392/392/392
f 393/393/393 394/394/394 395/395/395 396/396/396
f 397/397/397 398/398/398 399/399/399 400/400/400
f 401/401/401 402/402/402 403/403/403 404/404/404
f 405/405/405 406/406/406 407/407/407 408/408/408
f 409/409/409 410/410/410 411/411/411 412/412/412
f 413/413/413 414/414/414 415/415/415 416/416/416
f 417/417/417 418/418/418 419/419/419 420/420/420
f 421/421/421 422/422/422 423/423/423 424/424/424
f 425/425/425 426/426/426 427/427/427 428/428/428
f 429/429/429 430/430/430 431/431/431 432/432/432
f 433/433/433 434/434/434 435/435/435 436/436/436
f 437/437/437 438/438/438 439/439/439 440/440/440
f 441/441/441 442/442/442 443/443/443 444/444/444
f 445/445/445 446/446/446 447/447/447 448/448/448
f 449/449/449 450/450/450 451/451/451 452/452/452
f 453/453/453 454/454/454 455/455/455 456/456/456
f 457/457/457 458/458/458 459/459/459 460/460/460
f 461/461/461 462/462/462 463/463/463 464/464/464
f 465/465/465 466/466/466 467/467/467 468/468/468
f 469/469/469 470/470/470 471/471/471 472/472/472
f 473/473/473 474/474/474 475/475/475 476/476/476
f 477/477/477 478/478/478 479/479/479 480/480/480
f 481/481/481 482/482/482 483/483/483 484/484/484
f 485/485/485 486/486/486 487/487/487 488/488/488
f 489/489/489 490/490/490 491/491/491 492/492/492
f 493/493/493 494/494/494 495/495/495 496/496/496
f 497/497/497 498/498/498 499/499/499 500/500/500
f 501/501/501 502/502/502 503/503/503 504/504/504
f 505/505/505 506/506/506 507/507/507 508/508/508
f 509/509/509 510/510/510 511/511/511 512/512/512
f 513/513/513 514/514/514 515/515/515 516/516/516
f 517/517/517 518/518/518 519/519/519 520/520/520
f 521/521/521 522/522/522 523/523/523 524/524/524
f 525/525/525 526/526/526 527/527/527 528/528/528
f 529/529/529 530/530/530 531/531/531 532/532/532
f 533/533/533 534/534/534 535/535/535 536/536/536
f 537/537/537 538/538/538 539/539/539 540/540/540
f 541/541/541 542/542/542 543/543/543 544/544/544
f 545/545/545 546/546/546 547/547/547 548/548/548
f 549/549/549 550/550/550 551/551/551 552/552/552
f 553/553/553 554/554/554 555/555/555 556/556/556
f 557/557/557 558/558/558 559/559/559 560/560/560
f 561/561/561 562/562/562 563/563/563 564/564/564
f 565/565/565 566/566/566 567/567/567 568/568/568
f 569/569/569 570/570/570 571/571/571 572/572/572
f 573/573/573 574/574/574 575/575/575 576/576/576
f 577/577/577 578/578/578 579/579/579 580/580/580
f 581/581/581 582/582/582 583/583/583 584/584/584
f 585/585/585 586/586/586 587/587/587 588/588/588
f 589/589/589 590/590/590 591/591/591 592/592/592
f 593/593/593 594/594/594 595/595/595 596/596/596
f 597/597/597 598/598/598 599/599/599 600/600/600
f 601/601/601 602/602/602 603/603/603 604/604/604
f 605/605/605 606/606/606 607/607/607 608/608/608
f 609/609/609 610/610/610 611/611/611 612/612/612
f 613/613/613 614/614/614 615/615/615 616/616/616
f 617/617/617 618/618/618 619/619/619 620/620/620
f 621/621/621 622/622/622 623/623/623 624/624/624
f 625/625/625 626/626/626 627/627/627 628/628/628
f 629/629/629 630/630/630 631/631/631 632/632/632
f 633/633/633 634/634/634 635/635/635 636/636/636
f 637/637/637 638/638/638 639/639/639 640/640/640
f 641/641/641 642/642/642 643/643/643 644/644/644
f 645/645/645 646/646/646 647/647/647 648/648/648
f 649/649/649 650/650/650 651/651/651 652/652/652
f 653/653/653 654/654/654 655/655/655 656/656/656
f 657/657/657 658/658/658 659/659/659 660/660/660
f 661/661/661 662/662/662 663/663/663 664/664/664
f 665/665/665 666/666/666 667/667/667 668/668/668
f 669/669/669 670/670/670 671/671/671 672/672/672
f 673/673/673 674/674/674 675/675/675 676/676/676
f 677/677/677 678/678/678 679/679/679 680/680/680
f 681/681/681 682/682/682 683/683/683 684/684/684
f 685/685/685 686/686/686 687/687/687 688/688/688
f 689/689/689 690/690/690 691/691/691 692/692/692
f 693/693/693 694/694/694 695/695/695 696/696/696
f 697/697/697 698/698/698 699/699/699 700/700/700
f 701/701/701 702/702/702 703/703/703 704/704/704
f 705/705/705 706/706/706 707/707/707 708/708/708
f 709/709/709 710/710/710 711/711/711 712/712/712
f 713/713/713 714/714/714 715/715/715 716/716/716
f 717/717/717 718/718/718 719/719/719 720/720/720
f 721/721/721 722/722/722 723/723/723 724/724/724
f 725/725/725 726/726/726 727/727/727 728/728/728
f 729/729/729 730/730/730 731/731/731 732/732/732
f 733/733/733 734/734/734 735/735/735 736/736/736
f 737/737/737 738/738/738 739/739/739 740/740/740
f 741/741/741 742/742/742 743/743/743 744/744/744
f 745/745/745 746/746/746 747/747/747 748/748/748
f 749/749/749 750/750/750 751/751/751 752/752/752
f 753/753/753 754/754/754 755/755/755 756/756/756
f 757/757/757 758/758/758 759/759/759 760/760/760
f 761/761/761 762/762/762 763/763/763 764/764/764
f 765/765/765 766/766/766 767/767/767 768/768/768
f 769/769/769 770/770/770 771/771/771 772/772/772
f 773/773/773 774/774/774 775/775/775 776/776/776
f 777/777/777 778/778/778 779/779/779 780/780/780
f 781/781/781 782/782/782 783/783/783 784/784/784
f 785/785/785 786/786/786 787/787/787 788/788/788
f 789/789/789 790/790/790 791/791/791 792/792/792
f 793/793/793 794/794/794 795/795/795 796/796/796
f 797/797/797 798/798/798 799/799/799 800/800/800
f 801/801/801 802/802/802 803/803/803 804/804/804
f 805/805/805 806/806/806 807/807/807 808/808/808
f 809/809/809 810/810/810 811/811/811 812/812/812
f 813/813/813 814/814/814 815/815/815 816/816/816
f 817/817/817 818/818/818 819/819/819 820/820/820
f 821/821/821 822/822/822 823/823/823 824/824/824
f 825/825/825 826/826/826 827/827/827 828/828/828
f 829/829/829 830/830/830 831/831/831 832/832/832
