# Blender 5.2.1 LTS
# www.blender.org
mtllib 1x6_rails.mtl
o half_height_1x6_rails
v 0.470074 0.454872 -5.317538
v 0.470074 0.514663 -5.312527
v -0.469926 0.514663 -5.312527
v -0.469926 0.454872 -5.317538
v 0.470074 0.466562 -5.457049
v 0.470074 0.526354 -5.452038
v 0.470074 0.514663 -5.312527
v 0.470074 0.454872 -5.317538
v -0.469926 0.466562 -5.457049
v -0.469926 0.526354 -5.452038
v 0.470074 0.526354 -5.452038
v 0.470074 0.466562 -5.457049
v -0.469926 0.454872 -5.317538
v -0.469926 0.514663 -5.312527
v -0.469926 0.526354 -5.452038
v -0.469926 0.466562 -5.457049
v 0.470074 0.514663 -5.312527
v 0.470074 0.526354 -5.452038
v -0.469926 0.526354 -5.452038
v -0.469926 0.514663 -5.312527
v -0.287793 0.464170 -5.371952
v -0.287793 0.543890 -5.365271
v -0.317793 0.543890 -5.365271
v -0.317793 0.464170 -5.371952
v -0.287793 0.466674 -5.401847
v -0.287793 0.546395 -5.395166
v -0.287793 0.543890 -5.365271
v -0.287793 0.464170 -5.371952
v -0.317793 0.466674 -5.401847
v -0.317793 0.546395 -5.395166
v -0.287793 0.546395 -5.395166
v -0.287793 0.466674 -5.401847
v -0.317793 0.464170 -5.371952
v -0.317793 0.543890 -5.365271
v -0.317793 0.546395 -5.395166
v -0.317793 0.466674 -5.401847
v -0.287793 0.543890 -5.365271
v -0.287793 0.546395 -5.395166
v -0.317793 0.546395 -5.395166
v -0.317793 0.543890 -5.365271
v 0.317941 0.543890 -5.365271
v 0.287941 0.543890 -5.365271
v 0.287941 0.464170 -5.371952
v 0.317941 0.464170 -5.371952
v 0.287941 0.543890 -5.365271
v 0.287941 0.546395 -5.395166
v 0.287941 0.466674 -5.401847
v 0.287941 0.464170 -5.371952
v 0.287941 0.546395 -5.395166
v 0.317941 0.546395 -5.395166
v 0.317941 0.466674 -5.401847
v 0.287941 0.466674 -5.401847
v 0.317941 0.546395 -5.395166
v 0.317941 0.543890 -5.365271
v 0.317941 0.464170 -5.371952
v 0.317941 0.466674 -5.401847
v 0.317941 0.546395 -5.395166
v 0.287941 0.546395 -5.395166
v 0.287941 0.543890 -5.365271
v 0.317941 0.543890 -5.365271
v -0.469926 0.454872 -5.317538
v -0.469926 0.466562 -5.457049
v 0.470074 0.466562 -5.457049
v 0.470074 0.454872 -5.317538
v 0.342806 0.071036 0.501913
v 0.308662 0.085205 0.503101
v 0.308662 0.071036 0.501913
v 0.318296 0.071036 0.501913
v 0.308662 0.085205 0.503101
v 0.342806 0.071036 0.501913
v 0.352440 0.071036 0.501913
v 0.352440 0.085205 0.503101
v 0.300551 0.025415 0.498091
v 0.360551 0.025415 0.498091
v 0.360551 0.040847 0.499384
v 0.342806 0.040847 0.499384
v 0.342806 0.040847 0.499384
v 0.318296 0.040847 0.499384
v 0.300551 0.040847 0.499384
v 0.300551 0.025415 0.498091
v 0.318296 0.071036 0.501913
v 0.318296 0.040847 0.499384
v 0.342806 0.040847 0.499384
v 0.342806 0.071036 0.501913
v 0.360551 0.040847 0.499384
v 0.360551 0.025415 0.498091
v 0.360551 0.106789 -0.498243
v 0.360551 0.122222 -0.496949
v 0.470074 -0.006853 0.189670
v 0.470074 0.052937 0.194681
v -0.469926 0.052937 0.194681
v -0.469926 -0.006853 0.189670
v 0.470074 0.004837 0.050159
v 0.470074 0.064627 0.055169
v 0.470074 0.052937 0.194681
v 0.470074 -0.006853 0.189670
v -0.469926 0.004837 0.050159
v -0.469926 0.064627 0.055169
v 0.470074 0.064627 0.055169
v 0.470074 0.004837 0.050159
v -0.469926 -0.006853 0.189670
v -0.469926 0.052937 0.194681
v -0.469926 0.064627 0.055169
v -0.469926 0.004837 0.050159
v 0.470074 0.052937 0.194681
v 0.470074 0.064627 0.055169
v -0.469926 0.064627 0.055169
v -0.469926 0.052937 0.194681
v 0.300551 0.122222 -0.496949
v 0.300551 0.106789 -0.498243
v 0.300551 0.025415 0.498091
v 0.300551 0.040847 0.499384
v 0.352440 0.166580 -0.493232
v 0.308662 0.166580 -0.493232
v 0.308662 0.085205 0.503101
v 0.352440 0.085205 0.503101
v 0.360551 0.106789 -0.498243
v 0.360551 0.025415 0.498091
v 0.300551 0.025415 0.498091
v 0.300551 0.106789 -0.498243
v 0.318296 0.071036 0.501913
v 0.318296 0.152411 -0.494419
v 0.318296 0.122222 -0.496949
v 0.318296 0.040847 0.499384
v 0.308662 0.085205 0.503101
v 0.308662 0.166580 -0.493232
v 0.308662 0.152411 -0.494419
v 0.308662 0.071036 0.501913
v 0.318296 0.152411 -0.494419
v 0.318296 0.071036 0.501913
v 0.308662 0.071036 0.501913
v 0.308662 0.152411 -0.494419
v 0.300551 0.122222 -0.496949
v 0.300551 0.040847 0.499384
v 0.318296 0.040847 0.499384
v 0.318296 0.122222 -0.496949
v 0.342806 0.152411 -0.494419
v 0.342806 0.071036 0.501913
v 0.342806 0.040847 0.499384
v 0.342806 0.122222 -0.496949
v 0.352440 0.166580 -0.493232
v 0.352440 0.085205 0.503101
v 0.352440 0.071036 0.501913
v 0.352440 0.152411 -0.494419
v 0.352440 0.152411 -0.494419
v 0.352440 0.071036 0.501913
v 0.342806 0.071036 0.501913
v 0.342806 0.152411 -0.494419
v 0.342806 0.122222 -0.496949
v 0.342806 0.040847 0.499384
v 0.360551 0.040847 0.499384
v 0.360551 0.122222 -0.496949
v -0.308514 0.071036 0.501913
v -0.308514 0.085205 0.503101
v -0.342658 0.071036 0.501913
v -0.318148 0.071036 0.501913
v -0.352292 0.085205 0.503101
v -0.352292 0.071036 0.501913
v -0.342658 0.071036 0.501913
v -0.308514 0.085205 0.503101
v -0.360403 0.040847 0.499384
v -0.360403 0.025415 0.498091
v -0.318148 0.040847 0.499384
v -0.342658 0.040847 0.499384
v -0.300403 0.025415 0.498091
v -0.300403 0.040847 0.499384
v -0.318148 0.040847 0.499384
v -0.360403 0.025415 0.498091
v -0.318148 0.040847 0.499384
v -0.318148 0.071036 0.501913
v -0.342658 0.071036 0.501913
v -0.342658 0.040847 0.499384
v -0.360403 0.106789 -0.498243
v -0.360403 0.025415 0.498091
v -0.360403 0.040847 0.499384
v -0.360403 0.122222 -0.496949
v 0.470074 -0.027729 0.438797
v 0.470074 0.032061 0.443808
v -0.469926 0.032061 0.443808
v -0.469926 -0.027729 0.438797
v 0.470074 -0.016039 0.299286
v 0.470074 0.043752 0.304297
v 0.470074 0.032061 0.443808
v 0.470074 -0.027729 0.438797
v -0.469926 -0.016039 0.299286
v -0.469926 0.043752 0.304297
v 0.470074 0.043752 0.304297
v 0.470074 -0.016039 0.299286
v -0.469926 -0.027729 0.438797
v -0.469926 0.032061 0.443808
v -0.469926 0.043752 0.304297
v -0.469926 -0.016039 0.299286
v 0.470074 0.032061 0.443808
v 0.470074 0.043752 0.304297
v -0.469926 0.043752 0.304297
v -0.469926 0.032061 0.443808
v -0.300403 0.025415 0.498091
v -0.300403 0.106789 -0.498243
v -0.300403 0.122222 -0.496949
v -0.300403 0.040847 0.499384
v -0.308514 0.085205 0.503101
v -0.308514 0.166580 -0.493232
v -0.352292 0.166580 -0.493232
v -0.352292 0.085205 0.503101
v -0.300403 0.025415 0.498091
v -0.360403 0.025415 0.498091
v -0.360403 0.106789 -0.498243
v -0.300403 0.106789 -0.498243
v -0.318148 0.122222 -0.496949
v -0.318148 0.152411 -0.494419
v -0.318148 0.071036 0.501913
v -0.318148 0.040847 0.499384
v -0.308514 0.152411 -0.494419
v -0.308514 0.166580 -0.493232
v -0.308514 0.085205 0.503101
v -0.308514 0.071036 0.501913
v -0.308514 0.071036 0.501913
v -0.318148 0.071036 0.501913
v -0.318148 0.152411 -0.494419
v -0.308514 0.152411 -0.494419
v -0.318148 0.040847 0.499384
v -0.300403 0.040847 0.499384
v -0.300403 0.122222 -0.496949
v -0.318148 0.122222 -0.496949
v -0.342658 0.040847 0.499384
v -0.342658 0.071036 0.501913
v -0.342658 0.152411 -0.494419
v -0.342658 0.122222 -0.496949
v -0.352292 0.071036 0.501913
v -0.352292 0.085205 0.503101
v -0.352292 0.166580 -0.493232
v -0.352292 0.152411 -0.494419
v -0.342658 0.071036 0.501913
v -0.352292 0.071036 0.501913
v -0.352292 0.152411 -0.494419
v -0.342658 0.152411 -0.494419
v -0.360403 0.040847 0.499384
v -0.342658 0.040847 0.499384
v -0.342658 0.122222 -0.496949
v -0.360403 0.122222 -0.496949
v -0.287793 -0.018432 0.384383
v -0.287793 0.061289 0.391064
v -0.317793 0.061289 0.391064
v -0.317793 -0.018432 0.384383
v -0.287793 -0.015927 0.354488
v -0.287793 0.063793 0.361169
v -0.287793 0.061289 0.391064
v -0.287793 -0.018432 0.384383
v -0.317793 -0.015927 0.354488
v -0.317793 0.063793 0.361169
v -0.287793 0.063793 0.361169
v -0.287793 -0.015927 0.354488
v -0.317793 -0.018432 0.384383
v -0.317793 0.061289 0.391064
v -0.317793 0.063793 0.361169
v -0.317793 -0.015927 0.354488
v -0.287793 0.061289 0.391064
v -0.287793 0.063793 0.361169
v -0.317793 0.063793 0.361169
v -0.317793 0.061289 0.391064
v 0.317941 0.061289 0.391064
v 0.287941 0.061289 0.391064
v 0.287941 -0.018432 0.384383
v 0.317941 -0.018432 0.384383
v 0.287941 0.061289 0.391064
v 0.287941 0.063793 0.361169
v 0.287941 -0.015927 0.354488
v 0.287941 -0.018432 0.384383
v 0.287941 0.063793 0.361169
v 0.317941 0.063793 0.361169
v 0.317941 -0.015927 0.354488
v 0.287941 -0.015927 0.354488
v 0.317941 0.063793 0.361169
v 0.317941 0.061289 0.391064
v 0.317941 -0.018432 0.384383
v 0.317941 -0.015927 0.354488
v 0.317941 0.063793 0.361169
v 0.287941 0.063793 0.361169
v 0.287941 0.061289 0.391064
v 0.317941 0.061289 0.391064
v -0.287793 0.002444 0.135257
v -0.287793 0.082164 0.141937
v -0.317793 0.082164 0.141937
v -0.317793 0.002444 0.135257
v -0.287793 0.004949 0.105362
v -0.287793 0.084669 0.112042
v -0.287793 0.082164 0.141937
v -0.287793 0.002444 0.135257
v -0.317793 0.004949 0.105362
v -0.317793 0.084669 0.112042
v -0.287793 0.084669 0.112042
v -0.287793 0.004949 0.105362
v -0.317793 0.002444 0.135257
v -0.317793 0.082164 0.141937
v -0.317793 0.084669 0.112042
v -0.317793 0.004949 0.105362
v -0.287793 0.082164 0.141937
v -0.287793 0.084669 0.112042
v -0.317793 0.084669 0.112042
v -0.317793 0.082164 0.141937
v 0.317941 0.082164 0.141937
v 0.287941 0.082164 0.141937
v 0.287941 0.002444 0.135257
v 0.317941 0.002444 0.135257
v 0.287941 0.082164 0.141937
v 0.287941 0.084669 0.112042
v 0.287941 0.004949 0.105362
v 0.287941 0.002444 0.135257
v 0.287941 0.084669 0.112042
v 0.317941 0.084669 0.112042
v 0.317941 0.004949 0.105362
v 0.287941 0.004949 0.105362
v 0.317941 0.084669 0.112042
v 0.317941 0.082164 0.141937
v 0.317941 0.002444 0.135257
v 0.317941 0.004949 0.105362
v 0.317941 0.084669 0.112042
v 0.287941 0.084669 0.112042
v 0.287941 0.082164 0.141937
v 0.317941 0.082164 0.141937
v -0.287793 0.023320 -0.113870
v -0.287793 0.103040 -0.107190
v -0.317793 0.103040 -0.107190
v -0.317793 0.023320 -0.113870
v -0.287793 0.025825 -0.143765
v -0.287793 0.105546 -0.137086
v -0.287793 0.103040 -0.107190
v -0.287793 0.023320 -0.113870
v -0.317793 0.025825 -0.143765
v -0.317793 0.105546 -0.137086
v -0.287793 0.105546 -0.137086
v -0.287793 0.025825 -0.143765
v -0.317793 0.023320 -0.113870
v -0.317793 0.103040 -0.107190
v -0.317793 0.105546 -0.137086
v -0.317793 0.025825 -0.143765
v -0.287793 0.103040 -0.107190
v -0.287793 0.105546 -0.137086
v -0.317793 0.105546 -0.137086
v -0.317793 0.103040 -0.107190
v 0.317941 0.103040 -0.107190
v 0.287941 0.103040 -0.107190
v 0.287941 0.023320 -0.113870
v 0.317941 0.023320 -0.113870
v 0.287941 0.103040 -0.107190
v 0.287941 0.105546 -0.137086
v 0.287941 0.025825 -0.143765
v 0.287941 0.023320 -0.113870
v 0.287941 0.105546 -0.137086
v 0.317941 0.105546 -0.137086
v 0.317941 0.025825 -0.143765
v 0.287941 0.025825 -0.143765
v 0.317941 0.105546 -0.137086
v 0.317941 0.103040 -0.107190
v 0.317941 0.023320 -0.113870
v 0.317941 0.025825 -0.143765
v 0.317941 0.105546 -0.137086
v 0.287941 0.105546 -0.137086
v 0.287941 0.103040 -0.107190
v 0.317941 0.103040 -0.107190
v -0.287793 0.044196 -0.362997
v -0.287793 0.123916 -0.356317
v -0.317793 0.123916 -0.356317
v -0.317793 0.044196 -0.362997
v -0.287793 0.046701 -0.392892
v -0.287793 0.126422 -0.386212
v -0.287793 0.123916 -0.356317
v -0.287793 0.044196 -0.362997
v -0.317793 0.046701 -0.392892
v -0.317793 0.126422 -0.386212
v -0.287793 0.126422 -0.386212
v -0.287793 0.046701 -0.392892
v -0.317793 0.044196 -0.362997
v -0.317793 0.123916 -0.356317
v -0.317793 0.126422 -0.386212
v -0.317793 0.046701 -0.392892
v -0.287793 0.123916 -0.356317
v -0.287793 0.126422 -0.386212
v -0.317793 0.126422 -0.386212
v -0.317793 0.123916 -0.356317
v 0.317941 0.123916 -0.356317
v 0.287941 0.123916 -0.356317
v 0.287941 0.044196 -0.362997
v 0.317941 0.044196 -0.362997
v 0.287941 0.123916 -0.356317
v 0.287941 0.126422 -0.386212
v 0.287941 0.046701 -0.392892
v 0.287941 0.044196 -0.362997
v 0.287941 0.126422 -0.386212
v 0.317941 0.126422 -0.386212
v 0.317941 0.046701 -0.392892
v 0.287941 0.046701 -0.392892
v 0.317941 0.126422 -0.386212
v 0.317941 0.123916 -0.356317
v 0.317941 0.044196 -0.362997
v 0.317941 0.046701 -0.392892
v 0.317941 0.126422 -0.386212
v 0.287941 0.126422 -0.386212
v 0.287941 0.123916 -0.356317
v 0.317941 0.123916 -0.356317
v 0.470074 0.034898 -0.308583
v 0.470074 0.094690 -0.303573
v -0.469926 0.094690 -0.303573
v -0.469926 0.034898 -0.308583
v 0.470074 0.046590 -0.448094
v 0.470074 0.106380 -0.443084
v 0.470074 0.094690 -0.303573
v 0.470074 0.034898 -0.308583
v -0.469926 0.046590 -0.448094
v -0.469926 0.106380 -0.443084
v 0.470074 0.106380 -0.443084
v 0.470074 0.046590 -0.448094
v -0.469926 0.034898 -0.308583
v -0.469926 0.094690 -0.303573
v -0.469926 0.106380 -0.443084
v -0.469926 0.046590 -0.448094
v 0.470074 0.094690 -0.303573
v 0.470074 0.106380 -0.443084
v -0.469926 0.106380 -0.443084
v -0.469926 0.094690 -0.303573
v 0.470074 0.014023 -0.059456
v 0.470074 0.073813 -0.054447
v -0.469926 0.073813 -0.054447
v -0.469926 0.014023 -0.059456
v 0.470074 0.025713 -0.198967
v 0.470074 0.085504 -0.193958
v 0.470074 0.073813 -0.054447
v 0.470074 0.014023 -0.059456
v -0.469926 0.025713 -0.198967
v -0.469926 0.085504 -0.193958
v 0.470074 0.085504 -0.193958
v 0.470074 0.025713 -0.198967
v -0.469926 0.014023 -0.059456
v -0.469926 0.073813 -0.054447
v -0.469926 0.085504 -0.193958
v -0.469926 0.025713 -0.198967
v 0.470074 0.073813 -0.054447
v 0.470074 0.085504 -0.193958
v -0.469926 0.085504 -0.193958
v -0.469926 0.073813 -0.054447
v -0.469926 -0.027729 0.438797
v -0.469926 -0.016039 0.299286
v 0.470074 -0.016039 0.299286
v 0.470074 -0.027729 0.438797
v -0.469926 -0.006853 0.189670
v -0.469926 0.004837 0.050159
v 0.470074 0.004837 0.050159
v 0.470074 -0.006853 0.189670
v -0.469926 0.014023 -0.059456
v -0.469926 0.025713 -0.198967
v 0.470074 0.025713 -0.198967
v 0.470074 0.014023 -0.059456
v -0.469926 0.034898 -0.308583
v -0.469926 0.046590 -0.448094
v 0.470074 0.046590 -0.448094
v 0.470074 0.034898 -0.308583
v 0.470074 0.097527 -1.055964
v 0.470074 0.157317 -1.050954
v -0.469926 0.157317 -1.050954
v -0.469926 0.097527 -1.055964
v 0.470074 0.109217 -1.195475
v 0.470074 0.169008 -1.190464
v 0.470074 0.157317 -1.050954
v 0.470074 0.097527 -1.055964
v -0.469926 0.109217 -1.195475
v -0.469926 0.169008 -1.190464
v 0.470074 0.169008 -1.190464
v 0.470074 0.109217 -1.195475
v -0.469926 0.097527 -1.055964
v -0.469926 0.157317 -1.050954
v -0.469926 0.169008 -1.190464
v -0.469926 0.109217 -1.195475
v 0.470074 0.157317 -1.050954
v 0.470074 0.169008 -1.190464
v -0.469926 0.169008 -1.190464
v -0.469926 0.157317 -1.050954
v 0.360551 0.122222 -0.496949
v 0.360551 0.106789 -0.498243
v 0.360551 0.190293 -1.494750
v 0.360551 0.205726 -1.493457
v 0.470074 0.076651 -0.806837
v 0.470074 0.136441 -0.801827
v -0.469926 0.136441 -0.801827
v -0.469926 0.076651 -0.806837
v 0.470074 0.088341 -0.946348
v 0.470074 0.148131 -0.941338
v 0.470074 0.136441 -0.801827
v 0.470074 0.076651 -0.806837
v -0.469926 0.088341 -0.946348
v -0.469926 0.148131 -0.941338
v 0.470074 0.148131 -0.941338
v 0.470074 0.088341 -0.946348
v -0.469926 0.076651 -0.806837
v -0.469926 0.136441 -0.801827
v -0.469926 0.148131 -0.941338
v -0.469926 0.088341 -0.946348
v 0.470074 0.136441 -0.801827
v 0.470074 0.148131 -0.941338
v -0.469926 0.148131 -0.941338
v -0.469926 0.136441 -0.801827
v 0.300551 0.205726 -1.493457
v 0.300551 0.190293 -1.494750
v 0.300551 0.106789 -0.498243
v 0.300551 0.122222 -0.496949
v 0.352440 0.250084 -1.489740
v 0.308662 0.250084 -1.489740
v 0.308662 0.166580 -0.493232
v 0.352440 0.166580 -0.493232
v 0.360551 0.190293 -1.494750
v 0.360551 0.106789 -0.498243
v 0.300551 0.106789 -0.498243
v 0.300551 0.190293 -1.494750
v 0.318296 0.152411 -0.494419
v 0.318296 0.235915 -1.490927
v 0.318296 0.205726 -1.493457
v 0.318296 0.122222 -0.496949
v 0.308662 0.166580 -0.493232
v 0.308662 0.250084 -1.489740
v 0.308662 0.235915 -1.490927
v 0.308662 0.152411 -0.494419
v 0.318296 0.235915 -1.490927
v 0.318296 0.152411 -0.494419
v 0.308662 0.152411 -0.494419
v 0.308662 0.235915 -1.490927
v 0.300551 0.205726 -1.493457
v 0.300551 0.122222 -0.496949
v 0.318296 0.122222 -0.496949
v 0.318296 0.205726 -1.493457
v 0.342806 0.235915 -1.490927
v 0.342806 0.152411 -0.494419
v 0.342806 0.122222 -0.496949
v 0.342806 0.205726 -1.493457
v 0.352440 0.250084 -1.489740
v 0.352440 0.166580 -0.493232
v 0.352440 0.152411 -0.494419
v 0.352440 0.235915 -1.490927
v 0.352440 0.235915 -1.490927
v 0.352440 0.152411 -0.494419
v 0.342806 0.152411 -0.494419
v 0.342806 0.235915 -1.490927
v 0.342806 0.205726 -1.493457
v 0.342806 0.122222 -0.496949
v 0.360551 0.122222 -0.496949
v 0.360551 0.205726 -1.493457
v 0.470074 0.118402 -1.305091
v 0.470074 0.178194 -1.300080
v -0.469926 0.178194 -1.300080
v -0.469926 0.118402 -1.305091
v 0.470074 0.130093 -1.444602
v 0.470074 0.189884 -1.439591
v 0.470074 0.178194 -1.300080
v 0.470074 0.118402 -1.305091
v -0.469926 0.130093 -1.444602
v -0.469926 0.189884 -1.439591
v 0.470074 0.189884 -1.439591
v 0.470074 0.130093 -1.444602
v -0.469926 0.118402 -1.305091
v -0.469926 0.178194 -1.300080
v -0.469926 0.189884 -1.439591
v -0.469926 0.130093 -1.444602
v 0.470074 0.178194 -1.300080
v 0.470074 0.189884 -1.439591
v -0.469926 0.189884 -1.439591
v -0.469926 0.178194 -1.300080
v -0.360403 0.190293 -1.494750
v -0.360403 0.106789 -0.498243
v -0.360403 0.122222 -0.496949
v -0.360403 0.205726 -1.493457
v 0.470074 0.055774 -0.557710
v 0.470074 0.115565 -0.552700
v -0.469926 0.115565 -0.552700
v -0.469926 0.055774 -0.557710
v 0.470074 0.067465 -0.697221
v 0.470074 0.127256 -0.692211
v 0.470074 0.115565 -0.552700
v 0.470074 0.055774 -0.557710
v -0.469926 0.067465 -0.697221
v -0.469926 0.127256 -0.692211
v 0.470074 0.127256 -0.692211
v 0.470074 0.067465 -0.697221
v -0.469926 0.055774 -0.557710
v -0.469926 0.115565 -0.552700
v -0.469926 0.127256 -0.692211
v -0.469926 0.067465 -0.697221
v 0.470074 0.115565 -0.552700
v 0.470074 0.127256 -0.692211
v -0.469926 0.127256 -0.692211
v -0.469926 0.115565 -0.552700
v -0.300403 0.106789 -0.498243
v -0.300403 0.190293 -1.494750
v -0.300403 0.205726 -1.493457
v -0.300403 0.122222 -0.496949
v -0.308514 0.166580 -0.493232
v -0.308514 0.250084 -1.489740
v -0.352292 0.250084 -1.489740
v -0.352292 0.166580 -0.493232
v -0.300403 0.106789 -0.498243
v -0.360403 0.106789 -0.498243
v -0.360403 0.190293 -1.494750
v -0.300403 0.190293 -1.494750
v -0.318148 0.205726 -1.493457
v -0.318148 0.235915 -1.490927
v -0.318148 0.152411 -0.494419
v -0.318148 0.122222 -0.496949
v -0.308514 0.235915 -1.490927
v -0.308514 0.250084 -1.489740
v -0.308514 0.166580 -0.493232
v -0.308514 0.152411 -0.494419
v -0.308514 0.152411 -0.494419
v -0.318148 0.152411 -0.494419
v -0.318148 0.235915 -1.490927
v -0.308514 0.235915 -1.490927
v -0.318148 0.122222 -0.496949
v -0.300403 0.122222 -0.496949
v -0.300403 0.205726 -1.493457
v -0.318148 0.205726 -1.493457
v -0.342658 0.122222 -0.496949
v -0.342658 0.152411 -0.494419
v -0.342658 0.235915 -1.490927
v -0.342658 0.205726 -1.493457
v -0.352292 0.152411 -0.494419
v -0.352292 0.166580 -0.493232
v -0.352292 0.250084 -1.489740
v -0.352292 0.235915 -1.490927
v -0.342658 0.152411 -0.494419
v -0.352292 0.152411 -0.494419
v -0.352292 0.235915 -1.490927
v -0.342658 0.235915 -1.490927
v -0.360403 0.122222 -0.496949
v -0.342658 0.122222 -0.496949
v -0.342658 0.205726 -1.493457
v -0.360403 0.205726 -1.493457
v -0.287793 0.065072 -0.612124
v -0.287793 0.144793 -0.605444
v -0.317793 0.144793 -0.605444
v -0.317793 0.065072 -0.612124
v -0.287793 0.067576 -0.642020
v -0.287793 0.147297 -0.635339
v -0.287793 0.144793 -0.605444
v -0.287793 0.065072 -0.612124
v -0.317793 0.067576 -0.642020
v -0.317793 0.147297 -0.635339
v -0.287793 0.147297 -0.635339
v -0.287793 0.067576 -0.642020
v -0.317793 0.065072 -0.612124
v -0.317793 0.144793 -0.605444
v -0.317793 0.147297 -0.635339
v -0.317793 0.067576 -0.642020
v -0.287793 0.144793 -0.605444
v -0.287793 0.147297 -0.635339
v -0.317793 0.147297 -0.635339
v -0.317793 0.144793 -0.605444
v 0.317941 0.144793 -0.605444
v 0.287941 0.144793 -0.605444
v 0.287941 0.065072 -0.612124
v 0.317941 0.065072 -0.612124
v 0.287941 0.144793 -0.605444
v 0.287941 0.147297 -0.635339
v 0.287941 0.067576 -0.642020
v 0.287941 0.065072 -0.612124
v 0.287941 0.147297 -0.635339
v 0.317941 0.147297 -0.635339
v 0.317941 0.067576 -0.642020
v 0.287941 0.067576 -0.642020
v 0.317941 0.147297 -0.635339
v 0.317941 0.144793 -0.605444
v 0.317941 0.065072 -0.612124
v 0.317941 0.067576 -0.642020
v 0.317941 0.147297 -0.635339
v 0.287941 0.147297 -0.635339
v 0.287941 0.144793 -0.605444
v 0.317941 0.144793 -0.605444
v -0.287793 0.085947 -0.861251
v -0.287793 0.165668 -0.854570
v -0.317793 0.165668 -0.854570
v -0.317793 0.085947 -0.861251
v -0.287793 0.088453 -0.891146
v -0.287793 0.168173 -0.884466
v -0.287793 0.165668 -0.854570
v -0.287793 0.085947 -0.861251
v -0.317793 0.088453 -0.891146
v -0.317793 0.168173 -0.884466
v -0.287793 0.168173 -0.884466
v -0.287793 0.088453 -0.891146
v -0.317793 0.085947 -0.861251
v -0.317793 0.165668 -0.854570
v -0.317793 0.168173 -0.884466
v -0.317793 0.088453 -0.891146
v -0.287793 0.165668 -0.854570
v -0.287793 0.168173 -0.884466
v -0.317793 0.168173 -0.884466
v -0.317793 0.165668 -0.854570
v 0.317941 0.165668 -0.854570
v 0.287941 0.165668 -0.854570
v 0.287941 0.085947 -0.861251
v 0.317941 0.085947 -0.861251
v 0.287941 0.165668 -0.854570
v 0.287941 0.168173 -0.884466
v 0.287941 0.088453 -0.891146
v 0.287941 0.085947 -0.861251
v 0.287941 0.168173 -0.884466
v 0.317941 0.168173 -0.884466
v 0.317941 0.088453 -0.891146
v 0.287941 0.088453 -0.891146
v 0.317941 0.168173 -0.884466
v 0.317941 0.165668 -0.854570
v 0.317941 0.085947 -0.861251
v 0.317941 0.088453 -0.891146
v 0.317941 0.168173 -0.884466
v 0.287941 0.168173 -0.884466
v 0.287941 0.165668 -0.854570
v 0.317941 0.165668 -0.854570
v -0.287793 0.106824 -1.110378
v -0.287793 0.186544 -1.103697
v -0.317793 0.186544 -1.103697
v -0.317793 0.106824 -1.110378
v -0.287793 0.109329 -1.140273
v -0.287793 0.189049 -1.133592
v -0.287793 0.186544 -1.103697
v -0.287793 0.106824 -1.110378
v -0.317793 0.109329 -1.140273
v -0.317793 0.189049 -1.133592
v -0.287793 0.189049 -1.133592
v -0.287793 0.109329 -1.140273
v -0.317793 0.106824 -1.110378
v -0.317793 0.186544 -1.103697
v -0.317793 0.189049 -1.133592
v -0.317793 0.109329 -1.140273
v -0.287793 0.186544 -1.103697
v -0.287793 0.189049 -1.133592
v -0.317793 0.189049 -1.133592
v -0.317793 0.186544 -1.103697
v 0.317941 0.186544 -1.103697
v 0.287941 0.186544 -1.103697
v 0.287941 0.106824 -1.110378
v 0.317941 0.106824 -1.110378
v 0.287941 0.186544 -1.103697
v 0.287941 0.189049 -1.133592
v 0.287941 0.109329 -1.140273
v 0.287941 0.106824 -1.110378
v 0.287941 0.189049 -1.133592
v 0.317941 0.189049 -1.133592
v 0.317941 0.109329 -1.140273
v 0.287941 0.109329 -1.140273
v 0.317941 0.189049 -1.133592
v 0.317941 0.186544 -1.103697
v 0.317941 0.106824 -1.110378
v 0.317941 0.109329 -1.140273
v 0.317941 0.189049 -1.133592
v 0.287941 0.189049 -1.133592
v 0.287941 0.186544 -1.103697
v 0.317941 0.186544 -1.103697
v -0.287793 0.127700 -1.359505
v -0.287793 0.207420 -1.352824
v -0.317793 0.207420 -1.352824
v -0.317793 0.127700 -1.359505
v -0.287793 0.130205 -1.389400
v -0.287793 0.209926 -1.382719
v -0.287793 0.207420 -1.352824
v -0.287793 0.127700 -1.359505
v -0.317793 0.130205 -1.389400
v -0.317793 0.209926 -1.382719
v -0.287793 0.209926 -1.382719
v -0.287793 0.130205 -1.389400
v -0.317793 0.127700 -1.359505
v -0.317793 0.207420 -1.352824
v -0.317793 0.209926 -1.382719
v -0.317793 0.130205 -1.389400
v -0.287793 0.207420 -1.352824
v -0.287793 0.209926 -1.382719
v -0.317793 0.209926 -1.382719
v -0.317793 0.207420 -1.352824
v 0.317941 0.207420 -1.352824
v 0.287941 0.207420 -1.352824
v 0.287941 0.127700 -1.359505
v 0.317941 0.127700 -1.359505
v 0.287941 0.207420 -1.352824
v 0.287941 0.209926 -1.382719
v 0.287941 0.130205 -1.389400
v 0.287941 0.127700 -1.359505
v 0.287941 0.209926 -1.382719
v 0.317941 0.209926 -1.382719
v 0.317941 0.130205 -1.389400
v 0.287941 0.130205 -1.389400
v 0.317941 0.209926 -1.382719
v 0.317941 0.207420 -1.352824
v 0.317941 0.127700 -1.359505
v 0.317941 0.130205 -1.389400
v 0.317941 0.209926 -1.382719
v 0.287941 0.209926 -1.382719
v 0.287941 0.207420 -1.352824
v 0.317941 0.207420 -1.352824
v -0.469926 0.055774 -0.557710
v -0.469926 0.067465 -0.697221
v 0.470074 0.067465 -0.697221
v 0.470074 0.055774 -0.557710
v -0.469926 0.076651 -0.806837
v -0.469926 0.088341 -0.946348
v 0.470074 0.088341 -0.946348
v 0.470074 0.076651 -0.806837
v -0.469926 0.097527 -1.055964
v -0.469926 0.109217 -1.195475
v 0.470074 0.109217 -1.195475
v 0.470074 0.097527 -1.055964
v -0.469926 0.118402 -1.305091
v -0.469926 0.130093 -1.444602
v 0.470074 0.130093 -1.444602
v 0.470074 0.118402 -1.305091
v 0.470074 0.139278 -1.554218
v 0.470074 0.199069 -1.549207
v -0.469926 0.199069 -1.549207
v -0.469926 0.139278 -1.554218
v 0.470074 0.150970 -1.693729
v 0.470074 0.210760 -1.688719
v 0.470074 0.199069 -1.549207
v 0.470074 0.139278 -1.554218
v -0.469926 0.150970 -1.693729
v -0.469926 0.210760 -1.688719
v 0.470074 0.210760 -1.688719
v 0.470074 0.150970 -1.693729
v -0.469926 0.139278 -1.554218
v -0.469926 0.199069 -1.549207
v -0.469926 0.210760 -1.688719
v -0.469926 0.150970 -1.693729
v 0.470074 0.199069 -1.549207
v 0.470074 0.210760 -1.688719
v -0.469926 0.210760 -1.688719
v -0.469926 0.199069 -1.549207
v 0.360551 0.205726 -1.493457
v 0.360551 0.190293 -1.494750
v 0.360551 0.273797 -2.491257
v 0.360551 0.289230 -2.489965
v 0.470074 0.181031 -2.052471
v 0.470074 0.240821 -2.047462
v -0.469926 0.240821 -2.047462
v -0.469926 0.181031 -2.052471
v 0.470074 0.192721 -2.191982
v 0.470074 0.252511 -2.186972
v 0.470074 0.240821 -2.047462
v 0.470074 0.181031 -2.052471
v -0.469926 0.192721 -2.191982
v -0.469926 0.252511 -2.186972
v 0.470074 0.252511 -2.186972
v 0.470074 0.192721 -2.191982
v -0.469926 0.181031 -2.052471
v -0.469926 0.240821 -2.047462
v -0.469926 0.252511 -2.186972
v -0.469926 0.192721 -2.191982
v 0.470074 0.240821 -2.047462
v 0.470074 0.252511 -2.186972
v -0.469926 0.252511 -2.186972
v -0.469926 0.240821 -2.047462
v 0.300551 0.289230 -2.489965
v 0.300551 0.273797 -2.491257
v 0.300551 0.190293 -1.494750
v 0.300551 0.205726 -1.493457
v 0.352440 0.333588 -2.486247
v 0.308662 0.333588 -2.486247
v 0.308662 0.250084 -1.489740
v 0.352440 0.250084 -1.489740
v 0.360551 0.273797 -2.491257
v 0.360551 0.190293 -1.494750
v 0.300551 0.190293 -1.494750
v 0.300551 0.273797 -2.491257
v 0.318296 0.235915 -1.490927
v 0.318296 0.319419 -2.487434
v 0.318296 0.289230 -2.489965
v 0.318296 0.205726 -1.493457
v 0.308662 0.250084 -1.489740
v 0.308662 0.333588 -2.486247
v 0.308662 0.319419 -2.487434
v 0.308662 0.235915 -1.490927
v 0.318296 0.319419 -2.487434
v 0.318296 0.235915 -1.490927
v 0.308662 0.235915 -1.490927
v 0.308662 0.319419 -2.487434
v 0.300551 0.289230 -2.489965
v 0.300551 0.205726 -1.493457
v 0.318296 0.205726 -1.493457
v 0.318296 0.289230 -2.489965
v 0.342806 0.319419 -2.487434
v 0.342806 0.235915 -1.490927
v 0.342806 0.205726 -1.493457
v 0.342806 0.289230 -2.489965
v 0.352440 0.333588 -2.486247
v 0.352440 0.250084 -1.489740
v 0.352440 0.235915 -1.490927
v 0.352440 0.319419 -2.487434
v 0.352440 0.319419 -2.487434
v 0.352440 0.235915 -1.490927
v 0.342806 0.235915 -1.490927
v 0.342806 0.319419 -2.487434
v 0.342806 0.289230 -2.489965
v 0.342806 0.205726 -1.493457
v 0.360551 0.205726 -1.493457
v 0.360551 0.289230 -2.489965
v 0.470074 0.160155 -1.803344
v 0.470074 0.219945 -1.798335
v -0.469926 0.219945 -1.798335
v -0.469926 0.160155 -1.803344
v 0.470074 0.171845 -1.942855
v 0.470074 0.231635 -1.937846
v 0.470074 0.219945 -1.798335
v 0.470074 0.160155 -1.803344
v -0.469926 0.171845 -1.942855
v -0.469926 0.231635 -1.937846
v 0.470074 0.231635 -1.937846
v 0.470074 0.171845 -1.942855
v -0.469926 0.160155 -1.803344
v -0.469926 0.219945 -1.798335
v -0.469926 0.231635 -1.937846
v -0.469926 0.171845 -1.942855
v 0.470074 0.219945 -1.798335
v 0.470074 0.231635 -1.937846
v -0.469926 0.231635 -1.937846
v -0.469926 0.219945 -1.798335
v -0.360403 0.273797 -2.491257
v -0.360403 0.190293 -1.494750
v -0.360403 0.205726 -1.493457
v -0.360403 0.289230 -2.489965
v 0.470074 0.201906 -2.301598
v 0.470074 0.261697 -2.296588
v -0.469926 0.261697 -2.296588
v -0.469926 0.201906 -2.301598
v 0.470074 0.213597 -2.441110
v 0.470074 0.273388 -2.436099
v 0.470074 0.261697 -2.296588
v 0.470074 0.201906 -2.301598
v -0.469926 0.213597 -2.441110
v -0.469926 0.273388 -2.436099
v 0.470074 0.273388 -2.436099
v 0.470074 0.213597 -2.441110
v -0.469926 0.201906 -2.301598
v -0.469926 0.261697 -2.296588
v -0.469926 0.273388 -2.436099
v -0.469926 0.213597 -2.441110
v 0.470074 0.261697 -2.296588
v 0.470074 0.273388 -2.436099
v -0.469926 0.273388 -2.436099
v -0.469926 0.261697 -2.296588
v -0.300403 0.190293 -1.494750
v -0.300403 0.273797 -2.491257
v -0.300403 0.289230 -2.489965
v -0.300403 0.205726 -1.493457
v -0.308514 0.250084 -1.489740
v -0.308514 0.333588 -2.486247
v -0.352292 0.333588 -2.486247
v -0.352292 0.250084 -1.489740
v -0.300403 0.190293 -1.494750
v -0.360403 0.190293 -1.494750
v -0.360403 0.273797 -2.491257
v -0.300403 0.273797 -2.491257
v -0.318148 0.289230 -2.489965
v -0.318148 0.319419 -2.487434
v -0.318148 0.235915 -1.490927
v -0.318148 0.205726 -1.493457
v -0.308514 0.319419 -2.487434
v -0.308514 0.333588 -2.486247
v -0.308514 0.250084 -1.489740
v -0.308514 0.235915 -1.490927
v -0.308514 0.235915 -1.490927
v -0.318148 0.235915 -1.490927
v -0.318148 0.319419 -2.487434
v -0.308514 0.319419 -2.487434
v -0.318148 0.205726 -1.493457
v -0.300403 0.205726 -1.493457
v -0.300403 0.289230 -2.489965
v -0.318148 0.289230 -2.489965
v -0.342658 0.205726 -1.493457
v -0.342658 0.235915 -1.490927
v -0.342658 0.319419 -2.487434
v -0.342658 0.289230 -2.489965
v -0.352292 0.235915 -1.490927
v -0.352292 0.250084 -1.489740
v -0.352292 0.333588 -2.486247
v -0.352292 0.319419 -2.487434
v -0.342658 0.235915 -1.490927
v -0.352292 0.235915 -1.490927
v -0.352292 0.319419 -2.487434
v -0.342658 0.319419 -2.487434
v -0.360403 0.205726 -1.493457
v -0.342658 0.205726 -1.493457
v -0.342658 0.289230 -2.489965
v -0.360403 0.289230 -2.489965
v -0.287793 0.148576 -1.608631
v -0.287793 0.228297 -1.601951
v -0.317793 0.228297 -1.601951
v -0.317793 0.148576 -1.608631
v -0.287793 0.151080 -1.638526
v -0.287793 0.230801 -1.631846
v -0.287793 0.228297 -1.601951
v -0.287793 0.148576 -1.608631
v -0.317793 0.151080 -1.638526
v -0.317793 0.230801 -1.631846
v -0.287793 0.230801 -1.631846
v -0.287793 0.151080 -1.638526
v -0.317793 0.148576 -1.608631
v -0.317793 0.228297 -1.601951
v -0.317793 0.230801 -1.631846
v -0.317793 0.151080 -1.638526
v -0.287793 0.228297 -1.601951
v -0.287793 0.230801 -1.631846
v -0.317793 0.230801 -1.631846
v -0.317793 0.228297 -1.601951
v 0.317941 0.228297 -1.601951
v 0.287941 0.228297 -1.601951
v 0.287941 0.148576 -1.608631
v 0.317941 0.148576 -1.608631
v 0.287941 0.228297 -1.601951
v 0.287941 0.230801 -1.631846
v 0.287941 0.151080 -1.638526
v 0.287941 0.148576 -1.608631
v 0.287941 0.230801 -1.631846
v 0.317941 0.230801 -1.631846
v 0.317941 0.151080 -1.638526
v 0.287941 0.151080 -1.638526
v 0.317941 0.230801 -1.631846
v 0.317941 0.228297 -1.601951
v 0.317941 0.148576 -1.608631
v 0.317941 0.151080 -1.638526
v 0.317941 0.230801 -1.631846
v 0.287941 0.230801 -1.631846
v 0.287941 0.228297 -1.601951
v 0.317941 0.228297 -1.601951
v -0.287793 0.169451 -1.857758
v -0.287793 0.249172 -1.851078
v -0.317793 0.249172 -1.851078
v -0.317793 0.169451 -1.857758
v -0.287793 0.171957 -1.887653
v -0.287793 0.251677 -1.880974
v -0.287793 0.249172 -1.851078
v -0.287793 0.169451 -1.857758
v -0.317793 0.171957 -1.887653
v -0.317793 0.251677 -1.880974
v -0.287793 0.251677 -1.880974
v -0.287793 0.171957 -1.887653
v -0.317793 0.169451 -1.857758
v -0.317793 0.249172 -1.851078
v -0.317793 0.251677 -1.880974
v -0.317793 0.171957 -1.887653
v -0.287793 0.249172 -1.851078
v -0.287793 0.251677 -1.880974
v -0.317793 0.251677 -1.880974
v -0.317793 0.249172 -1.851078
v 0.317941 0.249172 -1.851078
v 0.287941 0.249172 -1.851078
v 0.287941 0.169451 -1.857758
v 0.317941 0.169451 -1.857758
v 0.287941 0.249172 -1.851078
v 0.287941 0.251677 -1.880974
v 0.287941 0.171957 -1.887653
v 0.287941 0.169451 -1.857758
v 0.287941 0.251677 -1.880974
v 0.317941 0.251677 -1.880974
v 0.317941 0.171957 -1.887653
v 0.287941 0.171957 -1.887653
v 0.317941 0.251677 -1.880974
v 0.317941 0.249172 -1.851078
v 0.317941 0.169451 -1.857758
v 0.317941 0.171957 -1.887653
v 0.317941 0.251677 -1.880974
v 0.287941 0.251677 -1.880974
v 0.287941 0.249172 -1.851078
v 0.317941 0.249172 -1.851078
v -0.287793 0.190327 -2.106885
v -0.287793 0.270048 -2.100205
v -0.317793 0.270048 -2.100205
v -0.317793 0.190327 -2.106885
v -0.287793 0.192833 -2.136780
v -0.287793 0.272553 -2.130100
v -0.287793 0.270048 -2.100205
v -0.287793 0.190327 -2.106885
v -0.317793 0.192833 -2.136780
v -0.317793 0.272553 -2.130100
v -0.287793 0.272553 -2.130100
v -0.287793 0.192833 -2.136780
v -0.317793 0.190327 -2.106885
v -0.317793 0.270048 -2.100205
v -0.317793 0.272553 -2.130100
v -0.317793 0.192833 -2.136780
v -0.287793 0.270048 -2.100205
v -0.287793 0.272553 -2.130100
v -0.317793 0.272553 -2.130100
v -0.317793 0.270048 -2.100205
v 0.317941 0.270048 -2.100205
v 0.287941 0.270048 -2.100205
v 0.287941 0.190327 -2.106885
v 0.317941 0.190327 -2.106885
v 0.287941 0.270048 -2.100205
v 0.287941 0.272553 -2.130100
v 0.287941 0.192833 -2.136780
v 0.287941 0.190327 -2.106885
v 0.287941 0.272553 -2.130100
v 0.317941 0.272553 -2.130100
v 0.317941 0.192833 -2.136780
v 0.287941 0.192833 -2.136780
v 0.317941 0.272553 -2.130100
v 0.317941 0.270048 -2.100205
v 0.317941 0.190327 -2.106885
v 0.317941 0.192833 -2.136780
v 0.317941 0.272553 -2.130100
v 0.287941 0.272553 -2.130100
v 0.287941 0.270048 -2.100205
v 0.317941 0.270048 -2.100205
v -0.287793 0.211204 -2.356012
v -0.287793 0.290924 -2.349332
v -0.317793 0.290924 -2.349332
v -0.317793 0.211204 -2.356012
v -0.287793 0.213709 -2.385908
v -0.287793 0.293429 -2.379227
v -0.287793 0.290924 -2.349332
v -0.287793 0.211204 -2.356012
v -0.317793 0.213709 -2.385908
v -0.317793 0.293429 -2.379227
v -0.287793 0.293429 -2.379227
v -0.287793 0.213709 -2.385908
v -0.317793 0.211204 -2.356012
v -0.317793 0.290924 -2.349332
v -0.317793 0.293429 -2.379227
v -0.317793 0.213709 -2.385908
v -0.287793 0.290924 -2.349332
v -0.287793 0.293429 -2.379227
v -0.317793 0.293429 -2.379227
v -0.317793 0.290924 -2.349332
v 0.317941 0.290924 -2.349332
v 0.287941 0.290924 -2.349332
v 0.287941 0.211204 -2.356012
v 0.317941 0.211204 -2.356012
v 0.287941 0.290924 -2.349332
v 0.287941 0.293429 -2.379227
v 0.287941 0.213709 -2.385908
v 0.287941 0.211204 -2.356012
v 0.287941 0.293429 -2.379227
v 0.317941 0.293429 -2.379227
v 0.317941 0.213709 -2.385908
v 0.287941 0.213709 -2.385908
v 0.317941 0.293429 -2.379227
v 0.317941 0.290924 -2.349332
v 0.317941 0.211204 -2.356012
v 0.317941 0.213709 -2.385908
v 0.317941 0.293429 -2.379227
v 0.287941 0.293429 -2.379227
v 0.287941 0.290924 -2.349332
v 0.317941 0.290924 -2.349332
v -0.469926 0.139278 -1.554218
v -0.469926 0.150970 -1.693729
v 0.470074 0.150970 -1.693729
v 0.470074 0.139278 -1.554218
v -0.469926 0.160155 -1.803344
v -0.469926 0.171845 -1.942855
v 0.470074 0.171845 -1.942855
v 0.470074 0.160155 -1.803344
v -0.469926 0.181031 -2.052471
v -0.469926 0.192721 -2.191982
v 0.470074 0.192721 -2.191982
v 0.470074 0.181031 -2.052471
v -0.469926 0.201906 -2.301598
v -0.469926 0.213597 -2.441110
v 0.470074 0.213597 -2.441110
v 0.470074 0.201906 -2.301598
v 0.470074 0.285411 -3.298106
v 0.470074 0.345201 -3.293095
v -0.469926 0.345201 -3.293095
v -0.469926 0.285411 -3.298106
v 0.470074 0.297101 -3.437617
v 0.470074 0.356891 -3.432607
v 0.470074 0.345201 -3.293095
v 0.470074 0.285411 -3.298106
v -0.469926 0.297101 -3.437617
v -0.469926 0.356891 -3.432607
v 0.470074 0.356891 -3.432607
v 0.470074 0.297101 -3.437617
v -0.469926 0.285411 -3.298106
v -0.469926 0.345201 -3.293095
v -0.469926 0.356891 -3.432607
v -0.469926 0.297101 -3.437617
v 0.470074 0.345201 -3.293095
v 0.470074 0.356891 -3.432607
v -0.469926 0.356891 -3.432607
v -0.469926 0.345201 -3.293095
v 0.360551 0.289230 -2.489965
v 0.360551 0.273797 -2.491257
v 0.360551 0.357301 -3.487764
v 0.360551 0.372734 -3.486472
v 0.470074 0.222782 -2.550725
v 0.470074 0.282573 -2.545715
v -0.469926 0.282573 -2.545715
v -0.469926 0.222782 -2.550725
v 0.470074 0.234473 -2.690237
v 0.470074 0.294264 -2.685226
v 0.470074 0.282573 -2.545715
v 0.470074 0.222782 -2.550725
v -0.469926 0.234473 -2.690237
v -0.469926 0.294264 -2.685226
v 0.470074 0.294264 -2.685226
v 0.470074 0.234473 -2.690237
v -0.469926 0.222782 -2.550725
v -0.469926 0.282573 -2.545715
v -0.469926 0.294264 -2.685226
v -0.469926 0.234473 -2.690237
v 0.470074 0.282573 -2.545715
v 0.470074 0.294264 -2.685226
v -0.469926 0.294264 -2.685226
v -0.469926 0.282573 -2.545715
v 0.300551 0.372734 -3.486472
v 0.300551 0.357301 -3.487764
v 0.300551 0.273797 -2.491257
v 0.300551 0.289230 -2.489965
v 0.352440 0.417091 -3.482755
v 0.308662 0.417091 -3.482755
v 0.308662 0.333588 -2.486247
v 0.352440 0.333588 -2.486247
v 0.360551 0.357301 -3.487764
v 0.360551 0.273797 -2.491257
v 0.300551 0.273797 -2.491257
v 0.300551 0.357301 -3.487764
v 0.318296 0.319419 -2.487434
v 0.318296 0.402923 -3.483942
v 0.318296 0.372734 -3.486472
v 0.318296 0.289230 -2.489965
v 0.308662 0.333588 -2.486247
v 0.308662 0.417091 -3.482755
v 0.308662 0.402923 -3.483942
v 0.308662 0.319419 -2.487434
v 0.318296 0.402923 -3.483942
v 0.318296 0.319419 -2.487434
v 0.308662 0.319419 -2.487434
v 0.308662 0.402923 -3.483942
v 0.300551 0.372734 -3.486472
v 0.300551 0.289230 -2.489965
v 0.318296 0.289230 -2.489965
v 0.318296 0.372734 -3.486472
v 0.342806 0.402923 -3.483942
v 0.342806 0.319419 -2.487434
v 0.342806 0.289230 -2.489965
v 0.342806 0.372734 -3.486472
v 0.352440 0.417091 -3.482755
v 0.352440 0.333588 -2.486247
v 0.352440 0.319419 -2.487434
v 0.352440 0.402923 -3.483942
v 0.352440 0.402923 -3.483942
v 0.352440 0.319419 -2.487434
v 0.342806 0.319419 -2.487434
v 0.342806 0.402923 -3.483942
v 0.342806 0.372734 -3.486472
v 0.342806 0.289230 -2.489965
v 0.360551 0.289230 -2.489965
v 0.360551 0.372734 -3.486472
v 0.470074 0.264535 -3.048979
v 0.470074 0.324325 -3.043968
v -0.469926 0.324325 -3.043968
v -0.469926 0.264535 -3.048979
v 0.470074 0.276225 -3.188490
v 0.470074 0.336015 -3.183479
v 0.470074 0.324325 -3.043968
v 0.470074 0.264535 -3.048979
v -0.469926 0.276225 -3.188490
v -0.469926 0.336015 -3.183479
v 0.470074 0.336015 -3.183479
v 0.470074 0.276225 -3.188490
v -0.469926 0.264535 -3.048979
v -0.469926 0.324325 -3.043968
v -0.469926 0.336015 -3.183479
v -0.469926 0.276225 -3.188490
v 0.470074 0.324325 -3.043968
v 0.470074 0.336015 -3.183479
v -0.469926 0.336015 -3.183479
v -0.469926 0.324325 -3.043968
v -0.360403 0.357301 -3.487764
v -0.360403 0.273797 -2.491257
v -0.360403 0.289230 -2.489965
v -0.360403 0.372734 -3.486472
v 0.470074 0.243658 -2.799852
v 0.470074 0.303449 -2.794842
v -0.469926 0.303449 -2.794842
v -0.469926 0.243658 -2.799852
v 0.470074 0.255349 -2.939363
v 0.470074 0.315139 -2.934352
v 0.470074 0.303449 -2.794842
v 0.470074 0.243658 -2.799852
v -0.469926 0.255349 -2.939363
v -0.469926 0.315139 -2.934352
v 0.470074 0.315139 -2.934352
v 0.470074 0.255349 -2.939363
v -0.469926 0.243658 -2.799852
v -0.469926 0.303449 -2.794842
v -0.469926 0.315139 -2.934352
v -0.469926 0.255349 -2.939363
v 0.470074 0.303449 -2.794842
v 0.470074 0.315139 -2.934352
v -0.469926 0.315139 -2.934352
v -0.469926 0.303449 -2.794842
v -0.300403 0.273797 -2.491257
v -0.300403 0.357301 -3.487764
v -0.300403 0.372734 -3.486472
v -0.300403 0.289230 -2.489965
v -0.308514 0.333588 -2.486247
v -0.308514 0.417091 -3.482755
v -0.352292 0.417091 -3.482755
v -0.352292 0.333588 -2.486247
v -0.300403 0.273797 -2.491257
v -0.360403 0.273797 -2.491257
v -0.360403 0.357301 -3.487764
v -0.300403 0.357301 -3.487764
v -0.318148 0.372734 -3.486472
v -0.318148 0.402923 -3.483942
v -0.318148 0.319419 -2.487434
v -0.318148 0.289230 -2.489965
v -0.308514 0.402923 -3.483942
v -0.308514 0.417091 -3.482755
v -0.308514 0.333588 -2.486247
v -0.308514 0.319419 -2.487434
v -0.308514 0.319419 -2.487434
v -0.318148 0.319419 -2.487434
v -0.318148 0.402923 -3.483942
v -0.308514 0.402923 -3.483942
v -0.318148 0.289230 -2.489965
v -0.300403 0.289230 -2.489965
v -0.300403 0.372734 -3.486472
v -0.318148 0.372734 -3.486472
v -0.342658 0.289230 -2.489965
v -0.342658 0.319419 -2.487434
v -0.342658 0.402923 -3.483942
v -0.342658 0.372734 -3.486472
v -0.352292 0.319419 -2.487434
v -0.352292 0.333588 -2.486247
v -0.352292 0.417091 -3.482755
v -0.352292 0.402923 -3.483942
v -0.342658 0.319419 -2.487434
v -0.352292 0.319419 -2.487434
v -0.352292 0.402923 -3.483942
v -0.342658 0.402923 -3.483942
v -0.360403 0.289230 -2.489965
v -0.342658 0.289230 -2.489965
v -0.342658 0.372734 -3.486472
v -0.360403 0.372734 -3.486472
v -0.287793 0.232080 -2.605139
v -0.287793 0.311800 -2.598459
v -0.317793 0.311800 -2.598459
v -0.317793 0.232080 -2.605139
v -0.287793 0.234584 -2.635034
v -0.287793 0.314305 -2.628354
v -0.287793 0.311800 -2.598459
v -0.287793 0.232080 -2.605139
v -0.317793 0.234584 -2.635034
v -0.317793 0.314305 -2.628354
v -0.287793 0.314305 -2.628354
v -0.287793 0.234584 -2.635034
v -0.317793 0.232080 -2.605139
v -0.317793 0.311800 -2.598459
v -0.317793 0.314305 -2.628354
v -0.317793 0.234584 -2.635034
v -0.287793 0.311800 -2.598459
v -0.287793 0.314305 -2.628354
v -0.317793 0.314305 -2.628354
v -0.317793 0.311800 -2.598459
v 0.317941 0.311800 -2.598459
v 0.287941 0.311800 -2.598459
v 0.287941 0.232080 -2.605139
v 0.317941 0.232080 -2.605139
v 0.287941 0.311800 -2.598459
v 0.287941 0.314305 -2.628354
v 0.287941 0.234584 -2.635034
v 0.287941 0.232080 -2.605139
v 0.287941 0.314305 -2.628354
v 0.317941 0.314305 -2.628354
v 0.317941 0.234584 -2.635034
v 0.287941 0.234584 -2.635034
v 0.317941 0.314305 -2.628354
v 0.317941 0.311800 -2.598459
v 0.317941 0.232080 -2.605139
v 0.317941 0.234584 -2.635034
v 0.317941 0.314305 -2.628354
v 0.287941 0.314305 -2.628354
v 0.287941 0.311800 -2.598459
v 0.317941 0.311800 -2.598459
v -0.287793 0.252955 -2.854266
v -0.287793 0.332676 -2.847585
v -0.317793 0.332676 -2.847585
v -0.317793 0.252955 -2.854266
v -0.287793 0.255460 -2.884161
v -0.287793 0.335181 -2.877481
v -0.287793 0.332676 -2.847585
v -0.287793 0.252955 -2.854266
v -0.317793 0.255460 -2.884161
v -0.317793 0.335181 -2.877481
v -0.287793 0.335181 -2.877481
v -0.287793 0.255460 -2.884161
v -0.317793 0.252955 -2.854266
v -0.317793 0.332676 -2.847585
v -0.317793 0.335181 -2.877481
v -0.317793 0.255460 -2.884161
v -0.287793 0.332676 -2.847585
v -0.287793 0.335181 -2.877481
v -0.317793 0.335181 -2.877481
v -0.317793 0.332676 -2.847585
v 0.317941 0.332676 -2.847585
v 0.287941 0.332676 -2.847585
v 0.287941 0.252955 -2.854266
v 0.317941 0.252955 -2.854266
v 0.287941 0.332676 -2.847585
v 0.287941 0.335181 -2.877481
v 0.287941 0.255460 -2.884161
v 0.287941 0.252955 -2.854266
v 0.287941 0.335181 -2.877481
v 0.317941 0.335181 -2.877481
v 0.317941 0.255460 -2.884161
v 0.287941 0.255460 -2.884161
v 0.317941 0.335181 -2.877481
v 0.317941 0.332676 -2.847585
v 0.317941 0.252955 -2.854266
v 0.317941 0.255460 -2.884161
v 0.317941 0.335181 -2.877481
v 0.287941 0.335181 -2.877481
v 0.287941 0.332676 -2.847585
v 0.317941 0.332676 -2.847585
v -0.287793 0.273831 -3.103393
v -0.287793 0.353552 -3.096712
v -0.317793 0.353552 -3.096712
v -0.317793 0.273831 -3.103393
v -0.287793 0.276337 -3.133288
v -0.287793 0.356057 -3.126607
v -0.287793 0.353552 -3.096712
v -0.287793 0.273831 -3.103393
v -0.317793 0.276337 -3.133288
v -0.317793 0.356057 -3.126607
v -0.287793 0.356057 -3.126607
v -0.287793 0.276337 -3.133288
v -0.317793 0.273831 -3.103393
v -0.317793 0.353552 -3.096712
v -0.317793 0.356057 -3.126607
v -0.317793 0.276337 -3.133288
v -0.287793 0.353552 -3.096712
v -0.287793 0.356057 -3.126607
v -0.317793 0.356057 -3.126607
v -0.317793 0.353552 -3.096712
v 0.317941 0.353552 -3.096712
v 0.287941 0.353552 -3.096712
v 0.287941 0.273831 -3.103393
v 0.317941 0.273831 -3.103393
v 0.287941 0.353552 -3.096712
v 0.287941 0.356057 -3.126607
v 0.287941 0.276337 -3.133288
v 0.287941 0.273831 -3.103393
v 0.287941 0.356057 -3.126607
v 0.317941 0.356057 -3.126607
v 0.317941 0.276337 -3.133288
v 0.287941 0.276337 -3.133288
v 0.317941 0.356057 -3.126607
v 0.317941 0.353552 -3.096712
v 0.317941 0.273831 -3.103393
v 0.317941 0.276337 -3.133288
v 0.317941 0.356057 -3.126607
v 0.287941 0.356057 -3.126607
v 0.287941 0.353552 -3.096712
v 0.317941 0.353552 -3.096712
v -0.287793 0.294707 -3.352519
v -0.287793 0.374428 -3.345839
v -0.317793 0.374428 -3.345839
v -0.317793 0.294707 -3.352519
v -0.287793 0.297213 -3.382415
v -0.287793 0.376933 -3.375734
v -0.287793 0.374428 -3.345839
v -0.287793 0.294707 -3.352519
v -0.317793 0.297213 -3.382415
v -0.317793 0.376933 -3.375734
v -0.287793 0.376933 -3.375734
v -0.287793 0.297213 -3.382415
v -0.317793 0.294707 -3.352519
v -0.317793 0.374428 -3.345839
v -0.317793 0.376933 -3.375734
v -0.317793 0.297213 -3.382415
v -0.287793 0.374428 -3.345839
v -0.287793 0.376933 -3.375734
v -0.317793 0.376933 -3.375734
v -0.317793 0.374428 -3.345839
v 0.317941 0.374428 -3.345839
v 0.287941 0.374428 -3.345839
v 0.287941 0.294707 -3.352519
v 0.317941 0.294707 -3.352519
v 0.287941 0.374428 -3.345839
v 0.287941 0.376933 -3.375734
v 0.287941 0.297213 -3.382415
v 0.287941 0.294707 -3.352519
v 0.287941 0.376933 -3.375734
v 0.317941 0.376933 -3.375734
v 0.317941 0.297213 -3.382415
v 0.287941 0.297213 -3.382415
v 0.317941 0.376933 -3.375734
v 0.317941 0.374428 -3.345839
v 0.317941 0.294707 -3.352519
v 0.317941 0.297213 -3.382415
v 0.317941 0.376933 -3.375734
v 0.287941 0.376933 -3.375734
v 0.287941 0.374428 -3.345839
v 0.317941 0.374428 -3.345839
v -0.469926 0.222782 -2.550725
v -0.469926 0.234473 -2.690237
v 0.470074 0.234473 -2.690237
v 0.470074 0.222782 -2.550725
v -0.469926 0.243658 -2.799852
v -0.469926 0.255349 -2.939363
v 0.470074 0.255349 -2.939363
v 0.470074 0.243658 -2.799852
v -0.469926 0.264535 -3.048979
v -0.469926 0.276225 -3.188490
v 0.470074 0.276225 -3.188490
v 0.470074 0.264535 -3.048979
v -0.469926 0.285411 -3.298106
v -0.469926 0.297101 -3.437617
v 0.470074 0.297101 -3.437617
v 0.470074 0.285411 -3.298106
v 0.470074 0.306286 -3.547232
v 0.470074 0.366076 -3.542223
v -0.469926 0.366076 -3.542223
v -0.469926 0.306286 -3.547232
v 0.470074 0.317977 -3.686743
v 0.470074 0.377768 -3.681734
v 0.470074 0.366076 -3.542223
v 0.470074 0.306286 -3.547232
v -0.469926 0.317977 -3.686743
v -0.469926 0.377768 -3.681734
v 0.470074 0.377768 -3.681734
v 0.470074 0.317977 -3.686743
v -0.469926 0.306286 -3.547232
v -0.469926 0.366076 -3.542223
v -0.469926 0.377768 -3.681734
v -0.469926 0.317977 -3.686743
v 0.470074 0.366076 -3.542223
v 0.470074 0.377768 -3.681734
v -0.469926 0.377768 -3.681734
v -0.469926 0.366076 -3.542223
v 0.360551 0.372734 -3.486472
v 0.360551 0.357301 -3.487764
v 0.360551 0.440805 -4.484272
v 0.360551 0.456237 -4.482979
v 0.470074 0.368915 -4.294613
v 0.470074 0.428705 -4.289603
v -0.469926 0.428705 -4.289603
v -0.469926 0.368915 -4.294613
v 0.470074 0.380605 -4.434124
v 0.470074 0.440395 -4.429114
v 0.470074 0.428705 -4.289603
v 0.470074 0.368915 -4.294613
v -0.469926 0.380605 -4.434124
v -0.469926 0.440395 -4.429114
v 0.470074 0.440395 -4.429114
v 0.470074 0.380605 -4.434124
v -0.469926 0.368915 -4.294613
v -0.469926 0.428705 -4.289603
v -0.469926 0.440395 -4.429114
v -0.469926 0.380605 -4.434124
v 0.470074 0.428705 -4.289603
v 0.470074 0.440395 -4.429114
v -0.469926 0.440395 -4.429114
v -0.469926 0.428705 -4.289603
v 0.300551 0.456237 -4.482979
v 0.300551 0.440805 -4.484272
v 0.300551 0.357301 -3.487764
v 0.300551 0.372734 -3.486472
v 0.352440 0.500595 -4.479261
v 0.308662 0.500595 -4.479261
v 0.308662 0.417091 -3.482755
v 0.352440 0.417091 -3.482755
v 0.360551 0.440805 -4.484272
v 0.360551 0.357301 -3.487764
v 0.300551 0.357301 -3.487764
v 0.300551 0.440805 -4.484272
v 0.318296 0.402923 -3.483942
v 0.318296 0.486427 -4.480450
v 0.318296 0.456237 -4.482979
v 0.318296 0.372734 -3.486472
v 0.308662 0.417091 -3.482755
v 0.308662 0.500595 -4.479261
v 0.308662 0.486427 -4.480450
v 0.308662 0.402923 -3.483942
v 0.318296 0.486427 -4.480450
v 0.318296 0.402923 -3.483942
v 0.308662 0.402923 -3.483942
v 0.308662 0.486427 -4.480450
v 0.300551 0.456237 -4.482979
v 0.300551 0.372734 -3.486472
v 0.318296 0.372734 -3.486472
v 0.318296 0.456237 -4.482979
v 0.342806 0.486427 -4.480450
v 0.342806 0.402923 -3.483942
v 0.342806 0.372734 -3.486472
v 0.342806 0.456237 -4.482979
v 0.352440 0.500595 -4.479261
v 0.352440 0.417091 -3.482755
v 0.352440 0.402923 -3.483942
v 0.352440 0.486427 -4.480450
v 0.352440 0.486427 -4.480450
v 0.352440 0.402923 -3.483942
v 0.342806 0.402923 -3.483942
v 0.342806 0.486427 -4.480450
v 0.342806 0.456237 -4.482979
v 0.342806 0.372734 -3.486472
v 0.360551 0.372734 -3.486472
v 0.360551 0.456237 -4.482979
v 0.470074 0.327162 -3.796359
v 0.470074 0.386953 -3.791349
v -0.469926 0.386953 -3.791349
v -0.469926 0.327162 -3.796359
v 0.470074 0.338852 -3.935870
v 0.470074 0.398643 -3.930860
v 0.470074 0.386953 -3.791349
v 0.470074 0.327162 -3.796359
v -0.469926 0.338852 -3.935870
v -0.469926 0.398643 -3.930860
v 0.470074 0.398643 -3.930860
v 0.470074 0.338852 -3.935870
v -0.469926 0.327162 -3.796359
v -0.469926 0.386953 -3.791349
v -0.469926 0.398643 -3.930860
v -0.469926 0.338852 -3.935870
v 0.470074 0.386953 -3.791349
v 0.470074 0.398643 -3.930860
v -0.469926 0.398643 -3.930860
v -0.469926 0.386953 -3.791349
v -0.360403 0.440805 -4.484272
v -0.360403 0.357301 -3.487764
v -0.360403 0.372734 -3.486472
v -0.360403 0.456237 -4.482979
v 0.470074 0.348038 -4.045486
v 0.470074 0.407829 -4.040476
v -0.469926 0.407829 -4.040476
v -0.469926 0.348038 -4.045486
v 0.470074 0.359729 -4.184998
v 0.470074 0.419519 -4.179987
v 0.470074 0.407829 -4.040476
v 0.470074 0.348038 -4.045486
v -0.469926 0.359729 -4.184998
v -0.469926 0.419519 -4.179987
v 0.470074 0.419519 -4.179987
v 0.470074 0.359729 -4.184998
v -0.469926 0.348038 -4.045486
v -0.469926 0.407829 -4.040476
v -0.469926 0.419519 -4.179987
v -0.469926 0.359729 -4.184998
v 0.470074 0.407829 -4.040476
v 0.470074 0.419519 -4.179987
v -0.469926 0.419519 -4.179987
v -0.469926 0.407829 -4.040476
v -0.300403 0.357301 -3.487764
v -0.300403 0.440805 -4.484272
v -0.300403 0.456237 -4.482979
v -0.300403 0.372734 -3.486472
v -0.308514 0.417091 -3.482755
v -0.308514 0.500595 -4.479261
v -0.352292 0.500595 -4.479261
v -0.352292 0.417091 -3.482755
v -0.300403 0.357301 -3.487764
v -0.360403 0.357301 -3.487764
v -0.360403 0.440805 -4.484272
v -0.300403 0.440805 -4.484272
v -0.318148 0.456237 -4.482979
v -0.318148 0.486427 -4.480450
v -0.318148 0.402923 -3.483942
v -0.318148 0.372734 -3.486472
v -0.308514 0.486427 -4.480450
v -0.308514 0.500595 -4.479261
v -0.308514 0.417091 -3.482755
v -0.308514 0.402923 -3.483942
v -0.308514 0.402923 -3.483942
v -0.318148 0.402923 -3.483942
v -0.318148 0.486427 -4.480450
v -0.308514 0.486427 -4.480450
v -0.318148 0.372734 -3.486472
v -0.300403 0.372734 -3.486472
v -0.300403 0.456237 -4.482979
v -0.318148 0.456237 -4.482979
v -0.342658 0.372734 -3.486472
v -0.342658 0.402923 -3.483942
v -0.342658 0.486427 -4.480450
v -0.342658 0.456237 -4.482979
v -0.352292 0.402923 -3.483942
v -0.352292 0.417091 -3.482755
v -0.352292 0.500595 -4.479261
v -0.352292 0.486427 -4.480450
v -0.342658 0.402923 -3.483942
v -0.352292 0.402923 -3.483942
v -0.352292 0.486427 -4.480450
v -0.342658 0.486427 -4.480450
v -0.360403 0.372734 -3.486472
v -0.342658 0.372734 -3.486472
v -0.342658 0.456237 -4.482979
v -0.360403 0.456237 -4.482979
v -0.287793 0.315584 -3.601646
v -0.287793 0.395304 -3.594966
v -0.317793 0.395304 -3.594966
v -0.317793 0.315584 -3.601646
v -0.287793 0.318088 -3.631541
v -0.287793 0.397810 -3.624862
v -0.287793 0.395304 -3.594966
v -0.287793 0.315584 -3.601646
v -0.317793 0.318088 -3.631541
v -0.317793 0.397810 -3.624862
v -0.287793 0.397810 -3.624862
v -0.287793 0.318088 -3.631541
v -0.317793 0.315584 -3.601646
v -0.317793 0.395304 -3.594966
v -0.317793 0.397810 -3.624862
v -0.317793 0.318088 -3.631541
v -0.287793 0.395304 -3.594966
v -0.287793 0.397810 -3.624862
v -0.317793 0.397810 -3.624862
v -0.317793 0.395304 -3.594966
v 0.317941 0.395304 -3.594966
v 0.287941 0.395304 -3.594966
v 0.287941 0.315584 -3.601646
v 0.317941 0.315584 -3.601646
v 0.287941 0.395304 -3.594966
v 0.287941 0.397810 -3.624862
v 0.287941 0.318088 -3.631541
v 0.287941 0.315584 -3.601646
v 0.287941 0.397810 -3.624862
v 0.317941 0.397810 -3.624862
v 0.317941 0.318088 -3.631541
v 0.287941 0.318088 -3.631541
v 0.317941 0.397810 -3.624862
v 0.317941 0.395304 -3.594966
v 0.317941 0.315584 -3.601646
v 0.317941 0.318088 -3.631541
v 0.317941 0.397810 -3.624862
v 0.287941 0.397810 -3.624862
v 0.287941 0.395304 -3.594966
v 0.317941 0.395304 -3.594966
v -0.287793 0.336459 -3.850773
v -0.287793 0.416179 -3.844093
v -0.317793 0.416179 -3.844093
v -0.317793 0.336459 -3.850773
v -0.287793 0.338964 -3.880668
v -0.287793 0.418685 -3.873988
v -0.287793 0.416179 -3.844093
v -0.287793 0.336459 -3.850773
v -0.317793 0.338964 -3.880668
v -0.317793 0.418685 -3.873988
v -0.287793 0.418685 -3.873988
v -0.287793 0.338964 -3.880668
v -0.317793 0.336459 -3.850773
v -0.317793 0.416179 -3.844093
v -0.317793 0.418685 -3.873988
v -0.317793 0.338964 -3.880668
v -0.287793 0.416179 -3.844093
v -0.287793 0.418685 -3.873988
v -0.317793 0.418685 -3.873988
v -0.317793 0.416179 -3.844093
v 0.317941 0.416179 -3.844093
v 0.287941 0.416179 -3.844093
v 0.287941 0.336459 -3.850773
v 0.317941 0.336459 -3.850773
v 0.287941 0.416179 -3.844093
v 0.287941 0.418685 -3.873988
v 0.287941 0.338964 -3.880668
v 0.287941 0.336459 -3.850773
v 0.287941 0.418685 -3.873988
v 0.317941 0.418685 -3.873988
v 0.317941 0.338964 -3.880668
v 0.287941 0.338964 -3.880668
v 0.317941 0.418685 -3.873988
v 0.317941 0.416179 -3.844093
v 0.317941 0.336459 -3.850773
v 0.317941 0.338964 -3.880668
v 0.317941 0.418685 -3.873988
v 0.287941 0.418685 -3.873988
v 0.287941 0.416179 -3.844093
v 0.317941 0.416179 -3.844093
v -0.287793 0.357335 -4.099900
v -0.287793 0.437056 -4.093220
v -0.317793 0.437056 -4.093220
v -0.317793 0.357335 -4.099900
v -0.287793 0.359840 -4.129796
v -0.287793 0.439561 -4.123115
v -0.287793 0.437056 -4.093220
v -0.287793 0.357335 -4.099900
v -0.317793 0.359840 -4.129796
v -0.317793 0.439561 -4.123115
v -0.287793 0.439561 -4.123115
v -0.287793 0.359840 -4.129796
v -0.317793 0.357335 -4.099900
v -0.317793 0.437056 -4.093220
v -0.317793 0.439561 -4.123115
v -0.317793 0.359840 -4.129796
v -0.287793 0.437056 -4.093220
v -0.287793 0.439561 -4.123115
v -0.317793 0.439561 -4.123115
v -0.317793 0.437056 -4.093220
v 0.317941 0.437056 -4.093220
v 0.287941 0.437056 -4.093220
v 0.287941 0.357335 -4.099900
v 0.317941 0.357335 -4.099900
v 0.287941 0.437056 -4.093220
v 0.287941 0.439561 -4.123115
v 0.287941 0.359840 -4.129796
v 0.287941 0.357335 -4.099900
v 0.287941 0.439561 -4.123115
v 0.317941 0.439561 -4.123115
v 0.317941 0.359840 -4.129796
v 0.287941 0.359840 -4.129796
v 0.317941 0.439561 -4.123115
v 0.317941 0.437056 -4.093220
v 0.317941 0.357335 -4.099900
v 0.317941 0.359840 -4.129796
v 0.317941 0.439561 -4.123115
v 0.287941 0.439561 -4.123115
v 0.287941 0.437056 -4.093220
v 0.317941 0.437056 -4.093220
v -0.287793 0.378211 -4.349027
v -0.287793 0.457932 -4.342347
v -0.317793 0.457932 -4.342347
v -0.317793 0.378211 -4.349027
v -0.287793 0.380717 -4.378922
v -0.287793 0.460437 -4.372241
v -0.287793 0.457932 -4.342347
v -0.287793 0.378211 -4.349027
v -0.317793 0.380717 -4.378922
v -0.317793 0.460437 -4.372241
v -0.287793 0.460437 -4.372241
v -0.287793 0.380717 -4.378922
v -0.317793 0.378211 -4.349027
v -0.317793 0.457932 -4.342347
v -0.317793 0.460437 -4.372241
v -0.317793 0.380717 -4.378922
v -0.287793 0.457932 -4.342347
v -0.287793 0.460437 -4.372241
v -0.317793 0.460437 -4.372241
v -0.317793 0.457932 -4.342347
v 0.317941 0.457932 -4.342347
v 0.287941 0.457932 -4.342347
v 0.287941 0.378211 -4.349027
v 0.317941 0.378211 -4.349027
v 0.287941 0.457932 -4.342347
v 0.287941 0.460437 -4.372241
v 0.287941 0.380717 -4.378922
v 0.287941 0.378211 -4.349027
v 0.287941 0.460437 -4.372241
v 0.317941 0.460437 -4.372241
v 0.317941 0.380717 -4.378922
v 0.287941 0.380717 -4.378922
v 0.317941 0.460437 -4.372241
v 0.317941 0.457932 -4.342347
v 0.317941 0.378211 -4.349027
v 0.317941 0.380717 -4.378922
v 0.317941 0.460437 -4.372241
v 0.287941 0.460437 -4.372241
v 0.287941 0.457932 -4.342347
v 0.317941 0.457932 -4.342347
v -0.469926 0.306286 -3.547232
v -0.469926 0.317977 -3.686743
v 0.470074 0.317977 -3.686743
v 0.470074 0.306286 -3.547232
v -0.469926 0.327162 -3.796359
v -0.469926 0.338852 -3.935870
v 0.470074 0.338852 -3.935870
v 0.470074 0.327162 -3.796359
v -0.469926 0.348038 -4.045486
v -0.469926 0.359729 -4.184998
v 0.470074 0.359729 -4.184998
v 0.470074 0.348038 -4.045486
v -0.469926 0.368915 -4.294613
v -0.469926 0.380605 -4.434124
v 0.470074 0.380605 -4.434124
v 0.470074 0.368915 -4.294613
v 0.470074 0.389790 -4.543740
v 0.470074 0.449580 -4.538730
v -0.469926 0.449580 -4.538730
v -0.469926 0.389790 -4.543740
v 0.470074 0.401481 -4.683251
v 0.470074 0.461271 -4.678240
v 0.470074 0.449580 -4.538730
v 0.470074 0.389790 -4.543740
v -0.469926 0.401481 -4.683251
v -0.469926 0.461271 -4.678240
v 0.470074 0.461271 -4.678240
v 0.470074 0.401481 -4.683251
v -0.469926 0.389790 -4.543740
v -0.469926 0.449580 -4.538730
v -0.469926 0.461271 -4.678240
v -0.469926 0.401481 -4.683251
v 0.470074 0.449580 -4.538730
v 0.470074 0.461271 -4.678240
v -0.469926 0.461271 -4.678240
v -0.469926 0.449580 -4.538730
v 0.360551 0.541116 -5.500000
v 0.360551 0.456237 -4.482979
v 0.360551 0.440805 -4.484272
v 0.360551 0.525575 -5.500000
v 0.300551 0.541116 -5.500000
v 0.300551 0.525575 -5.500000
v 0.300551 0.440805 -4.484272
v 0.300551 0.456237 -4.482979
v 0.352440 0.585784 -5.500000
v 0.308662 0.585784 -5.500000
v 0.308662 0.500595 -4.479261
v 0.352440 0.500595 -4.479261
v 0.360551 0.525575 -5.500000
v 0.360551 0.440805 -4.484272
v 0.300551 0.440805 -4.484272
v 0.300551 0.525575 -5.500000
v 0.318296 0.486427 -4.480450
v 0.318296 0.571515 -5.500000
v 0.318296 0.541116 -5.500000
v 0.318296 0.456237 -4.482979
v 0.308662 0.500595 -4.479261
v 0.308662 0.585784 -5.500000
v 0.308662 0.571515 -5.500000
v 0.308662 0.486427 -4.480450
v 0.318296 0.571515 -5.500000
v 0.318296 0.486427 -4.480450
v 0.308662 0.486427 -4.480450
v 0.308662 0.571515 -5.500000
v 0.300551 0.541116 -5.500000
v 0.300551 0.456237 -4.482979
v 0.318296 0.456237 -4.482979
v 0.318296 0.541116 -5.500000
v 0.342806 0.571515 -5.500000
v 0.342806 0.486427 -4.480450
v 0.342806 0.456237 -4.482979
v 0.342806 0.541116 -5.500000
v 0.352440 0.585784 -5.500000
v 0.352440 0.500595 -4.479261
v 0.352440 0.486427 -4.480450
v 0.352440 0.571515 -5.500000
v 0.352440 0.571515 -5.500000
v 0.352440 0.486427 -4.480450
v 0.342806 0.486427 -4.480450
v 0.342806 0.571515 -5.500000
v 0.342806 0.541116 -5.500000
v 0.342806 0.456237 -4.482979
v 0.360551 0.456237 -4.482979
v 0.360551 0.541116 -5.500000
v 0.470074 0.411657 -4.804688
v 0.470074 0.471447 -4.799677
v -0.469926 0.471447 -4.799677
v -0.469926 0.411657 -4.804688
v 0.470074 0.423347 -4.944199
v 0.470074 0.483138 -4.939188
v 0.470074 0.471447 -4.799677
v 0.470074 0.411657 -4.804688
v -0.469926 0.423347 -4.944199
v -0.469926 0.483138 -4.939188
v 0.470074 0.483138 -4.939188
v 0.470074 0.423347 -4.944199
v -0.469926 0.411657 -4.804688
v -0.469926 0.471447 -4.799677
v -0.469926 0.483138 -4.939188
v -0.469926 0.423347 -4.944199
v 0.470074 0.471447 -4.799677
v 0.470074 0.483138 -4.939188
v -0.469926 0.483138 -4.939188
v -0.469926 0.471447 -4.799677
v -0.360403 0.525590 -5.500000
v -0.360403 0.440805 -4.484272
v -0.360403 0.456237 -4.482979
v -0.360403 0.541131 -5.500000
v -0.300403 0.440805 -4.484272
v -0.300403 0.525590 -5.500000
v -0.300403 0.541131 -5.500000
v -0.300403 0.456237 -4.482979
v -0.308514 0.500595 -4.479261
v -0.308514 0.585799 -5.500000
v -0.352292 0.585799 -5.500000
v -0.352292 0.500595 -4.479261
v -0.300403 0.525590 -5.500000
v -0.300403 0.440805 -4.484272
v -0.360403 0.440805 -4.484272
v -0.360403 0.525590 -5.500000
v -0.318148 0.541131 -5.500000
v -0.318148 0.571530 -5.500000
v -0.318148 0.486427 -4.480450
v -0.318148 0.456237 -4.482979
v -0.308514 0.571530 -5.500000
v -0.308514 0.585799 -5.500000
v -0.308514 0.500595 -4.479261
v -0.308514 0.486427 -4.480450
v -0.308514 0.571530 -5.500000
v -0.308514 0.486427 -4.480450
v -0.318148 0.486427 -4.480450
v -0.318148 0.571530 -5.500000
v -0.318148 0.541131 -5.500000
v -0.318148 0.456237 -4.482979
v -0.300403 0.456237 -4.482979
v -0.300403 0.541131 -5.500000
v -0.342658 0.541131 -5.500000
v -0.342658 0.456237 -4.482979
v -0.342658 0.486427 -4.480450
v -0.342658 0.571530 -5.500000
v -0.352292 0.571530 -5.500000
v -0.352292 0.486427 -4.480450
v -0.352292 0.500595 -4.479261
v -0.352292 0.585799 -5.500000
v -0.342658 0.571530 -5.500000
v -0.342658 0.486427 -4.480450
v -0.352292 0.486427 -4.480450
v -0.352292 0.571530 -5.500000
v -0.360403 0.541131 -5.500000
v -0.360403 0.456237 -4.482979
v -0.342658 0.456237 -4.482979
v -0.342658 0.541131 -5.500000
v -0.287793 0.399087 -4.598154
v -0.287793 0.478808 -4.591473
v -0.317793 0.478808 -4.591473
v -0.317793 0.399087 -4.598154
v -0.287793 0.401592 -4.628049
v -0.287793 0.481313 -4.621368
v -0.287793 0.478808 -4.591473
v -0.287793 0.399087 -4.598154
v -0.317793 0.401592 -4.628049
v -0.317793 0.481313 -4.621368
v -0.287793 0.481313 -4.621368
v -0.287793 0.401592 -4.628049
v -0.317793 0.399087 -4.598154
v -0.317793 0.478808 -4.591473
v -0.317793 0.481313 -4.621368
v -0.317793 0.401592 -4.628049
v -0.287793 0.478808 -4.591473
v -0.287793 0.481313 -4.621368
v -0.317793 0.481313 -4.621368
v -0.317793 0.478808 -4.591473
v 0.317941 0.478808 -4.591473
v 0.287941 0.478808 -4.591473
v 0.287941 0.399087 -4.598154
v 0.317941 0.399087 -4.598154
v 0.287941 0.478808 -4.591473
v 0.287941 0.481313 -4.621368
v 0.287941 0.401592 -4.628049
v 0.287941 0.399087 -4.598154
v 0.287941 0.481313 -4.621368
v 0.317941 0.481313 -4.621368
v 0.317941 0.401592 -4.628049
v 0.287941 0.401592 -4.628049
v 0.317941 0.481313 -4.621368
v 0.317941 0.478808 -4.591473
v 0.317941 0.399087 -4.598154
v 0.317941 0.401592 -4.628049
v 0.317941 0.481313 -4.621368
v 0.287941 0.481313 -4.621368
v 0.287941 0.478808 -4.591473
v 0.317941 0.478808 -4.591473
v -0.287793 0.420954 -4.859101
v -0.287793 0.500674 -4.852421
v -0.317793 0.500674 -4.852421
v -0.317793 0.420954 -4.859101
v -0.287793 0.423459 -4.888997
v -0.287793 0.503179 -4.882316
v -0.287793 0.500674 -4.852421
v -0.287793 0.420954 -4.859101
v -0.317793 0.423459 -4.888997
v -0.317793 0.503179 -4.882316
v -0.287793 0.503179 -4.882316
v -0.287793 0.423459 -4.888997
v -0.317793 0.420954 -4.859101
v -0.317793 0.500674 -4.852421
v -0.317793 0.503179 -4.882316
v -0.317793 0.423459 -4.888997
v -0.287793 0.500674 -4.852421
v -0.287793 0.503179 -4.882316
v -0.317793 0.503179 -4.882316
v -0.317793 0.500674 -4.852421
v 0.317941 0.500674 -4.852421
v 0.287941 0.500674 -4.852421
v 0.287941 0.420954 -4.859101
v 0.317941 0.420954 -4.859101
v 0.287941 0.500674 -4.852421
v 0.287941 0.503179 -4.882316
v 0.287941 0.423459 -4.888997
v 0.287941 0.420954 -4.859101
v 0.287941 0.503179 -4.882316
v 0.317941 0.503179 -4.882316
v 0.317941 0.423459 -4.888997
v 0.287941 0.423459 -4.888997
v 0.317941 0.503179 -4.882316
v 0.317941 0.500674 -4.852421
v 0.317941 0.420954 -4.859101
v 0.317941 0.423459 -4.888997
v 0.317941 0.503179 -4.882316
v 0.287941 0.503179 -4.882316
v 0.287941 0.500674 -4.852421
v 0.317941 0.500674 -4.852421
v -0.287793 0.442387 -5.114874
v -0.287793 0.522107 -5.108195
v -0.317793 0.522107 -5.108195
v -0.317793 0.442387 -5.114874
v -0.287793 0.444892 -5.144770
v -0.287793 0.524612 -5.138090
v -0.287793 0.522107 -5.108195
v -0.287793 0.442387 -5.114874
v -0.317793 0.444892 -5.144770
v -0.317793 0.524612 -5.138090
v -0.287793 0.524612 -5.138090
v -0.287793 0.444892 -5.144770
v -0.317793 0.442387 -5.114874
v -0.317793 0.522107 -5.108195
v -0.317793 0.524612 -5.138090
v -0.317793 0.444892 -5.144770
v -0.287793 0.522107 -5.108195
v -0.287793 0.524612 -5.138090
v -0.317793 0.524612 -5.138090
v -0.317793 0.522107 -5.108195
v 0.317941 0.522107 -5.108195
v 0.287941 0.522107 -5.108195
v 0.287941 0.442387 -5.114874
v 0.317941 0.442387 -5.114874
v 0.287941 0.522107 -5.108195
v 0.287941 0.524612 -5.138090
v 0.287941 0.444892 -5.144770
v 0.287941 0.442387 -5.114874
v 0.287941 0.524612 -5.138090
v 0.317941 0.524612 -5.138090
v 0.317941 0.444892 -5.144770
v 0.287941 0.444892 -5.144770
v 0.317941 0.524612 -5.138090
v 0.317941 0.522107 -5.108195
v 0.317941 0.442387 -5.114874
v 0.317941 0.444892 -5.144770
v 0.317941 0.524612 -5.138090
v 0.287941 0.524612 -5.138090
v 0.287941 0.522107 -5.108195
v 0.317941 0.522107 -5.108195
v 0.470074 0.433090 -5.060461
v 0.470074 0.492880 -5.055451
v -0.469926 0.492880 -5.055451
v -0.469926 0.433090 -5.060461
v 0.470074 0.444780 -5.199972
v 0.470074 0.504570 -5.194962
v 0.470074 0.492880 -5.055451
v 0.470074 0.433090 -5.060461
v -0.469926 0.444780 -5.199972
v -0.469926 0.504570 -5.194962
v 0.470074 0.504570 -5.194962
v 0.470074 0.444780 -5.199972
v -0.469926 0.433090 -5.060461
v -0.469926 0.492880 -5.055451
v -0.469926 0.504570 -5.194962
v -0.469926 0.444780 -5.199972
v 0.470074 0.492880 -5.055451
v 0.470074 0.504570 -5.194962
v -0.469926 0.504570 -5.194962
v -0.469926 0.492880 -5.055451
v -0.469926 0.389790 -4.543740
v -0.469926 0.401481 -4.683251
v 0.470074 0.401481 -4.683251
v 0.470074 0.389790 -4.543740
v -0.469926 0.411657 -4.804688
v -0.469926 0.423347 -4.944199
v 0.470074 0.423347 -4.944199
v 0.470074 0.411657 -4.804688
v -0.469926 0.433090 -5.060461
v -0.469926 0.444780 -5.199972
v 0.470074 0.444780 -5.199972
v 0.470074 0.433090 -5.060461
v -0.360403 0.525590 -5.500000
v -0.360403 0.541131 -5.500000
v -0.300403 0.541131 -5.500000
v -0.300403 0.525590 -5.500000
v -0.342658 0.541131 -5.500000
v -0.342658 0.571530 -5.500000
v -0.318148 0.571530 -5.500000
v -0.318148 0.541131 -5.500000
v -0.352292 0.571530 -5.500000
v -0.352292 0.585799 -5.500000
v -0.308514 0.585799 -5.500000
v -0.308514 0.571530 -5.500000
v 0.300551 0.525575 -5.500000
v 0.300551 0.541116 -5.500000
v 0.360551 0.541116 -5.500000
v 0.360551 0.525575 -5.500000
v 0.318296 0.541116 -5.500000
v 0.318296 0.571515 -5.500000
v 0.342806 0.571515 -5.500000
v 0.342806 0.541116 -5.500000
v 0.308662 0.571515 -5.500000
v 0.308662 0.585784 -5.500000
v 0.352440 0.585784 -5.500000
v 0.352440 0.571515 -5.500000
vn -0.0000 -0.1644 0.9864
vn 1.0000 -0.0000 -0.0000
vn -0.0000 0.1644 -0.9864
vn -1.0000 -0.0000 -0.0000
vn -0.0000 0.9864 0.1644
vn -0.0000 -0.1643 0.9864
vn -0.0000 0.1643 -0.9864
vn -0.0000 0.9864 0.1643
vn -0.0000 -0.9864 -0.1643
vn -0.0000 0.9867 0.1623
vn -0.0000 -0.9867 -0.1623
vn -0.0000 -0.9864 -0.1644
vn -0.0000 0.9865 0.1640
vn -0.0000 -0.9865 -0.1640
vn -0.0000 -0.0000 -1.0000
vt 0.979692 0.781451
vt 0.979692 0.844034
vt -0.000781 0.844034
vt -0.000781 0.781451
vt 0.145247 0.656284
vt 0.145247 0.718868
vt -0.000781 0.718868
vt -0.000781 0.656284
vt 0.979692 0.718868
vt 0.302823 0.656284
vt 0.302823 0.718868
vt 0.156795 0.718868
vt 0.156795 0.656284
vt 1.000000 0.851064
vt 1.000000 1.000000
vt 0.000000 1.000000
vt 0.000000 0.851064
vt 0.999050 0.183297
vt 0.999050 0.342604
vt 0.939310 0.342604
vt 0.939310 0.183297
vt 0.985655 0.132863
vt 0.985655 0.179437
vt 0.939081 0.179437
vt 0.939081 0.132863
vt -0.000426 0.653929
vt -0.000426 0.505120
vt 0.998728 0.505120
vt 0.998728 0.653929
vt 0.980127 0.103062
vt 0.949641 0.115757
vt 0.949641 0.103062
vt 0.958243 0.103062
vt 0.988729 0.103062
vt 0.988729 0.115757
vt 0.942399 0.062186
vt 0.995971 0.062186
vt 0.995971 0.076013
vt 0.980127 0.076013
vt 0.958243 0.076013
vt 0.942399 0.076013
vt 0.000000 0.062150
vt 0.000000 0.048121
vt 0.905875 0.048121
vt 0.905875 0.062150
vt 0.999897 0.349106
vt 0.999897 0.498042
vt -0.000103 0.498042
vt -0.000103 0.349106
vt 0.000000 0.034093
vt 0.905875 0.034093
vt 0.000200 0.259595
vt 0.000200 0.219937
vt 0.906075 0.219937
vt 0.906075 0.259595
vt 0.905753 0.210448
vt -0.000122 0.210448
vt -0.000122 0.156096
vt 0.905753 0.156096
vt 0.905875 0.121202
vt 0.000000 0.121202
vt 0.000000 0.093759
vt 0.905875 0.093759
vt 0.905875 0.025761
vt 0.000000 0.025761
vt 0.000000 0.012881
vt 0.905875 0.012881
vt 0.906387 0.330358
vt 0.000512 0.330358
vt 0.000512 0.321630
vt 0.906387 0.321630
vt 0.000200 0.296828
vt 0.906075 0.296828
vt 0.906075 0.312903
vt 0.000200 0.312903
vt 0.905875 0.089593
vt 0.000000 0.089593
vt 0.000000 0.000000
vt 0.905875 0.000000
vt 0.000512 0.312903
vt 0.906387 0.312903
vt 0.000200 0.281378
vt 0.906075 0.281378
vt 0.906075 0.297453
vt 0.000200 0.297453
vt 0.146184 0.656284
vt 0.146184 0.718868
vt 0.000156 0.718868
vt 0.000156 0.656284
vt 0.980629 0.718868
vt 0.980629 0.781451
vt 0.000156 0.781451
vt 0.999534 0.505675
vt 0.999534 0.654611
vt -0.000466 0.654611
vt -0.000466 0.505675
vt 0.000200 0.572556
vt 0.000200 0.423746
vt 0.999354 0.423746
vt 0.999354 0.572556
vt 0.000825 0.495470
vt 0.000825 0.346659
vt 0.999978 0.346659
vt 0.999978 0.495470
vt -0.000425 0.655753
vt -0.000425 0.506943
vt 0.998729 0.506943
vt 0.998729 0.655753
vt 0.000200 0.497462
vt 0.000200 0.348653
vt 0.999354 0.348653
vt 0.999354 0.497462
vt -0.000425 0.572792
vt -0.000425 0.423983
vt 0.998729 0.423983
vt 0.998729 0.572792
vt 0.000825 0.624385
vt 0.000825 0.475576
vt 0.999978 0.475576
vt 0.999978 0.624385
vt -0.001049 0.532934
vt -0.001049 0.384123
vt 0.998104 0.384123
vt 0.998104 0.532934
vt 0.000200 0.653239
vt 0.000200 0.504428
vt 0.999354 0.504428
vt 0.999354 0.653239
vt 0.000825 0.494323
vt 0.000825 0.345512
vt 0.999978 0.345512
vt 0.999978 0.494323
vt 0.000825 0.653981
vt 0.000825 0.505172
vt 0.999978 0.505172
vt 0.999978 0.653981
vt 0.002074 0.654353
vt 0.002074 0.505543
vt 1.001228 0.505543
vt 1.001228 0.654353
vt 0.002074 0.653474
vt 0.002074 0.504665
vt 1.001228 0.504665
vt 1.001228 0.653474
vt 0.002699 0.497684
vt 0.002699 0.348873
vt 1.001852 0.348873
vt 1.001852 0.497684
vt 0.002074 0.759786
vt 0.002074 0.610975
vt 1.001228 0.610975
vt 1.001228 0.759786
vt 0.002074 0.494054
vt 0.002074 0.345243
vt 1.001228 0.345243
vt 1.001228 0.494054
vt 0.000200 0.761778
vt 0.000200 0.612967
vt 0.999354 0.612967
vt 0.999354 0.761778
vt 0.000200 0.496045
vt 0.000200 0.347237
vt 0.999354 0.347237
vt 0.999354 0.496045
vt 0.000825 0.783758
vt 0.000825 0.634950
vt 0.999978 0.634950
vt 0.999978 0.783758
vt 0.000825 0.518026
vt 0.000825 0.369218
vt 0.999978 0.369218
vt 0.999978 0.518026
vt 0.847786 0.062150
vt 0.846708 0.048121
vt 0.058089 0.048121
vt 0.059167 0.034093
vt 0.055191 0.259595
vt 0.055191 0.219937
vt 0.846586 0.210448
vt 0.846586 0.156096
vt 0.055981 0.121202
vt 0.058089 0.093759
vt 0.054991 0.025761
vt 0.055981 0.012881
vt 0.850406 0.330358
vt 0.850406 0.321630
vt 0.058289 0.296828
vt 0.058289 0.312903
vt 0.849894 0.089593
vt 0.850884 0.012881
vt 0.849894 0.000000
vt 0.850406 0.312903
vt 0.058289 0.281378
vt 0.058289 0.297453
vt 0.847695 0.048121
vt 0.848774 0.062150
vt 0.058180 0.034093
vt 0.057101 0.048121
vt 0.054199 0.219937
vt 0.054199 0.259595
vt 0.847573 0.156096
vt 0.847573 0.210448
vt 0.057101 0.093759
vt 0.054990 0.121202
vt 0.054990 0.012881
vt 0.053999 0.025761
vt 0.851397 0.321630
vt 0.851397 0.330358
vt 0.057301 0.312903
vt 0.057301 0.296828
vt 0.850885 0.089593
vt 0.850885 0.000000
vt 0.851876 0.012881
vt 0.851397 0.312903
vt 0.057301 0.297453
vt 0.057301 0.281378
vt 0.001449 0.773259
vt 0.001449 0.624449
vt 1.000603 0.624449
vt 1.000603 0.773259
vt 0.001449 0.494918
vt 0.001449 0.346107
vt 1.000603 0.346107
vt 1.000603 0.494918
vt 0.001449 0.777414
vt 0.001449 0.628606
vt 1.000603 0.628606
vt 1.000603 0.777414
vt 0.958243 0.076013
vt 0.942399 0.076013
vt 0.942399 0.062186
vt 0.995971 0.062186
vt 0.995971 0.076013
vt 0.980127 0.076013
vt 0.958243 0.103062
vt 0.980127 0.103062
vt 0.988729 0.103062
vt 0.988729 0.115757
vt 0.949641 0.115757
vt 0.949641 0.103062
s 1
f 1/1/1 2/2/1 3/3/1 4/4/1
f 5/5/2 6/6/2 7/7/2 8/8/2
f 9/9/3 10/1/3 11/4/3 12/7/3
f 13/10/4 14/11/4 15/12/4 16/13/4
f 17/14/5 18/15/5 19/16/5 20/17/5
f 21/18/6 22/19/6 23/20/6 24/21/6
f 25/18/2 26/19/2 27/20/2 28/21/2
f 29/18/7 30/19/7 31/20/7 32/21/7
f 33/18/4 34/19/4 35/20/4 36/21/4
f 37/22/8 38/23/8 39/24/8 40/25/8
f 41/20/6 42/19/6 43/18/6 44/21/6
f 45/20/4 46/19/4 47/18/4 48/21/4
f 49/20/7 50/19/7 51/18/7 52/21/7
f 53/20/2 54/19/2 55/18/2 56/21/2
f 57/24/8 58/23/8 59/22/8 60/25/8
f 61/26/9 62/27/9 63/28/9 64/29/9
f 65/30/6 66/31/6 67/32/6 68/33/6
f 69/31/6 70/30/6 71/34/6 72/35/6
f 73/36/6 74/37/6 75/38/6 76/39/6
f 77/39/6 78/40/6 79/41/6 80/36/6
f 81/33/6 82/40/6 83/39/6 84/30/6
f 85/42/2 86/43/2 87/44/2 88/45/2
f 89/1/1 90/2/1 91/3/1 92/4/1
f 93/5/2 94/6/2 95/7/2 96/8/2
f 97/9/7 98/1/7 99/4/7 100/7/7
f 101/10/4 102/11/4 103/12/4 104/13/4
f 105/46/8 106/47/8 107/48/8 108/49/8
f 109/43/4 110/50/4 111/51/4 112/44/4
f 113/52/10 114/53/10 115/54/10 116/55/10
f 117/56/11 118/57/11 119/58/11 120/59/11
f 121/60/4 122/61/4 123/62/4 124/63/4
f 125/64/4 126/65/4 127/66/4 128/67/4
f 129/68/11 130/69/11 131/70/11 132/71/11
f 133/72/10 134/73/10 135/74/10 136/75/10
f 137/76/2 138/77/2 139/42/2 140/45/2
f 141/67/2 142/66/2 143/78/2 144/79/2
f 145/71/11 146/70/11 147/80/11 148/81/11
f 149/82/10 150/83/10 151/84/10 152/85/10
f 153/32/6 154/31/6 155/30/6 156/33/6
f 157/35/6 158/34/6 159/30/6 160/31/6
f 161/38/6 162/37/6 163/40/6 164/39/6
f 165/36/6 166/41/6 167/40/6 168/37/6
f 169/40/6 170/33/6 171/30/6 172/39/6
f 173/44/4 174/43/4 175/42/4 176/45/4
f 177/1/1 178/2/1 179/3/1 180/4/1
f 181/5/2 182/6/2 183/7/2 184/8/2
f 185/9/3 186/1/3 187/4/3 188/7/3
f 189/10/4 190/11/4 191/12/4 192/13/4
f 193/14/5 194/15/5 195/16/5 196/17/5
f 197/51/2 198/50/2 199/43/2 200/44/2
f 201/54/10 202/53/10 203/52/10 204/55/10
f 205/58/11 206/57/11 207/56/11 208/59/11
f 209/62/2 210/61/2 211/60/2 212/63/2
f 213/66/2 214/65/2 215/64/2 216/67/2
f 217/70/11 218/69/11 219/68/11 220/71/11
f 221/74/10 222/73/10 223/72/10 224/75/10
f 225/42/4 226/77/4 227/76/4 228/45/4
f 229/78/4 230/66/4 231/67/4 232/79/4
f 233/80/11 234/70/11 235/71/11 236/81/11
f 237/84/10 238/83/10 239/82/10 240/85/10
f 241/18/1 242/19/1 243/20/1 244/21/1
f 245/18/2 246/19/2 247/20/2 248/21/2
f 249/18/3 250/19/3 251/20/3 252/21/3
f 253/18/4 254/19/4 255/20/4 256/21/4
f 257/22/8 258/23/8 259/24/8 260/25/8
f 261/20/1 262/19/1 263/18/1 264/21/1
f 265/20/4 266/19/4 267/18/4 268/21/4
f 269/20/3 270/19/3 271/18/3 272/21/3
f 273/20/2 274/19/2 275/18/2 276/21/2
f 277/24/8 278/23/8 279/22/8 280/25/8
f 281/18/1 282/19/1 283/20/1 284/21/1
f 285/18/2 286/19/2 287/20/2 288/21/2
f 289/18/3 290/19/3 291/20/3 292/21/3
f 293/18/4 294/19/4 295/20/4 296/21/4
f 297/22/5 298/23/5 299/24/5 300/25/5
f 301/20/1 302/19/1 303/18/1 304/21/1
f 305/20/4 306/19/4 307/18/4 308/21/4
f 309/20/3 310/19/3 311/18/3 312/21/3
f 313/20/2 314/19/2 315/18/2 316/21/2
f 317/24/5 318/23/5 319/22/5 320/25/5
f 321/18/6 322/19/6 323/20/6 324/21/6
f 325/18/2 326/19/2 327/20/2 328/21/2
f 329/18/7 330/19/7 331/20/7 332/21/7
f 333/18/4 334/19/4 335/20/4 336/21/4
f 337/22/5 338/23/5 339/24/5 340/25/5
f 341/20/6 342/19/6 343/18/6 344/21/6
f 345/20/4 346/19/4 347/18/4 348/21/4
f 349/20/7 350/19/7 351/18/7 352/21/7
f 353/20/2 354/19/2 355/18/2 356/21/2
f 357/24/5 358/23/5 359/22/5 360/25/5
f 361/18/6 362/19/6 363/20/6 364/21/6
f 365/18/2 366/19/2 367/20/2 368/21/2
f 369/18/7 370/19/7 371/20/7 372/21/7
f 373/18/4 374/19/4 375/20/4 376/21/4
f 377/22/5 378/23/5 379/24/5 380/25/5
f 381/20/6 382/19/6 383/18/6 384/21/6
f 385/20/4 386/19/4 387/18/4 388/21/4
f 389/20/7 390/19/7 391/18/7 392/21/7
f 393/20/2 394/19/2 395/18/2 396/21/2
f 397/24/5 398/23/5 399/22/5 400/25/5
f 401/1/6 402/2/6 403/3/6 404/4/6
f 405/86/2 406/87/2 407/88/2 408/89/2
f 409/90/7 410/91/7 411/92/7 412/88/7
f 413/10/4 414/11/4 415/12/4 416/13/4
f 417/93/8 418/94/8 419/95/8 420/96/8
f 421/1/6 422/2/6 423/3/6 424/4/6
f 425/5/2 426/6/2 427/7/2 428/8/2
f 429/9/7 430/1/7 431/4/7 432/7/7
f 433/10/4 434/11/4 435/12/4 436/13/4
f 437/14/8 438/15/8 439/16/8 440/17/8
f 441/26/9 442/27/9 443/28/9 444/29/9
f 445/97/9 446/98/9 447/99/9 448/100/9
f 449/101/9 450/102/9 451/103/9 452/104/9
f 453/105/12 454/106/12 455/107/12 456/108/12
f 457/1/1 458/2/1 459/3/1 460/4/1
f 461/5/2 462/6/2 463/7/2 464/8/2
f 465/9/3 466/1/3 467/4/3 468/7/3
f 469/10/4 470/11/4 471/12/4 472/13/4
f 473/14/8 474/15/8 475/16/8 476/17/8
f 477/42/2 478/43/2 479/44/2 480/45/2
f 481/1/1 482/2/1 483/3/1 484/4/1
f 485/5/2 486/6/2 487/7/2 488/8/2
f 489/9/3 490/1/3 491/4/3 492/7/3
f 493/10/4 494/11/4 495/12/4 496/13/4
f 497/46/8 498/47/8 499/48/8 500/49/8
f 501/43/4 502/50/4 503/51/4 504/44/4
f 505/52/8 506/53/8 507/54/8 508/55/8
f 509/56/9 510/57/9 511/58/9 512/59/9
f 513/60/4 514/61/4 515/62/4 516/63/4
f 517/64/4 518/65/4 519/66/4 520/67/4
f 521/68/9 522/69/9 523/70/9 524/71/9
f 525/72/8 526/73/8 527/74/8 528/75/8
f 529/76/2 530/77/2 531/42/2 532/45/2
f 533/67/2 534/66/2 535/78/2 536/79/2
f 537/71/9 538/70/9 539/80/9 540/81/9
f 541/82/8 542/83/8 543/84/8 544/85/8
f 545/1/1 546/2/1 547/3/1 548/4/1
f 549/86/2 550/87/2 551/88/2 552/89/2
f 553/90/3 554/91/3 555/92/3 556/88/3
f 557/10/4 558/11/4 559/12/4 560/13/4
f 561/93/8 562/94/8 563/95/8 564/96/8
f 565/44/4 566/43/4 567/42/4 568/45/4
f 569/1/6 570/2/6 571/3/6 572/4/6
f 573/5/2 574/6/2 575/7/2 576/8/2
f 577/9/7 578/1/7 579/4/7 580/7/7
f 581/10/4 582/11/4 583/12/4 584/13/4
f 585/14/5 586/15/5 587/16/5 588/17/5
f 589/51/2 590/50/2 591/43/2 592/44/2
f 593/54/8 594/53/8 595/52/8 596/55/8
f 597/58/9 598/57/9 599/56/9 600/59/9
f 601/62/2 602/61/2 603/60/2 604/63/2
f 605/66/2 606/65/2 607/64/2 608/67/2
f 609/70/9 610/69/9 611/68/9 612/71/9
f 613/74/8 614/73/8 615/72/8 616/75/8
f 617/42/4 618/77/4 619/76/4 620/45/4
f 621/78/4 622/66/4 623/67/4 624/79/4
f 625/80/9 626/70/9 627/71/9 628/81/9
f 629/84/8 630/83/8 631/82/8 632/85/8
f 633/18/1 634/19/1 635/20/1 636/21/1
f 637/18/2 638/19/2 639/20/2 640/21/2
f 641/18/3 642/19/3 643/20/3 644/21/3
f 645/18/4 646/19/4 647/20/4 648/21/4
f 649/22/8 650/23/8 651/24/8 652/25/8
f 653/20/1 654/19/1 655/18/1 656/21/1
f 657/20/4 658/19/4 659/18/4 660/21/4
f 661/20/3 662/19/3 663/18/3 664/21/3
f 665/20/2 666/19/2 667/18/2 668/21/2
f 669/24/8 670/23/8 671/22/8 672/25/8
f 673/18/1 674/19/1 675/20/1 676/21/1
f 677/18/2 678/19/2 679/20/2 680/21/2
f 681/18/3 682/19/3 683/20/3 684/21/3
f 685/18/4 686/19/4 687/20/4 688/21/4
f 689/22/5 690/23/5 691/24/5 692/25/5
f 693/20/1 694/19/1 695/18/1 696/21/1
f 697/20/4 698/19/4 699/18/4 700/21/4
f 701/20/3 702/19/3 703/18/3 704/21/3
f 705/20/2 706/19/2 707/18/2 708/21/2
f 709/24/5 710/23/5 711/22/5 712/25/5
f 713/18/1 714/19/1 715/20/1 716/21/1
f 717/18/2 718/19/2 719/20/2 720/21/2
f 721/18/3 722/19/3 723/20/3 724/21/3
f 725/18/4 726/19/4 727/20/4 728/21/4
f 729/22/5 730/23/5 731/24/5 732/25/5
f 733/20/1 734/19/1 735/18/1 736/21/1
f 737/20/4 738/19/4 739/18/4 740/21/4
f 741/20/3 742/19/3 743/18/3 744/21/3
f 745/20/2 746/19/2 747/18/2 748/21/2
f 749/24/5 750/23/5 751/22/5 752/25/5
f 753/18/1 754/19/1 755/20/1 756/21/1
f 757/18/2 758/19/2 759/20/2 760/21/2
f 761/18/3 762/19/3 763/20/3 764/21/3
f 765/18/4 766/19/4 767/20/4 768/21/4
f 769/22/5 770/23/5 771/24/5 772/25/5
f 773/20/1 774/19/1 775/18/1 776/21/1
f 777/20/4 778/19/4 779/18/4 780/21/4
f 781/20/3 782/19/3 783/18/3 784/21/3
f 785/20/2 786/19/2 787/18/2 788/21/2
f 789/24/5 790/23/5 791/22/5 792/25/5
f 793/109/9 794/110/9 795/111/9 796/112/9
f 797/113/9 798/114/9 799/115/9 800/116/9
f 801/117/9 802/118/9 803/119/9 804/120/9
f 805/121/12 806/122/12 807/123/12 808/124/12
f 809/1/1 810/2/1 811/3/1 812/4/1
f 813/5/2 814/6/2 815/7/2 816/8/2
f 817/9/7 818/1/7 819/4/7 820/7/7
f 821/10/4 822/11/4 823/12/4 824/13/4
f 825/14/5 826/15/5 827/16/5 828/17/5
f 829/42/2 830/43/2 831/44/2 832/45/2
f 833/1/6 834/2/6 835/3/6 836/4/6
f 837/5/2 838/6/2 839/7/2 840/8/2
f 841/9/7 842/1/7 843/4/7 844/7/7
f 845/10/4 846/11/4 847/12/4 848/13/4
f 849/14/8 850/15/8 851/16/8 852/17/8
f 853/43/4 854/50/4 855/51/4 856/44/4
f 857/52/8 858/53/8 859/54/8 860/55/8
f 861/56/9 862/57/9 863/58/9 864/59/9
f 865/60/4 866/61/4 867/62/4 868/63/4
f 869/64/4 870/65/4 871/66/4 872/67/4
f 873/68/9 874/69/9 875/70/9 876/71/9
f 877/72/8 878/73/8 879/74/8 880/75/8
f 881/76/2 882/77/2 883/42/2 884/45/2
f 885/67/2 886/66/2 887/78/2 888/79/2
f 889/71/9 890/70/9 891/80/9 892/81/9
f 893/82/8 894/83/8 895/84/8 896/85/8
f 897/1/6 898/2/6 899/3/6 900/4/6
f 901/5/2 902/6/2 903/7/2 904/8/2
f 905/9/7 906/1/7 907/4/7 908/7/7
f 909/10/4 910/11/4 911/12/4 912/13/4
f 913/46/8 914/47/8 915/48/8 916/49/8
f 917/44/4 918/43/4 919/42/4 920/45/4
f 921/1/6 922/2/6 923/3/6 924/4/6
f 925/86/2 926/87/2 927/88/2 928/89/2
f 929/90/3 930/91/3 931/92/3 932/88/3
f 933/10/4 934/11/4 935/12/4 936/13/4
f 937/93/8 938/94/8 939/95/8 940/96/8
f 941/51/2 942/50/2 943/43/2 944/44/2
f 945/54/8 946/53/8 947/52/8 948/55/8
f 949/58/9 950/57/9 951/56/9 952/59/9
f 953/62/2 954/61/2 955/60/2 956/63/2
f 957/66/2 958/65/2 959/64/2 960/67/2
f 961/70/9 962/69/9 963/68/9 964/71/9
f 965/74/8 966/73/8 967/72/8 968/75/8
f 969/42/4 970/77/4 971/76/4 972/45/4
f 973/78/4 974/66/4 975/67/4 976/79/4
f 977/80/9 978/70/9 979/71/9 980/81/9
f 981/84/8 982/83/8 983/82/8 984/85/8
f 985/18/1 986/19/1 987/20/1 988/21/1
f 989/18/2 990/19/2 991/20/2 992/21/2
f 993/18/3 994/19/3 995/20/3 996/21/3
f 997/18/4 998/19/4 999/20/4 1000/21/4
f 1001/22/8 1002/23/8 1003/24/8 1004/25/8
f 1005/20/1 1006/19/1 1007/18/1 1008/21/1
f 1009/20/4 1010/19/4 1011/18/4 1012/21/4
f 1013/20/3 1014/19/3 1015/18/3 1016/21/3
f 1017/20/2 1018/19/2 1019/18/2 1020/21/2
f 1021/24/8 1022/23/8 1023/22/8 1024/25/8
f 1025/18/6 1026/19/6 1027/20/6 1028/21/6
f 1029/18/2 1030/19/2 1031/20/2 1032/21/2
f 1033/18/7 1034/19/7 1035/20/7 1036/21/7
f 1037/18/4 1038/19/4 1039/20/4 1040/21/4
f 1041/22/5 1042/23/5 1043/24/5 1044/25/5
f 1045/20/6 1046/19/6 1047/18/6 1048/21/6
f 1049/20/4 1050/19/4 1051/18/4 1052/21/4
f 1053/20/7 1054/19/7 1055/18/7 1056/21/7
f 1057/20/2 1058/19/2 1059/18/2 1060/21/2
f 1061/24/5 1062/23/5 1063/22/5 1064/25/5
f 1065/18/6 1066/19/6 1067/20/6 1068/21/6
f 1069/18/2 1070/19/2 1071/20/2 1072/21/2
f 1073/18/7 1074/19/7 1075/20/7 1076/21/7
f 1077/18/4 1078/19/4 1079/20/4 1080/21/4
f 1081/22/5 1082/23/5 1083/24/5 1084/25/5
f 1085/20/6 1086/19/6 1087/18/6 1088/21/6
f 1089/20/4 1090/19/4 1091/18/4 1092/21/4
f 1093/20/7 1094/19/7 1095/18/7 1096/21/7
f 1097/20/2 1098/19/2 1099/18/2 1100/21/2
f 1101/24/5 1102/23/5 1103/22/5 1104/25/5
f 1105/18/6 1106/19/6 1107/20/6 1108/21/6
f 1109/18/2 1110/19/2 1111/20/2 1112/21/2
f 1113/18/3 1114/19/3 1115/20/3 1116/21/3
f 1117/18/4 1118/19/4 1119/20/4 1120/21/4
f 1121/22/5 1122/23/5 1123/24/5 1124/25/5
f 1125/20/6 1126/19/6 1127/18/6 1128/21/6
f 1129/20/4 1130/19/4 1131/18/4 1132/21/4
f 1133/20/3 1134/19/3 1135/18/3 1136/21/3
f 1137/20/2 1138/19/2 1139/18/2 1140/21/2
f 1141/24/5 1142/23/5 1143/22/5 1144/25/5
f 1145/125/12 1146/126/12 1147/127/12 1148/128/12
f 1149/129/9 1150/130/9 1151/131/9 1152/132/9
f 1153/133/9 1154/134/9 1155/135/9 1156/136/9
f 1157/137/12 1158/138/12 1159/139/12 1160/140/12
f 1161/1/1 1162/2/1 1163/3/1 1164/4/1
f 1165/86/2 1166/87/2 1167/88/2 1168/89/2
f 1169/90/7 1170/91/7 1171/92/7 1172/88/7
f 1173/10/4 1174/11/4 1175/12/4 1176/13/4
f 1177/93/8 1178/94/8 1179/95/8 1180/96/8
f 1181/42/2 1182/43/2 1183/44/2 1184/45/2
f 1185/1/1 1186/2/1 1187/3/1 1188/4/1
f 1189/5/2 1190/6/2 1191/7/2 1192/8/2
f 1193/9/3 1194/1/3 1195/4/3 1196/7/3
f 1197/10/4 1198/11/4 1199/12/4 1200/13/4
f 1201/14/5 1202/15/5 1203/16/5 1204/17/5
f 1205/43/4 1206/50/4 1207/51/4 1208/44/4
f 1209/52/8 1210/53/8 1211/54/8 1212/55/8
f 1213/56/9 1214/57/9 1215/58/9 1216/59/9
f 1217/60/4 1218/61/4 1219/62/4 1220/63/4
f 1221/64/4 1222/65/4 1223/66/4 1224/67/4
f 1225/68/9 1226/69/9 1227/70/9 1228/71/9
f 1229/72/8 1230/73/8 1231/74/8 1232/75/8
f 1233/76/2 1234/77/2 1235/42/2 1236/45/2
f 1237/67/2 1238/66/2 1239/78/2 1240/79/2
f 1241/71/9 1242/70/9 1243/80/9 1244/81/9
f 1245/82/8 1246/83/8 1247/84/8 1248/85/8
f 1249/1/1 1250/2/1 1251/3/1 1252/4/1
f 1253/5/2 1254/6/2 1255/7/2 1256/8/2
f 1257/9/3 1258/1/3 1259/4/3 1260/7/3
f 1261/10/4 1262/11/4 1263/12/4 1264/13/4
f 1265/14/8 1266/15/8 1267/16/8 1268/17/8
f 1269/44/4 1270/43/4 1271/42/4 1272/45/4
f 1273/1/1 1274/2/1 1275/3/1 1276/4/1
f 1277/5/2 1278/6/2 1279/7/2 1280/8/2
f 1281/9/3 1282/1/3 1283/4/3 1284/7/3
f 1285/10/4 1286/11/4 1287/12/4 1288/13/4
f 1289/46/8 1290/47/8 1291/48/8 1292/49/8
f 1293/51/2 1294/50/2 1295/43/2 1296/44/2
f 1297/54/8 1298/53/8 1299/52/8 1300/55/8
f 1301/58/9 1302/57/9 1303/56/9 1304/59/9
f 1305/62/2 1306/61/2 1307/60/2 1308/63/2
f 1309/66/2 1310/65/2 1311/64/2 1312/67/2
f 1313/70/9 1314/69/9 1315/68/9 1316/71/9
f 1317/74/8 1318/73/8 1319/72/8 1320/75/8
f 1321/42/4 1322/77/4 1323/76/4 1324/45/4
f 1325/78/4 1326/66/4 1327/67/4 1328/79/4
f 1329/80/9 1330/70/9 1331/71/9 1332/81/9
f 1333/84/8 1334/83/8 1335/82/8 1336/85/8
f 1337/18/6 1338/19/6 1339/20/6 1340/21/6
f 1341/18/2 1342/19/2 1343/20/2 1344/21/2
f 1345/18/3 1346/19/3 1347/20/3 1348/21/3
f 1349/18/4 1350/19/4 1351/20/4 1352/21/4
f 1353/22/8 1354/23/8 1355/24/8 1356/25/8
f 1357/20/6 1358/19/6 1359/18/6 1360/21/6
f 1361/20/4 1362/19/4 1363/18/4 1364/21/4
f 1365/20/3 1366/19/3 1367/18/3 1368/21/3
f 1369/20/2 1370/19/2 1371/18/2 1372/21/2
f 1373/24/8 1374/23/8 1375/22/8 1376/25/8
f 1377/18/6 1378/19/6 1379/20/6 1380/21/6
f 1381/18/2 1382/19/2 1383/20/2 1384/21/2
f 1385/18/7 1386/19/7 1387/20/7 1388/21/7
f 1389/18/4 1390/19/4 1391/20/4 1392/21/4
f 1393/22/5 1394/23/5 1395/24/5 1396/25/5
f 1397/20/6 1398/19/6 1399/18/6 1400/21/6
f 1401/20/4 1402/19/4 1403/18/4 1404/21/4
f 1405/20/7 1406/19/7 1407/18/7 1408/21/7
f 1409/20/2 1410/19/2 1411/18/2 1412/21/2
f 1413/24/5 1414/23/5 1415/22/5 1416/25/5
f 1417/18/1 1418/19/1 1419/20/1 1420/21/1
f 1421/18/2 1422/19/2 1423/20/2 1424/21/2
f 1425/18/7 1426/19/7 1427/20/7 1428/21/7
f 1429/18/4 1430/19/4 1431/20/4 1432/21/4
f 1433/22/5 1434/23/5 1435/24/5 1436/25/5
f 1437/20/1 1438/19/1 1439/18/1 1440/21/1
f 1441/20/4 1442/19/4 1443/18/4 1444/21/4
f 1445/20/7 1446/19/7 1447/18/7 1448/21/7
f 1449/20/2 1450/19/2 1451/18/2 1452/21/2
f 1453/24/5 1454/23/5 1455/22/5 1456/25/5
f 1457/18/1 1458/19/1 1459/20/1 1460/21/1
f 1461/18/2 1462/19/2 1463/20/2 1464/21/2
f 1465/18/3 1466/19/3 1467/20/3 1468/21/3
f 1469/18/4 1470/19/4 1471/20/4 1472/21/4
f 1473/22/5 1474/23/5 1475/24/5 1476/25/5
f 1477/20/1 1478/19/1 1479/18/1 1480/21/1
f 1481/20/4 1482/19/4 1483/18/4 1484/21/4
f 1485/20/3 1486/19/3 1487/18/3 1488/21/3
f 1489/20/2 1490/19/2 1491/18/2 1492/21/2
f 1493/24/5 1494/23/5 1495/22/5 1496/25/5
f 1497/141/12 1498/142/12 1499/143/12 1500/144/12
f 1501/145/9 1502/146/9 1503/147/9 1504/148/9
f 1505/149/9 1506/150/9 1507/151/9 1508/152/9
f 1509/153/9 1510/154/9 1511/155/9 1512/156/9
f 1513/1/6 1514/2/6 1515/3/6 1516/4/6
f 1517/5/2 1518/6/2 1519/7/2 1520/8/2
f 1521/9/7 1522/1/7 1523/4/7 1524/7/7
f 1525/10/4 1526/11/4 1527/12/4 1528/13/4
f 1529/14/5 1530/15/5 1531/16/5 1532/17/5
f 1533/42/2 1534/43/2 1535/44/2 1536/45/2
f 1537/1/1 1538/2/1 1539/3/1 1540/4/1
f 1541/86/2 1542/87/2 1543/88/2 1544/89/2
f 1545/90/3 1546/91/3 1547/92/3 1548/88/3
f 1549/10/4 1550/11/4 1551/12/4 1552/13/4
f 1553/93/8 1554/94/8 1555/95/8 1556/96/8
f 1557/43/4 1558/50/4 1559/51/4 1560/44/4
f 1561/52/8 1562/53/8 1563/54/8 1564/55/8
f 1565/56/9 1566/57/9 1567/58/9 1568/59/9
f 1569/60/4 1570/61/4 1571/62/4 1572/63/4
f 1573/64/4 1574/65/4 1575/66/4 1576/67/4
f 1577/68/9 1578/69/9 1579/70/9 1580/71/9
f 1581/72/8 1582/73/8 1583/74/8 1584/75/8
f 1585/76/2 1586/77/2 1587/42/2 1588/45/2
f 1589/67/2 1590/66/2 1591/78/2 1592/79/2
f 1593/71/9 1594/70/9 1595/80/9 1596/81/9
f 1597/82/8 1598/83/8 1599/84/8 1600/85/8
f 1601/1/6 1602/2/6 1603/3/6 1604/4/6
f 1605/5/2 1606/6/2 1607/7/2 1608/8/2
f 1609/9/7 1610/1/7 1611/4/7 1612/7/7
f 1613/10/4 1614/11/4 1615/12/4 1616/13/4
f 1617/46/8 1618/47/8 1619/48/8 1620/49/8
f 1621/44/4 1622/43/4 1623/42/4 1624/45/4
f 1625/1/6 1626/2/6 1627/3/6 1628/4/6
f 1629/5/2 1630/6/2 1631/7/2 1632/8/2
f 1633/9/3 1634/1/3 1635/4/3 1636/7/3
f 1637/10/4 1638/11/4 1639/12/4 1640/13/4
f 1641/14/8 1642/15/8 1643/16/8 1644/17/8
f 1645/51/2 1646/50/2 1647/43/2 1648/44/2
f 1649/54/8 1650/53/8 1651/52/8 1652/55/8
f 1653/58/9 1654/57/9 1655/56/9 1656/59/9
f 1657/62/2 1658/61/2 1659/60/2 1660/63/2
f 1661/66/2 1662/65/2 1663/64/2 1664/67/2
f 1665/70/9 1666/69/9 1667/68/9 1668/71/9
f 1669/74/8 1670/73/8 1671/72/8 1672/75/8
f 1673/42/4 1674/77/4 1675/76/4 1676/45/4
f 1677/78/4 1678/66/4 1679/67/4 1680/79/4
f 1681/80/9 1682/70/9 1683/71/9 1684/81/9
f 1685/84/8 1686/83/8 1687/82/8 1688/85/8
f 1689/18/6 1690/19/6 1691/20/6 1692/21/6
f 1693/18/2 1694/19/2 1695/20/2 1696/21/2
f 1697/18/7 1698/19/7 1699/20/7 1700/21/7
f 1701/18/4 1702/19/4 1703/20/4 1704/21/4
f 1705/22/5 1706/23/5 1707/24/5 1708/25/5
f 1709/20/6 1710/19/6 1711/18/6 1712/21/6
f 1713/20/4 1714/19/4 1715/18/4 1716/21/4
f 1717/20/7 1718/19/7 1719/18/7 1720/21/7
f 1721/20/2 1722/19/2 1723/18/2 1724/21/2
f 1725/24/5 1726/23/5 1727/22/5 1728/25/5
f 1729/18/6 1730/19/6 1731/20/6 1732/21/6
f 1733/18/2 1734/19/2 1735/20/2 1736/21/2
f 1737/18/7 1738/19/7 1739/20/7 1740/21/7
f 1741/18/4 1742/19/4 1743/20/4 1744/21/4
f 1745/22/5 1746/23/5 1747/24/5 1748/25/5
f 1749/20/6 1750/19/6 1751/18/6 1752/21/6
f 1753/20/4 1754/19/4 1755/18/4 1756/21/4
f 1757/20/7 1758/19/7 1759/18/7 1760/21/7
f 1761/20/2 1762/19/2 1763/18/2 1764/21/2
f 1765/24/5 1766/23/5 1767/22/5 1768/25/5
f 1769/18/6 1770/19/6 1771/20/6 1772/21/6
f 1773/18/2 1774/19/2 1775/20/2 1776/21/2
f 1777/18/7 1778/19/7 1779/20/7 1780/21/7
f 1781/18/4 1782/19/4 1783/20/4 1784/21/4
f 1785/22/5 1786/23/5 1787/24/5 1788/25/5
f 1789/20/6 1790/19/6 1791/18/6 1792/21/6
f 1793/20/4 1794/19/4 1795/18/4 1796/21/4
f 1797/20/7 1798/19/7 1799/18/7 1800/21/7
f 1801/20/2 1802/19/2 1803/18/2 1804/21/2
f 1805/24/5 1806/23/5 1807/22/5 1808/25/5
f 1809/18/6 1810/19/6 1811/20/6 1812/21/6
f 1813/18/2 1814/19/2 1815/20/2 1816/21/2
f 1817/18/3 1818/19/3 1819/20/3 1820/21/3
f 1821/18/4 1822/19/4 1823/20/4 1824/21/4
f 1825/22/5 1826/23/5 1827/24/5 1828/25/5
f 1829/20/6 1830/19/6 1831/18/6 1832/21/6
f 1833/20/4 1834/19/4 1835/18/4 1836/21/4
f 1837/20/3 1838/19/3 1839/18/3 1840/21/3
f 1841/20/2 1842/19/2 1843/18/2 1844/21/2
f 1845/24/5 1846/23/5 1847/22/5 1848/25/5
f 1849/157/12 1850/158/12 1851/159/12 1852/160/12
f 1853/161/9 1854/162/9 1855/163/9 1856/164/9
f 1857/165/9 1858/166/9 1859/167/9 1860/168/9
f 1861/169/9 1862/170/9 1863/171/9 1864/172/9
f 1865/1/1 1866/2/1 1867/3/1 1868/4/1
f 1869/5/2 1870/6/2 1871/7/2 1872/8/2
f 1873/9/3 1874/1/3 1875/4/3 1876/7/3
f 1877/10/4 1878/11/4 1879/12/4 1880/13/4
f 1881/14/5 1882/15/5 1883/16/5 1884/17/5
f 1885/173/2 1886/42/2 1887/43/2 1888/174/2
f 1889/175/4 1890/176/4 1891/51/4 1892/44/4
f 1893/177/13 1894/178/13 1895/54/13 1896/55/13
f 1897/179/14 1898/57/14 1899/58/14 1900/180/14
f 1901/60/4 1902/181/4 1903/182/4 1904/63/4
f 1905/64/4 1906/183/4 1907/184/4 1908/67/4
f 1909/185/14 1910/69/14 1911/70/14 1912/186/14
f 1913/187/13 1914/73/13 1915/74/13 1916/188/13
f 1917/189/2 1918/77/2 1919/42/2 1920/173/2
f 1921/190/2 1922/66/2 1923/78/2 1924/191/2
f 1925/186/14 1926/70/14 1927/80/14 1928/192/14
f 1929/193/13 1930/83/13 1931/84/13 1932/194/13
f 1933/1/1 1934/2/1 1935/3/1 1936/4/1
f 1937/5/2 1938/6/2 1939/7/2 1940/8/2
f 1941/9/3 1942/1/3 1943/4/3 1944/7/3
f 1945/10/4 1946/11/4 1947/12/4 1948/13/4
f 1949/46/8 1950/47/8 1951/48/8 1952/49/8
f 1953/195/4 1954/43/4 1955/42/4 1956/196/4
f 1957/51/2 1958/197/2 1959/198/2 1960/44/2
f 1961/54/13 1962/199/13 1963/200/13 1964/55/13
f 1965/201/14 1966/58/14 1967/57/14 1968/202/14
f 1969/203/2 1970/204/2 1971/60/2 1972/63/2
f 1973/205/2 1974/206/2 1975/64/2 1976/67/2
f 1977/207/14 1978/70/14 1979/69/14 1980/208/14
f 1981/209/13 1982/74/13 1983/73/13 1984/210/13
f 1985/196/4 1986/42/4 1987/77/4 1988/211/4
f 1989/212/4 1990/78/4 1991/66/4 1992/213/4
f 1993/214/14 1994/80/14 1995/70/14 1996/207/14
f 1997/215/13 1998/84/13 1999/83/13 2000/216/13
f 2001/18/1 2002/19/1 2003/20/1 2004/21/1
f 2005/18/2 2006/19/2 2007/20/2 2008/21/2
f 2009/18/7 2010/19/7 2011/20/7 2012/21/7
f 2013/18/4 2014/19/4 2015/20/4 2016/21/4
f 2017/22/5 2018/23/5 2019/24/5 2020/25/5
f 2021/20/1 2022/19/1 2023/18/1 2024/21/1
f 2025/20/4 2026/19/4 2027/18/4 2028/21/4
f 2029/20/7 2030/19/7 2031/18/7 2032/21/7
f 2033/20/2 2034/19/2 2035/18/2 2036/21/2
f 2037/24/5 2038/23/5 2039/22/5 2040/25/5
f 2041/18/6 2042/19/6 2043/20/6 2044/21/6
f 2045/18/2 2046/19/2 2047/20/2 2048/21/2
f 2049/18/7 2050/19/7 2051/20/7 2052/21/7
f 2053/18/4 2054/19/4 2055/20/4 2056/21/4
f 2057/22/5 2058/23/5 2059/24/5 2060/25/5
f 2061/20/6 2062/19/6 2063/18/6 2064/21/6
f 2065/20/4 2066/19/4 2067/18/4 2068/21/4
f 2069/20/7 2070/19/7 2071/18/7 2072/21/7
f 2073/20/2 2074/19/2 2075/18/2 2076/21/2
f 2077/24/5 2078/23/5 2079/22/5 2080/25/5
f 2081/18/6 2082/19/6 2083/20/6 2084/21/6
f 2085/18/2 2086/19/2 2087/20/2 2088/21/2
f 2089/18/7 2090/19/7 2091/20/7 2092/21/7
f 2093/18/4 2094/19/4 2095/20/4 2096/21/4
f 2097/22/5 2098/23/5 2099/24/5 2100/25/5
f 2101/20/6 2102/19/6 2103/18/6 2104/21/6
f 2105/20/4 2106/19/4 2107/18/4 2108/21/4
f 2109/20/7 2110/19/7 2111/18/7 2112/21/7
f 2113/20/2 2114/19/2 2115/18/2 2116/21/2
f 2117/24/5 2118/23/5 2119/22/5 2120/25/5
f 2121/1/6 2122/2/6 2123/3/6 2124/4/6
f 2125/5/2 2126/6/2 2127/7/2 2128/8/2
f 2129/9/7 2130/1/7 2131/4/7 2132/7/7
f 2133/10/4 2134/11/4 2135/12/4 2136/13/4
f 2137/14/8 2138/15/8 2139/16/8 2140/17/8
f 2141/217/12 2142/218/12 2143/219/12 2144/220/12
f 2145/221/9 2146/222/9 2147/223/9 2148/224/9
f 2149/225/9 2150/226/9 2151/227/9 2152/228/9
f 2160/229/15 2155/230/15 2156/231/15 2153/232/15
f 2153/232/15 2154/233/15 2157/234/15 2160/229/15
f 2159/235/15 2160/229/15 2157/234/15 2158/236/15
f 2158/236/15 2161/237/15 2162/238/15 2159/235/15
f 2163/239/15 2164/240/15 2159/235/15 2162/238/15
f 2172/234/15 2167/233/15 2168/232/15 2165/231/15
f 2165/231/15 2166/230/15 2169/229/15 2172/234/15
f 2171/236/15 2172/234/15 2169/229/15 2170/235/15
f 2170/235/15 2173/240/15 2174/239/15 2171/236/15
f 2175/238/15 2176/237/15 2171/236/15 2174/239/15
