# Blender 5.2.1 LTS
# www.blender.org
o embedded_transition_1x3
v 0.300477 0.025803 0.500000
v 0.360477 0.025803 0.500000
v 0.360477 0.051845 -0.500000
v 0.300477 0.051845 -0.500000
v 0.352366 0.085803 0.500000
v 0.308588 0.085803 0.500000
v 0.360477 0.041289 0.500000
v 0.360477 0.067331 -0.500000
v 0.352366 0.111845 -0.500000
v 0.318222 0.041289 0.500000
v 0.342732 0.041289 0.500000
v 0.318222 0.071584 0.500000
v 0.318222 0.097626 -0.500000
v 0.352366 0.071584 0.500000
v 0.342732 0.071584 0.500000
v 0.342732 0.067331 -0.500000
v 0.352366 0.097626 -0.500000
v 0.342732 0.097626 -0.500000
v 0.318222 0.067331 -0.500000
v 0.308588 0.071584 0.500000
v 0.308588 0.097626 -0.500000
v 0.300477 0.067331 -0.500000
v 0.300477 0.041289 0.500000
v 0.308588 0.111845 -0.500000
v -0.300477 0.025803 0.500000
v -0.360477 0.025803 0.500000
v -0.360477 0.051845 -0.500000
v -0.300477 0.051845 -0.500000
v -0.352366 0.085803 0.500000
v -0.308588 0.085803 0.500000
v -0.360477 0.041289 0.500000
v -0.360477 0.067331 -0.500000
v -0.352366 0.111845 -0.500000
v -0.318222 0.041289 0.500000
v -0.342732 0.041289 0.500000
v -0.318222 0.071584 0.500000
v -0.318222 0.097626 -0.500000
v -0.352366 0.071584 0.500000
v -0.342732 0.071584 0.500000
v -0.342732 0.067331 -0.500000
v -0.352366 0.097626 -0.500000
v -0.342732 0.097626 -0.500000
v -0.318222 0.067331 -0.500000
v -0.308588 0.071584 0.500000
v -0.308588 0.097626 -0.500000
v -0.300477 0.067331 -0.500000
v -0.300477 0.041289 0.500000
v -0.308588 0.111845 -0.500000
v -0.317867 -0.022414 0.390000
v -0.317867 0.057586 0.390000
v -0.287867 -0.022414 0.390000
v -0.287867 0.057586 0.390000
v -0.287867 -0.021633 0.360000
v -0.287867 0.058367 0.360000
v -0.317867 -0.021633 0.360000
v -0.317867 0.058367 0.360000
v 0.317867 -0.022414 0.390000
v 0.317867 0.057586 0.390000
v 0.287867 -0.022414 0.390000
v 0.287867 0.057586 0.390000
v 0.287867 -0.021633 0.360000
v 0.287867 0.058367 0.360000
v 0.317867 -0.021633 0.360000
v 0.317867 0.058367 0.360000
v -0.317867 -0.015904 0.140000
v -0.317867 0.064096 0.140000
v -0.287867 -0.015904 0.140000
v -0.287867 0.064096 0.140000
v -0.287867 -0.015123 0.110000
v -0.287867 0.064877 0.110000
v -0.317867 -0.015123 0.110000
v -0.317867 0.064877 0.110000
v 0.317867 -0.015904 0.140000
v 0.317867 0.064096 0.140000
v 0.287867 -0.015904 0.140000
v 0.287867 0.064096 0.140000
v 0.287867 -0.015123 0.110000
v 0.287867 0.064877 0.110000
v 0.317867 -0.015123 0.110000
v 0.317867 0.064877 0.110000
v -0.317867 -0.009394 -0.110000
v -0.317867 0.070606 -0.110000
v -0.287867 -0.009394 -0.110000
v -0.287867 0.070606 -0.110000
v -0.287867 -0.008612 -0.140000
v -0.287867 0.071388 -0.140000
v -0.317867 -0.008612 -0.140000
v -0.317867 0.071388 -0.140000
v 0.317867 -0.009394 -0.110000
v 0.317867 0.070606 -0.110000
v 0.287867 -0.009394 -0.110000
v 0.287867 0.070606 -0.110000
v 0.287867 -0.008612 -0.140000
v 0.287867 0.071388 -0.140000
v 0.317867 -0.008612 -0.140000
v 0.317867 0.071388 -0.140000
v -0.317867 -0.002883 -0.360000
v -0.317867 0.077117 -0.360000
v -0.287867 -0.002883 -0.360000
v -0.287867 0.077117 -0.360000
v -0.287867 -0.002102 -0.390000
v -0.287867 0.077898 -0.390000
v -0.317867 -0.002102 -0.390000
v -0.317867 0.077898 -0.390000
v 0.317867 -0.002883 -0.360000
v 0.317867 0.077117 -0.360000
v 0.287867 -0.002883 -0.360000
v 0.287867 0.077117 -0.360000
v 0.287867 -0.002102 -0.390000
v 0.287867 0.077898 -0.390000
v 0.317867 -0.002102 -0.390000
v 0.317867 0.077898 -0.390000
v -0.470000 -0.009036 -0.305000
v -0.470000 0.050964 -0.305000
v 0.470000 -0.009036 -0.305000
v 0.470000 0.050964 -0.305000
v 0.470000 -0.005391 -0.445000
v 0.470000 0.054609 -0.445000
v -0.470000 -0.005391 -0.445000
v -0.470000 0.054609 -0.445000
v -0.470000 -0.015547 -0.055000
v -0.470000 0.044453 -0.055000
v 0.470000 -0.015547 -0.055000
v 0.470000 0.044453 -0.055000
v 0.470000 -0.011901 -0.195000
v 0.470000 0.048099 -0.195000
v -0.470000 -0.011901 -0.195000
v -0.470000 0.048099 -0.195000
v -0.470000 -0.022057 0.195000
v -0.470000 0.037943 0.195000
v 0.470000 -0.022057 0.195000
v 0.470000 0.037943 0.195000
v 0.470000 -0.018411 0.055000
v 0.470000 0.041589 0.055000
v -0.470000 -0.018411 0.055000
v -0.470000 0.041589 0.055000
v -0.470000 -0.028568 0.445000
v -0.470000 0.031432 0.445000
v 0.470000 -0.028568 0.445000
v 0.470000 0.031432 0.445000
v 0.470000 -0.024922 0.305000
v 0.470000 0.035078 0.305000
v -0.470000 -0.024922 0.305000
v -0.470000 0.035078 0.305000
v 0.300477 0.051845 -0.500000
v 0.360477 0.051845 -0.500000
v 0.360477 0.077886 -1.500000
v 0.300477 0.077886 -1.500000
v 0.352366 0.111845 -0.500000
v 0.308588 0.111845 -0.500000
v 0.360477 0.067331 -0.500000
v 0.360477 0.093372 -1.500000
v 0.352366 0.137886 -1.500000
v 0.318222 0.067331 -0.500000
v 0.342732 0.067331 -0.500000
v 0.318222 0.097626 -0.500000
v 0.318222 0.123667 -1.500000
v 0.352366 0.097626 -0.500000
v 0.342732 0.097626 -0.500000
v 0.342732 0.093372 -1.500000
v 0.352366 0.123667 -1.500000
v 0.342732 0.123667 -1.500000
v 0.318222 0.093372 -1.500000
v 0.308588 0.097626 -0.500000
v 0.308588 0.123667 -1.500000
v 0.300477 0.093372 -1.500000
v 0.300477 0.067331 -0.500000
v 0.308588 0.137886 -1.500000
v -0.300477 0.051845 -0.500000
v -0.360477 0.051845 -0.500000
v -0.360477 0.077886 -1.500000
v -0.300477 0.077886 -1.500000
v -0.352366 0.111845 -0.500000
v -0.308588 0.111845 -0.500000
v -0.360477 0.067331 -0.500000
v -0.360477 0.093372 -1.500000
v -0.352366 0.137886 -1.500000
v -0.318222 0.067331 -0.500000
v -0.342732 0.067331 -0.500000
v -0.318222 0.097626 -0.500000
v -0.318222 0.123667 -1.500000
v -0.352366 0.097626 -0.500000
v -0.342732 0.097626 -0.500000
v -0.342732 0.093372 -1.500000
v -0.352366 0.123667 -1.500000
v -0.342732 0.123667 -1.500000
v -0.318222 0.093372 -1.500000
v -0.308588 0.097626 -0.500000
v -0.308588 0.123667 -1.500000
v -0.300477 0.093372 -1.500000
v -0.300477 0.067331 -0.500000
v -0.308588 0.137886 -1.500000
v -0.317867 0.003627 -0.610000
v -0.317867 0.083627 -0.610000
v -0.287867 0.003627 -0.610000
v -0.287867 0.083627 -0.610000
v -0.287867 0.004409 -0.640000
v -0.287867 0.084409 -0.640000
v -0.317867 0.004409 -0.640000
v -0.317867 0.084409 -0.640000
v 0.317867 0.003627 -0.610000
v 0.317867 0.083627 -0.610000
v 0.287867 0.003627 -0.610000
v 0.287867 0.083627 -0.610000
v 0.287867 0.004409 -0.640000
v 0.287867 0.084409 -0.640000
v 0.317867 0.004409 -0.640000
v 0.317867 0.084409 -0.640000
v -0.317867 0.010138 -0.860000
v -0.317867 0.090138 -0.860000
v -0.287867 0.010138 -0.860000
v -0.287867 0.090138 -0.860000
v -0.287867 0.010919 -0.890000
v -0.287867 0.090919 -0.890000
v -0.317867 0.010919 -0.890000
v -0.317867 0.090919 -0.890000
v 0.317867 0.010138 -0.860000
v 0.317867 0.090138 -0.860000
v 0.287867 0.010138 -0.860000
v 0.287867 0.090138 -0.860000
v 0.287867 0.010919 -0.890000
v 0.287867 0.090919 -0.890000
v 0.317867 0.010919 -0.890000
v 0.317867 0.090919 -0.890000
v -0.317867 0.016648 -1.110000
v -0.317867 0.096648 -1.110000
v -0.287867 0.016648 -1.110000
v -0.287867 0.096648 -1.110000
v -0.287867 0.017429 -1.140000
v -0.287867 0.097429 -1.140000
v -0.317867 0.017429 -1.140000
v -0.317867 0.097429 -1.140000
v 0.317867 0.016648 -1.110000
v 0.317867 0.096648 -1.110000
v 0.287867 0.016648 -1.110000
v 0.287867 0.096648 -1.110000
v 0.287867 0.017429 -1.140000
v 0.287867 0.097429 -1.140000
v 0.317867 0.017429 -1.140000
v 0.317867 0.097429 -1.140000
v -0.317867 0.023159 -1.360000
v -0.317867 0.103159 -1.360000
v -0.287867 0.023159 -1.360000
v -0.287867 0.103159 -1.360000
v -0.287867 0.023940 -1.390000
v -0.287867 0.103940 -1.390000
v -0.317867 0.023940 -1.390000
v -0.317867 0.103940 -1.390000
v 0.317867 0.023159 -1.360000
v 0.317867 0.103159 -1.360000
v 0.287867 0.023159 -1.360000
v 0.287867 0.103159 -1.360000
v 0.287867 0.023940 -1.390000
v 0.287867 0.103940 -1.390000
v 0.317867 0.023940 -1.390000
v 0.317867 0.103940 -1.390000
v -0.470000 0.017005 -1.305000
v -0.470000 0.077005 -1.305000
v 0.470000 0.017005 -1.305000
v 0.470000 0.077005 -1.305000
v 0.470000 0.020651 -1.445000
v 0.470000 0.080651 -1.445000
v -0.470000 0.020651 -1.445000
v -0.470000 0.080651 -1.445000
v -0.470000 0.010495 -1.055000
v -0.470000 0.070495 -1.055000
v 0.470000 0.010495 -1.055000
v 0.470000 0.070495 -1.055000
v 0.470000 0.014141 -1.195000
v 0.470000 0.074141 -1.195000
v -0.470000 0.014141 -1.195000
v -0.470000 0.074141 -1.195000
v -0.470000 0.003984 -0.805000
v -0.470000 0.063984 -0.805000
v 0.470000 0.003984 -0.805000
v 0.470000 0.063984 -0.805000
v 0.470000 0.007630 -0.945000
v 0.470000 0.067630 -0.945000
v -0.470000 0.007630 -0.945000
v -0.470000 0.067630 -0.945000
v -0.470000 -0.002526 -0.555000
v -0.470000 0.057474 -0.555000
v 0.470000 -0.002526 -0.555000
v 0.470000 0.057474 -0.555000
v 0.470000 0.001120 -0.695000
v 0.470000 0.061120 -0.695000
v -0.470000 0.001120 -0.695000
v -0.470000 0.061120 -0.695000
v 0.300477 0.077886 -1.500000
v 0.360477 0.077886 -1.500000
v 0.360477 0.103928 -2.500000
v 0.300477 0.103928 -2.500000
v 0.352366 0.137886 -1.500000
v 0.308588 0.137886 -1.500000
v 0.360477 0.093372 -1.500000
v 0.360477 0.119414 -2.500000
v 0.352366 0.163928 -2.500000
v 0.318222 0.093372 -1.500000
v 0.342732 0.093372 -1.500000
v 0.318222 0.123667 -1.500000
v 0.318222 0.149709 -2.500000
v 0.352366 0.123667 -1.500000
v 0.342732 0.123667 -1.500000
v 0.342732 0.119414 -2.500000
v 0.352366 0.149709 -2.500000
v 0.342732 0.149709 -2.500000
v 0.318222 0.119414 -2.500000
v 0.308588 0.123667 -1.500000
v 0.308588 0.149709 -2.500000
v 0.300477 0.119414 -2.500000
v 0.300477 0.093372 -1.500000
v 0.308588 0.163928 -2.500000
v -0.300477 0.077886 -1.500000
v -0.360477 0.077886 -1.500000
v -0.360477 0.103928 -2.500000
v -0.300477 0.103928 -2.500000
v -0.352366 0.137886 -1.500000
v -0.308588 0.137886 -1.500000
v -0.360477 0.093372 -1.500000
v -0.360477 0.119414 -2.500000
v -0.352366 0.163928 -2.500000
v -0.318222 0.093372 -1.500000
v -0.342732 0.093372 -1.500000
v -0.318222 0.123667 -1.500000
v -0.318222 0.149709 -2.500000
v -0.352366 0.123667 -1.500000
v -0.342732 0.123667 -1.500000
v -0.342732 0.119414 -2.500000
v -0.352366 0.149709 -2.500000
v -0.342732 0.149709 -2.500000
v -0.318222 0.119414 -2.500000
v -0.308588 0.123667 -1.500000
v -0.308588 0.149709 -2.500000
v -0.300477 0.119414 -2.500000
v -0.300477 0.093372 -1.500000
v -0.308588 0.163928 -2.500000
v -0.317867 0.029669 -1.610000
v -0.317867 0.109669 -1.610000
v -0.287867 0.029669 -1.610000
v -0.287867 0.109669 -1.610000
v -0.287867 0.030450 -1.640000
v -0.287867 0.110450 -1.640000
v -0.317867 0.030450 -1.640000
v -0.317867 0.110450 -1.640000
v 0.317867 0.029669 -1.610000
v 0.317867 0.109669 -1.610000
v 0.287867 0.029669 -1.610000
v 0.287867 0.109669 -1.610000
v 0.287867 0.030450 -1.640000
v 0.287867 0.110450 -1.640000
v 0.317867 0.030450 -1.640000
v 0.317867 0.110450 -1.640000
v -0.317867 0.036179 -1.860000
v -0.317867 0.116179 -1.860000
v -0.287867 0.036179 -1.860000
v -0.287867 0.116179 -1.860000
v -0.287867 0.036961 -1.890000
v -0.287867 0.116961 -1.890000
v -0.317867 0.036961 -1.890000
v -0.317867 0.116961 -1.890000
v 0.317867 0.036179 -1.860000
v 0.317867 0.116179 -1.860000
v 0.287867 0.036179 -1.860000
v 0.287867 0.116179 -1.860000
v 0.287867 0.036961 -1.890000
v 0.287867 0.116961 -1.890000
v 0.317867 0.036961 -1.890000
v 0.317867 0.116961 -1.890000
v -0.317867 0.042690 -2.110000
v -0.317867 0.122690 -2.110000
v -0.287867 0.042690 -2.110000
v -0.287867 0.122690 -2.110000
v -0.287867 0.043471 -2.140000
v -0.287867 0.123471 -2.140000
v -0.317867 0.043471 -2.140000
v -0.317867 0.123471 -2.140000
v 0.317867 0.042690 -2.110000
v 0.317867 0.122690 -2.110000
v 0.287867 0.042690 -2.110000
v 0.287867 0.122690 -2.110000
v 0.287867 0.043471 -2.140000
v 0.287867 0.123471 -2.140000
v 0.317867 0.043471 -2.140000
v 0.317867 0.123471 -2.140000
v -0.317867 0.049200 -2.360000
v -0.317867 0.129200 -2.360000
v -0.287867 0.049200 -2.360000
v -0.287867 0.129200 -2.360000
v -0.287867 0.049981 -2.390000
v -0.287867 0.129981 -2.390000
v -0.317867 0.049981 -2.390000
v -0.317867 0.129981 -2.390000
v 0.317867 0.049200 -2.360000
v 0.317867 0.129200 -2.360000
v 0.287867 0.049200 -2.360000
v 0.287867 0.129200 -2.360000
v 0.287867 0.049981 -2.390000
v 0.287867 0.129981 -2.390000
v 0.317867 0.049981 -2.390000
v 0.317867 0.129981 -2.390000
v -0.470000 0.043047 -2.305000
v -0.470000 0.103047 -2.305000
v 0.470000 0.043047 -2.305000
v 0.470000 0.103047 -2.305000
v 0.470000 0.046693 -2.445000
v 0.470000 0.106693 -2.445000
v -0.470000 0.046693 -2.445000
v -0.470000 0.106693 -2.445000
v -0.470000 0.036536 -2.055000
v -0.470000 0.096536 -2.055000
v 0.470000 0.036536 -2.055000
v 0.470000 0.096536 -2.055000
v 0.470000 0.040182 -2.195000
v 0.470000 0.100182 -2.195000
v -0.470000 0.040182 -2.195000
v -0.470000 0.100182 -2.195000
v -0.470000 0.030026 -1.805000
v -0.470000 0.090026 -1.805000
v 0.470000 0.030026 -1.805000
v 0.470000 0.090026 -1.805000
v 0.470000 0.033672 -1.945000
v 0.470000 0.093672 -1.945000
v -0.470000 0.033672 -1.945000
v -0.470000 0.093672 -1.945000
v -0.470000 0.023516 -1.555000
v -0.470000 0.083516 -1.555000
v 0.470000 0.023516 -1.555000
v 0.470000 0.083516 -1.555000
v 0.470000 0.027161 -1.695000
v 0.470000 0.087161 -1.695000
v -0.470000 0.027161 -1.695000
v -0.470000 0.087161 -1.695000
vt -0.000122 0.156096 0.000000
vt 0.905875 0.034093 0.000000
vt 0.942399 0.062186 0.000000
vt -0.000122 0.210448 0.000000
vt 0.000000 0.048121 0.000000
vt 0.995971 0.062186 0.000000
vt 0.905753 0.210448 0.000000
vt 0.943180 0.000413 0.000000
vt 0.905875 0.048121 0.000000
vt 0.905753 0.156096 0.000000
vt 0.000000 0.034093 0.000000
vt 0.996752 0.000413 0.000000
vt 0.000000 0.012881 0.000000
vt 0.906075 0.259595 0.000000
vt 0.988729 0.115757 0.000000
vt 0.905875 0.025761 0.000000
vt 0.906075 0.219937 0.000000
vt 0.949641 0.115757 0.000000
vt 0.906075 0.297453 0.000000
vt 0.000000 0.062150 0.000000
vt 0.995971 0.076013 0.000000
vt 0.000200 0.297453 0.000000
vt 0.943180 0.014240 0.000000
vt 0.905875 0.062150 0.000000
vt 0.905875 0.012881 0.000000
vt 0.000200 0.259595 0.000000
vt 0.950422 0.053985 0.000000
vt 0.906075 0.312903 0.000000
vt 0.905875 0.093759 0.000000
vt 0.958243 0.076013 0.000000
vt 0.906075 0.281378 0.000000
vt 0.000000 0.062150 0.000000
vt 0.980127 0.076013 0.000000
vt 0.000512 0.330358 0.000000
vt 0.905875 0.121202 0.000000
vt 0.958243 0.103062 0.000000
vt 0.906387 0.330358 0.000000
vt 0.000000 0.121202 0.000000
vt 0.980908 0.041289 0.000000
vt 0.000512 0.321630 0.000000
vt 0.000000 0.000000 0.000000
vt 0.988729 0.103062 0.000000
vt 0.000512 0.312903 0.000000
vt 0.000000 0.089593 0.000000
vt 0.980127 0.103062 0.000000
vt 0.000200 0.281378 0.000000
vt 0.905875 0.062150 0.000000
vt 0.959024 0.014240 0.000000
vt 0.906387 0.321630 0.000000
vt 0.905875 0.000000 0.000000
vt 0.950422 0.041289 0.000000
vt 0.906387 0.312903 0.000000
vt 0.905875 0.089593 0.000000
vt 0.959024 0.041289 0.000000
vt 0.000200 0.312903 0.000000
vt 0.000000 0.093759 0.000000
vt 0.980908 0.014240 0.000000
vt 0.000512 0.321630 0.000000
vt 0.905875 0.012881 0.000000
vt 0.949641 0.103062 0.000000
vt 0.906387 0.321630 0.000000
vt 0.000000 0.012881 0.000000
vt 0.989510 0.041289 0.000000
vt 0.000200 0.296828 0.000000
vt 0.000000 0.048121 0.000000
vt 0.996752 0.014240 0.000000
vt 0.906075 0.296828 0.000000
vt 0.905875 0.048121 0.000000
vt 0.942399 0.076013 0.000000
vt 0.000000 0.025761 0.000000
vt 0.000200 0.219937 0.000000
vt 0.989510 0.053985 0.000000
vt -0.000122 0.156096 0.000000
vt 0.905875 0.034093 0.000000
vt 0.942399 0.062186 0.000000
vt -0.000122 0.210448 0.000000
vt 0.000000 0.048121 0.000000
vt 0.995971 0.062186 0.000000
vt 0.905753 0.210448 0.000000
vt 0.943180 0.000413 0.000000
vt 0.905875 0.048121 0.000000
vt 0.905753 0.156096 0.000000
vt 0.000000 0.034093 0.000000
vt 0.996752 0.000413 0.000000
vt 0.000000 0.012881 0.000000
vt 0.906075 0.259595 0.000000
vt 0.988729 0.115757 0.000000
vt 0.905875 0.025761 0.000000
vt 0.906075 0.219937 0.000000
vt 0.949641 0.115757 0.000000
vt 0.906075 0.297453 0.000000
vt 0.000000 0.062150 0.000000
vt 0.995971 0.076013 0.000000
vt 0.000200 0.297453 0.000000
vt 0.943180 0.014240 0.000000
vt 0.905875 0.062150 0.000000
vt 0.905875 0.012881 0.000000
vt 0.000200 0.259595 0.000000
vt 0.950422 0.053985 0.000000
vt 0.906075 0.312903 0.000000
vt 0.905875 0.093759 0.000000
vt 0.958243 0.076013 0.000000
vt 0.906075 0.281378 0.000000
vt 0.000000 0.062150 0.000000
vt 0.980127 0.076013 0.000000
vt 0.000512 0.330358 0.000000
vt 0.905875 0.121202 0.000000
vt 0.958243 0.103062 0.000000
vt 0.906387 0.330358 0.000000
vt 0.000000 0.121202 0.000000
vt 0.980908 0.041289 0.000000
vt 0.000512 0.321630 0.000000
vt 0.000000 0.000000 0.000000
vt 0.988729 0.103062 0.000000
vt 0.000512 0.312903 0.000000
vt 0.000000 0.089593 0.000000
vt 0.980127 0.103062 0.000000
vt 0.000200 0.281378 0.000000
vt 0.905875 0.062150 0.000000
vt 0.959024 0.014240 0.000000
vt 0.906387 0.321630 0.000000
vt 0.905875 0.000000 0.000000
vt 0.950422 0.041289 0.000000
vt 0.906387 0.312903 0.000000
vt 0.905875 0.089593 0.000000
vt 0.959024 0.041289 0.000000
vt 0.000200 0.312903 0.000000
vt 0.000000 0.093759 0.000000
vt 0.980908 0.014240 0.000000
vt 0.000512 0.321630 0.000000
vt 0.905875 0.012881 0.000000
vt 0.949641 0.103062 0.000000
vt 0.906387 0.321630 0.000000
vt 0.000000 0.012881 0.000000
vt 0.989510 0.041289 0.000000
vt 0.000200 0.296828 0.000000
vt 0.000000 0.048121 0.000000
vt 0.996752 0.014240 0.000000
vt 0.906075 0.296828 0.000000
vt 0.905875 0.048121 0.000000
vt 0.942399 0.076013 0.000000
vt 0.000000 0.025761 0.000000
vt 0.000200 0.219937 0.000000
vt 0.989510 0.053985 0.000000
vt 0.999050 0.183297 0.000000
vt 0.939310 0.183297 0.000000
vt 0.939081 0.132863 0.000000
vt 0.999050 0.342604 0.000000
vt 0.939310 0.342604 0.000000
vt 0.939310 0.183297 0.000000
vt 0.999050 0.183297 0.000000
vt 0.985655 0.132863 0.000000
vt 0.939310 0.342604 0.000000
vt 0.999050 0.342604 0.000000
vt 0.939310 0.183297 0.000000
vt 0.999050 0.183297 0.000000
vt 0.985655 0.179437 0.000000
vt 0.939310 0.342604 0.000000
vt 0.999050 0.342604 0.000000
vt 0.939310 0.183297 0.000000
vt 0.999050 0.183297 0.000000
vt 0.939081 0.179437 0.000000
vt 0.939310 0.342604 0.000000
vt 0.999050 0.342604 0.000000
vt 0.999050 0.183297 0.000000
vt 0.939310 0.183297 0.000000
vt 0.939081 0.132863 0.000000
vt 0.999050 0.342604 0.000000
vt 0.939310 0.342604 0.000000
vt 0.939310 0.183297 0.000000
vt 0.999050 0.183297 0.000000
vt 0.985655 0.132863 0.000000
vt 0.939310 0.342604 0.000000
vt 0.999050 0.342604 0.000000
vt 0.939310 0.183297 0.000000
vt 0.999050 0.183297 0.000000
vt 0.985655 0.179437 0.000000
vt 0.939310 0.342604 0.000000
vt 0.999050 0.342604 0.000000
vt 0.939310 0.183297 0.000000
vt 0.999050 0.183297 0.000000
vt 0.939081 0.179437 0.000000
vt 0.939310 0.342604 0.000000
vt 0.999050 0.342604 0.000000
vt 0.999050 0.183297 0.000000
vt 0.939310 0.183297 0.000000
vt 0.939081 0.132863 0.000000
vt 0.999050 0.342604 0.000000
vt 0.939310 0.342604 0.000000
vt 0.939310 0.183297 0.000000
vt 0.999050 0.183297 0.000000
vt 0.985655 0.132863 0.000000
vt 0.939310 0.342604 0.000000
vt 0.999050 0.342604 0.000000
vt 0.939310 0.183297 0.000000
vt 0.999050 0.183297 0.000000
vt 0.985655 0.179437 0.000000
vt 0.939310 0.342604 0.000000
vt 0.999050 0.342604 0.000000
vt 0.939310 0.183297 0.000000
vt 0.999050 0.183297 0.000000
vt 0.939081 0.179437 0.000000
vt 0.939310 0.342604 0.000000
vt 0.999050 0.342604 0.000000
vt 0.999050 0.183297 0.000000
vt 0.939310 0.183297 0.000000
vt 0.939081 0.132863 0.000000
vt 0.999050 0.342604 0.000000
vt 0.939310 0.342604 0.000000
vt 0.939310 0.183297 0.000000
vt 0.999050 0.183297 0.000000
vt 0.985655 0.132863 0.000000
vt 0.939310 0.342604 0.000000
vt 0.999050 0.342604 0.000000
vt 0.939310 0.183297 0.000000
vt 0.999050 0.183297 0.000000
vt 0.985655 0.179437 0.000000
vt 0.939310 0.342604 0.000000
vt 0.999050 0.342604 0.000000
vt 0.939310 0.183297 0.000000
vt 0.999050 0.183297 0.000000
vt 0.939081 0.179437 0.000000
vt 0.939310 0.342604 0.000000
vt 0.999050 0.342604 0.000000
vt 0.999050 0.183297 0.000000
vt 0.939310 0.183297 0.000000
vt 0.939081 0.132863 0.000000
vt 0.999050 0.342604 0.000000
vt 0.939310 0.342604 0.000000
vt 0.939310 0.183297 0.000000
vt 0.999050 0.183297 0.000000
vt 0.985655 0.132863 0.000000
vt 0.939310 0.342604 0.000000
vt 0.999050 0.342604 0.000000
vt 0.939310 0.183297 0.000000
vt 0.999050 0.183297 0.000000
vt 0.985655 0.179437 0.000000
vt 0.939310 0.342604 0.000000
vt 0.999050 0.342604 0.000000
vt 0.939310 0.183297 0.000000
vt 0.999050 0.183297 0.000000
vt 0.939081 0.179437 0.000000
vt 0.939310 0.342604 0.000000
vt 0.999050 0.342604 0.000000
vt 0.999050 0.183297 0.000000
vt 0.939310 0.183297 0.000000
vt 0.939081 0.132863 0.000000
vt 0.999050 0.342604 0.000000
vt 0.939310 0.342604 0.000000
vt 0.939310 0.183297 0.000000
vt 0.999050 0.183297 0.000000
vt 0.985655 0.132863 0.000000
vt 0.939310 0.342604 0.000000
vt 0.999050 0.342604 0.000000
vt 0.939310 0.183297 0.000000
vt 0.999050 0.183297 0.000000
vt 0.985655 0.179437 0.000000
vt 0.939310 0.342604 0.000000
vt 0.999050 0.342604 0.000000
vt 0.939310 0.183297 0.000000
vt 0.999050 0.183297 0.000000
vt 0.939081 0.179437 0.000000
vt 0.939310 0.342604 0.000000
vt 0.999050 0.342604 0.000000
vt 0.999050 0.183297 0.000000
vt 0.939310 0.183297 0.000000
vt 0.939081 0.132863 0.000000
vt 0.999050 0.342604 0.000000
vt 0.939310 0.342604 0.000000
vt 0.939310 0.183297 0.000000
vt 0.999050 0.183297 0.000000
vt 0.985655 0.132863 0.000000
vt 0.939310 0.342604 0.000000
vt 0.999050 0.342604 0.000000
vt 0.939310 0.183297 0.000000
vt 0.999050 0.183297 0.000000
vt 0.985655 0.179437 0.000000
vt 0.939310 0.342604 0.000000
vt 0.999050 0.342604 0.000000
vt 0.939310 0.183297 0.000000
vt 0.999050 0.183297 0.000000
vt 0.939081 0.179437 0.000000
vt 0.939310 0.342604 0.000000
vt 0.999050 0.342604 0.000000
vt 0.999050 0.183297 0.000000
vt 0.939310 0.183297 0.000000
vt 0.939081 0.132863 0.000000
vt 0.999050 0.342604 0.000000
vt 0.939310 0.342604 0.000000
vt 0.939310 0.183297 0.000000
vt 0.999050 0.183297 0.000000
vt 0.985655 0.132863 0.000000
vt 0.939310 0.342604 0.000000
vt 0.999050 0.342604 0.000000
vt 0.939310 0.183297 0.000000
vt 0.999050 0.183297 0.000000
vt 0.985655 0.179437 0.000000
vt 0.939310 0.342604 0.000000
vt 0.999050 0.342604 0.000000
vt 0.939310 0.183297 0.000000
vt 0.999050 0.183297 0.000000
vt 0.939081 0.179437 0.000000
vt 0.939310 0.342604 0.000000
vt 0.999050 0.342604 0.000000
vt 0.001647 0.998895 0.000000
vt 0.302823 0.656284 0.000000
vt -0.000781 0.781451 0.000000
vt -0.000466 0.505675 0.000000
vt 0.302823 0.718868 0.000000
vt -0.000781 0.844034 0.000000
vt 0.998987 0.998895 0.000000
vt 0.000156 0.656284 0.000000
vt 0.979692 0.781451 0.000000
vt 0.999534 0.505675 0.000000
vt 0.000156 0.718868 0.000000
vt 0.979692 0.844034 0.000000
vt 0.998987 0.850355 0.000000
vt 0.000156 0.718868 0.000000
vt 0.146184 0.656284 0.000000
vt 0.999534 0.654611 0.000000
vt 0.000156 0.781451 0.000000
vt 0.146184 0.718868 0.000000
vt 0.001647 0.850355 0.000000
vt 0.156795 0.656284 0.000000
vt 0.980629 0.718868 0.000000
vt -0.000466 0.654611 0.000000
vt 0.156795 0.718868 0.000000
vt 0.980629 0.781451 0.000000
vt 0.001647 0.998049 0.000000
vt 0.302823 0.656284 0.000000
vt -0.000781 0.781451 0.000000
vt 0.000000 0.851064 0.000000
vt 0.302823 0.718868 0.000000
vt -0.000781 0.844034 0.000000
vt 0.998987 0.998049 0.000000
vt -0.000781 0.656284 0.000000
vt 0.979692 0.781451 0.000000
vt 1.000000 0.851064 0.000000
vt -0.000781 0.718868 0.000000
vt 0.979692 0.844034 0.000000
vt 0.998987 0.849509 0.000000
vt -0.000781 0.718868 0.000000
vt 0.145247 0.656284 0.000000
vt 1.000000 1.000000 0.000000
vt -0.000781 0.781451 0.000000
vt 0.145247 0.718868 0.000000
vt 0.001647 0.849509 0.000000
vt 0.156795 0.656284 0.000000
vt 0.979692 0.718868 0.000000
vt 0.000000 1.000000 0.000000
vt 0.156795 0.718868 0.000000
vt 0.979692 0.781451 0.000000
vt 0.000000 0.500556 0.000000
vt 0.302823 0.656284 0.000000
vt -0.000781 0.781451 0.000000
vt -0.000103 0.349106 0.000000
vt 0.302823 0.718868 0.000000
vt -0.000781 0.844034 0.000000
vt 0.997339 0.500556 0.000000
vt -0.000781 0.656284 0.000000
vt 0.979692 0.781451 0.000000
vt 0.999897 0.349106 0.000000
vt -0.000781 0.718868 0.000000
vt 0.979692 0.844034 0.000000
vt 0.997339 0.352016 0.000000
vt -0.000781 0.718868 0.000000
vt 0.145247 0.656284 0.000000
vt 0.999897 0.498042 0.000000
vt -0.000781 0.781451 0.000000
vt 0.145247 0.718868 0.000000
vt 0.000000 0.352016 0.000000
vt 0.156795 0.656284 0.000000
vt 0.979692 0.718868 0.000000
vt -0.000103 0.498042 0.000000
vt 0.156795 0.718868 0.000000
vt 0.979692 0.781451 0.000000
vt 0.001647 0.652658 0.000000
vt 0.302823 0.656284 0.000000
vt -0.000781 0.781451 0.000000
vt 0.000000 0.851064 0.000000
vt 0.302823 0.718868 0.000000
vt -0.000781 0.844034 0.000000
vt 0.998987 0.652658 0.000000
vt -0.000781 0.656284 0.000000
vt 0.979692 0.781451 0.000000
vt 1.000000 0.851064 0.000000
vt -0.000781 0.718868 0.000000
vt 0.979692 0.844034 0.000000
vt 0.998987 0.504118 0.000000
vt -0.000781 0.718868 0.000000
vt 0.145247 0.656284 0.000000
vt 1.000000 1.000000 0.000000
vt -0.000781 0.781451 0.000000
vt 0.145247 0.718868 0.000000
vt 0.001647 0.504118 0.000000
vt 0.156795 0.656284 0.000000
vt 0.979692 0.718868 0.000000
vt 0.000000 1.000000 0.000000
vt 0.156795 0.718868 0.000000
vt 0.979692 0.781451 0.000000
s 1
f 15/45 6/18 20/60 12/36
f 6/18 15/45 14/42 5/15
f 1/3 2/6 7/21 11/33
f 11/33 10/30 23/69 1/3
f 12/36 10/30 11/33 15/45
f 7/20 2/5 3/9 8/24
f 19/57 16/48 8/23 3/8
f 3/8 4/12 22/66 19/57
f 18/54 13/39 21/63 24/72
f 24/72 9/27 17/51 18/54
f 16/48 19/57 13/39 18/54
f 22/65 4/11 1/2 23/68
f 9/26 24/71 6/17 5/14
f 3/7 2/4 1/1 4/10
f 12/35 13/38 19/56 10/29
f 6/16 24/70 21/62 20/59
f 13/37 12/34 20/58 21/61
f 22/64 23/67 10/28 19/55
f 18/53 15/44 11/32 16/47
f 9/25 5/13 14/41 17/50
f 17/49 14/40 15/43 18/52
f 16/46 11/31 7/19 8/22
f 44/132 30/90 39/117 36/108
f 29/87 38/114 39/117 30/90
f 31/93 26/78 34/102 35/105
f 25/75 47/141 34/102 26/78
f 34/102 36/108 39/117 35/105
f 27/81 26/77 31/92 32/96
f 28/84 27/80 43/129 46/138
f 32/95 40/120 43/129 27/80
f 41/123 33/99 37/111 42/126
f 48/144 45/135 37/111 33/99
f 42/126 37/111 43/129 40/120
f 25/74 28/83 46/137 47/140
f 30/89 48/143 33/98 29/86
f 25/73 26/76 27/79 28/82
f 43/128 37/110 36/107 34/101
f 45/134 48/142 30/88 44/131
f 44/130 36/106 37/109 45/133
f 34/100 47/139 46/136 43/127
f 35/104 39/116 42/125 40/119
f 38/113 29/85 33/97 41/122
f 39/115 38/112 41/121 42/124
f 31/91 35/103 40/118 32/94
f 51/151 52/154 50/149 49/146
f 53/156 54/159 52/153 51/150
f 55/161 56/164 54/158 53/155
f 49/145 50/148 56/163 55/160
f 52/152 54/157 56/162 50/147
f 58/169 60/174 59/171 57/166
f 60/173 62/179 61/176 59/170
f 62/178 64/184 63/181 61/175
f 64/183 58/168 57/165 63/180
f 64/182 62/177 60/172 58/167
f 67/191 68/194 66/189 65/186
f 69/196 70/199 68/193 67/190
f 71/201 72/204 70/198 69/195
f 65/185 66/188 72/203 71/200
f 68/192 70/197 72/202 66/187
f 74/209 76/214 75/211 73/206
f 76/213 78/219 77/216 75/210
f 78/218 80/224 79/221 77/215
f 80/223 74/208 73/205 79/220
f 80/222 78/217 76/212 74/207
f 83/231 84/234 82/229 81/226
f 85/236 86/239 84/233 83/230
f 87/241 88/244 86/238 85/235
f 81/225 82/228 88/243 87/240
f 84/232 86/237 88/242 82/227
f 90/249 92/254 91/251 89/246
f 92/253 94/259 93/256 91/250
f 94/258 96/264 95/261 93/255
f 96/263 90/248 89/245 95/260
f 96/262 94/257 92/252 90/247
f 99/271 100/274 98/269 97/266
f 101/276 102/279 100/273 99/270
f 103/281 104/284 102/278 101/275
f 97/265 98/268 104/283 103/280
f 100/272 102/277 104/282 98/267
f 106/289 108/294 107/291 105/286
f 108/293 110/299 109/296 107/290
f 110/298 112/304 111/301 109/295
f 112/303 106/288 105/285 111/300
f 112/302 110/297 108/292 106/287
f 115/313 116/316 114/310 113/307
f 117/319 118/322 116/315 115/312
f 119/325 120/328 118/321 117/318
f 113/306 114/309 120/327 119/324
f 116/314 118/320 120/326 114/308
f 123/337 124/340 122/334 121/331
f 125/343 126/346 124/339 123/336
f 127/349 128/352 126/345 125/342
f 121/330 122/333 128/351 127/348
f 124/338 126/344 128/350 122/332
f 131/361 132/364 130/358 129/355
f 133/367 134/370 132/363 131/360
f 135/373 136/376 134/369 133/366
f 129/354 130/357 136/375 135/372
f 132/362 134/368 136/374 130/356
f 139/385 140/388 138/382 137/379
f 141/391 142/394 140/387 139/384
f 143/397 144/400 142/393 141/390
f 137/378 138/381 144/399 143/396
f 140/386 142/392 144/398 138/380
f 117/317 115/311 113/305 119/323
f 125/341 123/335 121/329 127/347
f 133/365 131/359 129/353 135/371
f 141/389 139/383 137/377 143/395
f 159/45 150/18 164/60 156/36
f 150/18 159/45 158/42 149/15
f 145/3 146/6 151/21 155/33
f 155/33 154/30 167/69 145/3
f 156/36 154/30 155/33 159/45
f 151/20 146/5 147/9 152/24
f 163/57 160/48 152/23 147/8
f 147/8 148/12 166/66 163/57
f 162/54 157/39 165/63 168/72
f 168/72 153/27 161/51 162/54
f 160/48 163/57 157/39 162/54
f 166/65 148/11 145/2 167/68
f 153/26 168/71 150/17 149/14
f 147/7 146/4 145/1 148/10
f 156/35 157/38 163/56 154/29
f 150/16 168/70 165/62 164/59
f 157/37 156/34 164/58 165/61
f 166/64 167/67 154/28 163/55
f 162/53 159/44 155/32 160/47
f 153/25 149/13 158/41 161/50
f 161/49 158/40 159/43 162/52
f 160/46 155/31 151/19 152/22
f 188/132 174/90 183/117 180/108
f 173/87 182/114 183/117 174/90
f 175/93 170/78 178/102 179/105
f 169/75 191/141 178/102 170/78
f 178/102 180/108 183/117 179/105
f 171/81 170/77 175/92 176/96
f 172/84 171/80 187/129 190/138
f 176/95 184/120 187/129 171/80
f 185/123 177/99 181/111 186/126
f 192/144 189/135 181/111 177/99
f 186/126 181/111 187/129 184/120
f 169/74 172/83 190/137 191/140
f 174/89 192/143 177/98 173/86
f 169/73 170/76 171/79 172/82
f 187/128 181/110 180/107 178/101
f 189/134 192/142 174/88 188/131
f 188/130 180/106 181/109 189/133
f 178/100 191/139 190/136 187/127
f 179/104 183/116 186/125 184/119
f 182/113 173/85 177/97 185/122
f 183/115 182/112 185/121 186/124
f 175/91 179/103 184/118 176/94
f 195/151 196/154 194/149 193/146
f 197/156 198/159 196/153 195/150
f 199/161 200/164 198/158 197/155
f 193/145 194/148 200/163 199/160
f 196/152 198/157 200/162 194/147
f 202/169 204/174 203/171 201/166
f 204/173 206/179 205/176 203/170
f 206/178 208/184 207/181 205/175
f 208/183 202/168 201/165 207/180
f 208/182 206/177 204/172 202/167
f 211/191 212/194 210/189 209/186
f 213/196 214/199 212/193 211/190
f 215/201 216/204 214/198 213/195
f 209/185 210/188 216/203 215/200
f 212/192 214/197 216/202 210/187
f 218/209 220/214 219/211 217/206
f 220/213 222/219 221/216 219/210
f 222/218 224/224 223/221 221/215
f 224/223 218/208 217/205 223/220
f 224/222 222/217 220/212 218/207
f 227/231 228/234 226/229 225/226
f 229/236 230/239 228/233 227/230
f 231/241 232/244 230/238 229/235
f 225/225 226/228 232/243 231/240
f 228/232 230/237 232/242 226/227
f 234/249 236/254 235/251 233/246
f 236/253 238/259 237/256 235/250
f 238/258 240/264 239/261 237/255
f 240/263 234/248 233/245 239/260
f 240/262 238/257 236/252 234/247
f 243/271 244/274 242/269 241/266
f 245/276 246/279 244/273 243/270
f 247/281 248/284 246/278 245/275
f 241/265 242/268 248/283 247/280
f 244/272 246/277 248/282 242/267
f 250/289 252/294 251/291 249/286
f 252/293 254/299 253/296 251/290
f 254/298 256/304 255/301 253/295
f 256/303 250/288 249/285 255/300
f 256/302 254/297 252/292 250/287
f 259/313 260/316 258/310 257/307
f 261/319 262/322 260/315 259/312
f 263/325 264/328 262/321 261/318
f 257/306 258/309 264/327 263/324
f 260/314 262/320 264/326 258/308
f 267/337 268/340 266/334 265/331
f 269/343 270/346 268/339 267/336
f 271/349 272/352 270/345 269/342
f 265/330 266/333 272/351 271/348
f 268/338 270/344 272/350 266/332
f 275/361 276/364 274/358 273/355
f 277/367 278/370 276/363 275/360
f 279/373 280/376 278/369 277/366
f 273/354 274/357 280/375 279/372
f 276/362 278/368 280/374 274/356
f 283/385 284/388 282/382 281/379
f 285/391 286/394 284/387 283/384
f 287/397 288/400 286/393 285/390
f 281/378 282/381 288/399 287/396
f 284/386 286/392 288/398 282/380
f 261/317 259/311 257/305 263/323
f 269/341 267/335 265/329 271/347
f 277/365 275/359 273/353 279/371
f 285/389 283/383 281/377 287/395
f 303/45 294/18 308/60 300/36
f 294/18 303/45 302/42 293/15
f 289/3 290/6 295/21 299/33
f 299/33 298/30 311/69 289/3
f 300/36 298/30 299/33 303/45
f 295/20 290/5 291/9 296/24
f 307/57 304/48 296/23 291/8
f 291/8 292/12 310/66 307/57
f 306/54 301/39 309/63 312/72
f 312/72 297/27 305/51 306/54
f 304/48 307/57 301/39 306/54
f 310/65 292/11 289/2 311/68
f 297/26 312/71 294/17 293/14
f 291/7 290/4 289/1 292/10
f 300/35 301/38 307/56 298/29
f 294/16 312/70 309/62 308/59
f 301/37 300/34 308/58 309/61
f 310/64 311/67 298/28 307/55
f 306/53 303/44 299/32 304/47
f 297/25 293/13 302/41 305/50
f 305/49 302/40 303/43 306/52
f 304/46 299/31 295/19 296/22
f 332/132 318/90 327/117 324/108
f 317/87 326/114 327/117 318/90
f 319/93 314/78 322/102 323/105
f 313/75 335/141 322/102 314/78
f 322/102 324/108 327/117 323/105
f 315/81 314/77 319/92 320/96
f 316/84 315/80 331/129 334/138
f 320/95 328/120 331/129 315/80
f 329/123 321/99 325/111 330/126
f 336/144 333/135 325/111 321/99
f 330/126 325/111 331/129 328/120
f 313/74 316/83 334/137 335/140
f 318/89 336/143 321/98 317/86
f 313/73 314/76 315/79 316/82
f 331/128 325/110 324/107 322/101
f 333/134 336/142 318/88 332/131
f 332/130 324/106 325/109 333/133
f 322/100 335/139 334/136 331/127
f 323/104 327/116 330/125 328/119
f 326/113 317/85 321/97 329/122
f 327/115 326/112 329/121 330/124
f 319/91 323/103 328/118 320/94
f 339/151 340/154 338/149 337/146
f 341/156 342/159 340/153 339/150
f 343/161 344/164 342/158 341/155
f 337/145 338/148 344/163 343/160
f 340/152 342/157 344/162 338/147
f 346/169 348/174 347/171 345/166
f 348/173 350/179 349/176 347/170
f 350/178 352/184 351/181 349/175
f 352/183 346/168 345/165 351/180
f 352/182 350/177 348/172 346/167
f 355/191 356/194 354/189 353/186
f 357/196 358/199 356/193 355/190
f 359/201 360/204 358/198 357/195
f 353/185 354/188 360/203 359/200
f 356/192 358/197 360/202 354/187
f 362/209 364/214 363/211 361/206
f 364/213 366/219 365/216 363/210
f 366/218 368/224 367/221 365/215
f 368/223 362/208 361/205 367/220
f 368/222 366/217 364/212 362/207
f 371/231 372/234 370/229 369/226
f 373/236 374/239 372/233 371/230
f 375/241 376/244 374/238 373/235
f 369/225 370/228 376/243 375/240
f 372/232 374/237 376/242 370/227
f 378/249 380/254 379/251 377/246
f 380/253 382/259 381/256 379/250
f 382/258 384/264 383/261 381/255
f 384/263 378/248 377/245 383/260
f 384/262 382/257 380/252 378/247
f 387/271 388/274 386/269 385/266
f 389/276 390/279 388/273 387/270
f 391/281 392/284 390/278 389/275
f 385/265 386/268 392/283 391/280
f 388/272 390/277 392/282 386/267
f 394/289 396/294 395/291 393/286
f 396/293 398/299 397/296 395/290
f 398/298 400/304 399/301 397/295
f 400/303 394/288 393/285 399/300
f 400/302 398/297 396/292 394/287
f 403/313 404/316 402/310 401/307
f 405/319 406/322 404/315 403/312
f 407/325 408/328 406/321 405/318
f 401/306 402/309 408/327 407/324
f 404/314 406/320 408/326 402/308
f 411/337 412/340 410/334 409/331
f 413/343 414/346 412/339 411/336
f 415/349 416/352 414/345 413/342
f 409/330 410/333 416/351 415/348
f 412/338 414/344 416/350 410/332
f 419/361 420/364 418/358 417/355
f 421/367 422/370 420/363 419/360
f 423/373 424/376 422/369 421/366
f 417/354 418/357 424/375 423/372
f 420/362 422/368 424/374 418/356
f 427/385 428/388 426/382 425/379
f 429/391 430/394 428/387 427/384
f 431/397 432/400 430/393 429/390
f 425/378 426/381 432/399 431/396
f 428/386 430/392 432/398 426/380
f 405/317 403/311 401/305 407/323
f 413/341 411/335 409/329 415/347
f 421/365 419/359 417/353 423/371
f 429/389 427/383 425/377 431/395
