# Blender 5.2.1 LTS
# www.blender.org
mtllib 1x3_rails.mtl
o half_height_45_deg_1x3_rails
v -0.224277 0.041289 0.225756
v -0.241608 0.041289 0.243087
v -0.254156 0.041289 0.255635
v -0.254183 0.025446 0.255609
v -0.254183 0.025446 0.255609
v -0.211756 0.025446 0.213182
v -0.211730 0.041289 0.213209
v -0.224277 0.041289 0.225756
v -0.241609 0.071584 0.243088
v -0.224278 0.071584 0.225757
v -0.217465 0.071584 0.218944
v -0.217465 0.085803 0.218944
v -0.217465 0.085803 0.218944
v -0.248421 0.085803 0.249900
v -0.248421 0.071584 0.249900
v -0.241609 0.071584 0.243088
v -0.241608 0.041289 0.243087
v -0.224277 0.041289 0.225756
v -0.224278 0.071584 0.225757
v -0.241609 0.071584 0.243088
v -0.217465 0.085803 0.218944
v -0.217465 0.071584 0.218944
v -0.915953 0.187930 -0.479543
v -0.914776 0.202051 -0.478367
v -0.241608 0.041289 0.243087
v -0.942603 0.157843 -0.457906
v -0.955150 0.157843 -0.445359
v -0.254156 0.041289 0.255635
v -0.254183 0.025446 0.255609
v -0.956432 0.142463 -0.446640
v -0.914005 0.142463 -0.489067
v -0.211756 0.025446 0.213182
v -0.248421 0.085803 0.249900
v -0.945732 0.202051 -0.447411
v -0.946908 0.187930 -0.448587
v -0.248421 0.071584 0.249900
v 0.213209 0.025803 -0.211730
v 0.255635 0.025803 -0.254156
v 0.225756 0.041289 -0.224277
v 0.213209 0.041289 -0.211730
v 0.255635 0.041289 -0.254156
v 0.243087 0.041289 -0.241608
v 0.225756 0.041289 -0.224277
v 0.255635 0.025803 -0.254156
v 0.249900 0.071584 -0.248421
v 0.249900 0.085803 -0.248421
v 0.225757 0.071584 -0.224277
v 0.243088 0.071584 -0.241609
v 0.218944 0.085803 -0.217465
v 0.218944 0.071584 -0.217465
v 0.225757 0.071584 -0.224277
v 0.249900 0.085803 -0.248421
v 0.243088 0.071584 -0.241609
v 0.225757 0.071584 -0.224277
v 0.225756 0.041289 -0.224277
v 0.243087 0.041289 -0.241608
v 0.218944 0.085803 -0.217465
v -0.478367 0.202051 -0.914776
v -0.479543 0.187930 -0.915952
v 0.218944 0.071584 -0.217465
v 0.243088 0.071584 -0.241609
v 0.243087 0.041289 -0.241608
v -0.457906 0.157843 -0.942603
v -0.455400 0.187930 -0.940096
v -0.489067 0.142463 -0.914005
v -0.446640 0.142463 -0.956432
v 0.255635 0.025803 -0.254156
v 0.213209 0.025803 -0.211730
v -0.475238 0.157843 -0.925271
v -0.487785 0.157843 -0.912724
v 0.213209 0.041289 -0.211730
v 0.225756 0.041289 -0.224277
v 0.101724 -0.008903 -0.305381
v 0.108344 0.070548 -0.298762
v 0.129557 0.070548 -0.319975
v 0.122937 -0.008903 -0.326594
v 0.122791 -0.012413 -0.284314
v 0.129411 0.067037 -0.277694
v 0.108344 0.070548 -0.298762
v 0.101724 -0.008903 -0.305381
v 0.144005 -0.012413 -0.305527
v 0.150624 0.067037 -0.298907
v 0.129411 0.067037 -0.277694
v 0.122791 -0.012413 -0.284314
v 0.122937 -0.008903 -0.326594
v 0.129557 0.070548 -0.319975
v 0.150624 0.067037 -0.298907
v 0.144005 -0.012413 -0.305527
v 0.108344 0.070548 -0.298762
v 0.129411 0.067037 -0.277694
v 0.150624 0.067037 -0.298907
v 0.129557 0.070548 -0.319975
v -0.319975 0.070548 0.129557
v -0.298762 0.070548 0.108344
v -0.305381 -0.008903 0.101724
v -0.326595 -0.008903 0.122937
v -0.298762 0.070548 0.108344
v -0.277694 0.067037 0.129411
v -0.284314 -0.012413 0.122792
v -0.305381 -0.008903 0.101724
v -0.277694 0.067037 0.129411
v -0.298908 0.067037 0.150624
v -0.305527 -0.012413 0.144005
v -0.284314 -0.012413 0.122792
v -0.298908 0.067037 0.150624
v -0.319975 0.070548 0.129557
v -0.326595 -0.008903 0.122937
v -0.305527 -0.012413 0.144005
v -0.298908 0.067037 0.150624
v -0.277694 0.067037 0.129411
v -0.298762 0.070548 0.108344
v -0.319975 0.070548 0.129557
v -0.473183 -0.007155 0.191497
v -0.468219 0.052432 0.196462
v 0.196462 0.052432 -0.468218
v 0.191497 -0.007155 -0.473183
v -0.374868 -0.023538 0.289812
v -0.369904 0.036050 0.294777
v -0.468219 0.052432 0.196462
v -0.473183 -0.007155 0.191497
v 0.289812 -0.023538 -0.374868
v 0.294777 0.036050 -0.369903
v -0.369904 0.036050 0.294777
v -0.374868 -0.023538 0.289812
v 0.191497 -0.007155 -0.473183
v 0.196462 0.052432 -0.468218
v 0.294777 0.036050 -0.369903
v 0.289812 -0.023538 -0.374868
v -0.468219 0.052432 0.196462
v -0.369904 0.036050 0.294777
v 0.294777 0.036050 -0.369903
v 0.196462 0.052432 -0.468218
v -0.374868 -0.023538 0.289812
v -0.473183 -0.007155 0.191497
v 0.191497 -0.007155 -0.473183
v 0.289812 -0.023538 -0.374868
v -0.479543 0.187930 -0.915952
v -0.472731 0.187930 -0.922765
v 0.225757 0.071584 -0.224277
v 0.218944 0.071584 -0.217465
v 0.249900 0.071584 -0.248421
v 0.243088 0.071584 -0.241609
v -0.455400 0.187930 -0.940096
v -0.448587 0.187930 -0.946908
v -0.073838 0.020352 -0.480943
v -0.067219 0.099802 -0.474324
v -0.046005 0.099802 -0.495537
v -0.052625 0.020352 -0.502157
v -0.052771 0.016841 -0.459876
v -0.046151 0.096291 -0.453256
v -0.067219 0.099802 -0.474324
v -0.073838 0.020352 -0.480943
v -0.031558 0.016841 -0.481089
v -0.024938 0.096291 -0.474470
v -0.046151 0.096291 -0.453256
v -0.052771 0.016841 -0.459876
v -0.052625 0.020352 -0.502157
v -0.046005 0.099802 -0.495537
v -0.024938 0.096291 -0.474470
v -0.031558 0.016841 -0.481089
v -0.067219 0.099802 -0.474324
v -0.046151 0.096291 -0.453256
v -0.024938 0.096291 -0.474470
v -0.046005 0.099802 -0.495537
v -0.495537 0.099802 -0.046005
v -0.474324 0.099802 -0.067218
v -0.480944 0.020352 -0.073838
v -0.502157 0.020352 -0.052625
v -0.474324 0.099802 -0.067218
v -0.453257 0.096291 -0.046151
v -0.459876 0.016841 -0.052771
v -0.480944 0.020352 -0.073838
v -0.453257 0.096291 -0.046151
v -0.474470 0.096291 -0.024938
v -0.481089 0.016841 -0.031557
v -0.459876 0.016841 -0.052771
v -0.474470 0.096291 -0.024938
v -0.495537 0.099802 -0.046005
v -0.502157 0.020352 -0.052625
v -0.481089 0.016841 -0.031557
v -0.474470 0.096291 -0.024938
v -0.453257 0.096291 -0.046151
v -0.474324 0.099802 -0.067218
v -0.495537 0.099802 -0.046005
v -0.648745 0.022099 0.015935
v -0.643781 0.081687 0.020900
v 0.020900 0.081687 -0.643781
v 0.015935 0.022099 -0.648745
v -0.550431 0.005716 0.114250
v -0.545466 0.065304 0.119215
v -0.643781 0.081687 0.020900
v -0.648745 0.022099 0.015935
v 0.114250 0.005716 -0.550430
v 0.119214 0.065304 -0.545466
v -0.545466 0.065304 0.119215
v -0.550431 0.005716 0.114250
v 0.015935 0.022099 -0.648745
v 0.020900 0.081687 -0.643781
v 0.119214 0.065304 -0.545466
v 0.114250 0.005716 -0.550430
v -0.643781 0.081687 0.020900
v -0.545466 0.065304 0.119215
v 0.119214 0.065304 -0.545466
v 0.020900 0.081687 -0.643781
v -0.550431 0.005716 0.114250
v -0.648745 0.022099 0.015935
v 0.015935 0.022099 -0.648745
v 0.114250 0.005716 -0.550430
v -0.254183 0.025446 0.255609
v -0.254156 0.041289 0.255635
v -0.955150 0.157843 -0.445359
v -0.956432 0.142463 -0.446640
v -0.217465 0.085803 0.218944
v -0.914776 0.202051 -0.478367
v -0.945732 0.202051 -0.447411
v -0.248421 0.085803 0.249900
v -0.211756 0.025446 0.213182
v -0.914005 0.142463 -0.489067
v -0.912724 0.157843 -0.487785
v -0.211730 0.041289 0.213209
v 0.218944 0.085803 -0.217465
v 0.249900 0.085803 -0.248421
v -0.447411 0.202051 -0.945732
v -0.478367 0.202051 -0.914776
v 0.243087 0.041289 -0.241608
v 0.255635 0.041289 -0.254156
v -0.445359 0.157843 -0.955150
v -0.457906 0.157843 -0.942603
v 0.255635 0.025803 -0.254156
v -0.446640 0.142463 -0.956432
v -0.445359 0.157843 -0.955150
v 0.255635 0.041289 -0.254156
v -0.249400 0.049606 -0.656506
v -0.242781 0.129056 -0.649886
v -0.221568 0.129056 -0.671099
v -0.228187 0.049606 -0.677719
v -0.228333 0.046095 -0.635438
v -0.221713 0.125546 -0.628819
v -0.242781 0.129056 -0.649886
v -0.249400 0.049606 -0.656506
v -0.207120 0.046095 -0.656651
v -0.200500 0.125546 -0.650032
v -0.221713 0.125546 -0.628819
v -0.228333 0.046095 -0.635438
v -0.228187 0.049606 -0.677719
v -0.221568 0.129056 -0.671099
v -0.200500 0.125546 -0.650032
v -0.207120 0.046095 -0.656651
v -0.242781 0.129056 -0.649886
v -0.221713 0.125546 -0.628819
v -0.200500 0.125546 -0.650032
v -0.221568 0.129056 -0.671099
v -0.671099 0.129056 -0.221568
v -0.649886 0.129056 -0.242781
v -0.656506 0.049606 -0.249400
v -0.677719 0.049606 -0.228187
v -0.649886 0.129056 -0.242781
v -0.628819 0.125546 -0.221713
v -0.635438 0.046095 -0.228333
v -0.656506 0.049606 -0.249400
v -0.628819 0.125546 -0.221713
v -0.650032 0.125546 -0.200500
v -0.656652 0.046095 -0.207120
v -0.635438 0.046095 -0.228333
v -0.650032 0.125546 -0.200500
v -0.671099 0.129056 -0.221568
v -0.677719 0.049606 -0.228187
v -0.656652 0.046095 -0.207120
v -0.650032 0.125546 -0.200500
v -0.628819 0.125546 -0.221713
v -0.649886 0.129056 -0.242781
v -0.671099 0.129056 -0.221568
v -0.824308 0.051353 -0.159627
v -0.819343 0.110941 -0.154662
v -0.154663 0.110941 -0.819343
v -0.159627 0.051353 -0.824307
v -0.725993 0.034971 -0.061312
v -0.721028 0.094559 -0.056348
v -0.819343 0.110941 -0.154662
v -0.824308 0.051353 -0.159627
v -0.061312 0.034971 -0.725993
v -0.056348 0.094559 -0.721028
v -0.721028 0.094559 -0.056348
v -0.725993 0.034971 -0.061312
v -0.159627 0.051353 -0.824307
v -0.154663 0.110941 -0.819343
v -0.056348 0.094559 -0.721028
v -0.061312 0.034971 -0.725993
v -0.819343 0.110941 -0.154662
v -0.721028 0.094559 -0.056348
v -0.056348 0.094559 -0.721028
v -0.154663 0.110941 -0.819343
v -0.725993 0.034971 -0.061312
v -0.824308 0.051353 -0.159627
v -0.159627 0.051353 -0.824307
v -0.061312 0.034971 -0.725993
v -0.211730 0.041289 0.213209
v -0.912724 0.157843 -0.487785
v -0.925272 0.157843 -0.475238
v -0.224277 0.041289 0.225756
v -0.241609 0.071584 0.243088
v -0.940096 0.187930 -0.455400
v -0.942603 0.157843 -0.457906
v -0.241608 0.041289 0.243087
v -0.248421 0.071584 0.249900
v -0.946908 0.187930 -0.448587
v -0.940096 0.187930 -0.455400
v -0.241609 0.071584 0.243088
v -0.224278 0.071584 0.225757
v -0.224277 0.041289 0.225756
v -0.925272 0.157843 -0.475238
v -0.922765 0.187930 -0.472731
v -0.224278 0.071584 0.225757
v -0.922765 0.187930 -0.472731
v -0.915953 0.187930 -0.479543
v -0.217465 0.071584 0.218944
v 0.213209 0.025803 -0.211730
v 0.213209 0.041289 -0.211730
v -0.487785 0.157843 -0.912724
v -0.489067 0.142463 -0.914005
v 0.249900 0.085803 -0.248421
v 0.249900 0.071584 -0.248421
v -0.448587 0.187930 -0.946908
v -0.447411 0.202051 -0.945732
v 0.225757 0.071584 -0.224277
v -0.472731 0.187930 -0.922765
v -0.475238 0.157843 -0.925271
v 0.225756 0.041289 -0.224277
v -0.424963 0.078860 -0.832068
v -0.418343 0.158311 -0.825448
v -0.397130 0.158311 -0.846662
v -0.403749 0.078860 -0.853281
v -0.403895 0.075350 -0.811000
v -0.397276 0.154800 -0.804381
v -0.418343 0.158311 -0.825448
v -0.424963 0.078860 -0.832068
v -0.382682 0.075350 -0.832214
v -0.376062 0.154800 -0.825594
v -0.397276 0.154800 -0.804381
v -0.403895 0.075350 -0.811000
v -0.403749 0.078860 -0.853281
v -0.397130 0.158311 -0.846662
v -0.376062 0.154800 -0.825594
v -0.382682 0.075350 -0.832214
v -0.418343 0.158311 -0.825448
v -0.397276 0.154800 -0.804381
v -0.376062 0.154800 -0.825594
v -0.397130 0.158311 -0.846662
v -0.846662 0.158311 -0.397130
v -0.825448 0.158311 -0.418343
v -0.832068 0.078860 -0.424962
v -0.853281 0.078860 -0.403749
v -0.825448 0.158311 -0.418343
v -0.804381 0.154800 -0.397276
v -0.811001 0.075350 -0.403895
v -0.832068 0.078860 -0.424962
v -0.804381 0.154800 -0.397276
v -0.825594 0.154800 -0.376062
v -0.832214 0.075350 -0.382682
v -0.811001 0.075350 -0.403895
v -0.825594 0.154800 -0.376062
v -0.846662 0.158311 -0.397130
v -0.853281 0.078860 -0.403749
v -0.832214 0.075350 -0.382682
v -0.825594 0.154800 -0.376062
v -0.804381 0.154800 -0.397276
v -0.825448 0.158311 -0.418343
v -0.846662 0.158311 -0.397130
v -0.999870 0.080608 -0.335189
v -0.994905 0.140195 -0.330225
v -0.330225 0.140195 -0.994905
v -0.335189 0.080608 -0.999870
v -0.901555 0.064225 -0.236875
v -0.896590 0.123813 -0.231910
v -0.994905 0.140195 -0.330225
v -0.999870 0.080608 -0.335189
v -0.236875 0.064225 -0.901555
v -0.231910 0.123813 -0.896590
v -0.896590 0.123813 -0.231910
v -0.901555 0.064225 -0.236875
v -0.335189 0.080608 -0.999870
v -0.330225 0.140195 -0.994905
v -0.231910 0.123813 -0.896590
v -0.236875 0.064225 -0.901555
v -0.994905 0.140195 -0.330225
v -0.896590 0.123813 -0.231910
v -0.231910 0.123813 -0.896590
v -0.330225 0.140195 -0.994905
v -0.901555 0.064225 -0.236875
v -0.999870 0.080608 -0.335189
v -0.335189 0.080608 -0.999870
v -0.236875 0.064225 -0.901555
v -0.446640 0.142463 -0.956432
v -1.148889 0.259481 -1.658680
v -1.147608 0.274860 -1.657399
v -0.445359 0.157843 -0.955150
v -0.914776 0.202051 -0.478367
v -1.617025 0.319068 -1.180615
v -1.647980 0.319068 -1.149660
v -0.945732 0.202051 -0.447411
v -1.157648 0.304947 -1.642345
v -1.150836 0.304947 -1.649157
v -0.448587 0.187930 -0.946908
v -0.455400 0.187930 -0.940096
v -1.657399 0.274860 -1.147608
v -1.658680 0.259481 -1.148889
v -0.956432 0.142463 -0.446640
v -0.955150 0.157843 -0.445359
v -0.472731 0.187930 -0.922765
v -1.174980 0.304947 -1.625013
v -1.177486 0.274860 -1.627520
v -0.475238 0.157843 -0.925271
v -0.946908 0.187930 -0.448587
v -1.649157 0.304947 -1.150836
v -1.642345 0.304947 -1.157648
v -0.940096 0.187930 -0.455400
v -0.457906 0.157843 -0.942603
v -0.445359 0.157843 -0.955150
v -1.147608 0.274860 -1.657399
v -1.160155 0.274860 -1.644851
v -0.489067 0.142463 -0.914005
v -0.487785 0.157843 -0.912724
v -1.190034 0.274860 -1.614973
v -1.191315 0.259481 -1.616254
v -0.956432 0.142463 -0.446640
v -1.658680 0.259481 -1.148889
v -1.616254 0.259481 -1.191315
v -0.914005 0.142463 -0.489067
v -0.600525 0.108115 -1.007630
v -0.593905 0.187565 -1.001011
v -0.572692 0.187565 -1.022224
v -0.579312 0.108115 -1.028843
v -0.579457 0.104604 -0.986563
v -0.572838 0.184054 -0.979943
v -0.593905 0.187565 -1.001011
v -0.600525 0.108115 -1.007630
v -0.558244 0.104604 -1.007776
v -0.551624 0.184054 -1.001156
v -0.572838 0.184054 -0.979943
v -0.579457 0.104604 -0.986563
v -0.579312 0.108115 -1.028843
v -0.572692 0.187565 -1.022224
v -0.551624 0.184054 -1.001156
v -0.558244 0.104604 -1.007776
v -0.593905 0.187565 -1.001011
v -0.572838 0.184054 -0.979943
v -0.551624 0.184054 -1.001156
v -0.572692 0.187565 -1.022224
v -1.022224 0.187565 -0.572692
v -1.001011 0.187565 -0.593905
v -1.007630 0.108115 -0.600525
v -1.028843 0.108115 -0.579312
v -1.001011 0.187565 -0.593905
v -0.979943 0.184054 -0.572838
v -0.986563 0.104604 -0.579457
v -1.007630 0.108115 -0.600525
v -0.979943 0.184054 -0.572838
v -1.001156 0.184054 -0.551625
v -1.007776 0.104604 -0.558244
v -0.986563 0.104604 -0.579457
v -1.001156 0.184054 -0.551625
v -1.022224 0.187565 -0.572692
v -1.028843 0.108115 -0.579312
v -1.007776 0.104604 -0.558244
v -1.001156 0.184054 -0.551625
v -0.979943 0.184054 -0.572838
v -1.001011 0.187565 -0.593905
v -1.022224 0.187565 -0.572692
v -1.175432 0.109862 -0.510752
v -1.170467 0.169450 -0.505787
v -0.505787 0.169450 -1.170467
v -0.510752 0.109862 -1.175432
v -1.077117 0.093480 -0.412437
v -1.072152 0.153067 -0.407472
v -1.170467 0.169450 -0.505787
v -1.175432 0.109862 -0.510752
v -0.412437 0.093480 -1.077117
v -0.407472 0.153067 -1.072152
v -1.072152 0.153067 -0.407472
v -1.077117 0.093480 -0.412437
v -0.510752 0.109862 -1.175432
v -0.505787 0.169450 -1.170467
v -0.407472 0.153067 -1.072152
v -0.412437 0.093480 -1.077117
v -1.170467 0.169450 -0.505787
v -1.072152 0.153067 -0.407472
v -0.407472 0.153067 -1.072152
v -0.505787 0.169450 -1.170467
v -1.077117 0.093480 -0.412437
v -1.175432 0.109862 -0.510752
v -0.510752 0.109862 -1.175432
v -0.412437 0.093480 -1.077117
v -1.177486 0.274860 -1.627520
v -1.190034 0.274860 -1.614973
v -0.487785 0.157843 -0.912724
v -0.475238 0.157843 -0.925271
v -0.446640 0.142463 -0.956432
v -0.489067 0.142463 -0.914005
v -1.191315 0.259481 -1.616254
v -1.148889 0.259481 -1.658680
v -0.472731 0.187930 -0.922765
v -0.479543 0.187930 -0.915952
v -1.181792 0.304947 -1.618201
v -1.174980 0.304947 -1.625013
v -1.160155 0.274860 -1.644851
v -1.157648 0.304947 -1.642345
v -0.455400 0.187930 -0.940096
v -0.457906 0.157843 -0.942603
v -0.776087 0.137369 -1.183192
v -0.769467 0.216819 -1.176573
v -0.748254 0.216819 -1.197786
v -0.754874 0.137369 -1.204406
v -0.755019 0.133858 -1.162125
v -0.748400 0.213309 -1.155505
v -0.769467 0.216819 -1.176573
v -0.776087 0.137369 -1.183192
v -0.733806 0.133858 -1.183338
v -0.727187 0.213309 -1.176718
v -0.748400 0.213309 -1.155505
v -0.755019 0.133858 -1.162125
v -0.754874 0.137369 -1.204406
v -0.748254 0.216819 -1.197786
v -0.727187 0.213309 -1.176718
v -0.733806 0.133858 -1.183338
v -0.769467 0.216819 -1.176573
v -0.748400 0.213309 -1.155505
v -0.727187 0.213309 -1.176718
v -0.748254 0.216819 -1.197786
v -1.197786 0.216819 -0.748254
v -1.176573 0.216819 -0.769468
v -1.183192 0.137369 -0.776087
v -1.204406 0.137369 -0.754874
v -1.176573 0.216819 -0.769468
v -1.155505 0.213309 -0.748400
v -1.162125 0.133858 -0.755019
v -1.183192 0.137369 -0.776087
v -1.155505 0.213309 -0.748400
v -1.176719 0.213309 -0.727187
v -1.183338 0.133858 -0.733806
v -1.162125 0.133858 -0.755019
v -1.176719 0.213309 -0.727187
v -1.197786 0.216819 -0.748254
v -1.204406 0.137369 -0.754874
v -1.183338 0.133858 -0.733806
v -1.176719 0.213309 -0.727187
v -1.155505 0.213309 -0.748400
v -1.176573 0.216819 -0.769468
v -1.197786 0.216819 -0.748254
v -1.350994 0.139116 -0.686314
v -1.346030 0.198704 -0.681349
v -0.681349 0.198704 -1.346029
v -0.686314 0.139116 -1.350994
v -1.252679 0.122734 -0.587999
v -1.247715 0.182322 -0.583034
v -1.346030 0.198704 -0.681349
v -1.350994 0.139116 -0.686314
v -0.587999 0.122734 -1.252679
v -0.583034 0.182322 -1.247715
v -1.247715 0.182322 -0.583034
v -1.252679 0.122734 -0.587999
v -0.686314 0.139116 -1.350994
v -0.681349 0.198704 -1.346029
v -0.583034 0.182322 -1.247715
v -0.587999 0.122734 -1.252679
v -1.346030 0.198704 -0.681349
v -1.247715 0.182322 -0.583034
v -0.583034 0.182322 -1.247715
v -0.681349 0.198704 -1.346029
v -1.252679 0.122734 -0.587999
v -1.350994 0.139116 -0.686314
v -0.686314 0.139116 -1.350994
v -0.587999 0.122734 -1.252679
v -0.922765 0.187930 -0.472731
v -1.625013 0.304947 -1.174980
v -1.618201 0.304947 -1.181792
v -0.915953 0.187930 -0.479543
v -0.945732 0.202051 -0.447411
v -1.647980 0.319068 -1.149660
v -1.649157 0.304947 -1.150836
v -0.946908 0.187930 -0.448587
v -0.478367 0.202051 -0.914776
v -1.180615 0.319068 -1.617025
v -1.181792 0.304947 -1.618201
v -0.479543 0.187930 -0.915952
v -0.914005 0.142463 -0.489067
v -1.616254 0.259481 -1.191315
v -1.614973 0.274860 -1.190034
v -0.912724 0.157843 -0.487785
v -0.478367 0.202051 -0.914776
v -0.447411 0.202051 -0.945732
v -1.149660 0.319068 -1.647980
v -1.180615 0.319068 -1.617025
v -1.617025 0.319068 -1.180615
v -0.914776 0.202051 -0.478367
v -0.915953 0.187930 -0.479543
v -1.618201 0.304947 -1.181792
v -0.942603 0.157843 -0.457906
v -1.644851 0.274860 -1.160155
v -1.657399 0.274860 -1.147608
v -0.955150 0.157843 -0.445359
v -0.951649 0.166623 -1.358755
v -0.945030 0.246074 -1.352135
v -0.923816 0.246074 -1.373348
v -0.930436 0.166623 -1.379968
v -0.930582 0.163113 -1.337687
v -0.923962 0.242563 -1.331067
v -0.945030 0.246074 -1.352135
v -0.951649 0.166623 -1.358755
v -0.909368 0.163113 -1.358900
v -0.902749 0.242563 -1.352281
v -0.923962 0.242563 -1.331067
v -0.930582 0.163113 -1.337687
v -0.930436 0.166623 -1.379968
v -0.923816 0.246074 -1.373348
v -0.902749 0.242563 -1.352281
v -0.909368 0.163113 -1.358900
v -0.945030 0.246074 -1.352135
v -0.923962 0.242563 -1.331067
v -0.902749 0.242563 -1.352281
v -0.923816 0.246074 -1.373348
v -1.373348 0.246074 -0.923816
v -1.352135 0.246074 -0.945030
v -1.358755 0.166623 -0.951649
v -1.379968 0.166623 -0.930436
v -1.352135 0.246074 -0.945030
v -1.331068 0.242563 -0.923962
v -1.337687 0.163113 -0.930582
v -1.358755 0.166623 -0.951649
v -1.331068 0.242563 -0.923962
v -1.352281 0.242563 -0.902749
v -1.358900 0.163113 -0.909369
v -1.337687 0.163113 -0.930582
v -1.352281 0.242563 -0.902749
v -1.373348 0.246074 -0.923816
v -1.379968 0.166623 -0.930436
v -1.358900 0.163113 -0.909369
v -1.352281 0.242563 -0.902749
v -1.331068 0.242563 -0.923962
v -1.352135 0.246074 -0.945030
v -1.373348 0.246074 -0.923816
v -1.526556 0.168371 -0.861876
v -1.521592 0.227959 -0.856911
v -0.856911 0.227959 -1.521592
v -0.861876 0.168371 -1.526556
v -1.428242 0.151988 -0.763561
v -1.423277 0.211576 -0.758597
v -1.521592 0.227959 -0.856911
v -1.526556 0.168371 -0.861876
v -0.763561 0.151988 -1.428241
v -0.758597 0.211576 -1.423277
v -1.423277 0.211576 -0.758597
v -1.428242 0.151988 -0.763561
v -0.861876 0.168371 -1.526556
v -0.856911 0.227959 -1.521592
v -0.758597 0.211576 -1.423277
v -0.763561 0.151988 -1.428241
v -1.521592 0.227959 -0.856911
v -1.423277 0.211576 -0.758597
v -0.758597 0.211576 -1.423277
v -0.856911 0.227959 -1.521592
v -1.428242 0.151988 -0.763561
v -1.526556 0.168371 -0.861876
v -0.861876 0.168371 -1.526556
v -0.763561 0.151988 -1.428241
v -0.912724 0.157843 -0.487785
v -1.614973 0.274860 -1.190034
v -1.627520 0.274860 -1.177486
v -0.925272 0.157843 -0.475238
v -0.940096 0.187930 -0.455400
v -1.642345 0.304947 -1.157648
v -1.644851 0.274860 -1.160155
v -0.942603 0.157843 -0.457906
v -1.625013 0.304947 -1.174980
v -0.922765 0.187930 -0.472731
v -0.925272 0.157843 -0.475238
v -1.627520 0.274860 -1.177486
v -0.447411 0.202051 -0.945732
v -0.448587 0.187930 -0.946908
v -1.150836 0.304947 -1.649157
v -1.149660 0.319068 -1.647980
v -1.127211 0.195878 -1.534317
v -1.120592 0.275328 -1.527697
v -1.099379 0.275328 -1.548910
v -1.105998 0.195878 -1.555530
v -1.106144 0.192367 -1.513249
v -1.099524 0.271818 -1.506630
v -1.120592 0.275328 -1.527697
v -1.127211 0.195878 -1.534317
v -1.084931 0.192367 -1.534462
v -1.078311 0.271818 -1.527843
v -1.099524 0.271818 -1.506630
v -1.106144 0.192367 -1.513249
v -1.105998 0.195878 -1.555530
v -1.099379 0.275328 -1.548910
v -1.078311 0.271818 -1.527843
v -1.084931 0.192367 -1.534462
v -1.120592 0.275328 -1.527697
v -1.099524 0.271818 -1.506630
v -1.078311 0.271818 -1.527843
v -1.099379 0.275328 -1.548910
v -1.548910 0.275328 -1.099379
v -1.527697 0.275328 -1.120592
v -1.534317 0.195878 -1.127211
v -1.555530 0.195878 -1.105998
v -1.527697 0.275328 -1.120592
v -1.506630 0.271818 -1.099524
v -1.513249 0.192367 -1.106144
v -1.534317 0.195878 -1.127211
v -1.506630 0.271818 -1.099524
v -1.527843 0.271818 -1.078311
v -1.534463 0.192367 -1.084931
v -1.513249 0.192367 -1.106144
v -1.527843 0.271818 -1.078311
v -1.548910 0.275328 -1.099379
v -1.555530 0.195878 -1.105998
v -1.534463 0.192367 -1.084931
v -1.527843 0.271818 -1.078311
v -1.506630 0.271818 -1.099524
v -1.527697 0.275328 -1.120592
v -1.548910 0.275328 -1.099379
v -1.702119 0.197625 -1.037438
v -1.697154 0.257213 -1.032474
v -1.032474 0.257213 -1.697154
v -1.037438 0.197625 -1.702119
v -1.603804 0.181243 -0.939123
v -1.598839 0.240830 -0.934159
v -1.697154 0.257213 -1.032474
v -1.702119 0.197625 -1.037438
v -0.939123 0.181243 -1.603804
v -0.934159 0.240830 -1.598839
v -1.598839 0.240830 -0.934159
v -1.603804 0.181243 -0.939123
v -1.037438 0.197625 -1.702119
v -1.032474 0.257213 -1.697154
v -0.934159 0.240830 -1.598839
v -0.939123 0.181243 -1.603804
v -1.697154 0.257213 -1.032474
v -1.598839 0.240830 -0.934159
v -0.934159 0.240830 -1.598839
v -1.032474 0.257213 -1.697154
v -1.603804 0.181243 -0.939123
v -1.702119 0.197625 -1.037438
v -1.037438 0.197625 -1.702119
v -0.939123 0.181243 -1.603804
v -1.180615 0.319068 -1.617025
v -1.882864 0.436086 -2.319274
v -1.884041 0.421965 -2.320450
v -1.181792 0.304947 -1.618201
v -1.658680 0.259481 -1.148889
v -2.360929 0.376498 -1.851138
v -2.318503 0.376498 -1.893564
v -1.616254 0.259481 -1.191315
v -1.617025 0.319068 -1.180615
v -2.319273 0.436086 -1.882864
v -2.350229 0.436086 -1.851909
v -1.647980 0.319068 -1.149660
v -1.616254 0.259481 -1.191315
v -2.318503 0.376498 -1.893564
v -2.317221 0.391878 -1.892283
v -1.614973 0.274860 -1.190034
v -2.359648 0.391878 -1.849857
v -2.360929 0.376498 -1.851138
v -1.658680 0.259481 -1.148889
v -1.657399 0.274860 -1.147608
v -1.174980 0.304947 -1.625013
v -1.877228 0.421965 -2.327263
v -1.879735 0.391878 -2.329769
v -1.177486 0.274860 -1.627520
v -1.649157 0.304947 -1.150836
v -2.351406 0.421965 -1.853085
v -2.344594 0.421965 -1.859897
v -1.642345 0.304947 -1.157648
v -1.157648 0.304947 -1.642345
v -1.160155 0.274860 -1.644851
v -1.862404 0.391878 -2.347100
v -1.859897 0.421965 -2.344594
v -1.149660 0.319068 -1.647980
v -1.150836 0.304947 -1.649157
v -1.853085 0.421965 -2.351406
v -1.851908 0.436086 -2.350230
v -1.614973 0.274860 -1.190034
v -2.317221 0.391878 -1.892283
v -2.329769 0.391878 -1.879735
v -1.627520 0.274860 -1.177486
v -1.302774 0.225132 -1.709879
v -1.296154 0.304582 -1.703260
v -1.274941 0.304582 -1.724473
v -1.281560 0.225132 -1.731092
v -1.281706 0.221622 -1.688812
v -1.275087 0.301072 -1.682192
v -1.296154 0.304582 -1.703260
v -1.302774 0.225132 -1.709879
v -1.260493 0.221622 -1.710025
v -1.253873 0.301072 -1.703405
v -1.275087 0.301072 -1.682192
v -1.281706 0.221622 -1.688812
v -1.281560 0.225132 -1.731092
v -1.274941 0.304582 -1.724473
v -1.253873 0.301072 -1.703405
v -1.260493 0.221622 -1.710025
v -1.296154 0.304582 -1.703260
v -1.275087 0.301072 -1.682192
v -1.253873 0.301072 -1.703405
v -1.274941 0.304582 -1.724473
v -1.724473 0.304582 -1.274941
v -1.703259 0.304582 -1.296154
v -1.709879 0.225132 -1.302774
v -1.731092 0.225132 -1.281561
v -1.703259 0.304582 -1.296154
v -1.682192 0.301072 -1.275087
v -1.688812 0.221622 -1.281706
v -1.709879 0.225132 -1.302774
v -1.682192 0.301072 -1.275087
v -1.703405 0.301072 -1.253873
v -1.710025 0.221622 -1.260493
v -1.688812 0.221622 -1.281706
v -1.703405 0.301072 -1.253873
v -1.724473 0.304582 -1.274941
v -1.731092 0.225132 -1.281561
v -1.710025 0.221622 -1.260493
v -1.703405 0.301072 -1.253873
v -1.682192 0.301072 -1.275087
v -1.703259 0.304582 -1.296154
v -1.724473 0.304582 -1.274941
v -1.877681 0.226879 -1.213000
v -1.872716 0.286467 -1.208036
v -1.208036 0.286467 -1.872716
v -1.213000 0.226879 -1.877681
v -1.779366 0.210497 -1.114686
v -1.774401 0.270085 -1.109721
v -1.872716 0.286467 -1.208036
v -1.877681 0.226879 -1.213000
v -1.114686 0.210497 -1.779366
v -1.109721 0.270085 -1.774401
v -1.774401 0.270085 -1.109721
v -1.779366 0.210497 -1.114686
v -1.213000 0.226879 -1.877681
v -1.208036 0.286467 -1.872716
v -1.109721 0.270085 -1.774401
v -1.114686 0.210497 -1.779366
v -1.872716 0.286467 -1.208036
v -1.774401 0.270085 -1.109721
v -1.109721 0.270085 -1.774401
v -1.208036 0.286467 -1.872716
v -1.779366 0.210497 -1.114686
v -1.877681 0.226879 -1.213000
v -1.213000 0.226879 -1.877681
v -1.114686 0.210497 -1.779366
v -1.160155 0.274860 -1.644851
v -1.147608 0.274860 -1.657399
v -1.849856 0.391878 -2.359648
v -1.862404 0.391878 -2.347100
v -1.642345 0.304947 -1.157648
v -2.344594 0.421965 -1.859897
v -2.347100 0.391878 -1.862404
v -1.644851 0.274860 -1.160155
v -1.191315 0.259481 -1.616254
v -1.190034 0.274860 -1.614973
v -1.892283 0.391878 -2.317222
v -1.893564 0.376498 -2.318503
v -1.478336 0.254386 -1.885441
v -1.471716 0.333837 -1.878822
v -1.450503 0.333837 -1.900035
v -1.457123 0.254386 -1.906654
v -1.457268 0.250876 -1.864374
v -1.450649 0.330326 -1.857754
v -1.471716 0.333837 -1.878822
v -1.478336 0.254386 -1.885441
v -1.436055 0.250876 -1.885587
v -1.429436 0.330326 -1.878968
v -1.450649 0.330326 -1.857754
v -1.457268 0.250876 -1.864374
v -1.457123 0.254386 -1.906654
v -1.450503 0.333837 -1.900035
v -1.429436 0.330326 -1.878968
v -1.436055 0.250876 -1.885587
v -1.471716 0.333837 -1.878822
v -1.450649 0.330326 -1.857754
v -1.429436 0.330326 -1.878968
v -1.450503 0.333837 -1.900035
v -1.900035 0.333837 -1.450503
v -1.878822 0.333837 -1.471716
v -1.885441 0.254386 -1.478336
v -1.906654 0.254386 -1.457123
v -1.878822 0.333837 -1.471716
v -1.857754 0.330326 -1.450649
v -1.864374 0.250876 -1.457268
v -1.885441 0.254386 -1.478336
v -1.857754 0.330326 -1.450649
v -1.878968 0.330326 -1.429436
v -1.885587 0.250876 -1.436055
v -1.864374 0.250876 -1.457268
v -1.878968 0.330326 -1.429436
v -1.900035 0.333837 -1.450503
v -1.906654 0.254386 -1.457123
v -1.885587 0.250876 -1.436055
v -1.878968 0.330326 -1.429436
v -1.857754 0.330326 -1.450649
v -1.878822 0.333837 -1.471716
v -1.900035 0.333837 -1.450503
v -2.053243 0.256134 -1.388563
v -2.048278 0.315722 -1.383598
v -1.383598 0.315722 -2.048278
v -1.388562 0.256134 -2.053243
v -1.954928 0.239751 -1.290248
v -1.949963 0.299339 -1.285283
v -2.048278 0.315722 -1.383598
v -2.053243 0.256134 -1.388563
v -1.290248 0.239751 -1.954928
v -1.285283 0.299339 -1.949964
v -1.949963 0.299339 -1.285283
v -1.954928 0.239751 -1.290248
v -1.388562 0.256134 -2.053243
v -1.383598 0.315722 -2.048278
v -1.285283 0.299339 -1.949964
v -1.290248 0.239751 -1.954928
v -2.048278 0.315722 -1.383598
v -1.949963 0.299339 -1.285283
v -1.285283 0.299339 -1.949964
v -1.383598 0.315722 -2.048278
v -1.954928 0.239751 -1.290248
v -2.053243 0.256134 -1.388563
v -1.388562 0.256134 -2.053243
v -1.290248 0.239751 -1.954928
v -1.625013 0.304947 -1.174980
v -2.327262 0.421965 -1.877229
v -2.320450 0.421965 -1.884041
v -1.618201 0.304947 -1.181792
v -1.148889 0.259481 -1.658680
v -1.851138 0.376498 -2.360929
v -1.849856 0.391878 -2.359648
v -1.147608 0.274860 -1.657399
v -1.644851 0.274860 -1.160155
v -2.347100 0.391878 -1.862404
v -2.359648 0.391878 -1.849857
v -1.657399 0.274860 -1.147608
v -1.180615 0.319068 -1.617025
v -1.149660 0.319068 -1.647980
v -1.851908 0.436086 -2.350230
v -1.882864 0.436086 -2.319274
v -1.148889 0.259481 -1.658680
v -1.191315 0.259481 -1.616254
v -1.893564 0.376498 -2.318503
v -1.851138 0.376498 -2.360929
v -1.647980 0.319068 -1.149660
v -2.350229 0.436086 -1.851909
v -2.351406 0.421965 -1.853085
v -1.649157 0.304947 -1.150836
v -1.653898 0.283641 -2.061004
v -1.647278 0.363091 -2.054384
v -1.626065 0.363091 -2.075597
v -1.632685 0.283641 -2.082217
v -1.632830 0.280130 -2.039936
v -1.626211 0.359581 -2.033317
v -1.647278 0.363091 -2.054384
v -1.653898 0.283641 -2.061004
v -1.611617 0.280130 -2.061149
v -1.604998 0.359581 -2.054530
v -1.626211 0.359581 -2.033317
v -1.632830 0.280130 -2.039936
v -1.632685 0.283641 -2.082217
v -1.626065 0.363091 -2.075597
v -1.604998 0.359581 -2.054530
v -1.611617 0.280130 -2.061149
v -1.647278 0.363091 -2.054384
v -1.626211 0.359581 -2.033317
v -1.604998 0.359581 -2.054530
v -1.626065 0.363091 -2.075597
v -2.075597 0.363091 -1.626065
v -2.054384 0.363091 -1.647279
v -2.061003 0.283641 -1.653898
v -2.082217 0.283641 -1.632685
v -2.054384 0.363091 -1.647279
v -2.033316 0.359581 -1.626211
v -2.039936 0.280130 -1.632831
v -2.061003 0.283641 -1.653898
v -2.033316 0.359581 -1.626211
v -2.054530 0.359581 -1.604998
v -2.061149 0.280130 -1.611618
v -2.039936 0.280130 -1.632831
v -2.054530 0.359581 -1.604998
v -2.075597 0.363091 -1.626065
v -2.082217 0.283641 -1.632685
v -2.061149 0.280130 -1.611618
v -2.054530 0.359581 -1.604998
v -2.033316 0.359581 -1.626211
v -2.054384 0.363091 -1.647279
v -2.075597 0.363091 -1.626065
v -2.228805 0.285388 -1.564125
v -2.223840 0.344976 -1.559160
v -1.559160 0.344976 -2.223841
v -1.564125 0.285388 -2.228805
v -2.130490 0.269006 -1.465810
v -2.125526 0.328594 -1.460846
v -2.223840 0.344976 -1.559160
v -2.228805 0.285388 -1.564125
v -1.465810 0.269006 -2.130491
v -1.460845 0.328594 -2.125526
v -2.125526 0.328594 -1.460846
v -2.130490 0.269006 -1.465810
v -1.564125 0.285388 -2.228805
v -1.559160 0.344976 -2.223841
v -1.460845 0.328594 -2.125526
v -1.465810 0.269006 -2.130491
v -2.223840 0.344976 -1.559160
v -2.125526 0.328594 -1.460846
v -1.460845 0.328594 -2.125526
v -1.559160 0.344976 -2.223841
v -2.130490 0.269006 -1.465810
v -2.228805 0.285388 -1.564125
v -1.564125 0.285388 -2.228805
v -1.465810 0.269006 -2.130491
v -1.859897 0.421965 -2.344594
v -1.853085 0.421965 -2.351406
v -1.150836 0.304947 -1.649157
v -1.157648 0.304947 -1.642345
v -1.879735 0.391878 -2.329769
v -1.892283 0.391878 -2.317222
v -1.190034 0.274860 -1.614973
v -1.177486 0.274860 -1.627520
v -1.625013 0.304947 -1.174980
v -1.627520 0.274860 -1.177486
v -2.329769 0.391878 -1.879735
v -2.327262 0.421965 -1.877229
v -1.174980 0.304947 -1.625013
v -1.181792 0.304947 -1.618201
v -1.884041 0.421965 -2.320450
v -1.877228 0.421965 -2.327263
v -2.319273 0.436086 -1.882864
v -1.617025 0.319068 -1.180615
v -1.618201 0.304947 -1.181792
v -2.320450 0.421965 -1.884041
v -1.829460 0.312895 -2.236566
v -1.822841 0.392346 -2.229946
v -1.801627 0.392346 -2.251159
v -1.808247 0.312895 -2.257779
v -1.808393 0.309385 -2.215498
v -1.801773 0.388835 -2.208879
v -1.822841 0.392346 -2.229946
v -1.829460 0.312895 -2.236566
v -1.787179 0.309385 -2.236712
v -1.780560 0.388835 -2.230092
v -1.801773 0.388835 -2.208879
v -1.808393 0.309385 -2.215498
v -1.808247 0.312895 -2.257779
v -1.801627 0.392346 -2.251159
v -1.780560 0.388835 -2.230092
v -1.787179 0.309385 -2.236712
v -1.822841 0.392346 -2.229946
v -1.801773 0.388835 -2.208879
v -1.780560 0.388835 -2.230092
v -1.801627 0.392346 -2.251159
v -2.251159 0.392346 -1.801628
v -2.229946 0.392346 -1.822841
v -2.236566 0.312895 -1.829460
v -2.257779 0.312895 -1.808247
v -2.229946 0.392346 -1.822841
v -2.208879 0.388835 -1.801774
v -2.215498 0.309385 -1.808393
v -2.236566 0.312895 -1.829460
v -2.208879 0.388835 -1.801774
v -2.230092 0.388835 -1.780560
v -2.236711 0.309385 -1.787180
v -2.215498 0.309385 -1.808393
v -2.230092 0.388835 -1.780560
v -2.251159 0.392346 -1.801628
v -2.257779 0.312895 -1.808247
v -2.236711 0.309385 -1.787180
v -2.230092 0.388835 -1.780560
v -2.208879 0.388835 -1.801774
v -2.229946 0.392346 -1.822841
v -2.251159 0.392346 -1.801628
v -2.404367 0.314643 -1.739687
v -2.399403 0.374230 -1.734722
v -1.734722 0.374230 -2.399403
v -1.739687 0.314643 -2.404367
v -2.306052 0.298260 -1.641372
v -2.301088 0.357848 -1.636408
v -2.399403 0.374230 -1.734722
v -2.404367 0.314643 -1.739687
v -1.641372 0.298260 -2.306053
v -1.636407 0.357848 -2.301088
v -2.301088 0.357848 -1.636408
v -2.306052 0.298260 -1.641372
v -1.739687 0.314643 -2.404367
v -1.734722 0.374230 -2.399403
v -1.636407 0.357848 -2.301088
v -1.641372 0.298260 -2.306053
v -2.399403 0.374230 -1.734722
v -2.301088 0.357848 -1.636408
v -1.636407 0.357848 -2.301088
v -1.734722 0.374230 -2.399403
v -2.306052 0.298260 -1.641372
v -2.404367 0.314643 -1.739687
v -1.739687 0.314643 -2.404367
v -1.641372 0.298260 -2.306053
v -2.562146 0.538982 -3.046843
v -2.555334 0.538982 -3.053655
v -1.853085 0.421965 -2.351406
v -1.859897 0.421965 -2.344594
v -3.061897 0.508895 -2.552106
v -3.063178 0.493516 -2.553387
v -2.360929 0.376498 -1.851138
v -2.359648 0.391878 -1.849857
v -2.318503 0.376498 -1.893564
v -3.020752 0.493516 -2.595814
v -3.019470 0.508895 -2.594532
v -2.317221 0.391878 -1.892283
v -2.581984 0.508895 -3.032019
v -2.594532 0.508895 -3.019471
v -1.892283 0.391878 -2.317222
v -1.879735 0.391878 -2.329769
v -2.351406 0.421965 -1.853085
v -3.053655 0.538982 -2.555335
v -3.046842 0.538982 -2.562147
v -2.344594 0.421965 -1.859897
v -2.347100 0.391878 -1.862404
v -3.049349 0.508895 -2.564654
v -3.061897 0.508895 -2.552106
v -2.359648 0.391878 -1.849857
v -1.877228 0.421965 -2.327263
v -1.884041 0.421965 -2.320450
v -2.586290 0.538982 -3.022700
v -2.579477 0.538982 -3.029512
v -1.893564 0.376498 -2.318503
v -1.892283 0.391878 -2.317222
v -2.594532 0.508895 -3.019471
v -2.595813 0.493516 -3.020752
v -2.005022 0.342150 -2.412128
v -1.998403 0.421600 -2.405509
v -1.977190 0.421600 -2.426722
v -1.983809 0.342150 -2.433342
v -1.983955 0.338639 -2.391061
v -1.977335 0.418089 -2.384441
v -1.998403 0.421600 -2.405509
v -2.005022 0.342150 -2.412128
v -1.962742 0.338639 -2.412274
v -1.956122 0.418089 -2.405654
v -1.977335 0.418089 -2.384441
v -1.983955 0.338639 -2.391061
v -1.983809 0.342150 -2.433342
v -1.977190 0.421600 -2.426722
v -1.956122 0.418089 -2.405654
v -1.962742 0.338639 -2.412274
v -1.998403 0.421600 -2.405509
v -1.977335 0.418089 -2.384441
v -1.956122 0.418089 -2.405654
v -1.977190 0.421600 -2.426722
v -2.426722 0.421600 -1.977190
v -2.405509 0.421600 -1.998403
v -2.412128 0.342150 -2.005023
v -2.433341 0.342150 -1.983809
v -2.405509 0.421600 -1.998403
v -2.384441 0.418089 -1.977336
v -2.391060 0.338639 -1.983955
v -2.412128 0.342150 -2.005023
v -2.384441 0.418089 -1.977336
v -2.405654 0.418089 -1.956122
v -2.412274 0.338639 -1.962742
v -2.391060 0.338639 -1.983955
v -2.405654 0.418089 -1.956122
v -2.426722 0.421600 -1.977190
v -2.433341 0.342150 -1.983809
v -2.412274 0.338639 -1.962742
v -2.405654 0.418089 -1.956122
v -2.384441 0.418089 -1.977336
v -2.405509 0.421600 -1.998403
v -2.426722 0.421600 -1.977190
v -2.579930 0.343897 -1.915249
v -2.574965 0.403485 -1.910285
v -1.910285 0.403485 -2.574965
v -1.915249 0.343897 -2.579930
v -2.481615 0.327514 -1.816935
v -2.476650 0.387102 -1.811970
v -2.574965 0.403485 -1.910285
v -2.579930 0.343897 -1.915249
v -1.816934 0.327514 -2.481615
v -1.811970 0.387102 -2.476650
v -2.476650 0.387102 -1.811970
v -2.481615 0.327514 -1.816935
v -1.915249 0.343897 -2.579930
v -1.910285 0.403485 -2.574965
v -1.811970 0.387102 -2.476650
v -1.816934 0.327514 -2.481615
v -2.574965 0.403485 -1.910285
v -2.476650 0.387102 -1.811970
v -1.811970 0.387102 -2.476650
v -1.910285 0.403485 -2.574965
v -2.481615 0.327514 -1.816935
v -2.579930 0.343897 -1.915249
v -1.915249 0.343897 -2.579930
v -1.816934 0.327514 -2.481615
v -2.319273 0.436086 -1.882864
v -3.021522 0.553103 -2.585114
v -3.052478 0.553103 -2.554158
v -2.350229 0.436086 -1.851909
v -1.851138 0.376498 -2.360929
v -1.893564 0.376498 -2.318503
v -2.595813 0.493516 -3.020752
v -2.553387 0.493516 -3.063179
v -2.585113 0.553103 -3.021523
v -1.882864 0.436086 -2.319274
v -1.851908 0.436086 -2.350230
v -2.554157 0.553103 -3.052479
v -2.344594 0.421965 -1.859897
v -3.046842 0.538982 -2.562147
v -3.049349 0.508895 -2.564654
v -2.347100 0.391878 -1.862404
v -2.180584 0.371404 -2.587690
v -2.173965 0.450854 -2.581071
v -2.152752 0.450854 -2.602284
v -2.159371 0.371404 -2.608903
v -2.159517 0.367893 -2.566623
v -2.152898 0.447344 -2.560004
v -2.173965 0.450854 -2.581071
v -2.180584 0.371404 -2.587690
v -2.138304 0.367893 -2.587836
v -2.131684 0.447344 -2.581217
v -2.152898 0.447344 -2.560004
v -2.159517 0.367893 -2.566623
v -2.159371 0.371404 -2.608903
v -2.152752 0.450854 -2.602284
v -2.131684 0.447344 -2.581217
v -2.138304 0.367893 -2.587836
v -2.173965 0.450854 -2.581071
v -2.152898 0.447344 -2.560004
v -2.131684 0.447344 -2.581217
v -2.152752 0.450854 -2.602284
v -2.602284 0.450854 -2.152752
v -2.581071 0.450854 -2.173966
v -2.587690 0.371404 -2.180585
v -2.608903 0.371404 -2.159372
v -2.581071 0.450854 -2.173966
v -2.560003 0.447344 -2.152898
v -2.566623 0.367893 -2.159518
v -2.587690 0.371404 -2.180585
v -2.560003 0.447344 -2.152898
v -2.581216 0.447344 -2.131685
v -2.587836 0.367893 -2.138304
v -2.566623 0.367893 -2.159518
v -2.581216 0.447344 -2.131685
v -2.602284 0.450854 -2.152752
v -2.608903 0.371404 -2.159372
v -2.587836 0.367893 -2.138304
v -2.581216 0.447344 -2.131685
v -2.560003 0.447344 -2.152898
v -2.581071 0.450854 -2.173966
v -2.602284 0.450854 -2.152752
v -2.755492 0.373151 -2.090812
v -2.750527 0.432739 -2.085847
v -2.085846 0.432739 -2.750527
v -2.090811 0.373151 -2.755492
v -2.657177 0.356769 -1.992497
v -2.652212 0.416357 -1.987532
v -2.750527 0.432739 -2.085847
v -2.755492 0.373151 -2.090812
v -1.992497 0.356769 -2.657177
v -1.987532 0.416357 -2.652213
v -2.652212 0.416357 -1.987532
v -2.657177 0.356769 -1.992497
v -2.090811 0.373151 -2.755492
v -2.085846 0.432739 -2.750527
v -1.987532 0.416357 -2.652213
v -1.992497 0.356769 -2.657177
v -2.750527 0.432739 -2.085847
v -2.652212 0.416357 -1.987532
v -1.987532 0.416357 -2.652213
v -2.085846 0.432739 -2.750527
v -2.657177 0.356769 -1.992497
v -2.755492 0.373151 -2.090812
v -2.090811 0.373151 -2.755492
v -1.992497 0.356769 -2.657177
v -2.360929 0.376498 -1.851138
v -3.063178 0.493516 -2.553387
v -3.020752 0.493516 -2.595814
v -2.318503 0.376498 -1.893564
v -2.327262 0.421965 -1.877229
v -3.029511 0.538982 -2.579478
v -3.022699 0.538982 -2.586290
v -2.320450 0.421965 -1.884041
v -2.350229 0.436086 -1.851909
v -3.052478 0.553103 -2.554158
v -3.053655 0.538982 -2.555335
v -2.351406 0.421965 -1.853085
v -1.882864 0.436086 -2.319274
v -2.585113 0.553103 -3.021523
v -2.586290 0.538982 -3.022700
v -1.884041 0.421965 -2.320450
v -1.877228 0.421965 -2.327263
v -2.579477 0.538982 -3.029512
v -2.581984 0.508895 -3.032019
v -1.879735 0.391878 -2.329769
v -3.021522 0.553103 -2.585114
v -2.319273 0.436086 -1.882864
v -2.320450 0.421965 -1.884041
v -3.022699 0.538982 -2.586290
v -2.356147 0.400658 -2.763252
v -2.349527 0.480109 -2.756633
v -2.328314 0.480109 -2.777846
v -2.334933 0.400658 -2.784466
v -2.335079 0.397148 -2.742185
v -2.328460 0.476598 -2.735566
v -2.349527 0.480109 -2.756633
v -2.356147 0.400658 -2.763252
v -2.313866 0.397148 -2.763398
v -2.307246 0.476598 -2.756779
v -2.328460 0.476598 -2.735566
v -2.335079 0.397148 -2.742185
v -2.334933 0.400658 -2.784466
v -2.328314 0.480109 -2.777846
v -2.307246 0.476598 -2.756779
v -2.313866 0.397148 -2.763398
v -2.349527 0.480109 -2.756633
v -2.328460 0.476598 -2.735566
v -2.307246 0.476598 -2.756779
v -2.328314 0.480109 -2.777846
v -2.777846 0.480109 -2.328315
v -2.756633 0.480109 -2.349528
v -2.763252 0.400658 -2.356147
v -2.784466 0.400658 -2.334934
v -2.756633 0.480109 -2.349528
v -2.735565 0.476598 -2.328460
v -2.742185 0.397148 -2.335080
v -2.763252 0.400658 -2.356147
v -2.735565 0.476598 -2.328460
v -2.756778 0.476598 -2.307247
v -2.763398 0.397148 -2.313867
v -2.742185 0.397148 -2.335080
v -2.756778 0.476598 -2.307247
v -2.777846 0.480109 -2.328315
v -2.784466 0.400658 -2.334934
v -2.763398 0.397148 -2.313867
v -2.756778 0.476598 -2.307247
v -2.735565 0.476598 -2.328460
v -2.756633 0.480109 -2.349528
v -2.777846 0.480109 -2.328315
v -2.931054 0.402406 -2.266374
v -2.926089 0.461993 -2.261410
v -2.261409 0.461993 -2.926090
v -2.266373 0.402406 -2.931054
v -2.832739 0.386023 -2.168059
v -2.827775 0.445611 -2.163095
v -2.926089 0.461993 -2.261410
v -2.931054 0.402406 -2.266374
v -2.168059 0.386023 -2.832739
v -2.163094 0.445611 -2.827775
v -2.827775 0.445611 -2.163095
v -2.832739 0.386023 -2.168059
v -2.266373 0.402406 -2.931054
v -2.261409 0.461993 -2.926090
v -2.163094 0.445611 -2.827775
v -2.168059 0.386023 -2.832739
v -2.926089 0.461993 -2.261410
v -2.827775 0.445611 -2.163095
v -2.163094 0.445611 -2.827775
v -2.261409 0.461993 -2.926090
v -2.832739 0.386023 -2.168059
v -2.931054 0.402406 -2.266374
v -2.266373 0.402406 -2.931054
v -2.168059 0.386023 -2.832739
v -1.859897 0.421965 -2.344594
v -1.862404 0.391878 -2.347100
v -2.564653 0.508895 -3.049350
v -2.562146 0.538982 -3.046843
v -2.317221 0.391878 -1.892283
v -3.019470 0.508895 -2.594532
v -3.032018 0.508895 -2.581985
v -2.329769 0.391878 -1.879735
v -2.327262 0.421965 -1.877229
v -2.329769 0.391878 -1.879735
v -3.032018 0.508895 -2.581985
v -3.029511 0.538982 -2.579478
v -1.851138 0.376498 -2.360929
v -2.553387 0.493516 -3.063179
v -2.552105 0.508895 -3.061898
v -1.849856 0.391878 -2.359648
v -1.851908 0.436086 -2.350230
v -1.853085 0.421965 -2.351406
v -2.555334 0.538982 -3.053655
v -2.554157 0.553103 -3.052479
v -1.862404 0.391878 -2.347100
v -1.849856 0.391878 -2.359648
v -2.552105 0.508895 -3.061898
v -2.564653 0.508895 -3.049350
v -2.531709 0.429913 -2.938815
v -2.525090 0.509363 -2.932196
v -2.503876 0.509363 -2.953409
v -2.510496 0.429913 -2.960028
v -2.510641 0.426402 -2.917747
v -2.504022 0.505853 -2.911128
v -2.525090 0.509363 -2.932196
v -2.531709 0.429913 -2.938815
v -2.489428 0.426402 -2.938961
v -2.482809 0.505853 -2.932341
v -2.504022 0.505853 -2.911128
v -2.510641 0.426402 -2.917747
v -2.510496 0.429913 -2.960028
v -2.503876 0.509363 -2.953409
v -2.482809 0.505853 -2.932341
v -2.489428 0.426402 -2.938961
v -2.525090 0.509363 -2.932196
v -2.504022 0.505853 -2.911128
v -2.482809 0.505853 -2.932341
v -2.503876 0.509363 -2.953409
v -2.953408 0.509363 -2.503877
v -2.932195 0.509363 -2.525090
v -2.938814 0.429913 -2.531710
v -2.960028 0.429913 -2.510496
v -2.932195 0.509363 -2.525090
v -2.911127 0.505853 -2.504023
v -2.917747 0.426402 -2.510642
v -2.938814 0.429913 -2.531710
v -2.911127 0.505853 -2.504023
v -2.932340 0.505853 -2.482809
v -2.938960 0.426402 -2.489429
v -2.917747 0.426402 -2.510642
v -2.932340 0.505853 -2.482809
v -2.953408 0.509363 -2.503877
v -2.960028 0.429913 -2.510496
v -2.938960 0.426402 -2.489429
v -2.932340 0.505853 -2.482809
v -2.911127 0.505853 -2.504023
v -2.932195 0.509363 -2.525090
v -2.953408 0.509363 -2.503877
v -3.106616 0.431660 -2.441936
v -3.101651 0.491248 -2.436972
v -2.436971 0.491248 -3.101652
v -2.441936 0.431660 -3.106617
v -3.008301 0.415278 -2.343622
v -3.003337 0.474865 -2.338657
v -3.101651 0.491248 -2.436972
v -3.106616 0.431660 -2.441936
v -2.343621 0.415278 -3.008302
v -2.338656 0.474865 -3.003337
v -3.003337 0.474865 -2.338657
v -3.008301 0.415278 -2.343622
v -2.441936 0.431660 -3.106617
v -2.436971 0.491248 -3.101652
v -2.338656 0.474865 -3.003337
v -2.343621 0.415278 -3.008302
v -3.101651 0.491248 -2.436972
v -3.003337 0.474865 -2.338657
v -2.338656 0.474865 -3.003337
v -2.436971 0.491248 -3.101652
v -3.008301 0.415278 -2.343622
v -3.106616 0.431660 -2.441936
v -2.441936 0.431660 -3.106617
v -2.343621 0.415278 -3.008302
v -2.553387 0.493516 -3.063179
v -2.745104 0.525462 -3.254896
v -2.745104 0.541055 -3.254896
v -2.552105 0.508895 -3.061898
v -3.021522 0.553103 -2.585114
v -3.218204 0.585877 -2.781796
v -3.249160 0.585877 -2.750840
v -3.052478 0.553103 -2.554158
v -2.757652 0.571559 -3.242348
v -2.750839 0.571559 -3.249161
v -2.555334 0.538982 -3.053655
v -2.562146 0.538982 -3.046843
v -3.254895 0.541055 -2.745105
v -3.254895 0.525462 -2.745105
v -3.063178 0.493516 -2.553387
v -3.061897 0.508895 -2.552106
v -2.757652 0.541055 -3.242348
v -2.564653 0.508895 -3.049350
v -2.552105 0.508895 -3.061898
v -2.745104 0.541055 -3.254896
v -3.020752 0.493516 -2.595814
v -3.212469 0.525462 -2.787531
v -3.212469 0.541055 -2.787531
v -3.019470 0.508895 -2.594532
v -3.053655 0.538982 -2.555335
v -3.249160 0.571559 -2.750840
v -3.242347 0.571560 -2.757653
v -3.046842 0.538982 -2.562147
v -2.750839 0.585877 -3.249161
v -2.554157 0.553103 -3.052479
v -2.555334 0.538982 -3.053655
v -2.750839 0.571559 -3.249161
v -3.225017 0.571559 -2.774983
v -3.029511 0.538982 -2.579478
v -3.032018 0.508895 -2.581985
v -3.225017 0.541055 -2.774983
v -2.707271 0.459167 -3.114377
v -2.700652 0.538617 -3.107758
v -2.679438 0.538617 -3.128971
v -2.686058 0.459167 -3.135590
v -2.686203 0.455656 -3.093310
v -2.679584 0.535107 -3.086690
v -2.700652 0.538617 -3.107758
v -2.707271 0.459167 -3.114377
v -2.664990 0.455656 -3.114523
v -2.658371 0.535107 -3.107903
v -2.679584 0.535107 -3.086690
v -2.686203 0.455656 -3.093310
v -2.686058 0.459167 -3.135590
v -2.679438 0.538617 -3.128971
v -2.658371 0.535107 -3.107903
v -2.664990 0.455656 -3.114523
v -2.700652 0.538617 -3.107758
v -2.679584 0.535107 -3.086690
v -2.658371 0.535107 -3.107903
v -2.679438 0.538617 -3.128971
v -3.128970 0.538617 -2.679439
v -3.107757 0.538617 -2.700652
v -3.114377 0.459167 -2.707272
v -3.135590 0.459167 -2.686059
v -3.107757 0.538617 -2.700652
v -3.086689 0.535107 -2.679585
v -3.093309 0.455656 -2.686204
v -3.114377 0.459167 -2.707272
v -3.086689 0.535107 -2.679585
v -3.107903 0.535107 -2.658371
v -3.114522 0.455656 -2.664991
v -3.093309 0.455656 -2.686204
v -3.107903 0.535107 -2.658371
v -3.128970 0.538617 -2.679439
v -3.135590 0.459167 -2.686059
v -3.114522 0.455656 -2.664991
v -3.107903 0.535107 -2.658371
v -3.086689 0.535107 -2.679585
v -3.107757 0.538617 -2.700652
v -3.128970 0.538617 -2.679439
v -3.282178 0.460914 -2.617499
v -3.277214 0.520502 -2.612534
v -2.612533 0.520502 -3.277214
v -2.617498 0.460914 -3.282179
v -3.183863 0.444532 -2.519184
v -3.178899 0.504120 -2.514219
v -3.277214 0.520502 -2.612534
v -3.282178 0.460914 -2.617499
v -2.519183 0.444532 -3.183864
v -2.514218 0.504120 -3.178900
v -3.178899 0.504120 -2.514219
v -3.183863 0.444532 -2.519184
v -2.617498 0.460914 -3.282179
v -2.612533 0.520502 -3.277214
v -2.514218 0.504120 -3.178900
v -2.519183 0.444532 -3.183864
v -3.277214 0.520502 -2.612534
v -3.178899 0.504120 -2.514219
v -2.514218 0.504120 -3.178900
v -2.612533 0.520502 -3.277214
v -3.183863 0.444532 -2.519184
v -3.282178 0.460914 -2.617499
v -2.617498 0.460914 -3.282179
v -2.519183 0.444532 -3.183864
v -3.046842 0.538982 -2.562147
v -3.242347 0.571560 -2.757653
v -3.242348 0.541055 -2.757652
v -3.049349 0.508895 -2.564654
v -2.745104 0.525462 -3.254896
v -2.553387 0.493516 -3.063179
v -2.595813 0.493516 -3.020752
v -2.787530 0.525462 -3.212470
v -2.787530 0.525462 -3.212470
v -2.595813 0.493516 -3.020752
v -2.594532 0.508895 -3.019471
v -2.787530 0.541055 -3.212470
v -3.063178 0.493516 -2.553387
v -3.254895 0.525462 -2.745105
v -3.212469 0.525462 -2.787531
v -3.020752 0.493516 -2.595814
v -3.029511 0.538982 -2.579478
v -3.225017 0.571559 -2.774983
v -3.218204 0.571559 -2.781796
v -3.022699 0.538982 -2.586290
v -3.052478 0.553103 -2.554158
v -3.249160 0.585877 -2.750840
v -3.249160 0.571559 -2.750840
v -3.053655 0.538982 -2.555335
v -2.585113 0.553103 -3.021523
v -2.781795 0.585877 -3.218205
v -2.781795 0.571559 -3.218205
v -2.586290 0.538982 -3.022700
v -2.579477 0.538982 -3.029512
v -2.774982 0.571559 -3.225018
v -2.774983 0.541055 -3.225017
v -2.581984 0.508895 -3.032019
v -2.781795 0.585877 -3.218205
v -2.585113 0.553103 -3.021523
v -2.554157 0.553103 -3.052479
v -2.750839 0.585877 -3.249161
v -3.218204 0.585877 -2.781796
v -3.021522 0.553103 -2.585114
v -3.022699 0.538982 -2.586290
v -3.218204 0.571559 -2.781796
v -3.049349 0.508895 -2.564654
v -3.242348 0.541055 -2.757652
v -3.254895 0.541055 -2.745105
v -3.061897 0.508895 -2.552106
v -3.019470 0.508895 -2.594532
v -3.212469 0.541055 -2.787531
v -3.225017 0.541055 -2.774983
v -3.032018 0.508895 -2.581985
v -2.757652 0.541055 -3.242348
v -2.757652 0.571559 -3.242348
v -2.562146 0.538982 -3.046843
v -2.564653 0.508895 -3.049350
v -2.774983 0.541055 -3.225017
v -2.787530 0.541055 -3.212470
v -2.594532 0.508895 -3.019471
v -2.581984 0.508895 -3.032019
v -2.774982 0.571559 -3.225018
v -2.579477 0.538982 -3.029512
v -2.586290 0.538982 -3.022700
v -2.781795 0.571559 -3.218205
v -3.254895 0.525462 -2.745105
v -3.254895 0.541055 -2.745105
v -3.212469 0.541055 -2.787531
v -3.212469 0.525462 -2.787531
v -3.242348 0.541055 -2.757652
v -3.242347 0.571559 -2.757653
v -3.225017 0.571559 -2.774983
v -3.225017 0.541055 -2.774983
v -3.249160 0.571559 -2.750840
v -3.249160 0.585877 -2.750840
v -3.218204 0.585877 -2.781796
v -3.218204 0.571559 -2.781796
v -2.787530 0.525462 -3.212470
v -2.787530 0.541055 -3.212470
v -2.745104 0.541055 -3.254896
v -2.745104 0.525462 -3.254896
v -2.774983 0.541055 -3.225017
v -2.774982 0.571559 -3.225018
v -2.757652 0.571559 -3.242348
v -2.757652 0.541055 -3.242348
v -2.781795 0.571559 -3.218205
v -2.781795 0.585877 -3.218205
v -2.750839 0.585877 -3.249161
v -2.750839 0.571559 -3.249161
vn 0.7071 -0.0016 0.7071
vn 0.7071 -0.0024 0.7071
vn 0.7071 -0.0017 0.7071
vn 0.7071 -0.0000 0.7071
vn 0.7071 -0.0000 -0.7071
vn 0.0818 0.9933 0.0818
vn 0.0832 0.9930 0.0832
vn -0.0827 -0.9931 -0.0827
vn -0.7071 -0.0000 0.7071
vn -0.0825 -0.9932 -0.0825
vn -0.0819 -0.9933 -0.0819
vn 0.0826 0.9932 0.0826
vn 0.0822 0.9932 0.0822
vn -0.7022 0.1170 -0.7022
vn 0.7022 -0.1170 0.7023
vn 0.0828 0.9931 0.0828
vn -0.7022 0.1170 -0.7023
vn 0.7022 -0.1170 0.7022
vn 0.0827 0.9931 0.0827
vn 0.7023 -0.1170 0.7022
vn 0.0833 0.9930 0.0833
vn -0.7023 0.1170 -0.7022
vn -0.7071 0.0001 0.7071
vn 0.7071 -0.0001 -0.7071
vn -0.0827 -0.9931 -0.0828
vn -0.7071 -0.0000 -0.7071
vt 0.980908 0.014240
vt 0.959024 0.014240
vt 0.943180 0.014240
vt 0.943180 0.000413
vt 0.996752 0.000413
vt 0.996752 0.014240
vt 0.959024 0.041289
vt 0.980908 0.041289
vt 0.989510 0.041289
vt 0.989510 0.053985
vt 0.950422 0.053985
vt 0.950422 0.041289
vt 0.000000 0.025761
vt 0.000000 0.012881
vt 0.905875 0.012881
vt 0.905875 0.025761
vt 0.000200 0.281378
vt 0.906075 0.281378
vt 0.906075 0.297453
vt 0.000200 0.297453
vt 0.905753 0.210448
vt -0.000122 0.210448
vt -0.000122 0.156096
vt 0.905753 0.156096
vt 0.000000 0.000000
vt 0.905875 0.000000
vt 0.905875 0.089593
vt 0.905875 0.062150
vt 0.000000 0.062150
vt 0.000000 0.089593
vt 0.906075 0.312903
vt 0.906075 0.296828
vt 0.000200 0.296828
vt 0.000200 0.312903
vt 0.999050 0.183297
vt 0.999050 0.342604
vt 0.939310 0.342604
vt 0.939310 0.183297
vt 0.985655 0.132863
vt 0.985655 0.179437
vt 0.939081 0.179437
vt 0.939081 0.132863
vt 0.979692 0.781451
vt 0.979692 0.844034
vt -0.000781 0.844034
vt -0.000781 0.781451
vt 0.145247 0.656284
vt 0.145247 0.718868
vt -0.000781 0.718868
vt -0.000781 0.656284
vt 0.979692 0.718868
vt 0.302823 0.656284
vt 0.302823 0.718868
vt 0.156795 0.718868
vt 0.156795 0.656284
vt 1.000000 0.851064
vt 1.000000 1.000000
vt 0.000000 1.000000
vt 0.000000 0.851064
vt 0.998987 0.504118
vt 0.998987 0.652658
vt 0.001647 0.652658
vt 0.001647 0.504118
vt 0.000512 0.321630
vt 0.000512 0.330358
vt 0.906387 0.330358
vt 0.906387 0.321630
vt 0.906387 0.312903
vt 0.000512 0.312903
vt 0.905875 0.048121
vt 0.000000 0.048121
vt 0.000200 0.219937
vt 0.906075 0.219937
vt 0.906075 0.259595
vt 0.000200 0.259595
vt 0.000000 0.034093
vt 0.905875 0.034093
vt 0.000000 0.121202
vt 0.000000 0.093759
vt 0.905875 0.093759
vt 0.905875 0.121202
vt 0.658567 0.048121
vt 0.656914 0.062150
vt 0.253912 0.219937
vt 0.253912 0.259595
vt 0.654192 0.312903
vt 0.654192 0.321630
vt 0.658567 0.048121
vt 0.249161 0.281378
vt 0.249161 0.297453
vt 0.247308 0.034093
vt 0.248962 0.048121
vt 0.654193 0.321630
vt 0.652163 0.012881
vt 0.653680 0.000000
vt 0.252195 0.121202
vt 0.248961 0.093759
vt 0.653680 0.089593
vt 0.658445 0.210448
vt 0.658445 0.156096
vt 0.247308 0.034093
vt 0.248961 0.048121
vt 0.658445 0.210448
vt 0.658445 0.156096
vt 0.654192 0.330358
vt 0.653681 0.000000
vt 0.253712 0.025761
vt 0.252195 0.012881
vt 0.248961 0.093759
vt 0.252195 0.012881
vt 0.249161 0.281378
vt 0.249162 0.296828
vt 0.249161 0.312903
vt 0.656914 0.062150
vt 0.249161 0.312903
vt 0.249161 0.296828
vt 0.958243 0.076013
vt 0.942399 0.076013
vt 0.942399 0.062186
vt 0.995971 0.062186
vt 0.995971 0.076013
vt 0.980127 0.076013
vt 0.958243 0.103062
vt 0.980127 0.103062
vt 0.988729 0.103062
vt 0.988729 0.115757
vt 0.949641 0.115757
vt 0.949641 0.103062
s 1
usemtl Material.004
f 1/1/1 2/2/1 3/3/2 4/4/2
f 5/4/2 6/5/2 7/6/2 8/1/3
f 9/7/4 10/8/4 11/9/4 12/10/4
f 13/10/4 14/11/4 15/12/4 16/7/4
f 17/2/1 18/1/1 19/8/4 20/7/4
f 21/13/5 22/14/5 23/15/5 24/16/5
f 25/17/6 26/18/7 27/19/7 28/20/6
f 29/21/8 30/22/8 31/23/8 32/24/8
f 33/15/9 34/14/9 35/25/9 36/26/9
f 37/5/4 38/4/4 39/1/4 40/6/4
f 41/3/4 42/2/4 43/1/4 44/4/4
f 45/12/4 46/11/4 47/8/4 48/7/4
f 49/10/4 50/9/4 51/8/4 52/11/4
f 53/7/4 54/8/4 55/1/4 56/2/4
f 57/13/9 58/16/9 59/15/9 60/14/9
f 61/27/5 62/28/5 63/29/5 64/30/5
f 65/23/10 66/22/10 67/21/11 68/24/11
f 69/31/12 70/32/12 71/33/13 72/34/13
f 73/35/14 74/36/14 75/37/14 76/38/14
f 77/35/9 78/36/9 79/37/9 80/38/9
f 81/35/15 82/36/15 83/37/15 84/38/15
f 85/35/5 86/36/5 87/37/5 88/38/5
f 89/39/16 90/40/16 91/41/16 92/42/16
f 93/37/17 94/36/17 95/35/17 96/38/17
f 97/37/5 98/36/5 99/35/5 100/38/5
f 101/37/15 102/36/15 103/35/15 104/38/15
f 105/37/9 106/36/9 107/35/9 108/38/9
f 109/41/16 110/40/16 111/39/16 112/42/16
f 113/43/14 114/44/14 115/45/14 116/46/14
f 117/47/9 118/48/9 119/49/9 120/50/9
f 121/51/18 122/43/18 123/46/18 124/49/18
f 125/52/5 126/53/5 127/54/5 128/55/5
f 129/56/19 130/57/19 131/58/19 132/59/19
f 133/60/8 134/61/8 135/62/8 136/63/8
f 137/64/8 138/65/8 139/66/8 140/67/8
f 141/67/8 142/68/8 143/69/8 144/64/8
f 145/35/14 146/36/14 147/37/14 148/38/14
f 149/35/9 150/36/9 151/37/9 152/38/9
f 153/35/20 154/36/20 155/37/20 156/38/20
f 157/35/5 158/36/5 159/37/5 160/38/5
f 161/39/16 162/40/16 163/41/16 164/42/16
f 165/37/14 166/36/14 167/35/14 168/38/14
f 169/37/5 170/36/5 171/35/5 172/38/5
f 173/37/20 174/36/20 175/35/20 176/38/20
f 177/37/9 178/36/9 179/35/9 180/38/9
f 181/41/16 182/40/16 183/39/16 184/42/16
f 185/43/14 186/44/14 187/45/14 188/46/14
f 189/47/9 190/48/9 191/49/9 192/50/9
f 193/51/18 194/43/18 195/46/18 196/49/18
f 197/52/5 198/53/5 199/54/5 200/55/5
f 201/56/19 202/57/19 203/58/19 204/59/19
f 205/60/8 206/61/8 207/62/8 208/63/8
f 209/70/9 210/28/9 211/29/9 212/71/9
f 213/72/16 214/73/16 215/74/16 216/75/16
f 217/76/5 218/77/5 219/70/5 220/71/5
f 221/72/16 222/75/16 223/74/16 224/73/16
f 225/17/13 226/20/13 227/19/12 228/18/12
f 229/70/5 230/71/5 231/29/5 232/28/5
f 233/35/14 234/36/14 235/37/14 236/38/14
f 237/35/9 238/36/9 239/37/9 240/38/9
f 241/35/20 242/36/20 243/37/20 244/38/20
f 245/35/5 246/36/5 247/37/5 248/38/5
f 249/39/19 250/40/19 251/41/19 252/42/19
f 253/37/14 254/36/14 255/35/14 256/38/14
f 257/37/5 258/36/5 259/35/5 260/38/5
f 261/37/15 262/36/15 263/35/15 264/38/15
f 265/37/9 266/36/9 267/35/9 268/38/9
f 269/41/19 270/40/19 271/39/19 272/42/19
f 273/43/14 274/44/14 275/45/14 276/46/14
f 277/47/9 278/48/9 279/49/9 280/50/9
f 281/51/18 282/43/18 283/46/18 284/49/18
f 285/52/5 286/53/5 287/54/5 288/55/5
f 289/56/19 290/57/19 291/58/19 292/59/19
f 293/60/8 294/61/8 295/62/8 296/63/8
f 297/33/6 298/32/21 299/31/21 300/34/6
f 301/27/9 302/30/9 303/29/9 304/28/9
f 305/67/8 306/64/8 307/69/8 308/68/8
f 309/78/5 310/79/5 311/80/5 312/81/5
f 313/66/8 314/65/8 315/64/8 316/67/8
f 317/76/9 318/71/9 319/70/9 320/77/9
f 321/15/5 322/26/5 323/25/5 324/14/5
f 325/78/9 326/81/9 327/80/9 328/79/9
f 329/35/22 330/36/22 331/37/22 332/38/22
f 333/35/9 334/36/9 335/37/9 336/38/9
f 337/35/18 338/36/18 339/37/18 340/38/18
f 341/35/5 342/36/5 343/37/5 344/38/5
f 345/39/16 346/40/16 347/41/16 348/42/16
f 349/37/17 350/36/17 351/35/17 352/38/17
f 353/37/5 354/36/5 355/35/5 356/38/5
f 357/37/20 358/36/20 359/35/20 360/38/20
f 361/37/9 362/36/9 363/35/9 364/38/9
f 365/41/16 366/40/16 367/39/16 368/42/16
f 369/43/14 370/44/14 371/45/14 372/46/14
f 373/47/9 374/48/9 375/49/9 376/50/9
f 377/51/18 378/43/18 379/46/18 380/49/18
f 381/52/5 382/53/5 383/54/5 384/55/5
f 385/56/19 386/57/19 387/58/19 388/59/19
f 389/60/8 390/61/8 391/62/8 392/63/8
f 393/70/5 394/71/5 395/29/5 396/28/5
f 397/72/19 398/73/19 399/74/19 400/75/19
f 401/69/8 402/64/8 403/67/8 404/68/8
f 405/29/9 406/71/9 407/70/9 408/28/9
f 409/78/9 410/81/9 411/80/9 412/79/9
f 413/67/8 414/64/8 415/69/8 416/68/8
f 417/17/19 418/20/19 419/19/19 420/18/19
f 421/76/9 422/71/9 423/70/9 424/77/9
f 425/21/8 426/22/8 427/23/8 428/24/8
f 429/35/17 430/36/17 431/37/17 432/38/17
f 433/35/9 434/36/9 435/37/9 436/38/9
f 437/35/15 438/36/15 439/37/15 440/38/15
f 441/35/5 442/36/5 443/37/5 444/38/5
f 445/39/16 446/40/16 447/41/16 448/42/16
f 449/37/14 450/36/14 451/35/14 452/38/14
f 453/37/5 454/36/5 455/35/5 456/38/5
f 457/37/18 458/36/18 459/35/18 460/38/18
f 461/37/9 462/36/9 463/35/9 464/38/9
f 465/41/16 466/40/16 467/39/16 468/42/16
f 469/43/14 470/44/14 471/45/14 472/46/14
f 473/47/9 474/48/9 475/49/9 476/50/9
f 477/51/18 478/43/18 479/46/18 480/49/18
f 481/52/5 482/53/5 483/54/5 484/55/5
f 485/56/19 486/57/19 487/58/19 488/59/19
f 489/60/8 490/61/8 491/62/8 492/63/8
f 493/31/19 494/32/19 495/33/19 496/34/19
f 497/21/8 498/24/8 499/23/8 500/22/8
f 501/66/8 502/67/8 503/64/8 504/65/8
f 505/29/5 506/30/5 507/27/5 508/28/5
f 509/35/22 510/36/22 511/37/22 512/38/22
f 513/35/9 514/36/9 515/37/9 516/38/9
f 517/35/18 518/36/18 519/37/18 520/38/18
f 521/35/5 522/36/5 523/37/5 524/38/5
f 525/39/19 526/40/19 527/41/19 528/42/19
f 529/37/14 530/36/14 531/35/14 532/38/14
f 533/37/5 534/36/5 535/35/5 536/38/5
f 537/37/15 538/36/15 539/35/15 540/38/15
f 541/37/9 542/36/9 543/35/9 544/38/9
f 545/41/19 546/40/19 547/39/19 548/42/19
f 549/43/14 550/44/14 551/45/14 552/46/14
f 553/47/9 554/48/9 555/49/9 556/50/9
f 557/51/18 558/43/18 559/46/18 560/49/18
f 561/52/5 562/53/5 563/54/5 564/55/5
f 565/56/19 566/57/19 567/58/19 568/59/19
f 569/60/8 570/61/8 571/62/8 572/63/8
f 573/66/8 574/65/8 575/64/8 576/67/8
f 577/15/9 578/14/9 579/25/9 580/26/9
f 581/13/9 582/16/9 583/15/9 584/14/9
f 585/76/5 586/77/5 587/70/5 588/71/5
f 589/72/19 590/75/19 591/74/19 592/73/19
f 593/16/5 594/13/5 595/14/5 596/15/5
f 597/17/19 598/18/19 599/19/19 600/20/19
f 601/35/17 602/36/17 603/37/17 604/38/17
f 605/35/9 606/36/9 607/37/9 608/38/9
f 609/35/18 610/36/18 611/37/18 612/38/18
f 613/35/5 614/36/5 615/37/5 616/38/5
f 617/39/16 618/40/16 619/41/16 620/42/16
f 621/37/22 622/36/22 623/35/22 624/38/22
f 625/37/5 626/36/5 627/35/5 628/38/5
f 629/37/18 630/36/18 631/35/18 632/38/18
f 633/37/9 634/36/9 635/35/9 636/38/9
f 637/41/16 638/40/16 639/39/16 640/42/16
f 641/43/14 642/44/14 643/45/14 644/46/14
f 645/47/9 646/48/9 647/49/9 648/50/9
f 649/51/18 650/43/18 651/46/18 652/49/18
f 653/52/5 654/53/5 655/54/5 656/55/5
f 657/56/19 658/57/19 659/58/19 660/59/19
f 661/60/8 662/61/8 663/62/8 664/63/8
f 665/33/19 666/32/19 667/31/19 668/34/19
f 669/27/9 670/30/9 671/29/9 672/28/9
f 673/81/5 674/78/5 675/79/5 676/80/5
f 677/15/5 678/26/5 679/25/5 680/14/5
f 681/35/17 682/36/17 683/37/17 684/38/17
f 685/35/9 686/36/9 687/37/9 688/38/9
f 689/35/20 690/36/20 691/37/20 692/38/20
f 693/35/5 694/36/5 695/37/5 696/38/5
f 697/39/19 698/40/19 699/41/19 700/42/19
f 701/37/17 702/36/17 703/35/17 704/38/17
f 705/37/5 706/36/5 707/35/5 708/38/5
f 709/37/15 710/36/15 711/35/15 712/38/15
f 713/37/9 714/36/9 715/35/9 716/38/9
f 717/41/19 718/40/19 719/39/19 720/42/19
f 721/43/14 722/44/14 723/45/14 724/46/14
f 725/47/9 726/48/9 727/49/9 728/50/9
f 729/51/18 730/43/18 731/46/18 732/49/18
f 733/52/5 734/53/5 735/54/5 736/55/5
f 737/56/19 738/57/19 739/58/19 740/59/19
f 741/60/8 742/61/8 743/62/8 744/63/8
f 745/13/23 746/16/23 747/15/23 748/14/23
f 749/21/8 750/22/8 751/23/8 752/24/8
f 753/72/19 754/73/19 755/74/19 756/75/19
f 757/76/5 758/77/5 759/70/5 760/71/5
f 761/29/9 762/71/9 763/70/9 764/28/9
f 765/78/9 766/81/9 767/80/9 768/79/9
f 769/67/8 770/64/8 771/69/8 772/68/8
f 773/27/5 774/28/5 775/29/5 776/30/5
f 777/15/5 778/26/5 779/25/5 780/14/5
f 781/33/19 782/32/19 783/31/19 784/34/19
f 785/35/17 786/36/17 787/37/17 788/38/17
f 789/35/9 790/36/9 791/37/9 792/38/9
f 793/35/15 794/36/15 795/37/15 796/38/15
f 797/35/5 798/36/5 799/37/5 800/38/5
f 801/39/19 802/40/19 803/41/19 804/42/19
f 805/37/17 806/36/17 807/35/17 808/38/17
f 809/37/5 810/36/5 811/35/5 812/38/5
f 813/37/20 814/36/20 815/35/20 816/38/20
f 817/37/9 818/36/9 819/35/9 820/38/9
f 821/41/19 822/40/19 823/39/19 824/42/19
f 825/43/14 826/44/14 827/45/14 828/46/14
f 829/47/9 830/48/9 831/49/9 832/50/9
f 833/51/18 834/43/18 835/46/18 836/49/18
f 837/52/5 838/53/5 839/54/5 840/55/5
f 841/56/19 842/57/19 843/58/19 844/59/19
f 845/60/8 846/61/8 847/62/8 848/63/8
f 849/17/19 850/20/19 851/19/19 852/18/19
f 853/27/9 854/30/9 855/29/9 856/28/9
f 857/76/9 858/71/9 859/70/9 860/77/9
f 861/35/14 862/36/14 863/37/14 864/38/14
f 865/35/9 866/36/9 867/37/9 868/38/9
f 869/35/20 870/36/20 871/37/20 872/38/20
f 873/35/5 874/36/5 875/37/5 876/38/5
f 877/39/16 878/40/16 879/41/16 880/42/16
f 881/37/17 882/36/17 883/35/17 884/38/17
f 885/37/5 886/36/5 887/35/5 888/38/5
f 889/37/15 890/36/15 891/35/15 892/38/15
f 893/37/9 894/36/9 895/35/9 896/38/9
f 897/41/16 898/40/16 899/39/16 900/42/16
f 901/43/14 902/44/14 903/45/14 904/46/14
f 905/47/9 906/48/9 907/49/9 908/50/9
f 909/51/18 910/43/18 911/46/18 912/49/18
f 913/52/5 914/53/5 915/54/5 916/55/5
f 917/56/19 918/57/19 919/58/19 920/59/19
f 921/60/8 922/61/8 923/62/8 924/63/8
f 925/66/8 926/65/8 927/64/8 928/67/8
f 929/70/5 930/71/5 931/29/5 932/28/5
f 933/17/19 934/18/19 935/19/19 936/20/19
f 937/72/19 938/75/19 939/74/19 940/73/19
f 941/21/8 942/24/8 943/23/8 944/22/8
f 945/15/23 946/14/23 947/25/23 948/26/23
f 949/35/14 950/36/14 951/37/14 952/38/14
f 953/35/9 954/36/9 955/37/9 956/38/9
f 957/35/15 958/36/15 959/37/15 960/38/15
f 961/35/5 962/36/5 963/37/5 964/38/5
f 965/39/19 966/40/19 967/41/19 968/42/19
f 969/37/22 970/36/22 971/35/22 972/38/22
f 973/37/5 974/36/5 975/35/5 976/38/5
f 977/37/15 978/36/15 979/35/15 980/38/15
f 981/37/9 982/36/9 983/35/9 984/38/9
f 985/41/19 986/40/19 987/39/19 988/42/19
f 989/43/14 990/44/14 991/45/14 992/46/14
f 993/47/9 994/48/9 995/49/9 996/50/9
f 997/51/18 998/43/18 999/46/18 1000/49/18
f 1001/52/5 1002/53/5 1003/54/5 1004/55/5
f 1005/56/19 1006/57/19 1007/58/19 1008/59/19
f 1009/60/8 1010/61/8 1011/62/8 1012/63/8
f 1013/69/8 1014/64/8 1015/67/8 1016/68/8
f 1017/31/19 1018/32/19 1019/33/19 1020/34/19
f 1021/78/5 1022/79/5 1023/80/5 1024/81/5
f 1025/66/8 1026/67/8 1027/64/8 1028/65/8
f 1029/16/5 1030/13/5 1031/14/5 1032/15/5
f 1033/35/17 1034/36/17 1035/37/17 1036/38/17
f 1037/35/9 1038/36/9 1039/37/9 1040/38/9
f 1041/35/18 1042/36/18 1043/37/18 1044/38/18
f 1045/35/5 1046/36/5 1047/37/5 1048/38/5
f 1049/39/16 1050/40/16 1051/41/16 1052/42/16
f 1053/37/22 1054/36/22 1055/35/22 1056/38/22
f 1057/37/5 1058/36/5 1059/35/5 1060/38/5
f 1061/37/20 1062/36/20 1063/35/20 1064/38/20
f 1065/37/9 1066/36/9 1067/35/9 1068/38/9
f 1069/41/16 1070/40/16 1071/39/16 1072/42/16
f 1073/43/14 1074/44/14 1075/45/14 1076/46/14
f 1077/47/9 1078/48/9 1079/49/9 1080/50/9
f 1081/51/18 1082/43/18 1083/46/18 1084/49/18
f 1085/52/5 1086/53/5 1087/54/5 1088/55/5
f 1089/56/19 1090/57/19 1091/58/19 1092/59/19
f 1093/60/8 1094/61/8 1095/62/8 1096/63/8
f 1097/69/8 1098/64/8 1099/67/8 1100/68/8
f 1101/29/9 1102/71/9 1103/70/9 1104/28/9
f 1105/76/5 1106/77/5 1107/70/5 1108/71/5
f 1109/31/19 1110/32/19 1111/33/19 1112/34/19
f 1113/67/8 1114/64/8 1115/69/8 1116/68/8
f 1117/17/19 1118/18/19 1119/19/19 1120/20/19
f 1121/66/8 1122/67/8 1123/64/8 1124/65/8
f 1125/76/9 1126/71/9 1127/70/9 1128/77/9
f 1129/35/22 1130/36/22 1131/37/22 1132/38/22
f 1133/35/9 1134/36/9 1135/37/9 1136/38/9
f 1137/35/18 1138/36/18 1139/37/18 1140/38/18
f 1141/35/5 1142/36/5 1143/37/5 1144/38/5
f 1145/39/16 1146/40/16 1147/41/16 1148/42/16
f 1149/37/22 1150/36/22 1151/35/22 1152/38/22
f 1153/37/5 1154/36/5 1155/35/5 1156/38/5
f 1157/37/18 1158/36/18 1159/35/18 1160/38/18
f 1161/37/9 1162/36/9 1163/35/9 1164/38/9
f 1165/41/16 1166/40/16 1167/39/16 1168/42/16
f 1169/43/14 1170/44/14 1171/45/14 1172/46/14
f 1173/47/9 1174/48/9 1175/49/9 1176/50/9
f 1177/51/18 1178/43/18 1179/46/18 1180/49/18
f 1181/52/5 1182/53/5 1183/54/5 1184/55/5
f 1185/56/19 1186/57/19 1187/58/19 1188/59/19
f 1189/60/8 1190/61/8 1191/62/8 1192/63/8
f 1193/72/19 1194/73/19 1195/74/19 1196/75/19
f 1197/21/8 1198/24/8 1199/23/8 1200/22/8
f 1201/73/19 1202/72/19 1203/75/19 1204/74/19
f 1205/27/9 1206/30/9 1207/29/9 1208/28/9
f 1209/35/17 1210/36/17 1211/37/17 1212/38/17
f 1213/35/9 1214/36/9 1215/37/9 1216/38/9
f 1217/35/15 1218/36/15 1219/37/15 1220/38/15
f 1221/35/5 1222/36/5 1223/37/5 1224/38/5
f 1225/39/19 1226/40/19 1227/41/19 1228/42/19
f 1229/37/22 1230/36/22 1231/35/22 1232/38/22
f 1233/37/5 1234/36/5 1235/35/5 1236/38/5
f 1237/37/20 1238/36/20 1239/35/20 1240/38/20
f 1241/37/9 1242/36/9 1243/35/9 1244/38/9
f 1245/41/19 1246/40/19 1247/39/19 1248/42/19
f 1249/43/14 1250/44/14 1251/45/14 1252/46/14
f 1253/47/9 1254/48/9 1255/49/9 1256/50/9
f 1257/51/18 1258/43/18 1259/46/18 1260/49/18
f 1261/52/5 1262/53/5 1263/54/5 1264/55/5
f 1265/56/19 1266/57/19 1267/58/19 1268/59/19
f 1269/60/8 1270/61/8 1271/62/8 1272/63/8
f 1273/21/8 1274/22/8 1275/23/8 1276/24/8
f 1277/66/8 1278/65/8 1279/64/8 1280/67/8
f 1281/15/9 1282/14/9 1283/25/9 1284/26/9
f 1285/13/9 1286/16/9 1287/15/9 1288/14/9
f 1289/78/9 1290/81/9 1291/80/9 1292/79/9
f 1293/16/5 1294/13/5 1295/14/5 1296/15/5
f 1297/35/14 1298/36/14 1299/37/14 1300/38/14
f 1301/35/9 1302/36/9 1303/37/9 1304/38/9
f 1305/35/15 1306/36/15 1307/37/15 1308/38/15
f 1309/35/5 1310/36/5 1311/37/5 1312/38/5
f 1313/39/16 1314/40/16 1315/41/16 1316/42/16
f 1317/37/17 1318/36/17 1319/35/17 1320/38/17
f 1321/37/5 1322/36/5 1323/35/5 1324/38/5
f 1325/37/18 1326/36/18 1327/35/18 1328/38/18
f 1329/37/9 1330/36/9 1331/35/9 1332/38/9
f 1333/41/16 1334/40/16 1335/39/16 1336/42/16
f 1337/43/14 1338/44/14 1339/45/14 1340/46/14
f 1341/47/9 1342/48/9 1343/49/9 1344/50/9
f 1345/51/18 1346/43/18 1347/46/18 1348/49/18
f 1349/52/5 1350/53/5 1351/54/5 1352/55/5
f 1353/56/19 1354/57/19 1355/58/19 1356/59/19
f 1357/60/8 1358/61/8 1359/62/8 1360/63/8
f 1361/27/5 1362/28/5 1363/29/5 1364/30/5
f 1365/33/19 1366/32/19 1367/31/19 1368/34/19
f 1369/78/5 1370/79/5 1371/80/5 1372/81/5
f 1373/70/5 1374/71/5 1375/29/5 1376/28/5
f 1377/15/24 1378/26/24 1379/25/24 1380/14/24
f 1381/17/19 1382/20/19 1383/19/19 1384/18/19
f 1385/35/17 1386/36/17 1387/37/17 1388/38/17
f 1389/35/9 1390/36/9 1391/37/9 1392/38/9
f 1393/35/20 1394/36/20 1395/37/20 1396/38/20
f 1397/35/5 1398/36/5 1399/37/5 1400/38/5
f 1401/39/19 1402/40/19 1403/41/19 1404/42/19
f 1405/37/14 1406/36/14 1407/35/14 1408/38/14
f 1409/37/5 1410/36/5 1411/35/5 1412/38/5
f 1413/37/20 1414/36/20 1415/35/20 1416/38/20
f 1417/37/9 1418/36/9 1419/35/9 1420/38/9
f 1421/41/19 1422/40/19 1423/39/19 1424/42/19
f 1425/43/14 1426/44/14 1427/45/14 1428/46/14
f 1429/47/9 1430/48/9 1431/49/9 1432/50/9
f 1433/51/18 1434/43/18 1435/46/18 1436/49/18
f 1437/52/5 1438/53/5 1439/54/5 1440/55/5
f 1441/56/19 1442/57/19 1443/58/19 1444/59/19
f 1445/60/8 1446/61/8 1447/62/8 1448/63/8
f 1449/70/5 1450/82/5 1451/83/5 1452/28/5
f 1453/72/19 1454/84/19 1455/85/19 1456/75/19
f 1457/86/8 1458/87/8 1459/67/8 1460/68/8
f 1461/83/9 1462/88/9 1463/70/9 1464/28/9
f 1465/89/19 1466/17/19 1467/20/19 1468/90/19
f 1469/76/5 1470/91/5 1471/92/5 1472/71/5
f 1473/67/8 1474/93/8 1475/86/8 1476/68/8
f 1477/94/5 1478/15/5 1479/26/5 1480/95/5
f 1481/96/5 1482/78/5 1483/79/5 1484/97/5
f 1485/35/17 1486/36/17 1487/37/17 1488/38/17
f 1489/35/9 1490/36/9 1491/37/9 1492/38/9
f 1493/35/15 1494/36/15 1495/37/15 1496/38/15
f 1497/35/5 1498/36/5 1499/37/5 1500/38/5
f 1501/39/19 1502/40/19 1503/41/19 1504/42/19
f 1505/37/14 1506/36/14 1507/35/14 1508/38/14
f 1509/37/5 1510/36/5 1511/35/5 1512/38/5
f 1513/37/18 1514/36/18 1515/35/18 1516/38/18
f 1517/37/9 1518/36/9 1519/35/9 1520/38/9
f 1521/41/19 1522/40/19 1523/39/19 1524/42/19
f 1525/43/14 1526/44/14 1527/45/14 1528/46/14
f 1529/47/9 1530/48/9 1531/49/9 1532/50/9
f 1533/51/18 1534/43/18 1535/46/18 1536/49/18
f 1537/52/5 1538/53/5 1539/54/5 1540/55/5
f 1541/56/19 1542/57/19 1543/58/19 1544/59/19
f 1545/60/8 1546/61/8 1547/62/8 1548/63/8
f 1549/27/9 1550/98/9 1551/83/9 1552/28/9
f 1553/99/8 1554/21/8 1555/24/8 1556/100/8
f 1557/101/9 1558/76/9 1559/71/9 1560/102/9
f 1561/21/8 1562/103/8 1563/104/8 1564/24/8
f 1565/66/8 1566/105/8 1567/87/8 1568/67/8
f 1569/15/9 1570/94/9 1571/106/9 1572/26/9
f 1573/13/9 1574/107/9 1575/108/9 1576/14/9
f 1577/78/9 1578/96/9 1579/109/9 1580/79/9
f 1581/84/19 1582/72/19 1583/75/19 1584/85/19
f 1585/107/24 1586/13/24 1587/14/24 1588/110/24
f 1589/17/19 1590/111/19 1591/90/19 1592/20/19
f 1593/33/19 1594/112/19 1595/113/19 1596/34/19
f 1597/114/5 1598/98/5 1599/27/5 1600/28/5
f 1601/115/19 1602/116/19 1603/33/19 1604/34/19
f 1605/105/25 1606/66/25 1607/67/25 1608/93/25
f 1616/117/26 1611/118/26 1612/119/26 1609/120/26
f 1609/120/26 1610/121/26 1613/122/26 1616/117/26
f 1615/123/26 1616/117/26 1613/122/26 1614/124/26
f 1614/124/26 1617/125/26 1618/126/26 1615/123/26
f 1619/127/26 1620/128/26 1615/123/26 1618/126/26
f 1628/122/26 1623/121/26 1624/120/26 1621/119/26
f 1621/119/26 1622/118/26 1625/117/26 1628/122/26
f 1627/124/26 1628/122/26 1625/117/26 1626/123/26
f 1626/123/26 1629/128/26 1630/127/26 1627/124/26
f 1631/126/26 1632/125/26 1627/124/26 1630/127/26
